G04 #@! TF.GenerationSoftware,KiCad,Pcbnew,(5.0.2)-1*
G04 #@! TF.CreationDate,2019-10-10T06:56:03+09:00*
G04 #@! TF.ProjectId,PM_Board,504d5f42-6f61-4726-942e-6b696361645f,rev?*
G04 #@! TF.SameCoordinates,Original*
G04 #@! TF.FileFunction,Paste,Top*
G04 #@! TF.FilePolarity,Positive*
%FSLAX46Y46*%
G04 Gerber Fmt 4.6, Leading zero omitted, Abs format (unit mm)*
G04 Created by KiCad (PCBNEW (5.0.2)-1) date 2019/10/10 6:56:03*
%MOMM*%
%LPD*%
G01*
G04 APERTURE LIST*
%ADD10C,0.100000*%
%ADD11C,1.600000*%
%ADD12C,0.590000*%
%ADD13C,2.500000*%
%ADD14C,0.875000*%
%ADD15R,1.390000X1.400000*%
%ADD16R,3.360000X4.860000*%
%ADD17R,1.100000X2.000000*%
%ADD18R,1.100000X0.800000*%
%ADD19R,1.200000X0.700000*%
%ADD20R,1.200000X1.000000*%
%ADD21R,0.800000X1.000000*%
%ADD22R,2.800000X1.000000*%
%ADD23R,1.900000X1.300000*%
%ADD24R,0.400000X1.350000*%
%ADD25R,1.800000X1.900000*%
%ADD26R,0.800000X0.900000*%
%ADD27R,0.900000X0.800000*%
%ADD28C,0.975000*%
%ADD29O,0.800000X0.200000*%
%ADD30O,0.200000X0.800000*%
%ADD31R,0.300000X1.400000*%
%ADD32R,0.650000X0.350000*%
%ADD33R,0.600000X1.000000*%
%ADD34R,0.650000X1.220000*%
%ADD35R,1.350000X2.200000*%
G04 APERTURE END LIST*
D10*
G04 #@! TO.C,C25*
G36*
X150574504Y-132551204D02*
X150598773Y-132554804D01*
X150622571Y-132560765D01*
X150645671Y-132569030D01*
X150667849Y-132579520D01*
X150688893Y-132592133D01*
X150708598Y-132606747D01*
X150726777Y-132623223D01*
X150743253Y-132641402D01*
X150757867Y-132661107D01*
X150770480Y-132682151D01*
X150780970Y-132704329D01*
X150789235Y-132727429D01*
X150795196Y-132751227D01*
X150798796Y-132775496D01*
X150800000Y-132800000D01*
X150800000Y-135800000D01*
X150798796Y-135824504D01*
X150795196Y-135848773D01*
X150789235Y-135872571D01*
X150780970Y-135895671D01*
X150770480Y-135917849D01*
X150757867Y-135938893D01*
X150743253Y-135958598D01*
X150726777Y-135976777D01*
X150708598Y-135993253D01*
X150688893Y-136007867D01*
X150667849Y-136020480D01*
X150645671Y-136030970D01*
X150622571Y-136039235D01*
X150598773Y-136045196D01*
X150574504Y-136048796D01*
X150550000Y-136050000D01*
X149450000Y-136050000D01*
X149425496Y-136048796D01*
X149401227Y-136045196D01*
X149377429Y-136039235D01*
X149354329Y-136030970D01*
X149332151Y-136020480D01*
X149311107Y-136007867D01*
X149291402Y-135993253D01*
X149273223Y-135976777D01*
X149256747Y-135958598D01*
X149242133Y-135938893D01*
X149229520Y-135917849D01*
X149219030Y-135895671D01*
X149210765Y-135872571D01*
X149204804Y-135848773D01*
X149201204Y-135824504D01*
X149200000Y-135800000D01*
X149200000Y-132800000D01*
X149201204Y-132775496D01*
X149204804Y-132751227D01*
X149210765Y-132727429D01*
X149219030Y-132704329D01*
X149229520Y-132682151D01*
X149242133Y-132661107D01*
X149256747Y-132641402D01*
X149273223Y-132623223D01*
X149291402Y-132606747D01*
X149311107Y-132592133D01*
X149332151Y-132579520D01*
X149354329Y-132569030D01*
X149377429Y-132560765D01*
X149401227Y-132554804D01*
X149425496Y-132551204D01*
X149450000Y-132550000D01*
X150550000Y-132550000D01*
X150574504Y-132551204D01*
X150574504Y-132551204D01*
G37*
D11*
X150000000Y-134300000D03*
D10*
G36*
X150574504Y-137951204D02*
X150598773Y-137954804D01*
X150622571Y-137960765D01*
X150645671Y-137969030D01*
X150667849Y-137979520D01*
X150688893Y-137992133D01*
X150708598Y-138006747D01*
X150726777Y-138023223D01*
X150743253Y-138041402D01*
X150757867Y-138061107D01*
X150770480Y-138082151D01*
X150780970Y-138104329D01*
X150789235Y-138127429D01*
X150795196Y-138151227D01*
X150798796Y-138175496D01*
X150800000Y-138200000D01*
X150800000Y-141200000D01*
X150798796Y-141224504D01*
X150795196Y-141248773D01*
X150789235Y-141272571D01*
X150780970Y-141295671D01*
X150770480Y-141317849D01*
X150757867Y-141338893D01*
X150743253Y-141358598D01*
X150726777Y-141376777D01*
X150708598Y-141393253D01*
X150688893Y-141407867D01*
X150667849Y-141420480D01*
X150645671Y-141430970D01*
X150622571Y-141439235D01*
X150598773Y-141445196D01*
X150574504Y-141448796D01*
X150550000Y-141450000D01*
X149450000Y-141450000D01*
X149425496Y-141448796D01*
X149401227Y-141445196D01*
X149377429Y-141439235D01*
X149354329Y-141430970D01*
X149332151Y-141420480D01*
X149311107Y-141407867D01*
X149291402Y-141393253D01*
X149273223Y-141376777D01*
X149256747Y-141358598D01*
X149242133Y-141338893D01*
X149229520Y-141317849D01*
X149219030Y-141295671D01*
X149210765Y-141272571D01*
X149204804Y-141248773D01*
X149201204Y-141224504D01*
X149200000Y-141200000D01*
X149200000Y-138200000D01*
X149201204Y-138175496D01*
X149204804Y-138151227D01*
X149210765Y-138127429D01*
X149219030Y-138104329D01*
X149229520Y-138082151D01*
X149242133Y-138061107D01*
X149256747Y-138041402D01*
X149273223Y-138023223D01*
X149291402Y-138006747D01*
X149311107Y-137992133D01*
X149332151Y-137979520D01*
X149354329Y-137969030D01*
X149377429Y-137960765D01*
X149401227Y-137954804D01*
X149425496Y-137951204D01*
X149450000Y-137950000D01*
X150550000Y-137950000D01*
X150574504Y-137951204D01*
X150574504Y-137951204D01*
G37*
D11*
X150000000Y-139700000D03*
G04 #@! TD*
D10*
G04 #@! TO.C,C1*
G36*
X148936958Y-96955710D02*
X148951276Y-96957834D01*
X148965317Y-96961351D01*
X148978946Y-96966228D01*
X148992031Y-96972417D01*
X149004447Y-96979858D01*
X149016073Y-96988481D01*
X149026798Y-96998202D01*
X149036519Y-97008927D01*
X149045142Y-97020553D01*
X149052583Y-97032969D01*
X149058772Y-97046054D01*
X149063649Y-97059683D01*
X149067166Y-97073724D01*
X149069290Y-97088042D01*
X149070000Y-97102500D01*
X149070000Y-97397500D01*
X149069290Y-97411958D01*
X149067166Y-97426276D01*
X149063649Y-97440317D01*
X149058772Y-97453946D01*
X149052583Y-97467031D01*
X149045142Y-97479447D01*
X149036519Y-97491073D01*
X149026798Y-97501798D01*
X149016073Y-97511519D01*
X149004447Y-97520142D01*
X148992031Y-97527583D01*
X148978946Y-97533772D01*
X148965317Y-97538649D01*
X148951276Y-97542166D01*
X148936958Y-97544290D01*
X148922500Y-97545000D01*
X148577500Y-97545000D01*
X148563042Y-97544290D01*
X148548724Y-97542166D01*
X148534683Y-97538649D01*
X148521054Y-97533772D01*
X148507969Y-97527583D01*
X148495553Y-97520142D01*
X148483927Y-97511519D01*
X148473202Y-97501798D01*
X148463481Y-97491073D01*
X148454858Y-97479447D01*
X148447417Y-97467031D01*
X148441228Y-97453946D01*
X148436351Y-97440317D01*
X148432834Y-97426276D01*
X148430710Y-97411958D01*
X148430000Y-97397500D01*
X148430000Y-97102500D01*
X148430710Y-97088042D01*
X148432834Y-97073724D01*
X148436351Y-97059683D01*
X148441228Y-97046054D01*
X148447417Y-97032969D01*
X148454858Y-97020553D01*
X148463481Y-97008927D01*
X148473202Y-96998202D01*
X148483927Y-96988481D01*
X148495553Y-96979858D01*
X148507969Y-96972417D01*
X148521054Y-96966228D01*
X148534683Y-96961351D01*
X148548724Y-96957834D01*
X148563042Y-96955710D01*
X148577500Y-96955000D01*
X148922500Y-96955000D01*
X148936958Y-96955710D01*
X148936958Y-96955710D01*
G37*
D12*
X148750000Y-97250000D03*
D10*
G36*
X148936958Y-95985710D02*
X148951276Y-95987834D01*
X148965317Y-95991351D01*
X148978946Y-95996228D01*
X148992031Y-96002417D01*
X149004447Y-96009858D01*
X149016073Y-96018481D01*
X149026798Y-96028202D01*
X149036519Y-96038927D01*
X149045142Y-96050553D01*
X149052583Y-96062969D01*
X149058772Y-96076054D01*
X149063649Y-96089683D01*
X149067166Y-96103724D01*
X149069290Y-96118042D01*
X149070000Y-96132500D01*
X149070000Y-96427500D01*
X149069290Y-96441958D01*
X149067166Y-96456276D01*
X149063649Y-96470317D01*
X149058772Y-96483946D01*
X149052583Y-96497031D01*
X149045142Y-96509447D01*
X149036519Y-96521073D01*
X149026798Y-96531798D01*
X149016073Y-96541519D01*
X149004447Y-96550142D01*
X148992031Y-96557583D01*
X148978946Y-96563772D01*
X148965317Y-96568649D01*
X148951276Y-96572166D01*
X148936958Y-96574290D01*
X148922500Y-96575000D01*
X148577500Y-96575000D01*
X148563042Y-96574290D01*
X148548724Y-96572166D01*
X148534683Y-96568649D01*
X148521054Y-96563772D01*
X148507969Y-96557583D01*
X148495553Y-96550142D01*
X148483927Y-96541519D01*
X148473202Y-96531798D01*
X148463481Y-96521073D01*
X148454858Y-96509447D01*
X148447417Y-96497031D01*
X148441228Y-96483946D01*
X148436351Y-96470317D01*
X148432834Y-96456276D01*
X148430710Y-96441958D01*
X148430000Y-96427500D01*
X148430000Y-96132500D01*
X148430710Y-96118042D01*
X148432834Y-96103724D01*
X148436351Y-96089683D01*
X148441228Y-96076054D01*
X148447417Y-96062969D01*
X148454858Y-96050553D01*
X148463481Y-96038927D01*
X148473202Y-96028202D01*
X148483927Y-96018481D01*
X148495553Y-96009858D01*
X148507969Y-96002417D01*
X148521054Y-95996228D01*
X148534683Y-95991351D01*
X148548724Y-95987834D01*
X148563042Y-95985710D01*
X148577500Y-95985000D01*
X148922500Y-95985000D01*
X148936958Y-95985710D01*
X148936958Y-95985710D01*
G37*
D12*
X148750000Y-96280000D03*
G04 #@! TD*
D10*
G04 #@! TO.C,C2*
G36*
X147436958Y-95985710D02*
X147451276Y-95987834D01*
X147465317Y-95991351D01*
X147478946Y-95996228D01*
X147492031Y-96002417D01*
X147504447Y-96009858D01*
X147516073Y-96018481D01*
X147526798Y-96028202D01*
X147536519Y-96038927D01*
X147545142Y-96050553D01*
X147552583Y-96062969D01*
X147558772Y-96076054D01*
X147563649Y-96089683D01*
X147567166Y-96103724D01*
X147569290Y-96118042D01*
X147570000Y-96132500D01*
X147570000Y-96427500D01*
X147569290Y-96441958D01*
X147567166Y-96456276D01*
X147563649Y-96470317D01*
X147558772Y-96483946D01*
X147552583Y-96497031D01*
X147545142Y-96509447D01*
X147536519Y-96521073D01*
X147526798Y-96531798D01*
X147516073Y-96541519D01*
X147504447Y-96550142D01*
X147492031Y-96557583D01*
X147478946Y-96563772D01*
X147465317Y-96568649D01*
X147451276Y-96572166D01*
X147436958Y-96574290D01*
X147422500Y-96575000D01*
X147077500Y-96575000D01*
X147063042Y-96574290D01*
X147048724Y-96572166D01*
X147034683Y-96568649D01*
X147021054Y-96563772D01*
X147007969Y-96557583D01*
X146995553Y-96550142D01*
X146983927Y-96541519D01*
X146973202Y-96531798D01*
X146963481Y-96521073D01*
X146954858Y-96509447D01*
X146947417Y-96497031D01*
X146941228Y-96483946D01*
X146936351Y-96470317D01*
X146932834Y-96456276D01*
X146930710Y-96441958D01*
X146930000Y-96427500D01*
X146930000Y-96132500D01*
X146930710Y-96118042D01*
X146932834Y-96103724D01*
X146936351Y-96089683D01*
X146941228Y-96076054D01*
X146947417Y-96062969D01*
X146954858Y-96050553D01*
X146963481Y-96038927D01*
X146973202Y-96028202D01*
X146983927Y-96018481D01*
X146995553Y-96009858D01*
X147007969Y-96002417D01*
X147021054Y-95996228D01*
X147034683Y-95991351D01*
X147048724Y-95987834D01*
X147063042Y-95985710D01*
X147077500Y-95985000D01*
X147422500Y-95985000D01*
X147436958Y-95985710D01*
X147436958Y-95985710D01*
G37*
D12*
X147250000Y-96280000D03*
D10*
G36*
X147436958Y-96955710D02*
X147451276Y-96957834D01*
X147465317Y-96961351D01*
X147478946Y-96966228D01*
X147492031Y-96972417D01*
X147504447Y-96979858D01*
X147516073Y-96988481D01*
X147526798Y-96998202D01*
X147536519Y-97008927D01*
X147545142Y-97020553D01*
X147552583Y-97032969D01*
X147558772Y-97046054D01*
X147563649Y-97059683D01*
X147567166Y-97073724D01*
X147569290Y-97088042D01*
X147570000Y-97102500D01*
X147570000Y-97397500D01*
X147569290Y-97411958D01*
X147567166Y-97426276D01*
X147563649Y-97440317D01*
X147558772Y-97453946D01*
X147552583Y-97467031D01*
X147545142Y-97479447D01*
X147536519Y-97491073D01*
X147526798Y-97501798D01*
X147516073Y-97511519D01*
X147504447Y-97520142D01*
X147492031Y-97527583D01*
X147478946Y-97533772D01*
X147465317Y-97538649D01*
X147451276Y-97542166D01*
X147436958Y-97544290D01*
X147422500Y-97545000D01*
X147077500Y-97545000D01*
X147063042Y-97544290D01*
X147048724Y-97542166D01*
X147034683Y-97538649D01*
X147021054Y-97533772D01*
X147007969Y-97527583D01*
X146995553Y-97520142D01*
X146983927Y-97511519D01*
X146973202Y-97501798D01*
X146963481Y-97491073D01*
X146954858Y-97479447D01*
X146947417Y-97467031D01*
X146941228Y-97453946D01*
X146936351Y-97440317D01*
X146932834Y-97426276D01*
X146930710Y-97411958D01*
X146930000Y-97397500D01*
X146930000Y-97102500D01*
X146930710Y-97088042D01*
X146932834Y-97073724D01*
X146936351Y-97059683D01*
X146941228Y-97046054D01*
X146947417Y-97032969D01*
X146954858Y-97020553D01*
X146963481Y-97008927D01*
X146973202Y-96998202D01*
X146983927Y-96988481D01*
X146995553Y-96979858D01*
X147007969Y-96972417D01*
X147021054Y-96966228D01*
X147034683Y-96961351D01*
X147048724Y-96957834D01*
X147063042Y-96955710D01*
X147077500Y-96955000D01*
X147422500Y-96955000D01*
X147436958Y-96955710D01*
X147436958Y-96955710D01*
G37*
D12*
X147250000Y-97250000D03*
G04 #@! TD*
D10*
G04 #@! TO.C,C3*
G36*
X151686958Y-82220710D02*
X151701276Y-82222834D01*
X151715317Y-82226351D01*
X151728946Y-82231228D01*
X151742031Y-82237417D01*
X151754447Y-82244858D01*
X151766073Y-82253481D01*
X151776798Y-82263202D01*
X151786519Y-82273927D01*
X151795142Y-82285553D01*
X151802583Y-82297969D01*
X151808772Y-82311054D01*
X151813649Y-82324683D01*
X151817166Y-82338724D01*
X151819290Y-82353042D01*
X151820000Y-82367500D01*
X151820000Y-82662500D01*
X151819290Y-82676958D01*
X151817166Y-82691276D01*
X151813649Y-82705317D01*
X151808772Y-82718946D01*
X151802583Y-82732031D01*
X151795142Y-82744447D01*
X151786519Y-82756073D01*
X151776798Y-82766798D01*
X151766073Y-82776519D01*
X151754447Y-82785142D01*
X151742031Y-82792583D01*
X151728946Y-82798772D01*
X151715317Y-82803649D01*
X151701276Y-82807166D01*
X151686958Y-82809290D01*
X151672500Y-82810000D01*
X151327500Y-82810000D01*
X151313042Y-82809290D01*
X151298724Y-82807166D01*
X151284683Y-82803649D01*
X151271054Y-82798772D01*
X151257969Y-82792583D01*
X151245553Y-82785142D01*
X151233927Y-82776519D01*
X151223202Y-82766798D01*
X151213481Y-82756073D01*
X151204858Y-82744447D01*
X151197417Y-82732031D01*
X151191228Y-82718946D01*
X151186351Y-82705317D01*
X151182834Y-82691276D01*
X151180710Y-82676958D01*
X151180000Y-82662500D01*
X151180000Y-82367500D01*
X151180710Y-82353042D01*
X151182834Y-82338724D01*
X151186351Y-82324683D01*
X151191228Y-82311054D01*
X151197417Y-82297969D01*
X151204858Y-82285553D01*
X151213481Y-82273927D01*
X151223202Y-82263202D01*
X151233927Y-82253481D01*
X151245553Y-82244858D01*
X151257969Y-82237417D01*
X151271054Y-82231228D01*
X151284683Y-82226351D01*
X151298724Y-82222834D01*
X151313042Y-82220710D01*
X151327500Y-82220000D01*
X151672500Y-82220000D01*
X151686958Y-82220710D01*
X151686958Y-82220710D01*
G37*
D12*
X151500000Y-82515000D03*
D10*
G36*
X151686958Y-83190710D02*
X151701276Y-83192834D01*
X151715317Y-83196351D01*
X151728946Y-83201228D01*
X151742031Y-83207417D01*
X151754447Y-83214858D01*
X151766073Y-83223481D01*
X151776798Y-83233202D01*
X151786519Y-83243927D01*
X151795142Y-83255553D01*
X151802583Y-83267969D01*
X151808772Y-83281054D01*
X151813649Y-83294683D01*
X151817166Y-83308724D01*
X151819290Y-83323042D01*
X151820000Y-83337500D01*
X151820000Y-83632500D01*
X151819290Y-83646958D01*
X151817166Y-83661276D01*
X151813649Y-83675317D01*
X151808772Y-83688946D01*
X151802583Y-83702031D01*
X151795142Y-83714447D01*
X151786519Y-83726073D01*
X151776798Y-83736798D01*
X151766073Y-83746519D01*
X151754447Y-83755142D01*
X151742031Y-83762583D01*
X151728946Y-83768772D01*
X151715317Y-83773649D01*
X151701276Y-83777166D01*
X151686958Y-83779290D01*
X151672500Y-83780000D01*
X151327500Y-83780000D01*
X151313042Y-83779290D01*
X151298724Y-83777166D01*
X151284683Y-83773649D01*
X151271054Y-83768772D01*
X151257969Y-83762583D01*
X151245553Y-83755142D01*
X151233927Y-83746519D01*
X151223202Y-83736798D01*
X151213481Y-83726073D01*
X151204858Y-83714447D01*
X151197417Y-83702031D01*
X151191228Y-83688946D01*
X151186351Y-83675317D01*
X151182834Y-83661276D01*
X151180710Y-83646958D01*
X151180000Y-83632500D01*
X151180000Y-83337500D01*
X151180710Y-83323042D01*
X151182834Y-83308724D01*
X151186351Y-83294683D01*
X151191228Y-83281054D01*
X151197417Y-83267969D01*
X151204858Y-83255553D01*
X151213481Y-83243927D01*
X151223202Y-83233202D01*
X151233927Y-83223481D01*
X151245553Y-83214858D01*
X151257969Y-83207417D01*
X151271054Y-83201228D01*
X151284683Y-83196351D01*
X151298724Y-83192834D01*
X151313042Y-83190710D01*
X151327500Y-83190000D01*
X151672500Y-83190000D01*
X151686958Y-83190710D01*
X151686958Y-83190710D01*
G37*
D12*
X151500000Y-83485000D03*
G04 #@! TD*
D10*
G04 #@! TO.C,C4*
G36*
X141896958Y-86430710D02*
X141911276Y-86432834D01*
X141925317Y-86436351D01*
X141938946Y-86441228D01*
X141952031Y-86447417D01*
X141964447Y-86454858D01*
X141976073Y-86463481D01*
X141986798Y-86473202D01*
X141996519Y-86483927D01*
X142005142Y-86495553D01*
X142012583Y-86507969D01*
X142018772Y-86521054D01*
X142023649Y-86534683D01*
X142027166Y-86548724D01*
X142029290Y-86563042D01*
X142030000Y-86577500D01*
X142030000Y-86922500D01*
X142029290Y-86936958D01*
X142027166Y-86951276D01*
X142023649Y-86965317D01*
X142018772Y-86978946D01*
X142012583Y-86992031D01*
X142005142Y-87004447D01*
X141996519Y-87016073D01*
X141986798Y-87026798D01*
X141976073Y-87036519D01*
X141964447Y-87045142D01*
X141952031Y-87052583D01*
X141938946Y-87058772D01*
X141925317Y-87063649D01*
X141911276Y-87067166D01*
X141896958Y-87069290D01*
X141882500Y-87070000D01*
X141587500Y-87070000D01*
X141573042Y-87069290D01*
X141558724Y-87067166D01*
X141544683Y-87063649D01*
X141531054Y-87058772D01*
X141517969Y-87052583D01*
X141505553Y-87045142D01*
X141493927Y-87036519D01*
X141483202Y-87026798D01*
X141473481Y-87016073D01*
X141464858Y-87004447D01*
X141457417Y-86992031D01*
X141451228Y-86978946D01*
X141446351Y-86965317D01*
X141442834Y-86951276D01*
X141440710Y-86936958D01*
X141440000Y-86922500D01*
X141440000Y-86577500D01*
X141440710Y-86563042D01*
X141442834Y-86548724D01*
X141446351Y-86534683D01*
X141451228Y-86521054D01*
X141457417Y-86507969D01*
X141464858Y-86495553D01*
X141473481Y-86483927D01*
X141483202Y-86473202D01*
X141493927Y-86463481D01*
X141505553Y-86454858D01*
X141517969Y-86447417D01*
X141531054Y-86441228D01*
X141544683Y-86436351D01*
X141558724Y-86432834D01*
X141573042Y-86430710D01*
X141587500Y-86430000D01*
X141882500Y-86430000D01*
X141896958Y-86430710D01*
X141896958Y-86430710D01*
G37*
D12*
X141735000Y-86750000D03*
D10*
G36*
X140926958Y-86430710D02*
X140941276Y-86432834D01*
X140955317Y-86436351D01*
X140968946Y-86441228D01*
X140982031Y-86447417D01*
X140994447Y-86454858D01*
X141006073Y-86463481D01*
X141016798Y-86473202D01*
X141026519Y-86483927D01*
X141035142Y-86495553D01*
X141042583Y-86507969D01*
X141048772Y-86521054D01*
X141053649Y-86534683D01*
X141057166Y-86548724D01*
X141059290Y-86563042D01*
X141060000Y-86577500D01*
X141060000Y-86922500D01*
X141059290Y-86936958D01*
X141057166Y-86951276D01*
X141053649Y-86965317D01*
X141048772Y-86978946D01*
X141042583Y-86992031D01*
X141035142Y-87004447D01*
X141026519Y-87016073D01*
X141016798Y-87026798D01*
X141006073Y-87036519D01*
X140994447Y-87045142D01*
X140982031Y-87052583D01*
X140968946Y-87058772D01*
X140955317Y-87063649D01*
X140941276Y-87067166D01*
X140926958Y-87069290D01*
X140912500Y-87070000D01*
X140617500Y-87070000D01*
X140603042Y-87069290D01*
X140588724Y-87067166D01*
X140574683Y-87063649D01*
X140561054Y-87058772D01*
X140547969Y-87052583D01*
X140535553Y-87045142D01*
X140523927Y-87036519D01*
X140513202Y-87026798D01*
X140503481Y-87016073D01*
X140494858Y-87004447D01*
X140487417Y-86992031D01*
X140481228Y-86978946D01*
X140476351Y-86965317D01*
X140472834Y-86951276D01*
X140470710Y-86936958D01*
X140470000Y-86922500D01*
X140470000Y-86577500D01*
X140470710Y-86563042D01*
X140472834Y-86548724D01*
X140476351Y-86534683D01*
X140481228Y-86521054D01*
X140487417Y-86507969D01*
X140494858Y-86495553D01*
X140503481Y-86483927D01*
X140513202Y-86473202D01*
X140523927Y-86463481D01*
X140535553Y-86454858D01*
X140547969Y-86447417D01*
X140561054Y-86441228D01*
X140574683Y-86436351D01*
X140588724Y-86432834D01*
X140603042Y-86430710D01*
X140617500Y-86430000D01*
X140912500Y-86430000D01*
X140926958Y-86430710D01*
X140926958Y-86430710D01*
G37*
D12*
X140765000Y-86750000D03*
G04 #@! TD*
D10*
G04 #@! TO.C,C5*
G36*
X151436958Y-96925710D02*
X151451276Y-96927834D01*
X151465317Y-96931351D01*
X151478946Y-96936228D01*
X151492031Y-96942417D01*
X151504447Y-96949858D01*
X151516073Y-96958481D01*
X151526798Y-96968202D01*
X151536519Y-96978927D01*
X151545142Y-96990553D01*
X151552583Y-97002969D01*
X151558772Y-97016054D01*
X151563649Y-97029683D01*
X151567166Y-97043724D01*
X151569290Y-97058042D01*
X151570000Y-97072500D01*
X151570000Y-97367500D01*
X151569290Y-97381958D01*
X151567166Y-97396276D01*
X151563649Y-97410317D01*
X151558772Y-97423946D01*
X151552583Y-97437031D01*
X151545142Y-97449447D01*
X151536519Y-97461073D01*
X151526798Y-97471798D01*
X151516073Y-97481519D01*
X151504447Y-97490142D01*
X151492031Y-97497583D01*
X151478946Y-97503772D01*
X151465317Y-97508649D01*
X151451276Y-97512166D01*
X151436958Y-97514290D01*
X151422500Y-97515000D01*
X151077500Y-97515000D01*
X151063042Y-97514290D01*
X151048724Y-97512166D01*
X151034683Y-97508649D01*
X151021054Y-97503772D01*
X151007969Y-97497583D01*
X150995553Y-97490142D01*
X150983927Y-97481519D01*
X150973202Y-97471798D01*
X150963481Y-97461073D01*
X150954858Y-97449447D01*
X150947417Y-97437031D01*
X150941228Y-97423946D01*
X150936351Y-97410317D01*
X150932834Y-97396276D01*
X150930710Y-97381958D01*
X150930000Y-97367500D01*
X150930000Y-97072500D01*
X150930710Y-97058042D01*
X150932834Y-97043724D01*
X150936351Y-97029683D01*
X150941228Y-97016054D01*
X150947417Y-97002969D01*
X150954858Y-96990553D01*
X150963481Y-96978927D01*
X150973202Y-96968202D01*
X150983927Y-96958481D01*
X150995553Y-96949858D01*
X151007969Y-96942417D01*
X151021054Y-96936228D01*
X151034683Y-96931351D01*
X151048724Y-96927834D01*
X151063042Y-96925710D01*
X151077500Y-96925000D01*
X151422500Y-96925000D01*
X151436958Y-96925710D01*
X151436958Y-96925710D01*
G37*
D12*
X151250000Y-97220000D03*
D10*
G36*
X151436958Y-95955710D02*
X151451276Y-95957834D01*
X151465317Y-95961351D01*
X151478946Y-95966228D01*
X151492031Y-95972417D01*
X151504447Y-95979858D01*
X151516073Y-95988481D01*
X151526798Y-95998202D01*
X151536519Y-96008927D01*
X151545142Y-96020553D01*
X151552583Y-96032969D01*
X151558772Y-96046054D01*
X151563649Y-96059683D01*
X151567166Y-96073724D01*
X151569290Y-96088042D01*
X151570000Y-96102500D01*
X151570000Y-96397500D01*
X151569290Y-96411958D01*
X151567166Y-96426276D01*
X151563649Y-96440317D01*
X151558772Y-96453946D01*
X151552583Y-96467031D01*
X151545142Y-96479447D01*
X151536519Y-96491073D01*
X151526798Y-96501798D01*
X151516073Y-96511519D01*
X151504447Y-96520142D01*
X151492031Y-96527583D01*
X151478946Y-96533772D01*
X151465317Y-96538649D01*
X151451276Y-96542166D01*
X151436958Y-96544290D01*
X151422500Y-96545000D01*
X151077500Y-96545000D01*
X151063042Y-96544290D01*
X151048724Y-96542166D01*
X151034683Y-96538649D01*
X151021054Y-96533772D01*
X151007969Y-96527583D01*
X150995553Y-96520142D01*
X150983927Y-96511519D01*
X150973202Y-96501798D01*
X150963481Y-96491073D01*
X150954858Y-96479447D01*
X150947417Y-96467031D01*
X150941228Y-96453946D01*
X150936351Y-96440317D01*
X150932834Y-96426276D01*
X150930710Y-96411958D01*
X150930000Y-96397500D01*
X150930000Y-96102500D01*
X150930710Y-96088042D01*
X150932834Y-96073724D01*
X150936351Y-96059683D01*
X150941228Y-96046054D01*
X150947417Y-96032969D01*
X150954858Y-96020553D01*
X150963481Y-96008927D01*
X150973202Y-95998202D01*
X150983927Y-95988481D01*
X150995553Y-95979858D01*
X151007969Y-95972417D01*
X151021054Y-95966228D01*
X151034683Y-95961351D01*
X151048724Y-95957834D01*
X151063042Y-95955710D01*
X151077500Y-95955000D01*
X151422500Y-95955000D01*
X151436958Y-95955710D01*
X151436958Y-95955710D01*
G37*
D12*
X151250000Y-96250000D03*
G04 #@! TD*
D10*
G04 #@! TO.C,C6*
G36*
X154691958Y-84930710D02*
X154706276Y-84932834D01*
X154720317Y-84936351D01*
X154733946Y-84941228D01*
X154747031Y-84947417D01*
X154759447Y-84954858D01*
X154771073Y-84963481D01*
X154781798Y-84973202D01*
X154791519Y-84983927D01*
X154800142Y-84995553D01*
X154807583Y-85007969D01*
X154813772Y-85021054D01*
X154818649Y-85034683D01*
X154822166Y-85048724D01*
X154824290Y-85063042D01*
X154825000Y-85077500D01*
X154825000Y-85422500D01*
X154824290Y-85436958D01*
X154822166Y-85451276D01*
X154818649Y-85465317D01*
X154813772Y-85478946D01*
X154807583Y-85492031D01*
X154800142Y-85504447D01*
X154791519Y-85516073D01*
X154781798Y-85526798D01*
X154771073Y-85536519D01*
X154759447Y-85545142D01*
X154747031Y-85552583D01*
X154733946Y-85558772D01*
X154720317Y-85563649D01*
X154706276Y-85567166D01*
X154691958Y-85569290D01*
X154677500Y-85570000D01*
X154382500Y-85570000D01*
X154368042Y-85569290D01*
X154353724Y-85567166D01*
X154339683Y-85563649D01*
X154326054Y-85558772D01*
X154312969Y-85552583D01*
X154300553Y-85545142D01*
X154288927Y-85536519D01*
X154278202Y-85526798D01*
X154268481Y-85516073D01*
X154259858Y-85504447D01*
X154252417Y-85492031D01*
X154246228Y-85478946D01*
X154241351Y-85465317D01*
X154237834Y-85451276D01*
X154235710Y-85436958D01*
X154235000Y-85422500D01*
X154235000Y-85077500D01*
X154235710Y-85063042D01*
X154237834Y-85048724D01*
X154241351Y-85034683D01*
X154246228Y-85021054D01*
X154252417Y-85007969D01*
X154259858Y-84995553D01*
X154268481Y-84983927D01*
X154278202Y-84973202D01*
X154288927Y-84963481D01*
X154300553Y-84954858D01*
X154312969Y-84947417D01*
X154326054Y-84941228D01*
X154339683Y-84936351D01*
X154353724Y-84932834D01*
X154368042Y-84930710D01*
X154382500Y-84930000D01*
X154677500Y-84930000D01*
X154691958Y-84930710D01*
X154691958Y-84930710D01*
G37*
D12*
X154530000Y-85250000D03*
D10*
G36*
X155661958Y-84930710D02*
X155676276Y-84932834D01*
X155690317Y-84936351D01*
X155703946Y-84941228D01*
X155717031Y-84947417D01*
X155729447Y-84954858D01*
X155741073Y-84963481D01*
X155751798Y-84973202D01*
X155761519Y-84983927D01*
X155770142Y-84995553D01*
X155777583Y-85007969D01*
X155783772Y-85021054D01*
X155788649Y-85034683D01*
X155792166Y-85048724D01*
X155794290Y-85063042D01*
X155795000Y-85077500D01*
X155795000Y-85422500D01*
X155794290Y-85436958D01*
X155792166Y-85451276D01*
X155788649Y-85465317D01*
X155783772Y-85478946D01*
X155777583Y-85492031D01*
X155770142Y-85504447D01*
X155761519Y-85516073D01*
X155751798Y-85526798D01*
X155741073Y-85536519D01*
X155729447Y-85545142D01*
X155717031Y-85552583D01*
X155703946Y-85558772D01*
X155690317Y-85563649D01*
X155676276Y-85567166D01*
X155661958Y-85569290D01*
X155647500Y-85570000D01*
X155352500Y-85570000D01*
X155338042Y-85569290D01*
X155323724Y-85567166D01*
X155309683Y-85563649D01*
X155296054Y-85558772D01*
X155282969Y-85552583D01*
X155270553Y-85545142D01*
X155258927Y-85536519D01*
X155248202Y-85526798D01*
X155238481Y-85516073D01*
X155229858Y-85504447D01*
X155222417Y-85492031D01*
X155216228Y-85478946D01*
X155211351Y-85465317D01*
X155207834Y-85451276D01*
X155205710Y-85436958D01*
X155205000Y-85422500D01*
X155205000Y-85077500D01*
X155205710Y-85063042D01*
X155207834Y-85048724D01*
X155211351Y-85034683D01*
X155216228Y-85021054D01*
X155222417Y-85007969D01*
X155229858Y-84995553D01*
X155238481Y-84983927D01*
X155248202Y-84973202D01*
X155258927Y-84963481D01*
X155270553Y-84954858D01*
X155282969Y-84947417D01*
X155296054Y-84941228D01*
X155309683Y-84936351D01*
X155323724Y-84932834D01*
X155338042Y-84930710D01*
X155352500Y-84930000D01*
X155647500Y-84930000D01*
X155661958Y-84930710D01*
X155661958Y-84930710D01*
G37*
D12*
X155500000Y-85250000D03*
G04 #@! TD*
D10*
G04 #@! TO.C,C7*
G36*
X144436958Y-96940710D02*
X144451276Y-96942834D01*
X144465317Y-96946351D01*
X144478946Y-96951228D01*
X144492031Y-96957417D01*
X144504447Y-96964858D01*
X144516073Y-96973481D01*
X144526798Y-96983202D01*
X144536519Y-96993927D01*
X144545142Y-97005553D01*
X144552583Y-97017969D01*
X144558772Y-97031054D01*
X144563649Y-97044683D01*
X144567166Y-97058724D01*
X144569290Y-97073042D01*
X144570000Y-97087500D01*
X144570000Y-97382500D01*
X144569290Y-97396958D01*
X144567166Y-97411276D01*
X144563649Y-97425317D01*
X144558772Y-97438946D01*
X144552583Y-97452031D01*
X144545142Y-97464447D01*
X144536519Y-97476073D01*
X144526798Y-97486798D01*
X144516073Y-97496519D01*
X144504447Y-97505142D01*
X144492031Y-97512583D01*
X144478946Y-97518772D01*
X144465317Y-97523649D01*
X144451276Y-97527166D01*
X144436958Y-97529290D01*
X144422500Y-97530000D01*
X144077500Y-97530000D01*
X144063042Y-97529290D01*
X144048724Y-97527166D01*
X144034683Y-97523649D01*
X144021054Y-97518772D01*
X144007969Y-97512583D01*
X143995553Y-97505142D01*
X143983927Y-97496519D01*
X143973202Y-97486798D01*
X143963481Y-97476073D01*
X143954858Y-97464447D01*
X143947417Y-97452031D01*
X143941228Y-97438946D01*
X143936351Y-97425317D01*
X143932834Y-97411276D01*
X143930710Y-97396958D01*
X143930000Y-97382500D01*
X143930000Y-97087500D01*
X143930710Y-97073042D01*
X143932834Y-97058724D01*
X143936351Y-97044683D01*
X143941228Y-97031054D01*
X143947417Y-97017969D01*
X143954858Y-97005553D01*
X143963481Y-96993927D01*
X143973202Y-96983202D01*
X143983927Y-96973481D01*
X143995553Y-96964858D01*
X144007969Y-96957417D01*
X144021054Y-96951228D01*
X144034683Y-96946351D01*
X144048724Y-96942834D01*
X144063042Y-96940710D01*
X144077500Y-96940000D01*
X144422500Y-96940000D01*
X144436958Y-96940710D01*
X144436958Y-96940710D01*
G37*
D12*
X144250000Y-97235000D03*
D10*
G36*
X144436958Y-95970710D02*
X144451276Y-95972834D01*
X144465317Y-95976351D01*
X144478946Y-95981228D01*
X144492031Y-95987417D01*
X144504447Y-95994858D01*
X144516073Y-96003481D01*
X144526798Y-96013202D01*
X144536519Y-96023927D01*
X144545142Y-96035553D01*
X144552583Y-96047969D01*
X144558772Y-96061054D01*
X144563649Y-96074683D01*
X144567166Y-96088724D01*
X144569290Y-96103042D01*
X144570000Y-96117500D01*
X144570000Y-96412500D01*
X144569290Y-96426958D01*
X144567166Y-96441276D01*
X144563649Y-96455317D01*
X144558772Y-96468946D01*
X144552583Y-96482031D01*
X144545142Y-96494447D01*
X144536519Y-96506073D01*
X144526798Y-96516798D01*
X144516073Y-96526519D01*
X144504447Y-96535142D01*
X144492031Y-96542583D01*
X144478946Y-96548772D01*
X144465317Y-96553649D01*
X144451276Y-96557166D01*
X144436958Y-96559290D01*
X144422500Y-96560000D01*
X144077500Y-96560000D01*
X144063042Y-96559290D01*
X144048724Y-96557166D01*
X144034683Y-96553649D01*
X144021054Y-96548772D01*
X144007969Y-96542583D01*
X143995553Y-96535142D01*
X143983927Y-96526519D01*
X143973202Y-96516798D01*
X143963481Y-96506073D01*
X143954858Y-96494447D01*
X143947417Y-96482031D01*
X143941228Y-96468946D01*
X143936351Y-96455317D01*
X143932834Y-96441276D01*
X143930710Y-96426958D01*
X143930000Y-96412500D01*
X143930000Y-96117500D01*
X143930710Y-96103042D01*
X143932834Y-96088724D01*
X143936351Y-96074683D01*
X143941228Y-96061054D01*
X143947417Y-96047969D01*
X143954858Y-96035553D01*
X143963481Y-96023927D01*
X143973202Y-96013202D01*
X143983927Y-96003481D01*
X143995553Y-95994858D01*
X144007969Y-95987417D01*
X144021054Y-95981228D01*
X144034683Y-95976351D01*
X144048724Y-95972834D01*
X144063042Y-95970710D01*
X144077500Y-95970000D01*
X144422500Y-95970000D01*
X144436958Y-95970710D01*
X144436958Y-95970710D01*
G37*
D12*
X144250000Y-96265000D03*
G04 #@! TD*
D10*
G04 #@! TO.C,C8*
G36*
X140926958Y-90430710D02*
X140941276Y-90432834D01*
X140955317Y-90436351D01*
X140968946Y-90441228D01*
X140982031Y-90447417D01*
X140994447Y-90454858D01*
X141006073Y-90463481D01*
X141016798Y-90473202D01*
X141026519Y-90483927D01*
X141035142Y-90495553D01*
X141042583Y-90507969D01*
X141048772Y-90521054D01*
X141053649Y-90534683D01*
X141057166Y-90548724D01*
X141059290Y-90563042D01*
X141060000Y-90577500D01*
X141060000Y-90922500D01*
X141059290Y-90936958D01*
X141057166Y-90951276D01*
X141053649Y-90965317D01*
X141048772Y-90978946D01*
X141042583Y-90992031D01*
X141035142Y-91004447D01*
X141026519Y-91016073D01*
X141016798Y-91026798D01*
X141006073Y-91036519D01*
X140994447Y-91045142D01*
X140982031Y-91052583D01*
X140968946Y-91058772D01*
X140955317Y-91063649D01*
X140941276Y-91067166D01*
X140926958Y-91069290D01*
X140912500Y-91070000D01*
X140617500Y-91070000D01*
X140603042Y-91069290D01*
X140588724Y-91067166D01*
X140574683Y-91063649D01*
X140561054Y-91058772D01*
X140547969Y-91052583D01*
X140535553Y-91045142D01*
X140523927Y-91036519D01*
X140513202Y-91026798D01*
X140503481Y-91016073D01*
X140494858Y-91004447D01*
X140487417Y-90992031D01*
X140481228Y-90978946D01*
X140476351Y-90965317D01*
X140472834Y-90951276D01*
X140470710Y-90936958D01*
X140470000Y-90922500D01*
X140470000Y-90577500D01*
X140470710Y-90563042D01*
X140472834Y-90548724D01*
X140476351Y-90534683D01*
X140481228Y-90521054D01*
X140487417Y-90507969D01*
X140494858Y-90495553D01*
X140503481Y-90483927D01*
X140513202Y-90473202D01*
X140523927Y-90463481D01*
X140535553Y-90454858D01*
X140547969Y-90447417D01*
X140561054Y-90441228D01*
X140574683Y-90436351D01*
X140588724Y-90432834D01*
X140603042Y-90430710D01*
X140617500Y-90430000D01*
X140912500Y-90430000D01*
X140926958Y-90430710D01*
X140926958Y-90430710D01*
G37*
D12*
X140765000Y-90750000D03*
D10*
G36*
X141896958Y-90430710D02*
X141911276Y-90432834D01*
X141925317Y-90436351D01*
X141938946Y-90441228D01*
X141952031Y-90447417D01*
X141964447Y-90454858D01*
X141976073Y-90463481D01*
X141986798Y-90473202D01*
X141996519Y-90483927D01*
X142005142Y-90495553D01*
X142012583Y-90507969D01*
X142018772Y-90521054D01*
X142023649Y-90534683D01*
X142027166Y-90548724D01*
X142029290Y-90563042D01*
X142030000Y-90577500D01*
X142030000Y-90922500D01*
X142029290Y-90936958D01*
X142027166Y-90951276D01*
X142023649Y-90965317D01*
X142018772Y-90978946D01*
X142012583Y-90992031D01*
X142005142Y-91004447D01*
X141996519Y-91016073D01*
X141986798Y-91026798D01*
X141976073Y-91036519D01*
X141964447Y-91045142D01*
X141952031Y-91052583D01*
X141938946Y-91058772D01*
X141925317Y-91063649D01*
X141911276Y-91067166D01*
X141896958Y-91069290D01*
X141882500Y-91070000D01*
X141587500Y-91070000D01*
X141573042Y-91069290D01*
X141558724Y-91067166D01*
X141544683Y-91063649D01*
X141531054Y-91058772D01*
X141517969Y-91052583D01*
X141505553Y-91045142D01*
X141493927Y-91036519D01*
X141483202Y-91026798D01*
X141473481Y-91016073D01*
X141464858Y-91004447D01*
X141457417Y-90992031D01*
X141451228Y-90978946D01*
X141446351Y-90965317D01*
X141442834Y-90951276D01*
X141440710Y-90936958D01*
X141440000Y-90922500D01*
X141440000Y-90577500D01*
X141440710Y-90563042D01*
X141442834Y-90548724D01*
X141446351Y-90534683D01*
X141451228Y-90521054D01*
X141457417Y-90507969D01*
X141464858Y-90495553D01*
X141473481Y-90483927D01*
X141483202Y-90473202D01*
X141493927Y-90463481D01*
X141505553Y-90454858D01*
X141517969Y-90447417D01*
X141531054Y-90441228D01*
X141544683Y-90436351D01*
X141558724Y-90432834D01*
X141573042Y-90430710D01*
X141587500Y-90430000D01*
X141882500Y-90430000D01*
X141896958Y-90430710D01*
X141896958Y-90430710D01*
G37*
D12*
X141735000Y-90750000D03*
G04 #@! TD*
D10*
G04 #@! TO.C,C9*
G36*
X145936958Y-96940710D02*
X145951276Y-96942834D01*
X145965317Y-96946351D01*
X145978946Y-96951228D01*
X145992031Y-96957417D01*
X146004447Y-96964858D01*
X146016073Y-96973481D01*
X146026798Y-96983202D01*
X146036519Y-96993927D01*
X146045142Y-97005553D01*
X146052583Y-97017969D01*
X146058772Y-97031054D01*
X146063649Y-97044683D01*
X146067166Y-97058724D01*
X146069290Y-97073042D01*
X146070000Y-97087500D01*
X146070000Y-97382500D01*
X146069290Y-97396958D01*
X146067166Y-97411276D01*
X146063649Y-97425317D01*
X146058772Y-97438946D01*
X146052583Y-97452031D01*
X146045142Y-97464447D01*
X146036519Y-97476073D01*
X146026798Y-97486798D01*
X146016073Y-97496519D01*
X146004447Y-97505142D01*
X145992031Y-97512583D01*
X145978946Y-97518772D01*
X145965317Y-97523649D01*
X145951276Y-97527166D01*
X145936958Y-97529290D01*
X145922500Y-97530000D01*
X145577500Y-97530000D01*
X145563042Y-97529290D01*
X145548724Y-97527166D01*
X145534683Y-97523649D01*
X145521054Y-97518772D01*
X145507969Y-97512583D01*
X145495553Y-97505142D01*
X145483927Y-97496519D01*
X145473202Y-97486798D01*
X145463481Y-97476073D01*
X145454858Y-97464447D01*
X145447417Y-97452031D01*
X145441228Y-97438946D01*
X145436351Y-97425317D01*
X145432834Y-97411276D01*
X145430710Y-97396958D01*
X145430000Y-97382500D01*
X145430000Y-97087500D01*
X145430710Y-97073042D01*
X145432834Y-97058724D01*
X145436351Y-97044683D01*
X145441228Y-97031054D01*
X145447417Y-97017969D01*
X145454858Y-97005553D01*
X145463481Y-96993927D01*
X145473202Y-96983202D01*
X145483927Y-96973481D01*
X145495553Y-96964858D01*
X145507969Y-96957417D01*
X145521054Y-96951228D01*
X145534683Y-96946351D01*
X145548724Y-96942834D01*
X145563042Y-96940710D01*
X145577500Y-96940000D01*
X145922500Y-96940000D01*
X145936958Y-96940710D01*
X145936958Y-96940710D01*
G37*
D12*
X145750000Y-97235000D03*
D10*
G36*
X145936958Y-95970710D02*
X145951276Y-95972834D01*
X145965317Y-95976351D01*
X145978946Y-95981228D01*
X145992031Y-95987417D01*
X146004447Y-95994858D01*
X146016073Y-96003481D01*
X146026798Y-96013202D01*
X146036519Y-96023927D01*
X146045142Y-96035553D01*
X146052583Y-96047969D01*
X146058772Y-96061054D01*
X146063649Y-96074683D01*
X146067166Y-96088724D01*
X146069290Y-96103042D01*
X146070000Y-96117500D01*
X146070000Y-96412500D01*
X146069290Y-96426958D01*
X146067166Y-96441276D01*
X146063649Y-96455317D01*
X146058772Y-96468946D01*
X146052583Y-96482031D01*
X146045142Y-96494447D01*
X146036519Y-96506073D01*
X146026798Y-96516798D01*
X146016073Y-96526519D01*
X146004447Y-96535142D01*
X145992031Y-96542583D01*
X145978946Y-96548772D01*
X145965317Y-96553649D01*
X145951276Y-96557166D01*
X145936958Y-96559290D01*
X145922500Y-96560000D01*
X145577500Y-96560000D01*
X145563042Y-96559290D01*
X145548724Y-96557166D01*
X145534683Y-96553649D01*
X145521054Y-96548772D01*
X145507969Y-96542583D01*
X145495553Y-96535142D01*
X145483927Y-96526519D01*
X145473202Y-96516798D01*
X145463481Y-96506073D01*
X145454858Y-96494447D01*
X145447417Y-96482031D01*
X145441228Y-96468946D01*
X145436351Y-96455317D01*
X145432834Y-96441276D01*
X145430710Y-96426958D01*
X145430000Y-96412500D01*
X145430000Y-96117500D01*
X145430710Y-96103042D01*
X145432834Y-96088724D01*
X145436351Y-96074683D01*
X145441228Y-96061054D01*
X145447417Y-96047969D01*
X145454858Y-96035553D01*
X145463481Y-96023927D01*
X145473202Y-96013202D01*
X145483927Y-96003481D01*
X145495553Y-95994858D01*
X145507969Y-95987417D01*
X145521054Y-95981228D01*
X145534683Y-95976351D01*
X145548724Y-95972834D01*
X145563042Y-95970710D01*
X145577500Y-95970000D01*
X145922500Y-95970000D01*
X145936958Y-95970710D01*
X145936958Y-95970710D01*
G37*
D12*
X145750000Y-96265000D03*
G04 #@! TD*
D10*
G04 #@! TO.C,C10*
G36*
X140926958Y-88930710D02*
X140941276Y-88932834D01*
X140955317Y-88936351D01*
X140968946Y-88941228D01*
X140982031Y-88947417D01*
X140994447Y-88954858D01*
X141006073Y-88963481D01*
X141016798Y-88973202D01*
X141026519Y-88983927D01*
X141035142Y-88995553D01*
X141042583Y-89007969D01*
X141048772Y-89021054D01*
X141053649Y-89034683D01*
X141057166Y-89048724D01*
X141059290Y-89063042D01*
X141060000Y-89077500D01*
X141060000Y-89422500D01*
X141059290Y-89436958D01*
X141057166Y-89451276D01*
X141053649Y-89465317D01*
X141048772Y-89478946D01*
X141042583Y-89492031D01*
X141035142Y-89504447D01*
X141026519Y-89516073D01*
X141016798Y-89526798D01*
X141006073Y-89536519D01*
X140994447Y-89545142D01*
X140982031Y-89552583D01*
X140968946Y-89558772D01*
X140955317Y-89563649D01*
X140941276Y-89567166D01*
X140926958Y-89569290D01*
X140912500Y-89570000D01*
X140617500Y-89570000D01*
X140603042Y-89569290D01*
X140588724Y-89567166D01*
X140574683Y-89563649D01*
X140561054Y-89558772D01*
X140547969Y-89552583D01*
X140535553Y-89545142D01*
X140523927Y-89536519D01*
X140513202Y-89526798D01*
X140503481Y-89516073D01*
X140494858Y-89504447D01*
X140487417Y-89492031D01*
X140481228Y-89478946D01*
X140476351Y-89465317D01*
X140472834Y-89451276D01*
X140470710Y-89436958D01*
X140470000Y-89422500D01*
X140470000Y-89077500D01*
X140470710Y-89063042D01*
X140472834Y-89048724D01*
X140476351Y-89034683D01*
X140481228Y-89021054D01*
X140487417Y-89007969D01*
X140494858Y-88995553D01*
X140503481Y-88983927D01*
X140513202Y-88973202D01*
X140523927Y-88963481D01*
X140535553Y-88954858D01*
X140547969Y-88947417D01*
X140561054Y-88941228D01*
X140574683Y-88936351D01*
X140588724Y-88932834D01*
X140603042Y-88930710D01*
X140617500Y-88930000D01*
X140912500Y-88930000D01*
X140926958Y-88930710D01*
X140926958Y-88930710D01*
G37*
D12*
X140765000Y-89250000D03*
D10*
G36*
X141896958Y-88930710D02*
X141911276Y-88932834D01*
X141925317Y-88936351D01*
X141938946Y-88941228D01*
X141952031Y-88947417D01*
X141964447Y-88954858D01*
X141976073Y-88963481D01*
X141986798Y-88973202D01*
X141996519Y-88983927D01*
X142005142Y-88995553D01*
X142012583Y-89007969D01*
X142018772Y-89021054D01*
X142023649Y-89034683D01*
X142027166Y-89048724D01*
X142029290Y-89063042D01*
X142030000Y-89077500D01*
X142030000Y-89422500D01*
X142029290Y-89436958D01*
X142027166Y-89451276D01*
X142023649Y-89465317D01*
X142018772Y-89478946D01*
X142012583Y-89492031D01*
X142005142Y-89504447D01*
X141996519Y-89516073D01*
X141986798Y-89526798D01*
X141976073Y-89536519D01*
X141964447Y-89545142D01*
X141952031Y-89552583D01*
X141938946Y-89558772D01*
X141925317Y-89563649D01*
X141911276Y-89567166D01*
X141896958Y-89569290D01*
X141882500Y-89570000D01*
X141587500Y-89570000D01*
X141573042Y-89569290D01*
X141558724Y-89567166D01*
X141544683Y-89563649D01*
X141531054Y-89558772D01*
X141517969Y-89552583D01*
X141505553Y-89545142D01*
X141493927Y-89536519D01*
X141483202Y-89526798D01*
X141473481Y-89516073D01*
X141464858Y-89504447D01*
X141457417Y-89492031D01*
X141451228Y-89478946D01*
X141446351Y-89465317D01*
X141442834Y-89451276D01*
X141440710Y-89436958D01*
X141440000Y-89422500D01*
X141440000Y-89077500D01*
X141440710Y-89063042D01*
X141442834Y-89048724D01*
X141446351Y-89034683D01*
X141451228Y-89021054D01*
X141457417Y-89007969D01*
X141464858Y-88995553D01*
X141473481Y-88983927D01*
X141483202Y-88973202D01*
X141493927Y-88963481D01*
X141505553Y-88954858D01*
X141517969Y-88947417D01*
X141531054Y-88941228D01*
X141544683Y-88936351D01*
X141558724Y-88932834D01*
X141573042Y-88930710D01*
X141587500Y-88930000D01*
X141882500Y-88930000D01*
X141896958Y-88930710D01*
X141896958Y-88930710D01*
G37*
D12*
X141735000Y-89250000D03*
G04 #@! TD*
D10*
G04 #@! TO.C,C11*
G36*
X142086958Y-82490710D02*
X142101276Y-82492834D01*
X142115317Y-82496351D01*
X142128946Y-82501228D01*
X142142031Y-82507417D01*
X142154447Y-82514858D01*
X142166073Y-82523481D01*
X142176798Y-82533202D01*
X142186519Y-82543927D01*
X142195142Y-82555553D01*
X142202583Y-82567969D01*
X142208772Y-82581054D01*
X142213649Y-82594683D01*
X142217166Y-82608724D01*
X142219290Y-82623042D01*
X142220000Y-82637500D01*
X142220000Y-82932500D01*
X142219290Y-82946958D01*
X142217166Y-82961276D01*
X142213649Y-82975317D01*
X142208772Y-82988946D01*
X142202583Y-83002031D01*
X142195142Y-83014447D01*
X142186519Y-83026073D01*
X142176798Y-83036798D01*
X142166073Y-83046519D01*
X142154447Y-83055142D01*
X142142031Y-83062583D01*
X142128946Y-83068772D01*
X142115317Y-83073649D01*
X142101276Y-83077166D01*
X142086958Y-83079290D01*
X142072500Y-83080000D01*
X141727500Y-83080000D01*
X141713042Y-83079290D01*
X141698724Y-83077166D01*
X141684683Y-83073649D01*
X141671054Y-83068772D01*
X141657969Y-83062583D01*
X141645553Y-83055142D01*
X141633927Y-83046519D01*
X141623202Y-83036798D01*
X141613481Y-83026073D01*
X141604858Y-83014447D01*
X141597417Y-83002031D01*
X141591228Y-82988946D01*
X141586351Y-82975317D01*
X141582834Y-82961276D01*
X141580710Y-82946958D01*
X141580000Y-82932500D01*
X141580000Y-82637500D01*
X141580710Y-82623042D01*
X141582834Y-82608724D01*
X141586351Y-82594683D01*
X141591228Y-82581054D01*
X141597417Y-82567969D01*
X141604858Y-82555553D01*
X141613481Y-82543927D01*
X141623202Y-82533202D01*
X141633927Y-82523481D01*
X141645553Y-82514858D01*
X141657969Y-82507417D01*
X141671054Y-82501228D01*
X141684683Y-82496351D01*
X141698724Y-82492834D01*
X141713042Y-82490710D01*
X141727500Y-82490000D01*
X142072500Y-82490000D01*
X142086958Y-82490710D01*
X142086958Y-82490710D01*
G37*
D12*
X141900000Y-82785000D03*
D10*
G36*
X142086958Y-81520710D02*
X142101276Y-81522834D01*
X142115317Y-81526351D01*
X142128946Y-81531228D01*
X142142031Y-81537417D01*
X142154447Y-81544858D01*
X142166073Y-81553481D01*
X142176798Y-81563202D01*
X142186519Y-81573927D01*
X142195142Y-81585553D01*
X142202583Y-81597969D01*
X142208772Y-81611054D01*
X142213649Y-81624683D01*
X142217166Y-81638724D01*
X142219290Y-81653042D01*
X142220000Y-81667500D01*
X142220000Y-81962500D01*
X142219290Y-81976958D01*
X142217166Y-81991276D01*
X142213649Y-82005317D01*
X142208772Y-82018946D01*
X142202583Y-82032031D01*
X142195142Y-82044447D01*
X142186519Y-82056073D01*
X142176798Y-82066798D01*
X142166073Y-82076519D01*
X142154447Y-82085142D01*
X142142031Y-82092583D01*
X142128946Y-82098772D01*
X142115317Y-82103649D01*
X142101276Y-82107166D01*
X142086958Y-82109290D01*
X142072500Y-82110000D01*
X141727500Y-82110000D01*
X141713042Y-82109290D01*
X141698724Y-82107166D01*
X141684683Y-82103649D01*
X141671054Y-82098772D01*
X141657969Y-82092583D01*
X141645553Y-82085142D01*
X141633927Y-82076519D01*
X141623202Y-82066798D01*
X141613481Y-82056073D01*
X141604858Y-82044447D01*
X141597417Y-82032031D01*
X141591228Y-82018946D01*
X141586351Y-82005317D01*
X141582834Y-81991276D01*
X141580710Y-81976958D01*
X141580000Y-81962500D01*
X141580000Y-81667500D01*
X141580710Y-81653042D01*
X141582834Y-81638724D01*
X141586351Y-81624683D01*
X141591228Y-81611054D01*
X141597417Y-81597969D01*
X141604858Y-81585553D01*
X141613481Y-81573927D01*
X141623202Y-81563202D01*
X141633927Y-81553481D01*
X141645553Y-81544858D01*
X141657969Y-81537417D01*
X141671054Y-81531228D01*
X141684683Y-81526351D01*
X141698724Y-81522834D01*
X141713042Y-81520710D01*
X141727500Y-81520000D01*
X142072500Y-81520000D01*
X142086958Y-81520710D01*
X142086958Y-81520710D01*
G37*
D12*
X141900000Y-81815000D03*
G04 #@! TD*
D10*
G04 #@! TO.C,C12*
G36*
X147586958Y-82490710D02*
X147601276Y-82492834D01*
X147615317Y-82496351D01*
X147628946Y-82501228D01*
X147642031Y-82507417D01*
X147654447Y-82514858D01*
X147666073Y-82523481D01*
X147676798Y-82533202D01*
X147686519Y-82543927D01*
X147695142Y-82555553D01*
X147702583Y-82567969D01*
X147708772Y-82581054D01*
X147713649Y-82594683D01*
X147717166Y-82608724D01*
X147719290Y-82623042D01*
X147720000Y-82637500D01*
X147720000Y-82932500D01*
X147719290Y-82946958D01*
X147717166Y-82961276D01*
X147713649Y-82975317D01*
X147708772Y-82988946D01*
X147702583Y-83002031D01*
X147695142Y-83014447D01*
X147686519Y-83026073D01*
X147676798Y-83036798D01*
X147666073Y-83046519D01*
X147654447Y-83055142D01*
X147642031Y-83062583D01*
X147628946Y-83068772D01*
X147615317Y-83073649D01*
X147601276Y-83077166D01*
X147586958Y-83079290D01*
X147572500Y-83080000D01*
X147227500Y-83080000D01*
X147213042Y-83079290D01*
X147198724Y-83077166D01*
X147184683Y-83073649D01*
X147171054Y-83068772D01*
X147157969Y-83062583D01*
X147145553Y-83055142D01*
X147133927Y-83046519D01*
X147123202Y-83036798D01*
X147113481Y-83026073D01*
X147104858Y-83014447D01*
X147097417Y-83002031D01*
X147091228Y-82988946D01*
X147086351Y-82975317D01*
X147082834Y-82961276D01*
X147080710Y-82946958D01*
X147080000Y-82932500D01*
X147080000Y-82637500D01*
X147080710Y-82623042D01*
X147082834Y-82608724D01*
X147086351Y-82594683D01*
X147091228Y-82581054D01*
X147097417Y-82567969D01*
X147104858Y-82555553D01*
X147113481Y-82543927D01*
X147123202Y-82533202D01*
X147133927Y-82523481D01*
X147145553Y-82514858D01*
X147157969Y-82507417D01*
X147171054Y-82501228D01*
X147184683Y-82496351D01*
X147198724Y-82492834D01*
X147213042Y-82490710D01*
X147227500Y-82490000D01*
X147572500Y-82490000D01*
X147586958Y-82490710D01*
X147586958Y-82490710D01*
G37*
D12*
X147400000Y-82785000D03*
D10*
G36*
X147586958Y-81520710D02*
X147601276Y-81522834D01*
X147615317Y-81526351D01*
X147628946Y-81531228D01*
X147642031Y-81537417D01*
X147654447Y-81544858D01*
X147666073Y-81553481D01*
X147676798Y-81563202D01*
X147686519Y-81573927D01*
X147695142Y-81585553D01*
X147702583Y-81597969D01*
X147708772Y-81611054D01*
X147713649Y-81624683D01*
X147717166Y-81638724D01*
X147719290Y-81653042D01*
X147720000Y-81667500D01*
X147720000Y-81962500D01*
X147719290Y-81976958D01*
X147717166Y-81991276D01*
X147713649Y-82005317D01*
X147708772Y-82018946D01*
X147702583Y-82032031D01*
X147695142Y-82044447D01*
X147686519Y-82056073D01*
X147676798Y-82066798D01*
X147666073Y-82076519D01*
X147654447Y-82085142D01*
X147642031Y-82092583D01*
X147628946Y-82098772D01*
X147615317Y-82103649D01*
X147601276Y-82107166D01*
X147586958Y-82109290D01*
X147572500Y-82110000D01*
X147227500Y-82110000D01*
X147213042Y-82109290D01*
X147198724Y-82107166D01*
X147184683Y-82103649D01*
X147171054Y-82098772D01*
X147157969Y-82092583D01*
X147145553Y-82085142D01*
X147133927Y-82076519D01*
X147123202Y-82066798D01*
X147113481Y-82056073D01*
X147104858Y-82044447D01*
X147097417Y-82032031D01*
X147091228Y-82018946D01*
X147086351Y-82005317D01*
X147082834Y-81991276D01*
X147080710Y-81976958D01*
X147080000Y-81962500D01*
X147080000Y-81667500D01*
X147080710Y-81653042D01*
X147082834Y-81638724D01*
X147086351Y-81624683D01*
X147091228Y-81611054D01*
X147097417Y-81597969D01*
X147104858Y-81585553D01*
X147113481Y-81573927D01*
X147123202Y-81563202D01*
X147133927Y-81553481D01*
X147145553Y-81544858D01*
X147157969Y-81537417D01*
X147171054Y-81531228D01*
X147184683Y-81526351D01*
X147198724Y-81522834D01*
X147213042Y-81520710D01*
X147227500Y-81520000D01*
X147572500Y-81520000D01*
X147586958Y-81520710D01*
X147586958Y-81520710D01*
G37*
D12*
X147400000Y-81815000D03*
G04 #@! TD*
D10*
G04 #@! TO.C,C13*
G36*
X158896958Y-90930710D02*
X158911276Y-90932834D01*
X158925317Y-90936351D01*
X158938946Y-90941228D01*
X158952031Y-90947417D01*
X158964447Y-90954858D01*
X158976073Y-90963481D01*
X158986798Y-90973202D01*
X158996519Y-90983927D01*
X159005142Y-90995553D01*
X159012583Y-91007969D01*
X159018772Y-91021054D01*
X159023649Y-91034683D01*
X159027166Y-91048724D01*
X159029290Y-91063042D01*
X159030000Y-91077500D01*
X159030000Y-91422500D01*
X159029290Y-91436958D01*
X159027166Y-91451276D01*
X159023649Y-91465317D01*
X159018772Y-91478946D01*
X159012583Y-91492031D01*
X159005142Y-91504447D01*
X158996519Y-91516073D01*
X158986798Y-91526798D01*
X158976073Y-91536519D01*
X158964447Y-91545142D01*
X158952031Y-91552583D01*
X158938946Y-91558772D01*
X158925317Y-91563649D01*
X158911276Y-91567166D01*
X158896958Y-91569290D01*
X158882500Y-91570000D01*
X158587500Y-91570000D01*
X158573042Y-91569290D01*
X158558724Y-91567166D01*
X158544683Y-91563649D01*
X158531054Y-91558772D01*
X158517969Y-91552583D01*
X158505553Y-91545142D01*
X158493927Y-91536519D01*
X158483202Y-91526798D01*
X158473481Y-91516073D01*
X158464858Y-91504447D01*
X158457417Y-91492031D01*
X158451228Y-91478946D01*
X158446351Y-91465317D01*
X158442834Y-91451276D01*
X158440710Y-91436958D01*
X158440000Y-91422500D01*
X158440000Y-91077500D01*
X158440710Y-91063042D01*
X158442834Y-91048724D01*
X158446351Y-91034683D01*
X158451228Y-91021054D01*
X158457417Y-91007969D01*
X158464858Y-90995553D01*
X158473481Y-90983927D01*
X158483202Y-90973202D01*
X158493927Y-90963481D01*
X158505553Y-90954858D01*
X158517969Y-90947417D01*
X158531054Y-90941228D01*
X158544683Y-90936351D01*
X158558724Y-90932834D01*
X158573042Y-90930710D01*
X158587500Y-90930000D01*
X158882500Y-90930000D01*
X158896958Y-90930710D01*
X158896958Y-90930710D01*
G37*
D12*
X158735000Y-91250000D03*
D10*
G36*
X157926958Y-90930710D02*
X157941276Y-90932834D01*
X157955317Y-90936351D01*
X157968946Y-90941228D01*
X157982031Y-90947417D01*
X157994447Y-90954858D01*
X158006073Y-90963481D01*
X158016798Y-90973202D01*
X158026519Y-90983927D01*
X158035142Y-90995553D01*
X158042583Y-91007969D01*
X158048772Y-91021054D01*
X158053649Y-91034683D01*
X158057166Y-91048724D01*
X158059290Y-91063042D01*
X158060000Y-91077500D01*
X158060000Y-91422500D01*
X158059290Y-91436958D01*
X158057166Y-91451276D01*
X158053649Y-91465317D01*
X158048772Y-91478946D01*
X158042583Y-91492031D01*
X158035142Y-91504447D01*
X158026519Y-91516073D01*
X158016798Y-91526798D01*
X158006073Y-91536519D01*
X157994447Y-91545142D01*
X157982031Y-91552583D01*
X157968946Y-91558772D01*
X157955317Y-91563649D01*
X157941276Y-91567166D01*
X157926958Y-91569290D01*
X157912500Y-91570000D01*
X157617500Y-91570000D01*
X157603042Y-91569290D01*
X157588724Y-91567166D01*
X157574683Y-91563649D01*
X157561054Y-91558772D01*
X157547969Y-91552583D01*
X157535553Y-91545142D01*
X157523927Y-91536519D01*
X157513202Y-91526798D01*
X157503481Y-91516073D01*
X157494858Y-91504447D01*
X157487417Y-91492031D01*
X157481228Y-91478946D01*
X157476351Y-91465317D01*
X157472834Y-91451276D01*
X157470710Y-91436958D01*
X157470000Y-91422500D01*
X157470000Y-91077500D01*
X157470710Y-91063042D01*
X157472834Y-91048724D01*
X157476351Y-91034683D01*
X157481228Y-91021054D01*
X157487417Y-91007969D01*
X157494858Y-90995553D01*
X157503481Y-90983927D01*
X157513202Y-90973202D01*
X157523927Y-90963481D01*
X157535553Y-90954858D01*
X157547969Y-90947417D01*
X157561054Y-90941228D01*
X157574683Y-90936351D01*
X157588724Y-90932834D01*
X157603042Y-90930710D01*
X157617500Y-90930000D01*
X157912500Y-90930000D01*
X157926958Y-90930710D01*
X157926958Y-90930710D01*
G37*
D12*
X157765000Y-91250000D03*
G04 #@! TD*
D10*
G04 #@! TO.C,C14*
G36*
X157926958Y-92180710D02*
X157941276Y-92182834D01*
X157955317Y-92186351D01*
X157968946Y-92191228D01*
X157982031Y-92197417D01*
X157994447Y-92204858D01*
X158006073Y-92213481D01*
X158016798Y-92223202D01*
X158026519Y-92233927D01*
X158035142Y-92245553D01*
X158042583Y-92257969D01*
X158048772Y-92271054D01*
X158053649Y-92284683D01*
X158057166Y-92298724D01*
X158059290Y-92313042D01*
X158060000Y-92327500D01*
X158060000Y-92672500D01*
X158059290Y-92686958D01*
X158057166Y-92701276D01*
X158053649Y-92715317D01*
X158048772Y-92728946D01*
X158042583Y-92742031D01*
X158035142Y-92754447D01*
X158026519Y-92766073D01*
X158016798Y-92776798D01*
X158006073Y-92786519D01*
X157994447Y-92795142D01*
X157982031Y-92802583D01*
X157968946Y-92808772D01*
X157955317Y-92813649D01*
X157941276Y-92817166D01*
X157926958Y-92819290D01*
X157912500Y-92820000D01*
X157617500Y-92820000D01*
X157603042Y-92819290D01*
X157588724Y-92817166D01*
X157574683Y-92813649D01*
X157561054Y-92808772D01*
X157547969Y-92802583D01*
X157535553Y-92795142D01*
X157523927Y-92786519D01*
X157513202Y-92776798D01*
X157503481Y-92766073D01*
X157494858Y-92754447D01*
X157487417Y-92742031D01*
X157481228Y-92728946D01*
X157476351Y-92715317D01*
X157472834Y-92701276D01*
X157470710Y-92686958D01*
X157470000Y-92672500D01*
X157470000Y-92327500D01*
X157470710Y-92313042D01*
X157472834Y-92298724D01*
X157476351Y-92284683D01*
X157481228Y-92271054D01*
X157487417Y-92257969D01*
X157494858Y-92245553D01*
X157503481Y-92233927D01*
X157513202Y-92223202D01*
X157523927Y-92213481D01*
X157535553Y-92204858D01*
X157547969Y-92197417D01*
X157561054Y-92191228D01*
X157574683Y-92186351D01*
X157588724Y-92182834D01*
X157603042Y-92180710D01*
X157617500Y-92180000D01*
X157912500Y-92180000D01*
X157926958Y-92180710D01*
X157926958Y-92180710D01*
G37*
D12*
X157765000Y-92500000D03*
D10*
G36*
X158896958Y-92180710D02*
X158911276Y-92182834D01*
X158925317Y-92186351D01*
X158938946Y-92191228D01*
X158952031Y-92197417D01*
X158964447Y-92204858D01*
X158976073Y-92213481D01*
X158986798Y-92223202D01*
X158996519Y-92233927D01*
X159005142Y-92245553D01*
X159012583Y-92257969D01*
X159018772Y-92271054D01*
X159023649Y-92284683D01*
X159027166Y-92298724D01*
X159029290Y-92313042D01*
X159030000Y-92327500D01*
X159030000Y-92672500D01*
X159029290Y-92686958D01*
X159027166Y-92701276D01*
X159023649Y-92715317D01*
X159018772Y-92728946D01*
X159012583Y-92742031D01*
X159005142Y-92754447D01*
X158996519Y-92766073D01*
X158986798Y-92776798D01*
X158976073Y-92786519D01*
X158964447Y-92795142D01*
X158952031Y-92802583D01*
X158938946Y-92808772D01*
X158925317Y-92813649D01*
X158911276Y-92817166D01*
X158896958Y-92819290D01*
X158882500Y-92820000D01*
X158587500Y-92820000D01*
X158573042Y-92819290D01*
X158558724Y-92817166D01*
X158544683Y-92813649D01*
X158531054Y-92808772D01*
X158517969Y-92802583D01*
X158505553Y-92795142D01*
X158493927Y-92786519D01*
X158483202Y-92776798D01*
X158473481Y-92766073D01*
X158464858Y-92754447D01*
X158457417Y-92742031D01*
X158451228Y-92728946D01*
X158446351Y-92715317D01*
X158442834Y-92701276D01*
X158440710Y-92686958D01*
X158440000Y-92672500D01*
X158440000Y-92327500D01*
X158440710Y-92313042D01*
X158442834Y-92298724D01*
X158446351Y-92284683D01*
X158451228Y-92271054D01*
X158457417Y-92257969D01*
X158464858Y-92245553D01*
X158473481Y-92233927D01*
X158483202Y-92223202D01*
X158493927Y-92213481D01*
X158505553Y-92204858D01*
X158517969Y-92197417D01*
X158531054Y-92191228D01*
X158544683Y-92186351D01*
X158558724Y-92182834D01*
X158573042Y-92180710D01*
X158587500Y-92180000D01*
X158882500Y-92180000D01*
X158896958Y-92180710D01*
X158896958Y-92180710D01*
G37*
D12*
X158735000Y-92500000D03*
G04 #@! TD*
D10*
G04 #@! TO.C,C15*
G36*
X158646958Y-106430710D02*
X158661276Y-106432834D01*
X158675317Y-106436351D01*
X158688946Y-106441228D01*
X158702031Y-106447417D01*
X158714447Y-106454858D01*
X158726073Y-106463481D01*
X158736798Y-106473202D01*
X158746519Y-106483927D01*
X158755142Y-106495553D01*
X158762583Y-106507969D01*
X158768772Y-106521054D01*
X158773649Y-106534683D01*
X158777166Y-106548724D01*
X158779290Y-106563042D01*
X158780000Y-106577500D01*
X158780000Y-106922500D01*
X158779290Y-106936958D01*
X158777166Y-106951276D01*
X158773649Y-106965317D01*
X158768772Y-106978946D01*
X158762583Y-106992031D01*
X158755142Y-107004447D01*
X158746519Y-107016073D01*
X158736798Y-107026798D01*
X158726073Y-107036519D01*
X158714447Y-107045142D01*
X158702031Y-107052583D01*
X158688946Y-107058772D01*
X158675317Y-107063649D01*
X158661276Y-107067166D01*
X158646958Y-107069290D01*
X158632500Y-107070000D01*
X158337500Y-107070000D01*
X158323042Y-107069290D01*
X158308724Y-107067166D01*
X158294683Y-107063649D01*
X158281054Y-107058772D01*
X158267969Y-107052583D01*
X158255553Y-107045142D01*
X158243927Y-107036519D01*
X158233202Y-107026798D01*
X158223481Y-107016073D01*
X158214858Y-107004447D01*
X158207417Y-106992031D01*
X158201228Y-106978946D01*
X158196351Y-106965317D01*
X158192834Y-106951276D01*
X158190710Y-106936958D01*
X158190000Y-106922500D01*
X158190000Y-106577500D01*
X158190710Y-106563042D01*
X158192834Y-106548724D01*
X158196351Y-106534683D01*
X158201228Y-106521054D01*
X158207417Y-106507969D01*
X158214858Y-106495553D01*
X158223481Y-106483927D01*
X158233202Y-106473202D01*
X158243927Y-106463481D01*
X158255553Y-106454858D01*
X158267969Y-106447417D01*
X158281054Y-106441228D01*
X158294683Y-106436351D01*
X158308724Y-106432834D01*
X158323042Y-106430710D01*
X158337500Y-106430000D01*
X158632500Y-106430000D01*
X158646958Y-106430710D01*
X158646958Y-106430710D01*
G37*
D12*
X158485000Y-106750000D03*
D10*
G36*
X157676958Y-106430710D02*
X157691276Y-106432834D01*
X157705317Y-106436351D01*
X157718946Y-106441228D01*
X157732031Y-106447417D01*
X157744447Y-106454858D01*
X157756073Y-106463481D01*
X157766798Y-106473202D01*
X157776519Y-106483927D01*
X157785142Y-106495553D01*
X157792583Y-106507969D01*
X157798772Y-106521054D01*
X157803649Y-106534683D01*
X157807166Y-106548724D01*
X157809290Y-106563042D01*
X157810000Y-106577500D01*
X157810000Y-106922500D01*
X157809290Y-106936958D01*
X157807166Y-106951276D01*
X157803649Y-106965317D01*
X157798772Y-106978946D01*
X157792583Y-106992031D01*
X157785142Y-107004447D01*
X157776519Y-107016073D01*
X157766798Y-107026798D01*
X157756073Y-107036519D01*
X157744447Y-107045142D01*
X157732031Y-107052583D01*
X157718946Y-107058772D01*
X157705317Y-107063649D01*
X157691276Y-107067166D01*
X157676958Y-107069290D01*
X157662500Y-107070000D01*
X157367500Y-107070000D01*
X157353042Y-107069290D01*
X157338724Y-107067166D01*
X157324683Y-107063649D01*
X157311054Y-107058772D01*
X157297969Y-107052583D01*
X157285553Y-107045142D01*
X157273927Y-107036519D01*
X157263202Y-107026798D01*
X157253481Y-107016073D01*
X157244858Y-107004447D01*
X157237417Y-106992031D01*
X157231228Y-106978946D01*
X157226351Y-106965317D01*
X157222834Y-106951276D01*
X157220710Y-106936958D01*
X157220000Y-106922500D01*
X157220000Y-106577500D01*
X157220710Y-106563042D01*
X157222834Y-106548724D01*
X157226351Y-106534683D01*
X157231228Y-106521054D01*
X157237417Y-106507969D01*
X157244858Y-106495553D01*
X157253481Y-106483927D01*
X157263202Y-106473202D01*
X157273927Y-106463481D01*
X157285553Y-106454858D01*
X157297969Y-106447417D01*
X157311054Y-106441228D01*
X157324683Y-106436351D01*
X157338724Y-106432834D01*
X157353042Y-106430710D01*
X157367500Y-106430000D01*
X157662500Y-106430000D01*
X157676958Y-106430710D01*
X157676958Y-106430710D01*
G37*
D12*
X157515000Y-106750000D03*
G04 #@! TD*
D10*
G04 #@! TO.C,C16*
G36*
X161661958Y-107680710D02*
X161676276Y-107682834D01*
X161690317Y-107686351D01*
X161703946Y-107691228D01*
X161717031Y-107697417D01*
X161729447Y-107704858D01*
X161741073Y-107713481D01*
X161751798Y-107723202D01*
X161761519Y-107733927D01*
X161770142Y-107745553D01*
X161777583Y-107757969D01*
X161783772Y-107771054D01*
X161788649Y-107784683D01*
X161792166Y-107798724D01*
X161794290Y-107813042D01*
X161795000Y-107827500D01*
X161795000Y-108172500D01*
X161794290Y-108186958D01*
X161792166Y-108201276D01*
X161788649Y-108215317D01*
X161783772Y-108228946D01*
X161777583Y-108242031D01*
X161770142Y-108254447D01*
X161761519Y-108266073D01*
X161751798Y-108276798D01*
X161741073Y-108286519D01*
X161729447Y-108295142D01*
X161717031Y-108302583D01*
X161703946Y-108308772D01*
X161690317Y-108313649D01*
X161676276Y-108317166D01*
X161661958Y-108319290D01*
X161647500Y-108320000D01*
X161352500Y-108320000D01*
X161338042Y-108319290D01*
X161323724Y-108317166D01*
X161309683Y-108313649D01*
X161296054Y-108308772D01*
X161282969Y-108302583D01*
X161270553Y-108295142D01*
X161258927Y-108286519D01*
X161248202Y-108276798D01*
X161238481Y-108266073D01*
X161229858Y-108254447D01*
X161222417Y-108242031D01*
X161216228Y-108228946D01*
X161211351Y-108215317D01*
X161207834Y-108201276D01*
X161205710Y-108186958D01*
X161205000Y-108172500D01*
X161205000Y-107827500D01*
X161205710Y-107813042D01*
X161207834Y-107798724D01*
X161211351Y-107784683D01*
X161216228Y-107771054D01*
X161222417Y-107757969D01*
X161229858Y-107745553D01*
X161238481Y-107733927D01*
X161248202Y-107723202D01*
X161258927Y-107713481D01*
X161270553Y-107704858D01*
X161282969Y-107697417D01*
X161296054Y-107691228D01*
X161309683Y-107686351D01*
X161323724Y-107682834D01*
X161338042Y-107680710D01*
X161352500Y-107680000D01*
X161647500Y-107680000D01*
X161661958Y-107680710D01*
X161661958Y-107680710D01*
G37*
D12*
X161500000Y-108000000D03*
D10*
G36*
X162631958Y-107680710D02*
X162646276Y-107682834D01*
X162660317Y-107686351D01*
X162673946Y-107691228D01*
X162687031Y-107697417D01*
X162699447Y-107704858D01*
X162711073Y-107713481D01*
X162721798Y-107723202D01*
X162731519Y-107733927D01*
X162740142Y-107745553D01*
X162747583Y-107757969D01*
X162753772Y-107771054D01*
X162758649Y-107784683D01*
X162762166Y-107798724D01*
X162764290Y-107813042D01*
X162765000Y-107827500D01*
X162765000Y-108172500D01*
X162764290Y-108186958D01*
X162762166Y-108201276D01*
X162758649Y-108215317D01*
X162753772Y-108228946D01*
X162747583Y-108242031D01*
X162740142Y-108254447D01*
X162731519Y-108266073D01*
X162721798Y-108276798D01*
X162711073Y-108286519D01*
X162699447Y-108295142D01*
X162687031Y-108302583D01*
X162673946Y-108308772D01*
X162660317Y-108313649D01*
X162646276Y-108317166D01*
X162631958Y-108319290D01*
X162617500Y-108320000D01*
X162322500Y-108320000D01*
X162308042Y-108319290D01*
X162293724Y-108317166D01*
X162279683Y-108313649D01*
X162266054Y-108308772D01*
X162252969Y-108302583D01*
X162240553Y-108295142D01*
X162228927Y-108286519D01*
X162218202Y-108276798D01*
X162208481Y-108266073D01*
X162199858Y-108254447D01*
X162192417Y-108242031D01*
X162186228Y-108228946D01*
X162181351Y-108215317D01*
X162177834Y-108201276D01*
X162175710Y-108186958D01*
X162175000Y-108172500D01*
X162175000Y-107827500D01*
X162175710Y-107813042D01*
X162177834Y-107798724D01*
X162181351Y-107784683D01*
X162186228Y-107771054D01*
X162192417Y-107757969D01*
X162199858Y-107745553D01*
X162208481Y-107733927D01*
X162218202Y-107723202D01*
X162228927Y-107713481D01*
X162240553Y-107704858D01*
X162252969Y-107697417D01*
X162266054Y-107691228D01*
X162279683Y-107686351D01*
X162293724Y-107682834D01*
X162308042Y-107680710D01*
X162322500Y-107680000D01*
X162617500Y-107680000D01*
X162631958Y-107680710D01*
X162631958Y-107680710D01*
G37*
D12*
X162470000Y-108000000D03*
G04 #@! TD*
D10*
G04 #@! TO.C,C17*
G36*
X141146958Y-106930710D02*
X141161276Y-106932834D01*
X141175317Y-106936351D01*
X141188946Y-106941228D01*
X141202031Y-106947417D01*
X141214447Y-106954858D01*
X141226073Y-106963481D01*
X141236798Y-106973202D01*
X141246519Y-106983927D01*
X141255142Y-106995553D01*
X141262583Y-107007969D01*
X141268772Y-107021054D01*
X141273649Y-107034683D01*
X141277166Y-107048724D01*
X141279290Y-107063042D01*
X141280000Y-107077500D01*
X141280000Y-107422500D01*
X141279290Y-107436958D01*
X141277166Y-107451276D01*
X141273649Y-107465317D01*
X141268772Y-107478946D01*
X141262583Y-107492031D01*
X141255142Y-107504447D01*
X141246519Y-107516073D01*
X141236798Y-107526798D01*
X141226073Y-107536519D01*
X141214447Y-107545142D01*
X141202031Y-107552583D01*
X141188946Y-107558772D01*
X141175317Y-107563649D01*
X141161276Y-107567166D01*
X141146958Y-107569290D01*
X141132500Y-107570000D01*
X140837500Y-107570000D01*
X140823042Y-107569290D01*
X140808724Y-107567166D01*
X140794683Y-107563649D01*
X140781054Y-107558772D01*
X140767969Y-107552583D01*
X140755553Y-107545142D01*
X140743927Y-107536519D01*
X140733202Y-107526798D01*
X140723481Y-107516073D01*
X140714858Y-107504447D01*
X140707417Y-107492031D01*
X140701228Y-107478946D01*
X140696351Y-107465317D01*
X140692834Y-107451276D01*
X140690710Y-107436958D01*
X140690000Y-107422500D01*
X140690000Y-107077500D01*
X140690710Y-107063042D01*
X140692834Y-107048724D01*
X140696351Y-107034683D01*
X140701228Y-107021054D01*
X140707417Y-107007969D01*
X140714858Y-106995553D01*
X140723481Y-106983927D01*
X140733202Y-106973202D01*
X140743927Y-106963481D01*
X140755553Y-106954858D01*
X140767969Y-106947417D01*
X140781054Y-106941228D01*
X140794683Y-106936351D01*
X140808724Y-106932834D01*
X140823042Y-106930710D01*
X140837500Y-106930000D01*
X141132500Y-106930000D01*
X141146958Y-106930710D01*
X141146958Y-106930710D01*
G37*
D12*
X140985000Y-107250000D03*
D10*
G36*
X140176958Y-106930710D02*
X140191276Y-106932834D01*
X140205317Y-106936351D01*
X140218946Y-106941228D01*
X140232031Y-106947417D01*
X140244447Y-106954858D01*
X140256073Y-106963481D01*
X140266798Y-106973202D01*
X140276519Y-106983927D01*
X140285142Y-106995553D01*
X140292583Y-107007969D01*
X140298772Y-107021054D01*
X140303649Y-107034683D01*
X140307166Y-107048724D01*
X140309290Y-107063042D01*
X140310000Y-107077500D01*
X140310000Y-107422500D01*
X140309290Y-107436958D01*
X140307166Y-107451276D01*
X140303649Y-107465317D01*
X140298772Y-107478946D01*
X140292583Y-107492031D01*
X140285142Y-107504447D01*
X140276519Y-107516073D01*
X140266798Y-107526798D01*
X140256073Y-107536519D01*
X140244447Y-107545142D01*
X140232031Y-107552583D01*
X140218946Y-107558772D01*
X140205317Y-107563649D01*
X140191276Y-107567166D01*
X140176958Y-107569290D01*
X140162500Y-107570000D01*
X139867500Y-107570000D01*
X139853042Y-107569290D01*
X139838724Y-107567166D01*
X139824683Y-107563649D01*
X139811054Y-107558772D01*
X139797969Y-107552583D01*
X139785553Y-107545142D01*
X139773927Y-107536519D01*
X139763202Y-107526798D01*
X139753481Y-107516073D01*
X139744858Y-107504447D01*
X139737417Y-107492031D01*
X139731228Y-107478946D01*
X139726351Y-107465317D01*
X139722834Y-107451276D01*
X139720710Y-107436958D01*
X139720000Y-107422500D01*
X139720000Y-107077500D01*
X139720710Y-107063042D01*
X139722834Y-107048724D01*
X139726351Y-107034683D01*
X139731228Y-107021054D01*
X139737417Y-107007969D01*
X139744858Y-106995553D01*
X139753481Y-106983927D01*
X139763202Y-106973202D01*
X139773927Y-106963481D01*
X139785553Y-106954858D01*
X139797969Y-106947417D01*
X139811054Y-106941228D01*
X139824683Y-106936351D01*
X139838724Y-106932834D01*
X139853042Y-106930710D01*
X139867500Y-106930000D01*
X140162500Y-106930000D01*
X140176958Y-106930710D01*
X140176958Y-106930710D01*
G37*
D12*
X140015000Y-107250000D03*
G04 #@! TD*
D10*
G04 #@! TO.C,C18*
G36*
X140176958Y-100430710D02*
X140191276Y-100432834D01*
X140205317Y-100436351D01*
X140218946Y-100441228D01*
X140232031Y-100447417D01*
X140244447Y-100454858D01*
X140256073Y-100463481D01*
X140266798Y-100473202D01*
X140276519Y-100483927D01*
X140285142Y-100495553D01*
X140292583Y-100507969D01*
X140298772Y-100521054D01*
X140303649Y-100534683D01*
X140307166Y-100548724D01*
X140309290Y-100563042D01*
X140310000Y-100577500D01*
X140310000Y-100922500D01*
X140309290Y-100936958D01*
X140307166Y-100951276D01*
X140303649Y-100965317D01*
X140298772Y-100978946D01*
X140292583Y-100992031D01*
X140285142Y-101004447D01*
X140276519Y-101016073D01*
X140266798Y-101026798D01*
X140256073Y-101036519D01*
X140244447Y-101045142D01*
X140232031Y-101052583D01*
X140218946Y-101058772D01*
X140205317Y-101063649D01*
X140191276Y-101067166D01*
X140176958Y-101069290D01*
X140162500Y-101070000D01*
X139867500Y-101070000D01*
X139853042Y-101069290D01*
X139838724Y-101067166D01*
X139824683Y-101063649D01*
X139811054Y-101058772D01*
X139797969Y-101052583D01*
X139785553Y-101045142D01*
X139773927Y-101036519D01*
X139763202Y-101026798D01*
X139753481Y-101016073D01*
X139744858Y-101004447D01*
X139737417Y-100992031D01*
X139731228Y-100978946D01*
X139726351Y-100965317D01*
X139722834Y-100951276D01*
X139720710Y-100936958D01*
X139720000Y-100922500D01*
X139720000Y-100577500D01*
X139720710Y-100563042D01*
X139722834Y-100548724D01*
X139726351Y-100534683D01*
X139731228Y-100521054D01*
X139737417Y-100507969D01*
X139744858Y-100495553D01*
X139753481Y-100483927D01*
X139763202Y-100473202D01*
X139773927Y-100463481D01*
X139785553Y-100454858D01*
X139797969Y-100447417D01*
X139811054Y-100441228D01*
X139824683Y-100436351D01*
X139838724Y-100432834D01*
X139853042Y-100430710D01*
X139867500Y-100430000D01*
X140162500Y-100430000D01*
X140176958Y-100430710D01*
X140176958Y-100430710D01*
G37*
D12*
X140015000Y-100750000D03*
D10*
G36*
X141146958Y-100430710D02*
X141161276Y-100432834D01*
X141175317Y-100436351D01*
X141188946Y-100441228D01*
X141202031Y-100447417D01*
X141214447Y-100454858D01*
X141226073Y-100463481D01*
X141236798Y-100473202D01*
X141246519Y-100483927D01*
X141255142Y-100495553D01*
X141262583Y-100507969D01*
X141268772Y-100521054D01*
X141273649Y-100534683D01*
X141277166Y-100548724D01*
X141279290Y-100563042D01*
X141280000Y-100577500D01*
X141280000Y-100922500D01*
X141279290Y-100936958D01*
X141277166Y-100951276D01*
X141273649Y-100965317D01*
X141268772Y-100978946D01*
X141262583Y-100992031D01*
X141255142Y-101004447D01*
X141246519Y-101016073D01*
X141236798Y-101026798D01*
X141226073Y-101036519D01*
X141214447Y-101045142D01*
X141202031Y-101052583D01*
X141188946Y-101058772D01*
X141175317Y-101063649D01*
X141161276Y-101067166D01*
X141146958Y-101069290D01*
X141132500Y-101070000D01*
X140837500Y-101070000D01*
X140823042Y-101069290D01*
X140808724Y-101067166D01*
X140794683Y-101063649D01*
X140781054Y-101058772D01*
X140767969Y-101052583D01*
X140755553Y-101045142D01*
X140743927Y-101036519D01*
X140733202Y-101026798D01*
X140723481Y-101016073D01*
X140714858Y-101004447D01*
X140707417Y-100992031D01*
X140701228Y-100978946D01*
X140696351Y-100965317D01*
X140692834Y-100951276D01*
X140690710Y-100936958D01*
X140690000Y-100922500D01*
X140690000Y-100577500D01*
X140690710Y-100563042D01*
X140692834Y-100548724D01*
X140696351Y-100534683D01*
X140701228Y-100521054D01*
X140707417Y-100507969D01*
X140714858Y-100495553D01*
X140723481Y-100483927D01*
X140733202Y-100473202D01*
X140743927Y-100463481D01*
X140755553Y-100454858D01*
X140767969Y-100447417D01*
X140781054Y-100441228D01*
X140794683Y-100436351D01*
X140808724Y-100432834D01*
X140823042Y-100430710D01*
X140837500Y-100430000D01*
X141132500Y-100430000D01*
X141146958Y-100430710D01*
X141146958Y-100430710D01*
G37*
D12*
X140985000Y-100750000D03*
G04 #@! TD*
D10*
G04 #@! TO.C,C19*
G36*
X148146958Y-106930710D02*
X148161276Y-106932834D01*
X148175317Y-106936351D01*
X148188946Y-106941228D01*
X148202031Y-106947417D01*
X148214447Y-106954858D01*
X148226073Y-106963481D01*
X148236798Y-106973202D01*
X148246519Y-106983927D01*
X148255142Y-106995553D01*
X148262583Y-107007969D01*
X148268772Y-107021054D01*
X148273649Y-107034683D01*
X148277166Y-107048724D01*
X148279290Y-107063042D01*
X148280000Y-107077500D01*
X148280000Y-107422500D01*
X148279290Y-107436958D01*
X148277166Y-107451276D01*
X148273649Y-107465317D01*
X148268772Y-107478946D01*
X148262583Y-107492031D01*
X148255142Y-107504447D01*
X148246519Y-107516073D01*
X148236798Y-107526798D01*
X148226073Y-107536519D01*
X148214447Y-107545142D01*
X148202031Y-107552583D01*
X148188946Y-107558772D01*
X148175317Y-107563649D01*
X148161276Y-107567166D01*
X148146958Y-107569290D01*
X148132500Y-107570000D01*
X147837500Y-107570000D01*
X147823042Y-107569290D01*
X147808724Y-107567166D01*
X147794683Y-107563649D01*
X147781054Y-107558772D01*
X147767969Y-107552583D01*
X147755553Y-107545142D01*
X147743927Y-107536519D01*
X147733202Y-107526798D01*
X147723481Y-107516073D01*
X147714858Y-107504447D01*
X147707417Y-107492031D01*
X147701228Y-107478946D01*
X147696351Y-107465317D01*
X147692834Y-107451276D01*
X147690710Y-107436958D01*
X147690000Y-107422500D01*
X147690000Y-107077500D01*
X147690710Y-107063042D01*
X147692834Y-107048724D01*
X147696351Y-107034683D01*
X147701228Y-107021054D01*
X147707417Y-107007969D01*
X147714858Y-106995553D01*
X147723481Y-106983927D01*
X147733202Y-106973202D01*
X147743927Y-106963481D01*
X147755553Y-106954858D01*
X147767969Y-106947417D01*
X147781054Y-106941228D01*
X147794683Y-106936351D01*
X147808724Y-106932834D01*
X147823042Y-106930710D01*
X147837500Y-106930000D01*
X148132500Y-106930000D01*
X148146958Y-106930710D01*
X148146958Y-106930710D01*
G37*
D12*
X147985000Y-107250000D03*
D10*
G36*
X147176958Y-106930710D02*
X147191276Y-106932834D01*
X147205317Y-106936351D01*
X147218946Y-106941228D01*
X147232031Y-106947417D01*
X147244447Y-106954858D01*
X147256073Y-106963481D01*
X147266798Y-106973202D01*
X147276519Y-106983927D01*
X147285142Y-106995553D01*
X147292583Y-107007969D01*
X147298772Y-107021054D01*
X147303649Y-107034683D01*
X147307166Y-107048724D01*
X147309290Y-107063042D01*
X147310000Y-107077500D01*
X147310000Y-107422500D01*
X147309290Y-107436958D01*
X147307166Y-107451276D01*
X147303649Y-107465317D01*
X147298772Y-107478946D01*
X147292583Y-107492031D01*
X147285142Y-107504447D01*
X147276519Y-107516073D01*
X147266798Y-107526798D01*
X147256073Y-107536519D01*
X147244447Y-107545142D01*
X147232031Y-107552583D01*
X147218946Y-107558772D01*
X147205317Y-107563649D01*
X147191276Y-107567166D01*
X147176958Y-107569290D01*
X147162500Y-107570000D01*
X146867500Y-107570000D01*
X146853042Y-107569290D01*
X146838724Y-107567166D01*
X146824683Y-107563649D01*
X146811054Y-107558772D01*
X146797969Y-107552583D01*
X146785553Y-107545142D01*
X146773927Y-107536519D01*
X146763202Y-107526798D01*
X146753481Y-107516073D01*
X146744858Y-107504447D01*
X146737417Y-107492031D01*
X146731228Y-107478946D01*
X146726351Y-107465317D01*
X146722834Y-107451276D01*
X146720710Y-107436958D01*
X146720000Y-107422500D01*
X146720000Y-107077500D01*
X146720710Y-107063042D01*
X146722834Y-107048724D01*
X146726351Y-107034683D01*
X146731228Y-107021054D01*
X146737417Y-107007969D01*
X146744858Y-106995553D01*
X146753481Y-106983927D01*
X146763202Y-106973202D01*
X146773927Y-106963481D01*
X146785553Y-106954858D01*
X146797969Y-106947417D01*
X146811054Y-106941228D01*
X146824683Y-106936351D01*
X146838724Y-106932834D01*
X146853042Y-106930710D01*
X146867500Y-106930000D01*
X147162500Y-106930000D01*
X147176958Y-106930710D01*
X147176958Y-106930710D01*
G37*
D12*
X147015000Y-107250000D03*
G04 #@! TD*
D10*
G04 #@! TO.C,C20*
G36*
X148146958Y-100430710D02*
X148161276Y-100432834D01*
X148175317Y-100436351D01*
X148188946Y-100441228D01*
X148202031Y-100447417D01*
X148214447Y-100454858D01*
X148226073Y-100463481D01*
X148236798Y-100473202D01*
X148246519Y-100483927D01*
X148255142Y-100495553D01*
X148262583Y-100507969D01*
X148268772Y-100521054D01*
X148273649Y-100534683D01*
X148277166Y-100548724D01*
X148279290Y-100563042D01*
X148280000Y-100577500D01*
X148280000Y-100922500D01*
X148279290Y-100936958D01*
X148277166Y-100951276D01*
X148273649Y-100965317D01*
X148268772Y-100978946D01*
X148262583Y-100992031D01*
X148255142Y-101004447D01*
X148246519Y-101016073D01*
X148236798Y-101026798D01*
X148226073Y-101036519D01*
X148214447Y-101045142D01*
X148202031Y-101052583D01*
X148188946Y-101058772D01*
X148175317Y-101063649D01*
X148161276Y-101067166D01*
X148146958Y-101069290D01*
X148132500Y-101070000D01*
X147837500Y-101070000D01*
X147823042Y-101069290D01*
X147808724Y-101067166D01*
X147794683Y-101063649D01*
X147781054Y-101058772D01*
X147767969Y-101052583D01*
X147755553Y-101045142D01*
X147743927Y-101036519D01*
X147733202Y-101026798D01*
X147723481Y-101016073D01*
X147714858Y-101004447D01*
X147707417Y-100992031D01*
X147701228Y-100978946D01*
X147696351Y-100965317D01*
X147692834Y-100951276D01*
X147690710Y-100936958D01*
X147690000Y-100922500D01*
X147690000Y-100577500D01*
X147690710Y-100563042D01*
X147692834Y-100548724D01*
X147696351Y-100534683D01*
X147701228Y-100521054D01*
X147707417Y-100507969D01*
X147714858Y-100495553D01*
X147723481Y-100483927D01*
X147733202Y-100473202D01*
X147743927Y-100463481D01*
X147755553Y-100454858D01*
X147767969Y-100447417D01*
X147781054Y-100441228D01*
X147794683Y-100436351D01*
X147808724Y-100432834D01*
X147823042Y-100430710D01*
X147837500Y-100430000D01*
X148132500Y-100430000D01*
X148146958Y-100430710D01*
X148146958Y-100430710D01*
G37*
D12*
X147985000Y-100750000D03*
D10*
G36*
X147176958Y-100430710D02*
X147191276Y-100432834D01*
X147205317Y-100436351D01*
X147218946Y-100441228D01*
X147232031Y-100447417D01*
X147244447Y-100454858D01*
X147256073Y-100463481D01*
X147266798Y-100473202D01*
X147276519Y-100483927D01*
X147285142Y-100495553D01*
X147292583Y-100507969D01*
X147298772Y-100521054D01*
X147303649Y-100534683D01*
X147307166Y-100548724D01*
X147309290Y-100563042D01*
X147310000Y-100577500D01*
X147310000Y-100922500D01*
X147309290Y-100936958D01*
X147307166Y-100951276D01*
X147303649Y-100965317D01*
X147298772Y-100978946D01*
X147292583Y-100992031D01*
X147285142Y-101004447D01*
X147276519Y-101016073D01*
X147266798Y-101026798D01*
X147256073Y-101036519D01*
X147244447Y-101045142D01*
X147232031Y-101052583D01*
X147218946Y-101058772D01*
X147205317Y-101063649D01*
X147191276Y-101067166D01*
X147176958Y-101069290D01*
X147162500Y-101070000D01*
X146867500Y-101070000D01*
X146853042Y-101069290D01*
X146838724Y-101067166D01*
X146824683Y-101063649D01*
X146811054Y-101058772D01*
X146797969Y-101052583D01*
X146785553Y-101045142D01*
X146773927Y-101036519D01*
X146763202Y-101026798D01*
X146753481Y-101016073D01*
X146744858Y-101004447D01*
X146737417Y-100992031D01*
X146731228Y-100978946D01*
X146726351Y-100965317D01*
X146722834Y-100951276D01*
X146720710Y-100936958D01*
X146720000Y-100922500D01*
X146720000Y-100577500D01*
X146720710Y-100563042D01*
X146722834Y-100548724D01*
X146726351Y-100534683D01*
X146731228Y-100521054D01*
X146737417Y-100507969D01*
X146744858Y-100495553D01*
X146753481Y-100483927D01*
X146763202Y-100473202D01*
X146773927Y-100463481D01*
X146785553Y-100454858D01*
X146797969Y-100447417D01*
X146811054Y-100441228D01*
X146824683Y-100436351D01*
X146838724Y-100432834D01*
X146853042Y-100430710D01*
X146867500Y-100430000D01*
X147162500Y-100430000D01*
X147176958Y-100430710D01*
X147176958Y-100430710D01*
G37*
D12*
X147015000Y-100750000D03*
G04 #@! TD*
D10*
G04 #@! TO.C,C21*
G36*
X136396958Y-100180710D02*
X136411276Y-100182834D01*
X136425317Y-100186351D01*
X136438946Y-100191228D01*
X136452031Y-100197417D01*
X136464447Y-100204858D01*
X136476073Y-100213481D01*
X136486798Y-100223202D01*
X136496519Y-100233927D01*
X136505142Y-100245553D01*
X136512583Y-100257969D01*
X136518772Y-100271054D01*
X136523649Y-100284683D01*
X136527166Y-100298724D01*
X136529290Y-100313042D01*
X136530000Y-100327500D01*
X136530000Y-100672500D01*
X136529290Y-100686958D01*
X136527166Y-100701276D01*
X136523649Y-100715317D01*
X136518772Y-100728946D01*
X136512583Y-100742031D01*
X136505142Y-100754447D01*
X136496519Y-100766073D01*
X136486798Y-100776798D01*
X136476073Y-100786519D01*
X136464447Y-100795142D01*
X136452031Y-100802583D01*
X136438946Y-100808772D01*
X136425317Y-100813649D01*
X136411276Y-100817166D01*
X136396958Y-100819290D01*
X136382500Y-100820000D01*
X136087500Y-100820000D01*
X136073042Y-100819290D01*
X136058724Y-100817166D01*
X136044683Y-100813649D01*
X136031054Y-100808772D01*
X136017969Y-100802583D01*
X136005553Y-100795142D01*
X135993927Y-100786519D01*
X135983202Y-100776798D01*
X135973481Y-100766073D01*
X135964858Y-100754447D01*
X135957417Y-100742031D01*
X135951228Y-100728946D01*
X135946351Y-100715317D01*
X135942834Y-100701276D01*
X135940710Y-100686958D01*
X135940000Y-100672500D01*
X135940000Y-100327500D01*
X135940710Y-100313042D01*
X135942834Y-100298724D01*
X135946351Y-100284683D01*
X135951228Y-100271054D01*
X135957417Y-100257969D01*
X135964858Y-100245553D01*
X135973481Y-100233927D01*
X135983202Y-100223202D01*
X135993927Y-100213481D01*
X136005553Y-100204858D01*
X136017969Y-100197417D01*
X136031054Y-100191228D01*
X136044683Y-100186351D01*
X136058724Y-100182834D01*
X136073042Y-100180710D01*
X136087500Y-100180000D01*
X136382500Y-100180000D01*
X136396958Y-100180710D01*
X136396958Y-100180710D01*
G37*
D12*
X136235000Y-100500000D03*
D10*
G36*
X135426958Y-100180710D02*
X135441276Y-100182834D01*
X135455317Y-100186351D01*
X135468946Y-100191228D01*
X135482031Y-100197417D01*
X135494447Y-100204858D01*
X135506073Y-100213481D01*
X135516798Y-100223202D01*
X135526519Y-100233927D01*
X135535142Y-100245553D01*
X135542583Y-100257969D01*
X135548772Y-100271054D01*
X135553649Y-100284683D01*
X135557166Y-100298724D01*
X135559290Y-100313042D01*
X135560000Y-100327500D01*
X135560000Y-100672500D01*
X135559290Y-100686958D01*
X135557166Y-100701276D01*
X135553649Y-100715317D01*
X135548772Y-100728946D01*
X135542583Y-100742031D01*
X135535142Y-100754447D01*
X135526519Y-100766073D01*
X135516798Y-100776798D01*
X135506073Y-100786519D01*
X135494447Y-100795142D01*
X135482031Y-100802583D01*
X135468946Y-100808772D01*
X135455317Y-100813649D01*
X135441276Y-100817166D01*
X135426958Y-100819290D01*
X135412500Y-100820000D01*
X135117500Y-100820000D01*
X135103042Y-100819290D01*
X135088724Y-100817166D01*
X135074683Y-100813649D01*
X135061054Y-100808772D01*
X135047969Y-100802583D01*
X135035553Y-100795142D01*
X135023927Y-100786519D01*
X135013202Y-100776798D01*
X135003481Y-100766073D01*
X134994858Y-100754447D01*
X134987417Y-100742031D01*
X134981228Y-100728946D01*
X134976351Y-100715317D01*
X134972834Y-100701276D01*
X134970710Y-100686958D01*
X134970000Y-100672500D01*
X134970000Y-100327500D01*
X134970710Y-100313042D01*
X134972834Y-100298724D01*
X134976351Y-100284683D01*
X134981228Y-100271054D01*
X134987417Y-100257969D01*
X134994858Y-100245553D01*
X135003481Y-100233927D01*
X135013202Y-100223202D01*
X135023927Y-100213481D01*
X135035553Y-100204858D01*
X135047969Y-100197417D01*
X135061054Y-100191228D01*
X135074683Y-100186351D01*
X135088724Y-100182834D01*
X135103042Y-100180710D01*
X135117500Y-100180000D01*
X135412500Y-100180000D01*
X135426958Y-100180710D01*
X135426958Y-100180710D01*
G37*
D12*
X135265000Y-100500000D03*
G04 #@! TD*
D10*
G04 #@! TO.C,C22*
G36*
X131896958Y-97680710D02*
X131911276Y-97682834D01*
X131925317Y-97686351D01*
X131938946Y-97691228D01*
X131952031Y-97697417D01*
X131964447Y-97704858D01*
X131976073Y-97713481D01*
X131986798Y-97723202D01*
X131996519Y-97733927D01*
X132005142Y-97745553D01*
X132012583Y-97757969D01*
X132018772Y-97771054D01*
X132023649Y-97784683D01*
X132027166Y-97798724D01*
X132029290Y-97813042D01*
X132030000Y-97827500D01*
X132030000Y-98172500D01*
X132029290Y-98186958D01*
X132027166Y-98201276D01*
X132023649Y-98215317D01*
X132018772Y-98228946D01*
X132012583Y-98242031D01*
X132005142Y-98254447D01*
X131996519Y-98266073D01*
X131986798Y-98276798D01*
X131976073Y-98286519D01*
X131964447Y-98295142D01*
X131952031Y-98302583D01*
X131938946Y-98308772D01*
X131925317Y-98313649D01*
X131911276Y-98317166D01*
X131896958Y-98319290D01*
X131882500Y-98320000D01*
X131587500Y-98320000D01*
X131573042Y-98319290D01*
X131558724Y-98317166D01*
X131544683Y-98313649D01*
X131531054Y-98308772D01*
X131517969Y-98302583D01*
X131505553Y-98295142D01*
X131493927Y-98286519D01*
X131483202Y-98276798D01*
X131473481Y-98266073D01*
X131464858Y-98254447D01*
X131457417Y-98242031D01*
X131451228Y-98228946D01*
X131446351Y-98215317D01*
X131442834Y-98201276D01*
X131440710Y-98186958D01*
X131440000Y-98172500D01*
X131440000Y-97827500D01*
X131440710Y-97813042D01*
X131442834Y-97798724D01*
X131446351Y-97784683D01*
X131451228Y-97771054D01*
X131457417Y-97757969D01*
X131464858Y-97745553D01*
X131473481Y-97733927D01*
X131483202Y-97723202D01*
X131493927Y-97713481D01*
X131505553Y-97704858D01*
X131517969Y-97697417D01*
X131531054Y-97691228D01*
X131544683Y-97686351D01*
X131558724Y-97682834D01*
X131573042Y-97680710D01*
X131587500Y-97680000D01*
X131882500Y-97680000D01*
X131896958Y-97680710D01*
X131896958Y-97680710D01*
G37*
D12*
X131735000Y-98000000D03*
D10*
G36*
X130926958Y-97680710D02*
X130941276Y-97682834D01*
X130955317Y-97686351D01*
X130968946Y-97691228D01*
X130982031Y-97697417D01*
X130994447Y-97704858D01*
X131006073Y-97713481D01*
X131016798Y-97723202D01*
X131026519Y-97733927D01*
X131035142Y-97745553D01*
X131042583Y-97757969D01*
X131048772Y-97771054D01*
X131053649Y-97784683D01*
X131057166Y-97798724D01*
X131059290Y-97813042D01*
X131060000Y-97827500D01*
X131060000Y-98172500D01*
X131059290Y-98186958D01*
X131057166Y-98201276D01*
X131053649Y-98215317D01*
X131048772Y-98228946D01*
X131042583Y-98242031D01*
X131035142Y-98254447D01*
X131026519Y-98266073D01*
X131016798Y-98276798D01*
X131006073Y-98286519D01*
X130994447Y-98295142D01*
X130982031Y-98302583D01*
X130968946Y-98308772D01*
X130955317Y-98313649D01*
X130941276Y-98317166D01*
X130926958Y-98319290D01*
X130912500Y-98320000D01*
X130617500Y-98320000D01*
X130603042Y-98319290D01*
X130588724Y-98317166D01*
X130574683Y-98313649D01*
X130561054Y-98308772D01*
X130547969Y-98302583D01*
X130535553Y-98295142D01*
X130523927Y-98286519D01*
X130513202Y-98276798D01*
X130503481Y-98266073D01*
X130494858Y-98254447D01*
X130487417Y-98242031D01*
X130481228Y-98228946D01*
X130476351Y-98215317D01*
X130472834Y-98201276D01*
X130470710Y-98186958D01*
X130470000Y-98172500D01*
X130470000Y-97827500D01*
X130470710Y-97813042D01*
X130472834Y-97798724D01*
X130476351Y-97784683D01*
X130481228Y-97771054D01*
X130487417Y-97757969D01*
X130494858Y-97745553D01*
X130503481Y-97733927D01*
X130513202Y-97723202D01*
X130523927Y-97713481D01*
X130535553Y-97704858D01*
X130547969Y-97697417D01*
X130561054Y-97691228D01*
X130574683Y-97686351D01*
X130588724Y-97682834D01*
X130603042Y-97680710D01*
X130617500Y-97680000D01*
X130912500Y-97680000D01*
X130926958Y-97680710D01*
X130926958Y-97680710D01*
G37*
D12*
X130765000Y-98000000D03*
G04 #@! TD*
D10*
G04 #@! TO.C,C23*
G36*
X131646958Y-105430710D02*
X131661276Y-105432834D01*
X131675317Y-105436351D01*
X131688946Y-105441228D01*
X131702031Y-105447417D01*
X131714447Y-105454858D01*
X131726073Y-105463481D01*
X131736798Y-105473202D01*
X131746519Y-105483927D01*
X131755142Y-105495553D01*
X131762583Y-105507969D01*
X131768772Y-105521054D01*
X131773649Y-105534683D01*
X131777166Y-105548724D01*
X131779290Y-105563042D01*
X131780000Y-105577500D01*
X131780000Y-105922500D01*
X131779290Y-105936958D01*
X131777166Y-105951276D01*
X131773649Y-105965317D01*
X131768772Y-105978946D01*
X131762583Y-105992031D01*
X131755142Y-106004447D01*
X131746519Y-106016073D01*
X131736798Y-106026798D01*
X131726073Y-106036519D01*
X131714447Y-106045142D01*
X131702031Y-106052583D01*
X131688946Y-106058772D01*
X131675317Y-106063649D01*
X131661276Y-106067166D01*
X131646958Y-106069290D01*
X131632500Y-106070000D01*
X131337500Y-106070000D01*
X131323042Y-106069290D01*
X131308724Y-106067166D01*
X131294683Y-106063649D01*
X131281054Y-106058772D01*
X131267969Y-106052583D01*
X131255553Y-106045142D01*
X131243927Y-106036519D01*
X131233202Y-106026798D01*
X131223481Y-106016073D01*
X131214858Y-106004447D01*
X131207417Y-105992031D01*
X131201228Y-105978946D01*
X131196351Y-105965317D01*
X131192834Y-105951276D01*
X131190710Y-105936958D01*
X131190000Y-105922500D01*
X131190000Y-105577500D01*
X131190710Y-105563042D01*
X131192834Y-105548724D01*
X131196351Y-105534683D01*
X131201228Y-105521054D01*
X131207417Y-105507969D01*
X131214858Y-105495553D01*
X131223481Y-105483927D01*
X131233202Y-105473202D01*
X131243927Y-105463481D01*
X131255553Y-105454858D01*
X131267969Y-105447417D01*
X131281054Y-105441228D01*
X131294683Y-105436351D01*
X131308724Y-105432834D01*
X131323042Y-105430710D01*
X131337500Y-105430000D01*
X131632500Y-105430000D01*
X131646958Y-105430710D01*
X131646958Y-105430710D01*
G37*
D12*
X131485000Y-105750000D03*
D10*
G36*
X130676958Y-105430710D02*
X130691276Y-105432834D01*
X130705317Y-105436351D01*
X130718946Y-105441228D01*
X130732031Y-105447417D01*
X130744447Y-105454858D01*
X130756073Y-105463481D01*
X130766798Y-105473202D01*
X130776519Y-105483927D01*
X130785142Y-105495553D01*
X130792583Y-105507969D01*
X130798772Y-105521054D01*
X130803649Y-105534683D01*
X130807166Y-105548724D01*
X130809290Y-105563042D01*
X130810000Y-105577500D01*
X130810000Y-105922500D01*
X130809290Y-105936958D01*
X130807166Y-105951276D01*
X130803649Y-105965317D01*
X130798772Y-105978946D01*
X130792583Y-105992031D01*
X130785142Y-106004447D01*
X130776519Y-106016073D01*
X130766798Y-106026798D01*
X130756073Y-106036519D01*
X130744447Y-106045142D01*
X130732031Y-106052583D01*
X130718946Y-106058772D01*
X130705317Y-106063649D01*
X130691276Y-106067166D01*
X130676958Y-106069290D01*
X130662500Y-106070000D01*
X130367500Y-106070000D01*
X130353042Y-106069290D01*
X130338724Y-106067166D01*
X130324683Y-106063649D01*
X130311054Y-106058772D01*
X130297969Y-106052583D01*
X130285553Y-106045142D01*
X130273927Y-106036519D01*
X130263202Y-106026798D01*
X130253481Y-106016073D01*
X130244858Y-106004447D01*
X130237417Y-105992031D01*
X130231228Y-105978946D01*
X130226351Y-105965317D01*
X130222834Y-105951276D01*
X130220710Y-105936958D01*
X130220000Y-105922500D01*
X130220000Y-105577500D01*
X130220710Y-105563042D01*
X130222834Y-105548724D01*
X130226351Y-105534683D01*
X130231228Y-105521054D01*
X130237417Y-105507969D01*
X130244858Y-105495553D01*
X130253481Y-105483927D01*
X130263202Y-105473202D01*
X130273927Y-105463481D01*
X130285553Y-105454858D01*
X130297969Y-105447417D01*
X130311054Y-105441228D01*
X130324683Y-105436351D01*
X130338724Y-105432834D01*
X130353042Y-105430710D01*
X130367500Y-105430000D01*
X130662500Y-105430000D01*
X130676958Y-105430710D01*
X130676958Y-105430710D01*
G37*
D12*
X130515000Y-105750000D03*
G04 #@! TD*
D10*
G04 #@! TO.C,C24*
G36*
X151274504Y-125501204D02*
X151298773Y-125504804D01*
X151322571Y-125510765D01*
X151345671Y-125519030D01*
X151367849Y-125529520D01*
X151388893Y-125542133D01*
X151408598Y-125556747D01*
X151426777Y-125573223D01*
X151443253Y-125591402D01*
X151457867Y-125611107D01*
X151470480Y-125632151D01*
X151480970Y-125654329D01*
X151489235Y-125677429D01*
X151495196Y-125701227D01*
X151498796Y-125725496D01*
X151500000Y-125750000D01*
X151500000Y-127750000D01*
X151498796Y-127774504D01*
X151495196Y-127798773D01*
X151489235Y-127822571D01*
X151480970Y-127845671D01*
X151470480Y-127867849D01*
X151457867Y-127888893D01*
X151443253Y-127908598D01*
X151426777Y-127926777D01*
X151408598Y-127943253D01*
X151388893Y-127957867D01*
X151367849Y-127970480D01*
X151345671Y-127980970D01*
X151322571Y-127989235D01*
X151298773Y-127995196D01*
X151274504Y-127998796D01*
X151250000Y-128000000D01*
X147750000Y-128000000D01*
X147725496Y-127998796D01*
X147701227Y-127995196D01*
X147677429Y-127989235D01*
X147654329Y-127980970D01*
X147632151Y-127970480D01*
X147611107Y-127957867D01*
X147591402Y-127943253D01*
X147573223Y-127926777D01*
X147556747Y-127908598D01*
X147542133Y-127888893D01*
X147529520Y-127867849D01*
X147519030Y-127845671D01*
X147510765Y-127822571D01*
X147504804Y-127798773D01*
X147501204Y-127774504D01*
X147500000Y-127750000D01*
X147500000Y-125750000D01*
X147501204Y-125725496D01*
X147504804Y-125701227D01*
X147510765Y-125677429D01*
X147519030Y-125654329D01*
X147529520Y-125632151D01*
X147542133Y-125611107D01*
X147556747Y-125591402D01*
X147573223Y-125573223D01*
X147591402Y-125556747D01*
X147611107Y-125542133D01*
X147632151Y-125529520D01*
X147654329Y-125519030D01*
X147677429Y-125510765D01*
X147701227Y-125504804D01*
X147725496Y-125501204D01*
X147750000Y-125500000D01*
X151250000Y-125500000D01*
X151274504Y-125501204D01*
X151274504Y-125501204D01*
G37*
D13*
X149500000Y-126750000D03*
D10*
G36*
X143274504Y-125501204D02*
X143298773Y-125504804D01*
X143322571Y-125510765D01*
X143345671Y-125519030D01*
X143367849Y-125529520D01*
X143388893Y-125542133D01*
X143408598Y-125556747D01*
X143426777Y-125573223D01*
X143443253Y-125591402D01*
X143457867Y-125611107D01*
X143470480Y-125632151D01*
X143480970Y-125654329D01*
X143489235Y-125677429D01*
X143495196Y-125701227D01*
X143498796Y-125725496D01*
X143500000Y-125750000D01*
X143500000Y-127750000D01*
X143498796Y-127774504D01*
X143495196Y-127798773D01*
X143489235Y-127822571D01*
X143480970Y-127845671D01*
X143470480Y-127867849D01*
X143457867Y-127888893D01*
X143443253Y-127908598D01*
X143426777Y-127926777D01*
X143408598Y-127943253D01*
X143388893Y-127957867D01*
X143367849Y-127970480D01*
X143345671Y-127980970D01*
X143322571Y-127989235D01*
X143298773Y-127995196D01*
X143274504Y-127998796D01*
X143250000Y-128000000D01*
X139750000Y-128000000D01*
X139725496Y-127998796D01*
X139701227Y-127995196D01*
X139677429Y-127989235D01*
X139654329Y-127980970D01*
X139632151Y-127970480D01*
X139611107Y-127957867D01*
X139591402Y-127943253D01*
X139573223Y-127926777D01*
X139556747Y-127908598D01*
X139542133Y-127888893D01*
X139529520Y-127867849D01*
X139519030Y-127845671D01*
X139510765Y-127822571D01*
X139504804Y-127798773D01*
X139501204Y-127774504D01*
X139500000Y-127750000D01*
X139500000Y-125750000D01*
X139501204Y-125725496D01*
X139504804Y-125701227D01*
X139510765Y-125677429D01*
X139519030Y-125654329D01*
X139529520Y-125632151D01*
X139542133Y-125611107D01*
X139556747Y-125591402D01*
X139573223Y-125573223D01*
X139591402Y-125556747D01*
X139611107Y-125542133D01*
X139632151Y-125529520D01*
X139654329Y-125519030D01*
X139677429Y-125510765D01*
X139701227Y-125504804D01*
X139725496Y-125501204D01*
X139750000Y-125500000D01*
X143250000Y-125500000D01*
X143274504Y-125501204D01*
X143274504Y-125501204D01*
G37*
D13*
X141500000Y-126750000D03*
G04 #@! TD*
D10*
G04 #@! TO.C,C26*
G36*
X145186958Y-137690710D02*
X145201276Y-137692834D01*
X145215317Y-137696351D01*
X145228946Y-137701228D01*
X145242031Y-137707417D01*
X145254447Y-137714858D01*
X145266073Y-137723481D01*
X145276798Y-137733202D01*
X145286519Y-137743927D01*
X145295142Y-137755553D01*
X145302583Y-137767969D01*
X145308772Y-137781054D01*
X145313649Y-137794683D01*
X145317166Y-137808724D01*
X145319290Y-137823042D01*
X145320000Y-137837500D01*
X145320000Y-138132500D01*
X145319290Y-138146958D01*
X145317166Y-138161276D01*
X145313649Y-138175317D01*
X145308772Y-138188946D01*
X145302583Y-138202031D01*
X145295142Y-138214447D01*
X145286519Y-138226073D01*
X145276798Y-138236798D01*
X145266073Y-138246519D01*
X145254447Y-138255142D01*
X145242031Y-138262583D01*
X145228946Y-138268772D01*
X145215317Y-138273649D01*
X145201276Y-138277166D01*
X145186958Y-138279290D01*
X145172500Y-138280000D01*
X144827500Y-138280000D01*
X144813042Y-138279290D01*
X144798724Y-138277166D01*
X144784683Y-138273649D01*
X144771054Y-138268772D01*
X144757969Y-138262583D01*
X144745553Y-138255142D01*
X144733927Y-138246519D01*
X144723202Y-138236798D01*
X144713481Y-138226073D01*
X144704858Y-138214447D01*
X144697417Y-138202031D01*
X144691228Y-138188946D01*
X144686351Y-138175317D01*
X144682834Y-138161276D01*
X144680710Y-138146958D01*
X144680000Y-138132500D01*
X144680000Y-137837500D01*
X144680710Y-137823042D01*
X144682834Y-137808724D01*
X144686351Y-137794683D01*
X144691228Y-137781054D01*
X144697417Y-137767969D01*
X144704858Y-137755553D01*
X144713481Y-137743927D01*
X144723202Y-137733202D01*
X144733927Y-137723481D01*
X144745553Y-137714858D01*
X144757969Y-137707417D01*
X144771054Y-137701228D01*
X144784683Y-137696351D01*
X144798724Y-137692834D01*
X144813042Y-137690710D01*
X144827500Y-137690000D01*
X145172500Y-137690000D01*
X145186958Y-137690710D01*
X145186958Y-137690710D01*
G37*
D12*
X145000000Y-137985000D03*
D10*
G36*
X145186958Y-136720710D02*
X145201276Y-136722834D01*
X145215317Y-136726351D01*
X145228946Y-136731228D01*
X145242031Y-136737417D01*
X145254447Y-136744858D01*
X145266073Y-136753481D01*
X145276798Y-136763202D01*
X145286519Y-136773927D01*
X145295142Y-136785553D01*
X145302583Y-136797969D01*
X145308772Y-136811054D01*
X145313649Y-136824683D01*
X145317166Y-136838724D01*
X145319290Y-136853042D01*
X145320000Y-136867500D01*
X145320000Y-137162500D01*
X145319290Y-137176958D01*
X145317166Y-137191276D01*
X145313649Y-137205317D01*
X145308772Y-137218946D01*
X145302583Y-137232031D01*
X145295142Y-137244447D01*
X145286519Y-137256073D01*
X145276798Y-137266798D01*
X145266073Y-137276519D01*
X145254447Y-137285142D01*
X145242031Y-137292583D01*
X145228946Y-137298772D01*
X145215317Y-137303649D01*
X145201276Y-137307166D01*
X145186958Y-137309290D01*
X145172500Y-137310000D01*
X144827500Y-137310000D01*
X144813042Y-137309290D01*
X144798724Y-137307166D01*
X144784683Y-137303649D01*
X144771054Y-137298772D01*
X144757969Y-137292583D01*
X144745553Y-137285142D01*
X144733927Y-137276519D01*
X144723202Y-137266798D01*
X144713481Y-137256073D01*
X144704858Y-137244447D01*
X144697417Y-137232031D01*
X144691228Y-137218946D01*
X144686351Y-137205317D01*
X144682834Y-137191276D01*
X144680710Y-137176958D01*
X144680000Y-137162500D01*
X144680000Y-136867500D01*
X144680710Y-136853042D01*
X144682834Y-136838724D01*
X144686351Y-136824683D01*
X144691228Y-136811054D01*
X144697417Y-136797969D01*
X144704858Y-136785553D01*
X144713481Y-136773927D01*
X144723202Y-136763202D01*
X144733927Y-136753481D01*
X144745553Y-136744858D01*
X144757969Y-136737417D01*
X144771054Y-136731228D01*
X144784683Y-136726351D01*
X144798724Y-136722834D01*
X144813042Y-136720710D01*
X144827500Y-136720000D01*
X145172500Y-136720000D01*
X145186958Y-136720710D01*
X145186958Y-136720710D01*
G37*
D12*
X145000000Y-137015000D03*
G04 #@! TD*
D10*
G04 #@! TO.C,C27*
G36*
X153926958Y-106930710D02*
X153941276Y-106932834D01*
X153955317Y-106936351D01*
X153968946Y-106941228D01*
X153982031Y-106947417D01*
X153994447Y-106954858D01*
X154006073Y-106963481D01*
X154016798Y-106973202D01*
X154026519Y-106983927D01*
X154035142Y-106995553D01*
X154042583Y-107007969D01*
X154048772Y-107021054D01*
X154053649Y-107034683D01*
X154057166Y-107048724D01*
X154059290Y-107063042D01*
X154060000Y-107077500D01*
X154060000Y-107422500D01*
X154059290Y-107436958D01*
X154057166Y-107451276D01*
X154053649Y-107465317D01*
X154048772Y-107478946D01*
X154042583Y-107492031D01*
X154035142Y-107504447D01*
X154026519Y-107516073D01*
X154016798Y-107526798D01*
X154006073Y-107536519D01*
X153994447Y-107545142D01*
X153982031Y-107552583D01*
X153968946Y-107558772D01*
X153955317Y-107563649D01*
X153941276Y-107567166D01*
X153926958Y-107569290D01*
X153912500Y-107570000D01*
X153617500Y-107570000D01*
X153603042Y-107569290D01*
X153588724Y-107567166D01*
X153574683Y-107563649D01*
X153561054Y-107558772D01*
X153547969Y-107552583D01*
X153535553Y-107545142D01*
X153523927Y-107536519D01*
X153513202Y-107526798D01*
X153503481Y-107516073D01*
X153494858Y-107504447D01*
X153487417Y-107492031D01*
X153481228Y-107478946D01*
X153476351Y-107465317D01*
X153472834Y-107451276D01*
X153470710Y-107436958D01*
X153470000Y-107422500D01*
X153470000Y-107077500D01*
X153470710Y-107063042D01*
X153472834Y-107048724D01*
X153476351Y-107034683D01*
X153481228Y-107021054D01*
X153487417Y-107007969D01*
X153494858Y-106995553D01*
X153503481Y-106983927D01*
X153513202Y-106973202D01*
X153523927Y-106963481D01*
X153535553Y-106954858D01*
X153547969Y-106947417D01*
X153561054Y-106941228D01*
X153574683Y-106936351D01*
X153588724Y-106932834D01*
X153603042Y-106930710D01*
X153617500Y-106930000D01*
X153912500Y-106930000D01*
X153926958Y-106930710D01*
X153926958Y-106930710D01*
G37*
D12*
X153765000Y-107250000D03*
D10*
G36*
X154896958Y-106930710D02*
X154911276Y-106932834D01*
X154925317Y-106936351D01*
X154938946Y-106941228D01*
X154952031Y-106947417D01*
X154964447Y-106954858D01*
X154976073Y-106963481D01*
X154986798Y-106973202D01*
X154996519Y-106983927D01*
X155005142Y-106995553D01*
X155012583Y-107007969D01*
X155018772Y-107021054D01*
X155023649Y-107034683D01*
X155027166Y-107048724D01*
X155029290Y-107063042D01*
X155030000Y-107077500D01*
X155030000Y-107422500D01*
X155029290Y-107436958D01*
X155027166Y-107451276D01*
X155023649Y-107465317D01*
X155018772Y-107478946D01*
X155012583Y-107492031D01*
X155005142Y-107504447D01*
X154996519Y-107516073D01*
X154986798Y-107526798D01*
X154976073Y-107536519D01*
X154964447Y-107545142D01*
X154952031Y-107552583D01*
X154938946Y-107558772D01*
X154925317Y-107563649D01*
X154911276Y-107567166D01*
X154896958Y-107569290D01*
X154882500Y-107570000D01*
X154587500Y-107570000D01*
X154573042Y-107569290D01*
X154558724Y-107567166D01*
X154544683Y-107563649D01*
X154531054Y-107558772D01*
X154517969Y-107552583D01*
X154505553Y-107545142D01*
X154493927Y-107536519D01*
X154483202Y-107526798D01*
X154473481Y-107516073D01*
X154464858Y-107504447D01*
X154457417Y-107492031D01*
X154451228Y-107478946D01*
X154446351Y-107465317D01*
X154442834Y-107451276D01*
X154440710Y-107436958D01*
X154440000Y-107422500D01*
X154440000Y-107077500D01*
X154440710Y-107063042D01*
X154442834Y-107048724D01*
X154446351Y-107034683D01*
X154451228Y-107021054D01*
X154457417Y-107007969D01*
X154464858Y-106995553D01*
X154473481Y-106983927D01*
X154483202Y-106973202D01*
X154493927Y-106963481D01*
X154505553Y-106954858D01*
X154517969Y-106947417D01*
X154531054Y-106941228D01*
X154544683Y-106936351D01*
X154558724Y-106932834D01*
X154573042Y-106930710D01*
X154587500Y-106930000D01*
X154882500Y-106930000D01*
X154896958Y-106930710D01*
X154896958Y-106930710D01*
G37*
D12*
X154735000Y-107250000D03*
G04 #@! TD*
D10*
G04 #@! TO.C,C28*
G36*
X153926958Y-100430710D02*
X153941276Y-100432834D01*
X153955317Y-100436351D01*
X153968946Y-100441228D01*
X153982031Y-100447417D01*
X153994447Y-100454858D01*
X154006073Y-100463481D01*
X154016798Y-100473202D01*
X154026519Y-100483927D01*
X154035142Y-100495553D01*
X154042583Y-100507969D01*
X154048772Y-100521054D01*
X154053649Y-100534683D01*
X154057166Y-100548724D01*
X154059290Y-100563042D01*
X154060000Y-100577500D01*
X154060000Y-100922500D01*
X154059290Y-100936958D01*
X154057166Y-100951276D01*
X154053649Y-100965317D01*
X154048772Y-100978946D01*
X154042583Y-100992031D01*
X154035142Y-101004447D01*
X154026519Y-101016073D01*
X154016798Y-101026798D01*
X154006073Y-101036519D01*
X153994447Y-101045142D01*
X153982031Y-101052583D01*
X153968946Y-101058772D01*
X153955317Y-101063649D01*
X153941276Y-101067166D01*
X153926958Y-101069290D01*
X153912500Y-101070000D01*
X153617500Y-101070000D01*
X153603042Y-101069290D01*
X153588724Y-101067166D01*
X153574683Y-101063649D01*
X153561054Y-101058772D01*
X153547969Y-101052583D01*
X153535553Y-101045142D01*
X153523927Y-101036519D01*
X153513202Y-101026798D01*
X153503481Y-101016073D01*
X153494858Y-101004447D01*
X153487417Y-100992031D01*
X153481228Y-100978946D01*
X153476351Y-100965317D01*
X153472834Y-100951276D01*
X153470710Y-100936958D01*
X153470000Y-100922500D01*
X153470000Y-100577500D01*
X153470710Y-100563042D01*
X153472834Y-100548724D01*
X153476351Y-100534683D01*
X153481228Y-100521054D01*
X153487417Y-100507969D01*
X153494858Y-100495553D01*
X153503481Y-100483927D01*
X153513202Y-100473202D01*
X153523927Y-100463481D01*
X153535553Y-100454858D01*
X153547969Y-100447417D01*
X153561054Y-100441228D01*
X153574683Y-100436351D01*
X153588724Y-100432834D01*
X153603042Y-100430710D01*
X153617500Y-100430000D01*
X153912500Y-100430000D01*
X153926958Y-100430710D01*
X153926958Y-100430710D01*
G37*
D12*
X153765000Y-100750000D03*
D10*
G36*
X154896958Y-100430710D02*
X154911276Y-100432834D01*
X154925317Y-100436351D01*
X154938946Y-100441228D01*
X154952031Y-100447417D01*
X154964447Y-100454858D01*
X154976073Y-100463481D01*
X154986798Y-100473202D01*
X154996519Y-100483927D01*
X155005142Y-100495553D01*
X155012583Y-100507969D01*
X155018772Y-100521054D01*
X155023649Y-100534683D01*
X155027166Y-100548724D01*
X155029290Y-100563042D01*
X155030000Y-100577500D01*
X155030000Y-100922500D01*
X155029290Y-100936958D01*
X155027166Y-100951276D01*
X155023649Y-100965317D01*
X155018772Y-100978946D01*
X155012583Y-100992031D01*
X155005142Y-101004447D01*
X154996519Y-101016073D01*
X154986798Y-101026798D01*
X154976073Y-101036519D01*
X154964447Y-101045142D01*
X154952031Y-101052583D01*
X154938946Y-101058772D01*
X154925317Y-101063649D01*
X154911276Y-101067166D01*
X154896958Y-101069290D01*
X154882500Y-101070000D01*
X154587500Y-101070000D01*
X154573042Y-101069290D01*
X154558724Y-101067166D01*
X154544683Y-101063649D01*
X154531054Y-101058772D01*
X154517969Y-101052583D01*
X154505553Y-101045142D01*
X154493927Y-101036519D01*
X154483202Y-101026798D01*
X154473481Y-101016073D01*
X154464858Y-101004447D01*
X154457417Y-100992031D01*
X154451228Y-100978946D01*
X154446351Y-100965317D01*
X154442834Y-100951276D01*
X154440710Y-100936958D01*
X154440000Y-100922500D01*
X154440000Y-100577500D01*
X154440710Y-100563042D01*
X154442834Y-100548724D01*
X154446351Y-100534683D01*
X154451228Y-100521054D01*
X154457417Y-100507969D01*
X154464858Y-100495553D01*
X154473481Y-100483927D01*
X154483202Y-100473202D01*
X154493927Y-100463481D01*
X154505553Y-100454858D01*
X154517969Y-100447417D01*
X154531054Y-100441228D01*
X154544683Y-100436351D01*
X154558724Y-100432834D01*
X154573042Y-100430710D01*
X154587500Y-100430000D01*
X154882500Y-100430000D01*
X154896958Y-100430710D01*
X154896958Y-100430710D01*
G37*
D12*
X154735000Y-100750000D03*
G04 #@! TD*
D10*
G04 #@! TO.C,D1*
G36*
X129527691Y-77851053D02*
X129548926Y-77854203D01*
X129569750Y-77859419D01*
X129589962Y-77866651D01*
X129609368Y-77875830D01*
X129627781Y-77886866D01*
X129645024Y-77899654D01*
X129660930Y-77914070D01*
X129675346Y-77929976D01*
X129688134Y-77947219D01*
X129699170Y-77965632D01*
X129708349Y-77985038D01*
X129715581Y-78005250D01*
X129720797Y-78026074D01*
X129723947Y-78047309D01*
X129725000Y-78068750D01*
X129725000Y-78506250D01*
X129723947Y-78527691D01*
X129720797Y-78548926D01*
X129715581Y-78569750D01*
X129708349Y-78589962D01*
X129699170Y-78609368D01*
X129688134Y-78627781D01*
X129675346Y-78645024D01*
X129660930Y-78660930D01*
X129645024Y-78675346D01*
X129627781Y-78688134D01*
X129609368Y-78699170D01*
X129589962Y-78708349D01*
X129569750Y-78715581D01*
X129548926Y-78720797D01*
X129527691Y-78723947D01*
X129506250Y-78725000D01*
X128993750Y-78725000D01*
X128972309Y-78723947D01*
X128951074Y-78720797D01*
X128930250Y-78715581D01*
X128910038Y-78708349D01*
X128890632Y-78699170D01*
X128872219Y-78688134D01*
X128854976Y-78675346D01*
X128839070Y-78660930D01*
X128824654Y-78645024D01*
X128811866Y-78627781D01*
X128800830Y-78609368D01*
X128791651Y-78589962D01*
X128784419Y-78569750D01*
X128779203Y-78548926D01*
X128776053Y-78527691D01*
X128775000Y-78506250D01*
X128775000Y-78068750D01*
X128776053Y-78047309D01*
X128779203Y-78026074D01*
X128784419Y-78005250D01*
X128791651Y-77985038D01*
X128800830Y-77965632D01*
X128811866Y-77947219D01*
X128824654Y-77929976D01*
X128839070Y-77914070D01*
X128854976Y-77899654D01*
X128872219Y-77886866D01*
X128890632Y-77875830D01*
X128910038Y-77866651D01*
X128930250Y-77859419D01*
X128951074Y-77854203D01*
X128972309Y-77851053D01*
X128993750Y-77850000D01*
X129506250Y-77850000D01*
X129527691Y-77851053D01*
X129527691Y-77851053D01*
G37*
D14*
X129250000Y-78287500D03*
D10*
G36*
X129527691Y-76276053D02*
X129548926Y-76279203D01*
X129569750Y-76284419D01*
X129589962Y-76291651D01*
X129609368Y-76300830D01*
X129627781Y-76311866D01*
X129645024Y-76324654D01*
X129660930Y-76339070D01*
X129675346Y-76354976D01*
X129688134Y-76372219D01*
X129699170Y-76390632D01*
X129708349Y-76410038D01*
X129715581Y-76430250D01*
X129720797Y-76451074D01*
X129723947Y-76472309D01*
X129725000Y-76493750D01*
X129725000Y-76931250D01*
X129723947Y-76952691D01*
X129720797Y-76973926D01*
X129715581Y-76994750D01*
X129708349Y-77014962D01*
X129699170Y-77034368D01*
X129688134Y-77052781D01*
X129675346Y-77070024D01*
X129660930Y-77085930D01*
X129645024Y-77100346D01*
X129627781Y-77113134D01*
X129609368Y-77124170D01*
X129589962Y-77133349D01*
X129569750Y-77140581D01*
X129548926Y-77145797D01*
X129527691Y-77148947D01*
X129506250Y-77150000D01*
X128993750Y-77150000D01*
X128972309Y-77148947D01*
X128951074Y-77145797D01*
X128930250Y-77140581D01*
X128910038Y-77133349D01*
X128890632Y-77124170D01*
X128872219Y-77113134D01*
X128854976Y-77100346D01*
X128839070Y-77085930D01*
X128824654Y-77070024D01*
X128811866Y-77052781D01*
X128800830Y-77034368D01*
X128791651Y-77014962D01*
X128784419Y-76994750D01*
X128779203Y-76973926D01*
X128776053Y-76952691D01*
X128775000Y-76931250D01*
X128775000Y-76493750D01*
X128776053Y-76472309D01*
X128779203Y-76451074D01*
X128784419Y-76430250D01*
X128791651Y-76410038D01*
X128800830Y-76390632D01*
X128811866Y-76372219D01*
X128824654Y-76354976D01*
X128839070Y-76339070D01*
X128854976Y-76324654D01*
X128872219Y-76311866D01*
X128890632Y-76300830D01*
X128910038Y-76291651D01*
X128930250Y-76284419D01*
X128951074Y-76279203D01*
X128972309Y-76276053D01*
X128993750Y-76275000D01*
X129506250Y-76275000D01*
X129527691Y-76276053D01*
X129527691Y-76276053D01*
G37*
D14*
X129250000Y-76712500D03*
G04 #@! TD*
D10*
G04 #@! TO.C,D2*
G36*
X132277691Y-76276053D02*
X132298926Y-76279203D01*
X132319750Y-76284419D01*
X132339962Y-76291651D01*
X132359368Y-76300830D01*
X132377781Y-76311866D01*
X132395024Y-76324654D01*
X132410930Y-76339070D01*
X132425346Y-76354976D01*
X132438134Y-76372219D01*
X132449170Y-76390632D01*
X132458349Y-76410038D01*
X132465581Y-76430250D01*
X132470797Y-76451074D01*
X132473947Y-76472309D01*
X132475000Y-76493750D01*
X132475000Y-76931250D01*
X132473947Y-76952691D01*
X132470797Y-76973926D01*
X132465581Y-76994750D01*
X132458349Y-77014962D01*
X132449170Y-77034368D01*
X132438134Y-77052781D01*
X132425346Y-77070024D01*
X132410930Y-77085930D01*
X132395024Y-77100346D01*
X132377781Y-77113134D01*
X132359368Y-77124170D01*
X132339962Y-77133349D01*
X132319750Y-77140581D01*
X132298926Y-77145797D01*
X132277691Y-77148947D01*
X132256250Y-77150000D01*
X131743750Y-77150000D01*
X131722309Y-77148947D01*
X131701074Y-77145797D01*
X131680250Y-77140581D01*
X131660038Y-77133349D01*
X131640632Y-77124170D01*
X131622219Y-77113134D01*
X131604976Y-77100346D01*
X131589070Y-77085930D01*
X131574654Y-77070024D01*
X131561866Y-77052781D01*
X131550830Y-77034368D01*
X131541651Y-77014962D01*
X131534419Y-76994750D01*
X131529203Y-76973926D01*
X131526053Y-76952691D01*
X131525000Y-76931250D01*
X131525000Y-76493750D01*
X131526053Y-76472309D01*
X131529203Y-76451074D01*
X131534419Y-76430250D01*
X131541651Y-76410038D01*
X131550830Y-76390632D01*
X131561866Y-76372219D01*
X131574654Y-76354976D01*
X131589070Y-76339070D01*
X131604976Y-76324654D01*
X131622219Y-76311866D01*
X131640632Y-76300830D01*
X131660038Y-76291651D01*
X131680250Y-76284419D01*
X131701074Y-76279203D01*
X131722309Y-76276053D01*
X131743750Y-76275000D01*
X132256250Y-76275000D01*
X132277691Y-76276053D01*
X132277691Y-76276053D01*
G37*
D14*
X132000000Y-76712500D03*
D10*
G36*
X132277691Y-77851053D02*
X132298926Y-77854203D01*
X132319750Y-77859419D01*
X132339962Y-77866651D01*
X132359368Y-77875830D01*
X132377781Y-77886866D01*
X132395024Y-77899654D01*
X132410930Y-77914070D01*
X132425346Y-77929976D01*
X132438134Y-77947219D01*
X132449170Y-77965632D01*
X132458349Y-77985038D01*
X132465581Y-78005250D01*
X132470797Y-78026074D01*
X132473947Y-78047309D01*
X132475000Y-78068750D01*
X132475000Y-78506250D01*
X132473947Y-78527691D01*
X132470797Y-78548926D01*
X132465581Y-78569750D01*
X132458349Y-78589962D01*
X132449170Y-78609368D01*
X132438134Y-78627781D01*
X132425346Y-78645024D01*
X132410930Y-78660930D01*
X132395024Y-78675346D01*
X132377781Y-78688134D01*
X132359368Y-78699170D01*
X132339962Y-78708349D01*
X132319750Y-78715581D01*
X132298926Y-78720797D01*
X132277691Y-78723947D01*
X132256250Y-78725000D01*
X131743750Y-78725000D01*
X131722309Y-78723947D01*
X131701074Y-78720797D01*
X131680250Y-78715581D01*
X131660038Y-78708349D01*
X131640632Y-78699170D01*
X131622219Y-78688134D01*
X131604976Y-78675346D01*
X131589070Y-78660930D01*
X131574654Y-78645024D01*
X131561866Y-78627781D01*
X131550830Y-78609368D01*
X131541651Y-78589962D01*
X131534419Y-78569750D01*
X131529203Y-78548926D01*
X131526053Y-78527691D01*
X131525000Y-78506250D01*
X131525000Y-78068750D01*
X131526053Y-78047309D01*
X131529203Y-78026074D01*
X131534419Y-78005250D01*
X131541651Y-77985038D01*
X131550830Y-77965632D01*
X131561866Y-77947219D01*
X131574654Y-77929976D01*
X131589070Y-77914070D01*
X131604976Y-77899654D01*
X131622219Y-77886866D01*
X131640632Y-77875830D01*
X131660038Y-77866651D01*
X131680250Y-77859419D01*
X131701074Y-77854203D01*
X131722309Y-77851053D01*
X131743750Y-77850000D01*
X132256250Y-77850000D01*
X132277691Y-77851053D01*
X132277691Y-77851053D01*
G37*
D14*
X132000000Y-78287500D03*
G04 #@! TD*
D10*
G04 #@! TO.C,D3*
G36*
X184777691Y-110026053D02*
X184798926Y-110029203D01*
X184819750Y-110034419D01*
X184839962Y-110041651D01*
X184859368Y-110050830D01*
X184877781Y-110061866D01*
X184895024Y-110074654D01*
X184910930Y-110089070D01*
X184925346Y-110104976D01*
X184938134Y-110122219D01*
X184949170Y-110140632D01*
X184958349Y-110160038D01*
X184965581Y-110180250D01*
X184970797Y-110201074D01*
X184973947Y-110222309D01*
X184975000Y-110243750D01*
X184975000Y-110756250D01*
X184973947Y-110777691D01*
X184970797Y-110798926D01*
X184965581Y-110819750D01*
X184958349Y-110839962D01*
X184949170Y-110859368D01*
X184938134Y-110877781D01*
X184925346Y-110895024D01*
X184910930Y-110910930D01*
X184895024Y-110925346D01*
X184877781Y-110938134D01*
X184859368Y-110949170D01*
X184839962Y-110958349D01*
X184819750Y-110965581D01*
X184798926Y-110970797D01*
X184777691Y-110973947D01*
X184756250Y-110975000D01*
X184318750Y-110975000D01*
X184297309Y-110973947D01*
X184276074Y-110970797D01*
X184255250Y-110965581D01*
X184235038Y-110958349D01*
X184215632Y-110949170D01*
X184197219Y-110938134D01*
X184179976Y-110925346D01*
X184164070Y-110910930D01*
X184149654Y-110895024D01*
X184136866Y-110877781D01*
X184125830Y-110859368D01*
X184116651Y-110839962D01*
X184109419Y-110819750D01*
X184104203Y-110798926D01*
X184101053Y-110777691D01*
X184100000Y-110756250D01*
X184100000Y-110243750D01*
X184101053Y-110222309D01*
X184104203Y-110201074D01*
X184109419Y-110180250D01*
X184116651Y-110160038D01*
X184125830Y-110140632D01*
X184136866Y-110122219D01*
X184149654Y-110104976D01*
X184164070Y-110089070D01*
X184179976Y-110074654D01*
X184197219Y-110061866D01*
X184215632Y-110050830D01*
X184235038Y-110041651D01*
X184255250Y-110034419D01*
X184276074Y-110029203D01*
X184297309Y-110026053D01*
X184318750Y-110025000D01*
X184756250Y-110025000D01*
X184777691Y-110026053D01*
X184777691Y-110026053D01*
G37*
D14*
X184537500Y-110500000D03*
D10*
G36*
X183202691Y-110026053D02*
X183223926Y-110029203D01*
X183244750Y-110034419D01*
X183264962Y-110041651D01*
X183284368Y-110050830D01*
X183302781Y-110061866D01*
X183320024Y-110074654D01*
X183335930Y-110089070D01*
X183350346Y-110104976D01*
X183363134Y-110122219D01*
X183374170Y-110140632D01*
X183383349Y-110160038D01*
X183390581Y-110180250D01*
X183395797Y-110201074D01*
X183398947Y-110222309D01*
X183400000Y-110243750D01*
X183400000Y-110756250D01*
X183398947Y-110777691D01*
X183395797Y-110798926D01*
X183390581Y-110819750D01*
X183383349Y-110839962D01*
X183374170Y-110859368D01*
X183363134Y-110877781D01*
X183350346Y-110895024D01*
X183335930Y-110910930D01*
X183320024Y-110925346D01*
X183302781Y-110938134D01*
X183284368Y-110949170D01*
X183264962Y-110958349D01*
X183244750Y-110965581D01*
X183223926Y-110970797D01*
X183202691Y-110973947D01*
X183181250Y-110975000D01*
X182743750Y-110975000D01*
X182722309Y-110973947D01*
X182701074Y-110970797D01*
X182680250Y-110965581D01*
X182660038Y-110958349D01*
X182640632Y-110949170D01*
X182622219Y-110938134D01*
X182604976Y-110925346D01*
X182589070Y-110910930D01*
X182574654Y-110895024D01*
X182561866Y-110877781D01*
X182550830Y-110859368D01*
X182541651Y-110839962D01*
X182534419Y-110819750D01*
X182529203Y-110798926D01*
X182526053Y-110777691D01*
X182525000Y-110756250D01*
X182525000Y-110243750D01*
X182526053Y-110222309D01*
X182529203Y-110201074D01*
X182534419Y-110180250D01*
X182541651Y-110160038D01*
X182550830Y-110140632D01*
X182561866Y-110122219D01*
X182574654Y-110104976D01*
X182589070Y-110089070D01*
X182604976Y-110074654D01*
X182622219Y-110061866D01*
X182640632Y-110050830D01*
X182660038Y-110041651D01*
X182680250Y-110034419D01*
X182701074Y-110029203D01*
X182722309Y-110026053D01*
X182743750Y-110025000D01*
X183181250Y-110025000D01*
X183202691Y-110026053D01*
X183202691Y-110026053D01*
G37*
D14*
X182962500Y-110500000D03*
G04 #@! TD*
D15*
G04 #@! TO.C,D4*
X158680000Y-118770000D03*
X156840000Y-118770000D03*
D16*
X157750000Y-122750000D03*
G04 #@! TD*
G04 #@! TO.C,D5*
X157750000Y-129230000D03*
D15*
X158660000Y-133210000D03*
X156820000Y-133210000D03*
G04 #@! TD*
D17*
G04 #@! TO.C,D6*
X137750000Y-104650000D03*
D18*
X137750000Y-102750000D03*
G04 #@! TD*
G04 #@! TO.C,D7*
X144750000Y-102750000D03*
D17*
X144750000Y-104650000D03*
G04 #@! TD*
D18*
G04 #@! TO.C,D8*
X151500000Y-102750000D03*
D17*
X151500000Y-104650000D03*
G04 #@! TD*
D19*
G04 #@! TO.C,J1*
X162775000Y-95875000D03*
X162775000Y-94925000D03*
X162775000Y-87225000D03*
X162775000Y-88325000D03*
X162775000Y-89425000D03*
X162775000Y-90525000D03*
X162775000Y-91625000D03*
X162775000Y-92725000D03*
X162775000Y-93825000D03*
D20*
X162775000Y-85675000D03*
X167075000Y-96825000D03*
D21*
X173275000Y-96825000D03*
D22*
X177425000Y-96825000D03*
D23*
X177875000Y-83325000D03*
G04 #@! TD*
D24*
G04 #@! TO.C,J3*
X154650000Y-80225000D03*
X154000000Y-80225000D03*
X153350000Y-80225000D03*
X152700000Y-80225000D03*
X152050000Y-80225000D03*
D25*
X154500000Y-77550000D03*
X152200000Y-77550000D03*
G04 #@! TD*
D26*
G04 #@! TO.C,Q1*
X131950000Y-120250000D03*
X130050000Y-120250000D03*
X131000000Y-122250000D03*
G04 #@! TD*
G04 #@! TO.C,Q2*
X131950000Y-112500000D03*
X130050000Y-112500000D03*
X131000000Y-114500000D03*
G04 #@! TD*
D27*
G04 #@! TO.C,Q3*
X138500000Y-134250000D03*
X140500000Y-133300000D03*
X140500000Y-135200000D03*
G04 #@! TD*
D10*
G04 #@! TO.C,R1*
G36*
X129436958Y-79720710D02*
X129451276Y-79722834D01*
X129465317Y-79726351D01*
X129478946Y-79731228D01*
X129492031Y-79737417D01*
X129504447Y-79744858D01*
X129516073Y-79753481D01*
X129526798Y-79763202D01*
X129536519Y-79773927D01*
X129545142Y-79785553D01*
X129552583Y-79797969D01*
X129558772Y-79811054D01*
X129563649Y-79824683D01*
X129567166Y-79838724D01*
X129569290Y-79853042D01*
X129570000Y-79867500D01*
X129570000Y-80162500D01*
X129569290Y-80176958D01*
X129567166Y-80191276D01*
X129563649Y-80205317D01*
X129558772Y-80218946D01*
X129552583Y-80232031D01*
X129545142Y-80244447D01*
X129536519Y-80256073D01*
X129526798Y-80266798D01*
X129516073Y-80276519D01*
X129504447Y-80285142D01*
X129492031Y-80292583D01*
X129478946Y-80298772D01*
X129465317Y-80303649D01*
X129451276Y-80307166D01*
X129436958Y-80309290D01*
X129422500Y-80310000D01*
X129077500Y-80310000D01*
X129063042Y-80309290D01*
X129048724Y-80307166D01*
X129034683Y-80303649D01*
X129021054Y-80298772D01*
X129007969Y-80292583D01*
X128995553Y-80285142D01*
X128983927Y-80276519D01*
X128973202Y-80266798D01*
X128963481Y-80256073D01*
X128954858Y-80244447D01*
X128947417Y-80232031D01*
X128941228Y-80218946D01*
X128936351Y-80205317D01*
X128932834Y-80191276D01*
X128930710Y-80176958D01*
X128930000Y-80162500D01*
X128930000Y-79867500D01*
X128930710Y-79853042D01*
X128932834Y-79838724D01*
X128936351Y-79824683D01*
X128941228Y-79811054D01*
X128947417Y-79797969D01*
X128954858Y-79785553D01*
X128963481Y-79773927D01*
X128973202Y-79763202D01*
X128983927Y-79753481D01*
X128995553Y-79744858D01*
X129007969Y-79737417D01*
X129021054Y-79731228D01*
X129034683Y-79726351D01*
X129048724Y-79722834D01*
X129063042Y-79720710D01*
X129077500Y-79720000D01*
X129422500Y-79720000D01*
X129436958Y-79720710D01*
X129436958Y-79720710D01*
G37*
D12*
X129250000Y-80015000D03*
D10*
G36*
X129436958Y-80690710D02*
X129451276Y-80692834D01*
X129465317Y-80696351D01*
X129478946Y-80701228D01*
X129492031Y-80707417D01*
X129504447Y-80714858D01*
X129516073Y-80723481D01*
X129526798Y-80733202D01*
X129536519Y-80743927D01*
X129545142Y-80755553D01*
X129552583Y-80767969D01*
X129558772Y-80781054D01*
X129563649Y-80794683D01*
X129567166Y-80808724D01*
X129569290Y-80823042D01*
X129570000Y-80837500D01*
X129570000Y-81132500D01*
X129569290Y-81146958D01*
X129567166Y-81161276D01*
X129563649Y-81175317D01*
X129558772Y-81188946D01*
X129552583Y-81202031D01*
X129545142Y-81214447D01*
X129536519Y-81226073D01*
X129526798Y-81236798D01*
X129516073Y-81246519D01*
X129504447Y-81255142D01*
X129492031Y-81262583D01*
X129478946Y-81268772D01*
X129465317Y-81273649D01*
X129451276Y-81277166D01*
X129436958Y-81279290D01*
X129422500Y-81280000D01*
X129077500Y-81280000D01*
X129063042Y-81279290D01*
X129048724Y-81277166D01*
X129034683Y-81273649D01*
X129021054Y-81268772D01*
X129007969Y-81262583D01*
X128995553Y-81255142D01*
X128983927Y-81246519D01*
X128973202Y-81236798D01*
X128963481Y-81226073D01*
X128954858Y-81214447D01*
X128947417Y-81202031D01*
X128941228Y-81188946D01*
X128936351Y-81175317D01*
X128932834Y-81161276D01*
X128930710Y-81146958D01*
X128930000Y-81132500D01*
X128930000Y-80837500D01*
X128930710Y-80823042D01*
X128932834Y-80808724D01*
X128936351Y-80794683D01*
X128941228Y-80781054D01*
X128947417Y-80767969D01*
X128954858Y-80755553D01*
X128963481Y-80743927D01*
X128973202Y-80733202D01*
X128983927Y-80723481D01*
X128995553Y-80714858D01*
X129007969Y-80707417D01*
X129021054Y-80701228D01*
X129034683Y-80696351D01*
X129048724Y-80692834D01*
X129063042Y-80690710D01*
X129077500Y-80690000D01*
X129422500Y-80690000D01*
X129436958Y-80690710D01*
X129436958Y-80690710D01*
G37*
D12*
X129250000Y-80985000D03*
G04 #@! TD*
D10*
G04 #@! TO.C,R2*
G36*
X132186958Y-80690710D02*
X132201276Y-80692834D01*
X132215317Y-80696351D01*
X132228946Y-80701228D01*
X132242031Y-80707417D01*
X132254447Y-80714858D01*
X132266073Y-80723481D01*
X132276798Y-80733202D01*
X132286519Y-80743927D01*
X132295142Y-80755553D01*
X132302583Y-80767969D01*
X132308772Y-80781054D01*
X132313649Y-80794683D01*
X132317166Y-80808724D01*
X132319290Y-80823042D01*
X132320000Y-80837500D01*
X132320000Y-81132500D01*
X132319290Y-81146958D01*
X132317166Y-81161276D01*
X132313649Y-81175317D01*
X132308772Y-81188946D01*
X132302583Y-81202031D01*
X132295142Y-81214447D01*
X132286519Y-81226073D01*
X132276798Y-81236798D01*
X132266073Y-81246519D01*
X132254447Y-81255142D01*
X132242031Y-81262583D01*
X132228946Y-81268772D01*
X132215317Y-81273649D01*
X132201276Y-81277166D01*
X132186958Y-81279290D01*
X132172500Y-81280000D01*
X131827500Y-81280000D01*
X131813042Y-81279290D01*
X131798724Y-81277166D01*
X131784683Y-81273649D01*
X131771054Y-81268772D01*
X131757969Y-81262583D01*
X131745553Y-81255142D01*
X131733927Y-81246519D01*
X131723202Y-81236798D01*
X131713481Y-81226073D01*
X131704858Y-81214447D01*
X131697417Y-81202031D01*
X131691228Y-81188946D01*
X131686351Y-81175317D01*
X131682834Y-81161276D01*
X131680710Y-81146958D01*
X131680000Y-81132500D01*
X131680000Y-80837500D01*
X131680710Y-80823042D01*
X131682834Y-80808724D01*
X131686351Y-80794683D01*
X131691228Y-80781054D01*
X131697417Y-80767969D01*
X131704858Y-80755553D01*
X131713481Y-80743927D01*
X131723202Y-80733202D01*
X131733927Y-80723481D01*
X131745553Y-80714858D01*
X131757969Y-80707417D01*
X131771054Y-80701228D01*
X131784683Y-80696351D01*
X131798724Y-80692834D01*
X131813042Y-80690710D01*
X131827500Y-80690000D01*
X132172500Y-80690000D01*
X132186958Y-80690710D01*
X132186958Y-80690710D01*
G37*
D12*
X132000000Y-80985000D03*
D10*
G36*
X132186958Y-79720710D02*
X132201276Y-79722834D01*
X132215317Y-79726351D01*
X132228946Y-79731228D01*
X132242031Y-79737417D01*
X132254447Y-79744858D01*
X132266073Y-79753481D01*
X132276798Y-79763202D01*
X132286519Y-79773927D01*
X132295142Y-79785553D01*
X132302583Y-79797969D01*
X132308772Y-79811054D01*
X132313649Y-79824683D01*
X132317166Y-79838724D01*
X132319290Y-79853042D01*
X132320000Y-79867500D01*
X132320000Y-80162500D01*
X132319290Y-80176958D01*
X132317166Y-80191276D01*
X132313649Y-80205317D01*
X132308772Y-80218946D01*
X132302583Y-80232031D01*
X132295142Y-80244447D01*
X132286519Y-80256073D01*
X132276798Y-80266798D01*
X132266073Y-80276519D01*
X132254447Y-80285142D01*
X132242031Y-80292583D01*
X132228946Y-80298772D01*
X132215317Y-80303649D01*
X132201276Y-80307166D01*
X132186958Y-80309290D01*
X132172500Y-80310000D01*
X131827500Y-80310000D01*
X131813042Y-80309290D01*
X131798724Y-80307166D01*
X131784683Y-80303649D01*
X131771054Y-80298772D01*
X131757969Y-80292583D01*
X131745553Y-80285142D01*
X131733927Y-80276519D01*
X131723202Y-80266798D01*
X131713481Y-80256073D01*
X131704858Y-80244447D01*
X131697417Y-80232031D01*
X131691228Y-80218946D01*
X131686351Y-80205317D01*
X131682834Y-80191276D01*
X131680710Y-80176958D01*
X131680000Y-80162500D01*
X131680000Y-79867500D01*
X131680710Y-79853042D01*
X131682834Y-79838724D01*
X131686351Y-79824683D01*
X131691228Y-79811054D01*
X131697417Y-79797969D01*
X131704858Y-79785553D01*
X131713481Y-79773927D01*
X131723202Y-79763202D01*
X131733927Y-79753481D01*
X131745553Y-79744858D01*
X131757969Y-79737417D01*
X131771054Y-79731228D01*
X131784683Y-79726351D01*
X131798724Y-79722834D01*
X131813042Y-79720710D01*
X131827500Y-79720000D01*
X132172500Y-79720000D01*
X132186958Y-79720710D01*
X132186958Y-79720710D01*
G37*
D12*
X132000000Y-80015000D03*
G04 #@! TD*
D10*
G04 #@! TO.C,R3*
G36*
X180146958Y-110180710D02*
X180161276Y-110182834D01*
X180175317Y-110186351D01*
X180188946Y-110191228D01*
X180202031Y-110197417D01*
X180214447Y-110204858D01*
X180226073Y-110213481D01*
X180236798Y-110223202D01*
X180246519Y-110233927D01*
X180255142Y-110245553D01*
X180262583Y-110257969D01*
X180268772Y-110271054D01*
X180273649Y-110284683D01*
X180277166Y-110298724D01*
X180279290Y-110313042D01*
X180280000Y-110327500D01*
X180280000Y-110672500D01*
X180279290Y-110686958D01*
X180277166Y-110701276D01*
X180273649Y-110715317D01*
X180268772Y-110728946D01*
X180262583Y-110742031D01*
X180255142Y-110754447D01*
X180246519Y-110766073D01*
X180236798Y-110776798D01*
X180226073Y-110786519D01*
X180214447Y-110795142D01*
X180202031Y-110802583D01*
X180188946Y-110808772D01*
X180175317Y-110813649D01*
X180161276Y-110817166D01*
X180146958Y-110819290D01*
X180132500Y-110820000D01*
X179837500Y-110820000D01*
X179823042Y-110819290D01*
X179808724Y-110817166D01*
X179794683Y-110813649D01*
X179781054Y-110808772D01*
X179767969Y-110802583D01*
X179755553Y-110795142D01*
X179743927Y-110786519D01*
X179733202Y-110776798D01*
X179723481Y-110766073D01*
X179714858Y-110754447D01*
X179707417Y-110742031D01*
X179701228Y-110728946D01*
X179696351Y-110715317D01*
X179692834Y-110701276D01*
X179690710Y-110686958D01*
X179690000Y-110672500D01*
X179690000Y-110327500D01*
X179690710Y-110313042D01*
X179692834Y-110298724D01*
X179696351Y-110284683D01*
X179701228Y-110271054D01*
X179707417Y-110257969D01*
X179714858Y-110245553D01*
X179723481Y-110233927D01*
X179733202Y-110223202D01*
X179743927Y-110213481D01*
X179755553Y-110204858D01*
X179767969Y-110197417D01*
X179781054Y-110191228D01*
X179794683Y-110186351D01*
X179808724Y-110182834D01*
X179823042Y-110180710D01*
X179837500Y-110180000D01*
X180132500Y-110180000D01*
X180146958Y-110180710D01*
X180146958Y-110180710D01*
G37*
D12*
X179985000Y-110500000D03*
D10*
G36*
X179176958Y-110180710D02*
X179191276Y-110182834D01*
X179205317Y-110186351D01*
X179218946Y-110191228D01*
X179232031Y-110197417D01*
X179244447Y-110204858D01*
X179256073Y-110213481D01*
X179266798Y-110223202D01*
X179276519Y-110233927D01*
X179285142Y-110245553D01*
X179292583Y-110257969D01*
X179298772Y-110271054D01*
X179303649Y-110284683D01*
X179307166Y-110298724D01*
X179309290Y-110313042D01*
X179310000Y-110327500D01*
X179310000Y-110672500D01*
X179309290Y-110686958D01*
X179307166Y-110701276D01*
X179303649Y-110715317D01*
X179298772Y-110728946D01*
X179292583Y-110742031D01*
X179285142Y-110754447D01*
X179276519Y-110766073D01*
X179266798Y-110776798D01*
X179256073Y-110786519D01*
X179244447Y-110795142D01*
X179232031Y-110802583D01*
X179218946Y-110808772D01*
X179205317Y-110813649D01*
X179191276Y-110817166D01*
X179176958Y-110819290D01*
X179162500Y-110820000D01*
X178867500Y-110820000D01*
X178853042Y-110819290D01*
X178838724Y-110817166D01*
X178824683Y-110813649D01*
X178811054Y-110808772D01*
X178797969Y-110802583D01*
X178785553Y-110795142D01*
X178773927Y-110786519D01*
X178763202Y-110776798D01*
X178753481Y-110766073D01*
X178744858Y-110754447D01*
X178737417Y-110742031D01*
X178731228Y-110728946D01*
X178726351Y-110715317D01*
X178722834Y-110701276D01*
X178720710Y-110686958D01*
X178720000Y-110672500D01*
X178720000Y-110327500D01*
X178720710Y-110313042D01*
X178722834Y-110298724D01*
X178726351Y-110284683D01*
X178731228Y-110271054D01*
X178737417Y-110257969D01*
X178744858Y-110245553D01*
X178753481Y-110233927D01*
X178763202Y-110223202D01*
X178773927Y-110213481D01*
X178785553Y-110204858D01*
X178797969Y-110197417D01*
X178811054Y-110191228D01*
X178824683Y-110186351D01*
X178838724Y-110182834D01*
X178853042Y-110180710D01*
X178867500Y-110180000D01*
X179162500Y-110180000D01*
X179176958Y-110180710D01*
X179176958Y-110180710D01*
G37*
D12*
X179015000Y-110500000D03*
G04 #@! TD*
D10*
G04 #@! TO.C,R4*
G36*
X153186958Y-82220710D02*
X153201276Y-82222834D01*
X153215317Y-82226351D01*
X153228946Y-82231228D01*
X153242031Y-82237417D01*
X153254447Y-82244858D01*
X153266073Y-82253481D01*
X153276798Y-82263202D01*
X153286519Y-82273927D01*
X153295142Y-82285553D01*
X153302583Y-82297969D01*
X153308772Y-82311054D01*
X153313649Y-82324683D01*
X153317166Y-82338724D01*
X153319290Y-82353042D01*
X153320000Y-82367500D01*
X153320000Y-82662500D01*
X153319290Y-82676958D01*
X153317166Y-82691276D01*
X153313649Y-82705317D01*
X153308772Y-82718946D01*
X153302583Y-82732031D01*
X153295142Y-82744447D01*
X153286519Y-82756073D01*
X153276798Y-82766798D01*
X153266073Y-82776519D01*
X153254447Y-82785142D01*
X153242031Y-82792583D01*
X153228946Y-82798772D01*
X153215317Y-82803649D01*
X153201276Y-82807166D01*
X153186958Y-82809290D01*
X153172500Y-82810000D01*
X152827500Y-82810000D01*
X152813042Y-82809290D01*
X152798724Y-82807166D01*
X152784683Y-82803649D01*
X152771054Y-82798772D01*
X152757969Y-82792583D01*
X152745553Y-82785142D01*
X152733927Y-82776519D01*
X152723202Y-82766798D01*
X152713481Y-82756073D01*
X152704858Y-82744447D01*
X152697417Y-82732031D01*
X152691228Y-82718946D01*
X152686351Y-82705317D01*
X152682834Y-82691276D01*
X152680710Y-82676958D01*
X152680000Y-82662500D01*
X152680000Y-82367500D01*
X152680710Y-82353042D01*
X152682834Y-82338724D01*
X152686351Y-82324683D01*
X152691228Y-82311054D01*
X152697417Y-82297969D01*
X152704858Y-82285553D01*
X152713481Y-82273927D01*
X152723202Y-82263202D01*
X152733927Y-82253481D01*
X152745553Y-82244858D01*
X152757969Y-82237417D01*
X152771054Y-82231228D01*
X152784683Y-82226351D01*
X152798724Y-82222834D01*
X152813042Y-82220710D01*
X152827500Y-82220000D01*
X153172500Y-82220000D01*
X153186958Y-82220710D01*
X153186958Y-82220710D01*
G37*
D12*
X153000000Y-82515000D03*
D10*
G36*
X153186958Y-83190710D02*
X153201276Y-83192834D01*
X153215317Y-83196351D01*
X153228946Y-83201228D01*
X153242031Y-83207417D01*
X153254447Y-83214858D01*
X153266073Y-83223481D01*
X153276798Y-83233202D01*
X153286519Y-83243927D01*
X153295142Y-83255553D01*
X153302583Y-83267969D01*
X153308772Y-83281054D01*
X153313649Y-83294683D01*
X153317166Y-83308724D01*
X153319290Y-83323042D01*
X153320000Y-83337500D01*
X153320000Y-83632500D01*
X153319290Y-83646958D01*
X153317166Y-83661276D01*
X153313649Y-83675317D01*
X153308772Y-83688946D01*
X153302583Y-83702031D01*
X153295142Y-83714447D01*
X153286519Y-83726073D01*
X153276798Y-83736798D01*
X153266073Y-83746519D01*
X153254447Y-83755142D01*
X153242031Y-83762583D01*
X153228946Y-83768772D01*
X153215317Y-83773649D01*
X153201276Y-83777166D01*
X153186958Y-83779290D01*
X153172500Y-83780000D01*
X152827500Y-83780000D01*
X152813042Y-83779290D01*
X152798724Y-83777166D01*
X152784683Y-83773649D01*
X152771054Y-83768772D01*
X152757969Y-83762583D01*
X152745553Y-83755142D01*
X152733927Y-83746519D01*
X152723202Y-83736798D01*
X152713481Y-83726073D01*
X152704858Y-83714447D01*
X152697417Y-83702031D01*
X152691228Y-83688946D01*
X152686351Y-83675317D01*
X152682834Y-83661276D01*
X152680710Y-83646958D01*
X152680000Y-83632500D01*
X152680000Y-83337500D01*
X152680710Y-83323042D01*
X152682834Y-83308724D01*
X152686351Y-83294683D01*
X152691228Y-83281054D01*
X152697417Y-83267969D01*
X152704858Y-83255553D01*
X152713481Y-83243927D01*
X152723202Y-83233202D01*
X152733927Y-83223481D01*
X152745553Y-83214858D01*
X152757969Y-83207417D01*
X152771054Y-83201228D01*
X152784683Y-83196351D01*
X152798724Y-83192834D01*
X152813042Y-83190710D01*
X152827500Y-83190000D01*
X153172500Y-83190000D01*
X153186958Y-83190710D01*
X153186958Y-83190710D01*
G37*
D12*
X153000000Y-83485000D03*
G04 #@! TD*
D10*
G04 #@! TO.C,R5*
G36*
X154436958Y-83190710D02*
X154451276Y-83192834D01*
X154465317Y-83196351D01*
X154478946Y-83201228D01*
X154492031Y-83207417D01*
X154504447Y-83214858D01*
X154516073Y-83223481D01*
X154526798Y-83233202D01*
X154536519Y-83243927D01*
X154545142Y-83255553D01*
X154552583Y-83267969D01*
X154558772Y-83281054D01*
X154563649Y-83294683D01*
X154567166Y-83308724D01*
X154569290Y-83323042D01*
X154570000Y-83337500D01*
X154570000Y-83632500D01*
X154569290Y-83646958D01*
X154567166Y-83661276D01*
X154563649Y-83675317D01*
X154558772Y-83688946D01*
X154552583Y-83702031D01*
X154545142Y-83714447D01*
X154536519Y-83726073D01*
X154526798Y-83736798D01*
X154516073Y-83746519D01*
X154504447Y-83755142D01*
X154492031Y-83762583D01*
X154478946Y-83768772D01*
X154465317Y-83773649D01*
X154451276Y-83777166D01*
X154436958Y-83779290D01*
X154422500Y-83780000D01*
X154077500Y-83780000D01*
X154063042Y-83779290D01*
X154048724Y-83777166D01*
X154034683Y-83773649D01*
X154021054Y-83768772D01*
X154007969Y-83762583D01*
X153995553Y-83755142D01*
X153983927Y-83746519D01*
X153973202Y-83736798D01*
X153963481Y-83726073D01*
X153954858Y-83714447D01*
X153947417Y-83702031D01*
X153941228Y-83688946D01*
X153936351Y-83675317D01*
X153932834Y-83661276D01*
X153930710Y-83646958D01*
X153930000Y-83632500D01*
X153930000Y-83337500D01*
X153930710Y-83323042D01*
X153932834Y-83308724D01*
X153936351Y-83294683D01*
X153941228Y-83281054D01*
X153947417Y-83267969D01*
X153954858Y-83255553D01*
X153963481Y-83243927D01*
X153973202Y-83233202D01*
X153983927Y-83223481D01*
X153995553Y-83214858D01*
X154007969Y-83207417D01*
X154021054Y-83201228D01*
X154034683Y-83196351D01*
X154048724Y-83192834D01*
X154063042Y-83190710D01*
X154077500Y-83190000D01*
X154422500Y-83190000D01*
X154436958Y-83190710D01*
X154436958Y-83190710D01*
G37*
D12*
X154250000Y-83485000D03*
D10*
G36*
X154436958Y-82220710D02*
X154451276Y-82222834D01*
X154465317Y-82226351D01*
X154478946Y-82231228D01*
X154492031Y-82237417D01*
X154504447Y-82244858D01*
X154516073Y-82253481D01*
X154526798Y-82263202D01*
X154536519Y-82273927D01*
X154545142Y-82285553D01*
X154552583Y-82297969D01*
X154558772Y-82311054D01*
X154563649Y-82324683D01*
X154567166Y-82338724D01*
X154569290Y-82353042D01*
X154570000Y-82367500D01*
X154570000Y-82662500D01*
X154569290Y-82676958D01*
X154567166Y-82691276D01*
X154563649Y-82705317D01*
X154558772Y-82718946D01*
X154552583Y-82732031D01*
X154545142Y-82744447D01*
X154536519Y-82756073D01*
X154526798Y-82766798D01*
X154516073Y-82776519D01*
X154504447Y-82785142D01*
X154492031Y-82792583D01*
X154478946Y-82798772D01*
X154465317Y-82803649D01*
X154451276Y-82807166D01*
X154436958Y-82809290D01*
X154422500Y-82810000D01*
X154077500Y-82810000D01*
X154063042Y-82809290D01*
X154048724Y-82807166D01*
X154034683Y-82803649D01*
X154021054Y-82798772D01*
X154007969Y-82792583D01*
X153995553Y-82785142D01*
X153983927Y-82776519D01*
X153973202Y-82766798D01*
X153963481Y-82756073D01*
X153954858Y-82744447D01*
X153947417Y-82732031D01*
X153941228Y-82718946D01*
X153936351Y-82705317D01*
X153932834Y-82691276D01*
X153930710Y-82676958D01*
X153930000Y-82662500D01*
X153930000Y-82367500D01*
X153930710Y-82353042D01*
X153932834Y-82338724D01*
X153936351Y-82324683D01*
X153941228Y-82311054D01*
X153947417Y-82297969D01*
X153954858Y-82285553D01*
X153963481Y-82273927D01*
X153973202Y-82263202D01*
X153983927Y-82253481D01*
X153995553Y-82244858D01*
X154007969Y-82237417D01*
X154021054Y-82231228D01*
X154034683Y-82226351D01*
X154048724Y-82222834D01*
X154063042Y-82220710D01*
X154077500Y-82220000D01*
X154422500Y-82220000D01*
X154436958Y-82220710D01*
X154436958Y-82220710D01*
G37*
D12*
X154250000Y-82515000D03*
G04 #@! TD*
D10*
G04 #@! TO.C,R6*
G36*
X133936958Y-119955710D02*
X133951276Y-119957834D01*
X133965317Y-119961351D01*
X133978946Y-119966228D01*
X133992031Y-119972417D01*
X134004447Y-119979858D01*
X134016073Y-119988481D01*
X134026798Y-119998202D01*
X134036519Y-120008927D01*
X134045142Y-120020553D01*
X134052583Y-120032969D01*
X134058772Y-120046054D01*
X134063649Y-120059683D01*
X134067166Y-120073724D01*
X134069290Y-120088042D01*
X134070000Y-120102500D01*
X134070000Y-120397500D01*
X134069290Y-120411958D01*
X134067166Y-120426276D01*
X134063649Y-120440317D01*
X134058772Y-120453946D01*
X134052583Y-120467031D01*
X134045142Y-120479447D01*
X134036519Y-120491073D01*
X134026798Y-120501798D01*
X134016073Y-120511519D01*
X134004447Y-120520142D01*
X133992031Y-120527583D01*
X133978946Y-120533772D01*
X133965317Y-120538649D01*
X133951276Y-120542166D01*
X133936958Y-120544290D01*
X133922500Y-120545000D01*
X133577500Y-120545000D01*
X133563042Y-120544290D01*
X133548724Y-120542166D01*
X133534683Y-120538649D01*
X133521054Y-120533772D01*
X133507969Y-120527583D01*
X133495553Y-120520142D01*
X133483927Y-120511519D01*
X133473202Y-120501798D01*
X133463481Y-120491073D01*
X133454858Y-120479447D01*
X133447417Y-120467031D01*
X133441228Y-120453946D01*
X133436351Y-120440317D01*
X133432834Y-120426276D01*
X133430710Y-120411958D01*
X133430000Y-120397500D01*
X133430000Y-120102500D01*
X133430710Y-120088042D01*
X133432834Y-120073724D01*
X133436351Y-120059683D01*
X133441228Y-120046054D01*
X133447417Y-120032969D01*
X133454858Y-120020553D01*
X133463481Y-120008927D01*
X133473202Y-119998202D01*
X133483927Y-119988481D01*
X133495553Y-119979858D01*
X133507969Y-119972417D01*
X133521054Y-119966228D01*
X133534683Y-119961351D01*
X133548724Y-119957834D01*
X133563042Y-119955710D01*
X133577500Y-119955000D01*
X133922500Y-119955000D01*
X133936958Y-119955710D01*
X133936958Y-119955710D01*
G37*
D12*
X133750000Y-120250000D03*
D10*
G36*
X133936958Y-120925710D02*
X133951276Y-120927834D01*
X133965317Y-120931351D01*
X133978946Y-120936228D01*
X133992031Y-120942417D01*
X134004447Y-120949858D01*
X134016073Y-120958481D01*
X134026798Y-120968202D01*
X134036519Y-120978927D01*
X134045142Y-120990553D01*
X134052583Y-121002969D01*
X134058772Y-121016054D01*
X134063649Y-121029683D01*
X134067166Y-121043724D01*
X134069290Y-121058042D01*
X134070000Y-121072500D01*
X134070000Y-121367500D01*
X134069290Y-121381958D01*
X134067166Y-121396276D01*
X134063649Y-121410317D01*
X134058772Y-121423946D01*
X134052583Y-121437031D01*
X134045142Y-121449447D01*
X134036519Y-121461073D01*
X134026798Y-121471798D01*
X134016073Y-121481519D01*
X134004447Y-121490142D01*
X133992031Y-121497583D01*
X133978946Y-121503772D01*
X133965317Y-121508649D01*
X133951276Y-121512166D01*
X133936958Y-121514290D01*
X133922500Y-121515000D01*
X133577500Y-121515000D01*
X133563042Y-121514290D01*
X133548724Y-121512166D01*
X133534683Y-121508649D01*
X133521054Y-121503772D01*
X133507969Y-121497583D01*
X133495553Y-121490142D01*
X133483927Y-121481519D01*
X133473202Y-121471798D01*
X133463481Y-121461073D01*
X133454858Y-121449447D01*
X133447417Y-121437031D01*
X133441228Y-121423946D01*
X133436351Y-121410317D01*
X133432834Y-121396276D01*
X133430710Y-121381958D01*
X133430000Y-121367500D01*
X133430000Y-121072500D01*
X133430710Y-121058042D01*
X133432834Y-121043724D01*
X133436351Y-121029683D01*
X133441228Y-121016054D01*
X133447417Y-121002969D01*
X133454858Y-120990553D01*
X133463481Y-120978927D01*
X133473202Y-120968202D01*
X133483927Y-120958481D01*
X133495553Y-120949858D01*
X133507969Y-120942417D01*
X133521054Y-120936228D01*
X133534683Y-120931351D01*
X133548724Y-120927834D01*
X133563042Y-120925710D01*
X133577500Y-120925000D01*
X133922500Y-120925000D01*
X133936958Y-120925710D01*
X133936958Y-120925710D01*
G37*
D12*
X133750000Y-121220000D03*
G04 #@! TD*
D10*
G04 #@! TO.C,R7*
G36*
X133936958Y-112220710D02*
X133951276Y-112222834D01*
X133965317Y-112226351D01*
X133978946Y-112231228D01*
X133992031Y-112237417D01*
X134004447Y-112244858D01*
X134016073Y-112253481D01*
X134026798Y-112263202D01*
X134036519Y-112273927D01*
X134045142Y-112285553D01*
X134052583Y-112297969D01*
X134058772Y-112311054D01*
X134063649Y-112324683D01*
X134067166Y-112338724D01*
X134069290Y-112353042D01*
X134070000Y-112367500D01*
X134070000Y-112662500D01*
X134069290Y-112676958D01*
X134067166Y-112691276D01*
X134063649Y-112705317D01*
X134058772Y-112718946D01*
X134052583Y-112732031D01*
X134045142Y-112744447D01*
X134036519Y-112756073D01*
X134026798Y-112766798D01*
X134016073Y-112776519D01*
X134004447Y-112785142D01*
X133992031Y-112792583D01*
X133978946Y-112798772D01*
X133965317Y-112803649D01*
X133951276Y-112807166D01*
X133936958Y-112809290D01*
X133922500Y-112810000D01*
X133577500Y-112810000D01*
X133563042Y-112809290D01*
X133548724Y-112807166D01*
X133534683Y-112803649D01*
X133521054Y-112798772D01*
X133507969Y-112792583D01*
X133495553Y-112785142D01*
X133483927Y-112776519D01*
X133473202Y-112766798D01*
X133463481Y-112756073D01*
X133454858Y-112744447D01*
X133447417Y-112732031D01*
X133441228Y-112718946D01*
X133436351Y-112705317D01*
X133432834Y-112691276D01*
X133430710Y-112676958D01*
X133430000Y-112662500D01*
X133430000Y-112367500D01*
X133430710Y-112353042D01*
X133432834Y-112338724D01*
X133436351Y-112324683D01*
X133441228Y-112311054D01*
X133447417Y-112297969D01*
X133454858Y-112285553D01*
X133463481Y-112273927D01*
X133473202Y-112263202D01*
X133483927Y-112253481D01*
X133495553Y-112244858D01*
X133507969Y-112237417D01*
X133521054Y-112231228D01*
X133534683Y-112226351D01*
X133548724Y-112222834D01*
X133563042Y-112220710D01*
X133577500Y-112220000D01*
X133922500Y-112220000D01*
X133936958Y-112220710D01*
X133936958Y-112220710D01*
G37*
D12*
X133750000Y-112515000D03*
D10*
G36*
X133936958Y-113190710D02*
X133951276Y-113192834D01*
X133965317Y-113196351D01*
X133978946Y-113201228D01*
X133992031Y-113207417D01*
X134004447Y-113214858D01*
X134016073Y-113223481D01*
X134026798Y-113233202D01*
X134036519Y-113243927D01*
X134045142Y-113255553D01*
X134052583Y-113267969D01*
X134058772Y-113281054D01*
X134063649Y-113294683D01*
X134067166Y-113308724D01*
X134069290Y-113323042D01*
X134070000Y-113337500D01*
X134070000Y-113632500D01*
X134069290Y-113646958D01*
X134067166Y-113661276D01*
X134063649Y-113675317D01*
X134058772Y-113688946D01*
X134052583Y-113702031D01*
X134045142Y-113714447D01*
X134036519Y-113726073D01*
X134026798Y-113736798D01*
X134016073Y-113746519D01*
X134004447Y-113755142D01*
X133992031Y-113762583D01*
X133978946Y-113768772D01*
X133965317Y-113773649D01*
X133951276Y-113777166D01*
X133936958Y-113779290D01*
X133922500Y-113780000D01*
X133577500Y-113780000D01*
X133563042Y-113779290D01*
X133548724Y-113777166D01*
X133534683Y-113773649D01*
X133521054Y-113768772D01*
X133507969Y-113762583D01*
X133495553Y-113755142D01*
X133483927Y-113746519D01*
X133473202Y-113736798D01*
X133463481Y-113726073D01*
X133454858Y-113714447D01*
X133447417Y-113702031D01*
X133441228Y-113688946D01*
X133436351Y-113675317D01*
X133432834Y-113661276D01*
X133430710Y-113646958D01*
X133430000Y-113632500D01*
X133430000Y-113337500D01*
X133430710Y-113323042D01*
X133432834Y-113308724D01*
X133436351Y-113294683D01*
X133441228Y-113281054D01*
X133447417Y-113267969D01*
X133454858Y-113255553D01*
X133463481Y-113243927D01*
X133473202Y-113233202D01*
X133483927Y-113223481D01*
X133495553Y-113214858D01*
X133507969Y-113207417D01*
X133521054Y-113201228D01*
X133534683Y-113196351D01*
X133548724Y-113192834D01*
X133563042Y-113190710D01*
X133577500Y-113190000D01*
X133922500Y-113190000D01*
X133936958Y-113190710D01*
X133936958Y-113190710D01*
G37*
D12*
X133750000Y-113485000D03*
G04 #@! TD*
D10*
G04 #@! TO.C,R8*
G36*
X163186958Y-109690710D02*
X163201276Y-109692834D01*
X163215317Y-109696351D01*
X163228946Y-109701228D01*
X163242031Y-109707417D01*
X163254447Y-109714858D01*
X163266073Y-109723481D01*
X163276798Y-109733202D01*
X163286519Y-109743927D01*
X163295142Y-109755553D01*
X163302583Y-109767969D01*
X163308772Y-109781054D01*
X163313649Y-109794683D01*
X163317166Y-109808724D01*
X163319290Y-109823042D01*
X163320000Y-109837500D01*
X163320000Y-110132500D01*
X163319290Y-110146958D01*
X163317166Y-110161276D01*
X163313649Y-110175317D01*
X163308772Y-110188946D01*
X163302583Y-110202031D01*
X163295142Y-110214447D01*
X163286519Y-110226073D01*
X163276798Y-110236798D01*
X163266073Y-110246519D01*
X163254447Y-110255142D01*
X163242031Y-110262583D01*
X163228946Y-110268772D01*
X163215317Y-110273649D01*
X163201276Y-110277166D01*
X163186958Y-110279290D01*
X163172500Y-110280000D01*
X162827500Y-110280000D01*
X162813042Y-110279290D01*
X162798724Y-110277166D01*
X162784683Y-110273649D01*
X162771054Y-110268772D01*
X162757969Y-110262583D01*
X162745553Y-110255142D01*
X162733927Y-110246519D01*
X162723202Y-110236798D01*
X162713481Y-110226073D01*
X162704858Y-110214447D01*
X162697417Y-110202031D01*
X162691228Y-110188946D01*
X162686351Y-110175317D01*
X162682834Y-110161276D01*
X162680710Y-110146958D01*
X162680000Y-110132500D01*
X162680000Y-109837500D01*
X162680710Y-109823042D01*
X162682834Y-109808724D01*
X162686351Y-109794683D01*
X162691228Y-109781054D01*
X162697417Y-109767969D01*
X162704858Y-109755553D01*
X162713481Y-109743927D01*
X162723202Y-109733202D01*
X162733927Y-109723481D01*
X162745553Y-109714858D01*
X162757969Y-109707417D01*
X162771054Y-109701228D01*
X162784683Y-109696351D01*
X162798724Y-109692834D01*
X162813042Y-109690710D01*
X162827500Y-109690000D01*
X163172500Y-109690000D01*
X163186958Y-109690710D01*
X163186958Y-109690710D01*
G37*
D12*
X163000000Y-109985000D03*
D10*
G36*
X163186958Y-108720710D02*
X163201276Y-108722834D01*
X163215317Y-108726351D01*
X163228946Y-108731228D01*
X163242031Y-108737417D01*
X163254447Y-108744858D01*
X163266073Y-108753481D01*
X163276798Y-108763202D01*
X163286519Y-108773927D01*
X163295142Y-108785553D01*
X163302583Y-108797969D01*
X163308772Y-108811054D01*
X163313649Y-108824683D01*
X163317166Y-108838724D01*
X163319290Y-108853042D01*
X163320000Y-108867500D01*
X163320000Y-109162500D01*
X163319290Y-109176958D01*
X163317166Y-109191276D01*
X163313649Y-109205317D01*
X163308772Y-109218946D01*
X163302583Y-109232031D01*
X163295142Y-109244447D01*
X163286519Y-109256073D01*
X163276798Y-109266798D01*
X163266073Y-109276519D01*
X163254447Y-109285142D01*
X163242031Y-109292583D01*
X163228946Y-109298772D01*
X163215317Y-109303649D01*
X163201276Y-109307166D01*
X163186958Y-109309290D01*
X163172500Y-109310000D01*
X162827500Y-109310000D01*
X162813042Y-109309290D01*
X162798724Y-109307166D01*
X162784683Y-109303649D01*
X162771054Y-109298772D01*
X162757969Y-109292583D01*
X162745553Y-109285142D01*
X162733927Y-109276519D01*
X162723202Y-109266798D01*
X162713481Y-109256073D01*
X162704858Y-109244447D01*
X162697417Y-109232031D01*
X162691228Y-109218946D01*
X162686351Y-109205317D01*
X162682834Y-109191276D01*
X162680710Y-109176958D01*
X162680000Y-109162500D01*
X162680000Y-108867500D01*
X162680710Y-108853042D01*
X162682834Y-108838724D01*
X162686351Y-108824683D01*
X162691228Y-108811054D01*
X162697417Y-108797969D01*
X162704858Y-108785553D01*
X162713481Y-108773927D01*
X162723202Y-108763202D01*
X162733927Y-108753481D01*
X162745553Y-108744858D01*
X162757969Y-108737417D01*
X162771054Y-108731228D01*
X162784683Y-108726351D01*
X162798724Y-108722834D01*
X162813042Y-108720710D01*
X162827500Y-108720000D01*
X163172500Y-108720000D01*
X163186958Y-108720710D01*
X163186958Y-108720710D01*
G37*
D12*
X163000000Y-109015000D03*
G04 #@! TD*
D10*
G04 #@! TO.C,R9*
G36*
X161186958Y-108735710D02*
X161201276Y-108737834D01*
X161215317Y-108741351D01*
X161228946Y-108746228D01*
X161242031Y-108752417D01*
X161254447Y-108759858D01*
X161266073Y-108768481D01*
X161276798Y-108778202D01*
X161286519Y-108788927D01*
X161295142Y-108800553D01*
X161302583Y-108812969D01*
X161308772Y-108826054D01*
X161313649Y-108839683D01*
X161317166Y-108853724D01*
X161319290Y-108868042D01*
X161320000Y-108882500D01*
X161320000Y-109177500D01*
X161319290Y-109191958D01*
X161317166Y-109206276D01*
X161313649Y-109220317D01*
X161308772Y-109233946D01*
X161302583Y-109247031D01*
X161295142Y-109259447D01*
X161286519Y-109271073D01*
X161276798Y-109281798D01*
X161266073Y-109291519D01*
X161254447Y-109300142D01*
X161242031Y-109307583D01*
X161228946Y-109313772D01*
X161215317Y-109318649D01*
X161201276Y-109322166D01*
X161186958Y-109324290D01*
X161172500Y-109325000D01*
X160827500Y-109325000D01*
X160813042Y-109324290D01*
X160798724Y-109322166D01*
X160784683Y-109318649D01*
X160771054Y-109313772D01*
X160757969Y-109307583D01*
X160745553Y-109300142D01*
X160733927Y-109291519D01*
X160723202Y-109281798D01*
X160713481Y-109271073D01*
X160704858Y-109259447D01*
X160697417Y-109247031D01*
X160691228Y-109233946D01*
X160686351Y-109220317D01*
X160682834Y-109206276D01*
X160680710Y-109191958D01*
X160680000Y-109177500D01*
X160680000Y-108882500D01*
X160680710Y-108868042D01*
X160682834Y-108853724D01*
X160686351Y-108839683D01*
X160691228Y-108826054D01*
X160697417Y-108812969D01*
X160704858Y-108800553D01*
X160713481Y-108788927D01*
X160723202Y-108778202D01*
X160733927Y-108768481D01*
X160745553Y-108759858D01*
X160757969Y-108752417D01*
X160771054Y-108746228D01*
X160784683Y-108741351D01*
X160798724Y-108737834D01*
X160813042Y-108735710D01*
X160827500Y-108735000D01*
X161172500Y-108735000D01*
X161186958Y-108735710D01*
X161186958Y-108735710D01*
G37*
D12*
X161000000Y-109030000D03*
D10*
G36*
X161186958Y-109705710D02*
X161201276Y-109707834D01*
X161215317Y-109711351D01*
X161228946Y-109716228D01*
X161242031Y-109722417D01*
X161254447Y-109729858D01*
X161266073Y-109738481D01*
X161276798Y-109748202D01*
X161286519Y-109758927D01*
X161295142Y-109770553D01*
X161302583Y-109782969D01*
X161308772Y-109796054D01*
X161313649Y-109809683D01*
X161317166Y-109823724D01*
X161319290Y-109838042D01*
X161320000Y-109852500D01*
X161320000Y-110147500D01*
X161319290Y-110161958D01*
X161317166Y-110176276D01*
X161313649Y-110190317D01*
X161308772Y-110203946D01*
X161302583Y-110217031D01*
X161295142Y-110229447D01*
X161286519Y-110241073D01*
X161276798Y-110251798D01*
X161266073Y-110261519D01*
X161254447Y-110270142D01*
X161242031Y-110277583D01*
X161228946Y-110283772D01*
X161215317Y-110288649D01*
X161201276Y-110292166D01*
X161186958Y-110294290D01*
X161172500Y-110295000D01*
X160827500Y-110295000D01*
X160813042Y-110294290D01*
X160798724Y-110292166D01*
X160784683Y-110288649D01*
X160771054Y-110283772D01*
X160757969Y-110277583D01*
X160745553Y-110270142D01*
X160733927Y-110261519D01*
X160723202Y-110251798D01*
X160713481Y-110241073D01*
X160704858Y-110229447D01*
X160697417Y-110217031D01*
X160691228Y-110203946D01*
X160686351Y-110190317D01*
X160682834Y-110176276D01*
X160680710Y-110161958D01*
X160680000Y-110147500D01*
X160680000Y-109852500D01*
X160680710Y-109838042D01*
X160682834Y-109823724D01*
X160686351Y-109809683D01*
X160691228Y-109796054D01*
X160697417Y-109782969D01*
X160704858Y-109770553D01*
X160713481Y-109758927D01*
X160723202Y-109748202D01*
X160733927Y-109738481D01*
X160745553Y-109729858D01*
X160757969Y-109722417D01*
X160771054Y-109716228D01*
X160784683Y-109711351D01*
X160798724Y-109707834D01*
X160813042Y-109705710D01*
X160827500Y-109705000D01*
X161172500Y-109705000D01*
X161186958Y-109705710D01*
X161186958Y-109705710D01*
G37*
D12*
X161000000Y-110000000D03*
G04 #@! TD*
D10*
G04 #@! TO.C,R10*
G36*
X163205142Y-110801174D02*
X163228803Y-110804684D01*
X163252007Y-110810496D01*
X163274529Y-110818554D01*
X163296153Y-110828782D01*
X163316670Y-110841079D01*
X163335883Y-110855329D01*
X163353607Y-110871393D01*
X163369671Y-110889117D01*
X163383921Y-110908330D01*
X163396218Y-110928847D01*
X163406446Y-110950471D01*
X163414504Y-110972993D01*
X163420316Y-110996197D01*
X163423826Y-111019858D01*
X163425000Y-111043750D01*
X163425000Y-111956250D01*
X163423826Y-111980142D01*
X163420316Y-112003803D01*
X163414504Y-112027007D01*
X163406446Y-112049529D01*
X163396218Y-112071153D01*
X163383921Y-112091670D01*
X163369671Y-112110883D01*
X163353607Y-112128607D01*
X163335883Y-112144671D01*
X163316670Y-112158921D01*
X163296153Y-112171218D01*
X163274529Y-112181446D01*
X163252007Y-112189504D01*
X163228803Y-112195316D01*
X163205142Y-112198826D01*
X163181250Y-112200000D01*
X162693750Y-112200000D01*
X162669858Y-112198826D01*
X162646197Y-112195316D01*
X162622993Y-112189504D01*
X162600471Y-112181446D01*
X162578847Y-112171218D01*
X162558330Y-112158921D01*
X162539117Y-112144671D01*
X162521393Y-112128607D01*
X162505329Y-112110883D01*
X162491079Y-112091670D01*
X162478782Y-112071153D01*
X162468554Y-112049529D01*
X162460496Y-112027007D01*
X162454684Y-112003803D01*
X162451174Y-111980142D01*
X162450000Y-111956250D01*
X162450000Y-111043750D01*
X162451174Y-111019858D01*
X162454684Y-110996197D01*
X162460496Y-110972993D01*
X162468554Y-110950471D01*
X162478782Y-110928847D01*
X162491079Y-110908330D01*
X162505329Y-110889117D01*
X162521393Y-110871393D01*
X162539117Y-110855329D01*
X162558330Y-110841079D01*
X162578847Y-110828782D01*
X162600471Y-110818554D01*
X162622993Y-110810496D01*
X162646197Y-110804684D01*
X162669858Y-110801174D01*
X162693750Y-110800000D01*
X163181250Y-110800000D01*
X163205142Y-110801174D01*
X163205142Y-110801174D01*
G37*
D28*
X162937500Y-111500000D03*
D10*
G36*
X161330142Y-110801174D02*
X161353803Y-110804684D01*
X161377007Y-110810496D01*
X161399529Y-110818554D01*
X161421153Y-110828782D01*
X161441670Y-110841079D01*
X161460883Y-110855329D01*
X161478607Y-110871393D01*
X161494671Y-110889117D01*
X161508921Y-110908330D01*
X161521218Y-110928847D01*
X161531446Y-110950471D01*
X161539504Y-110972993D01*
X161545316Y-110996197D01*
X161548826Y-111019858D01*
X161550000Y-111043750D01*
X161550000Y-111956250D01*
X161548826Y-111980142D01*
X161545316Y-112003803D01*
X161539504Y-112027007D01*
X161531446Y-112049529D01*
X161521218Y-112071153D01*
X161508921Y-112091670D01*
X161494671Y-112110883D01*
X161478607Y-112128607D01*
X161460883Y-112144671D01*
X161441670Y-112158921D01*
X161421153Y-112171218D01*
X161399529Y-112181446D01*
X161377007Y-112189504D01*
X161353803Y-112195316D01*
X161330142Y-112198826D01*
X161306250Y-112200000D01*
X160818750Y-112200000D01*
X160794858Y-112198826D01*
X160771197Y-112195316D01*
X160747993Y-112189504D01*
X160725471Y-112181446D01*
X160703847Y-112171218D01*
X160683330Y-112158921D01*
X160664117Y-112144671D01*
X160646393Y-112128607D01*
X160630329Y-112110883D01*
X160616079Y-112091670D01*
X160603782Y-112071153D01*
X160593554Y-112049529D01*
X160585496Y-112027007D01*
X160579684Y-112003803D01*
X160576174Y-111980142D01*
X160575000Y-111956250D01*
X160575000Y-111043750D01*
X160576174Y-111019858D01*
X160579684Y-110996197D01*
X160585496Y-110972993D01*
X160593554Y-110950471D01*
X160603782Y-110928847D01*
X160616079Y-110908330D01*
X160630329Y-110889117D01*
X160646393Y-110871393D01*
X160664117Y-110855329D01*
X160683330Y-110841079D01*
X160703847Y-110828782D01*
X160725471Y-110818554D01*
X160747993Y-110810496D01*
X160771197Y-110804684D01*
X160794858Y-110801174D01*
X160818750Y-110800000D01*
X161306250Y-110800000D01*
X161330142Y-110801174D01*
X161330142Y-110801174D01*
G37*
D28*
X161062500Y-111500000D03*
G04 #@! TD*
D10*
G04 #@! TO.C,R11*
G36*
X130676958Y-103680710D02*
X130691276Y-103682834D01*
X130705317Y-103686351D01*
X130718946Y-103691228D01*
X130732031Y-103697417D01*
X130744447Y-103704858D01*
X130756073Y-103713481D01*
X130766798Y-103723202D01*
X130776519Y-103733927D01*
X130785142Y-103745553D01*
X130792583Y-103757969D01*
X130798772Y-103771054D01*
X130803649Y-103784683D01*
X130807166Y-103798724D01*
X130809290Y-103813042D01*
X130810000Y-103827500D01*
X130810000Y-104172500D01*
X130809290Y-104186958D01*
X130807166Y-104201276D01*
X130803649Y-104215317D01*
X130798772Y-104228946D01*
X130792583Y-104242031D01*
X130785142Y-104254447D01*
X130776519Y-104266073D01*
X130766798Y-104276798D01*
X130756073Y-104286519D01*
X130744447Y-104295142D01*
X130732031Y-104302583D01*
X130718946Y-104308772D01*
X130705317Y-104313649D01*
X130691276Y-104317166D01*
X130676958Y-104319290D01*
X130662500Y-104320000D01*
X130367500Y-104320000D01*
X130353042Y-104319290D01*
X130338724Y-104317166D01*
X130324683Y-104313649D01*
X130311054Y-104308772D01*
X130297969Y-104302583D01*
X130285553Y-104295142D01*
X130273927Y-104286519D01*
X130263202Y-104276798D01*
X130253481Y-104266073D01*
X130244858Y-104254447D01*
X130237417Y-104242031D01*
X130231228Y-104228946D01*
X130226351Y-104215317D01*
X130222834Y-104201276D01*
X130220710Y-104186958D01*
X130220000Y-104172500D01*
X130220000Y-103827500D01*
X130220710Y-103813042D01*
X130222834Y-103798724D01*
X130226351Y-103784683D01*
X130231228Y-103771054D01*
X130237417Y-103757969D01*
X130244858Y-103745553D01*
X130253481Y-103733927D01*
X130263202Y-103723202D01*
X130273927Y-103713481D01*
X130285553Y-103704858D01*
X130297969Y-103697417D01*
X130311054Y-103691228D01*
X130324683Y-103686351D01*
X130338724Y-103682834D01*
X130353042Y-103680710D01*
X130367500Y-103680000D01*
X130662500Y-103680000D01*
X130676958Y-103680710D01*
X130676958Y-103680710D01*
G37*
D12*
X130515000Y-104000000D03*
D10*
G36*
X131646958Y-103680710D02*
X131661276Y-103682834D01*
X131675317Y-103686351D01*
X131688946Y-103691228D01*
X131702031Y-103697417D01*
X131714447Y-103704858D01*
X131726073Y-103713481D01*
X131736798Y-103723202D01*
X131746519Y-103733927D01*
X131755142Y-103745553D01*
X131762583Y-103757969D01*
X131768772Y-103771054D01*
X131773649Y-103784683D01*
X131777166Y-103798724D01*
X131779290Y-103813042D01*
X131780000Y-103827500D01*
X131780000Y-104172500D01*
X131779290Y-104186958D01*
X131777166Y-104201276D01*
X131773649Y-104215317D01*
X131768772Y-104228946D01*
X131762583Y-104242031D01*
X131755142Y-104254447D01*
X131746519Y-104266073D01*
X131736798Y-104276798D01*
X131726073Y-104286519D01*
X131714447Y-104295142D01*
X131702031Y-104302583D01*
X131688946Y-104308772D01*
X131675317Y-104313649D01*
X131661276Y-104317166D01*
X131646958Y-104319290D01*
X131632500Y-104320000D01*
X131337500Y-104320000D01*
X131323042Y-104319290D01*
X131308724Y-104317166D01*
X131294683Y-104313649D01*
X131281054Y-104308772D01*
X131267969Y-104302583D01*
X131255553Y-104295142D01*
X131243927Y-104286519D01*
X131233202Y-104276798D01*
X131223481Y-104266073D01*
X131214858Y-104254447D01*
X131207417Y-104242031D01*
X131201228Y-104228946D01*
X131196351Y-104215317D01*
X131192834Y-104201276D01*
X131190710Y-104186958D01*
X131190000Y-104172500D01*
X131190000Y-103827500D01*
X131190710Y-103813042D01*
X131192834Y-103798724D01*
X131196351Y-103784683D01*
X131201228Y-103771054D01*
X131207417Y-103757969D01*
X131214858Y-103745553D01*
X131223481Y-103733927D01*
X131233202Y-103723202D01*
X131243927Y-103713481D01*
X131255553Y-103704858D01*
X131267969Y-103697417D01*
X131281054Y-103691228D01*
X131294683Y-103686351D01*
X131308724Y-103682834D01*
X131323042Y-103680710D01*
X131337500Y-103680000D01*
X131632500Y-103680000D01*
X131646958Y-103680710D01*
X131646958Y-103680710D01*
G37*
D12*
X131485000Y-104000000D03*
G04 #@! TD*
D10*
G04 #@! TO.C,R12*
G36*
X131646958Y-107180710D02*
X131661276Y-107182834D01*
X131675317Y-107186351D01*
X131688946Y-107191228D01*
X131702031Y-107197417D01*
X131714447Y-107204858D01*
X131726073Y-107213481D01*
X131736798Y-107223202D01*
X131746519Y-107233927D01*
X131755142Y-107245553D01*
X131762583Y-107257969D01*
X131768772Y-107271054D01*
X131773649Y-107284683D01*
X131777166Y-107298724D01*
X131779290Y-107313042D01*
X131780000Y-107327500D01*
X131780000Y-107672500D01*
X131779290Y-107686958D01*
X131777166Y-107701276D01*
X131773649Y-107715317D01*
X131768772Y-107728946D01*
X131762583Y-107742031D01*
X131755142Y-107754447D01*
X131746519Y-107766073D01*
X131736798Y-107776798D01*
X131726073Y-107786519D01*
X131714447Y-107795142D01*
X131702031Y-107802583D01*
X131688946Y-107808772D01*
X131675317Y-107813649D01*
X131661276Y-107817166D01*
X131646958Y-107819290D01*
X131632500Y-107820000D01*
X131337500Y-107820000D01*
X131323042Y-107819290D01*
X131308724Y-107817166D01*
X131294683Y-107813649D01*
X131281054Y-107808772D01*
X131267969Y-107802583D01*
X131255553Y-107795142D01*
X131243927Y-107786519D01*
X131233202Y-107776798D01*
X131223481Y-107766073D01*
X131214858Y-107754447D01*
X131207417Y-107742031D01*
X131201228Y-107728946D01*
X131196351Y-107715317D01*
X131192834Y-107701276D01*
X131190710Y-107686958D01*
X131190000Y-107672500D01*
X131190000Y-107327500D01*
X131190710Y-107313042D01*
X131192834Y-107298724D01*
X131196351Y-107284683D01*
X131201228Y-107271054D01*
X131207417Y-107257969D01*
X131214858Y-107245553D01*
X131223481Y-107233927D01*
X131233202Y-107223202D01*
X131243927Y-107213481D01*
X131255553Y-107204858D01*
X131267969Y-107197417D01*
X131281054Y-107191228D01*
X131294683Y-107186351D01*
X131308724Y-107182834D01*
X131323042Y-107180710D01*
X131337500Y-107180000D01*
X131632500Y-107180000D01*
X131646958Y-107180710D01*
X131646958Y-107180710D01*
G37*
D12*
X131485000Y-107500000D03*
D10*
G36*
X130676958Y-107180710D02*
X130691276Y-107182834D01*
X130705317Y-107186351D01*
X130718946Y-107191228D01*
X130732031Y-107197417D01*
X130744447Y-107204858D01*
X130756073Y-107213481D01*
X130766798Y-107223202D01*
X130776519Y-107233927D01*
X130785142Y-107245553D01*
X130792583Y-107257969D01*
X130798772Y-107271054D01*
X130803649Y-107284683D01*
X130807166Y-107298724D01*
X130809290Y-107313042D01*
X130810000Y-107327500D01*
X130810000Y-107672500D01*
X130809290Y-107686958D01*
X130807166Y-107701276D01*
X130803649Y-107715317D01*
X130798772Y-107728946D01*
X130792583Y-107742031D01*
X130785142Y-107754447D01*
X130776519Y-107766073D01*
X130766798Y-107776798D01*
X130756073Y-107786519D01*
X130744447Y-107795142D01*
X130732031Y-107802583D01*
X130718946Y-107808772D01*
X130705317Y-107813649D01*
X130691276Y-107817166D01*
X130676958Y-107819290D01*
X130662500Y-107820000D01*
X130367500Y-107820000D01*
X130353042Y-107819290D01*
X130338724Y-107817166D01*
X130324683Y-107813649D01*
X130311054Y-107808772D01*
X130297969Y-107802583D01*
X130285553Y-107795142D01*
X130273927Y-107786519D01*
X130263202Y-107776798D01*
X130253481Y-107766073D01*
X130244858Y-107754447D01*
X130237417Y-107742031D01*
X130231228Y-107728946D01*
X130226351Y-107715317D01*
X130222834Y-107701276D01*
X130220710Y-107686958D01*
X130220000Y-107672500D01*
X130220000Y-107327500D01*
X130220710Y-107313042D01*
X130222834Y-107298724D01*
X130226351Y-107284683D01*
X130231228Y-107271054D01*
X130237417Y-107257969D01*
X130244858Y-107245553D01*
X130253481Y-107233927D01*
X130263202Y-107223202D01*
X130273927Y-107213481D01*
X130285553Y-107204858D01*
X130297969Y-107197417D01*
X130311054Y-107191228D01*
X130324683Y-107186351D01*
X130338724Y-107182834D01*
X130353042Y-107180710D01*
X130367500Y-107180000D01*
X130662500Y-107180000D01*
X130676958Y-107180710D01*
X130676958Y-107180710D01*
G37*
D12*
X130515000Y-107500000D03*
G04 #@! TD*
D10*
G04 #@! TO.C,R13*
G36*
X162686958Y-98470710D02*
X162701276Y-98472834D01*
X162715317Y-98476351D01*
X162728946Y-98481228D01*
X162742031Y-98487417D01*
X162754447Y-98494858D01*
X162766073Y-98503481D01*
X162776798Y-98513202D01*
X162786519Y-98523927D01*
X162795142Y-98535553D01*
X162802583Y-98547969D01*
X162808772Y-98561054D01*
X162813649Y-98574683D01*
X162817166Y-98588724D01*
X162819290Y-98603042D01*
X162820000Y-98617500D01*
X162820000Y-98912500D01*
X162819290Y-98926958D01*
X162817166Y-98941276D01*
X162813649Y-98955317D01*
X162808772Y-98968946D01*
X162802583Y-98982031D01*
X162795142Y-98994447D01*
X162786519Y-99006073D01*
X162776798Y-99016798D01*
X162766073Y-99026519D01*
X162754447Y-99035142D01*
X162742031Y-99042583D01*
X162728946Y-99048772D01*
X162715317Y-99053649D01*
X162701276Y-99057166D01*
X162686958Y-99059290D01*
X162672500Y-99060000D01*
X162327500Y-99060000D01*
X162313042Y-99059290D01*
X162298724Y-99057166D01*
X162284683Y-99053649D01*
X162271054Y-99048772D01*
X162257969Y-99042583D01*
X162245553Y-99035142D01*
X162233927Y-99026519D01*
X162223202Y-99016798D01*
X162213481Y-99006073D01*
X162204858Y-98994447D01*
X162197417Y-98982031D01*
X162191228Y-98968946D01*
X162186351Y-98955317D01*
X162182834Y-98941276D01*
X162180710Y-98926958D01*
X162180000Y-98912500D01*
X162180000Y-98617500D01*
X162180710Y-98603042D01*
X162182834Y-98588724D01*
X162186351Y-98574683D01*
X162191228Y-98561054D01*
X162197417Y-98547969D01*
X162204858Y-98535553D01*
X162213481Y-98523927D01*
X162223202Y-98513202D01*
X162233927Y-98503481D01*
X162245553Y-98494858D01*
X162257969Y-98487417D01*
X162271054Y-98481228D01*
X162284683Y-98476351D01*
X162298724Y-98472834D01*
X162313042Y-98470710D01*
X162327500Y-98470000D01*
X162672500Y-98470000D01*
X162686958Y-98470710D01*
X162686958Y-98470710D01*
G37*
D12*
X162500000Y-98765000D03*
D10*
G36*
X162686958Y-99440710D02*
X162701276Y-99442834D01*
X162715317Y-99446351D01*
X162728946Y-99451228D01*
X162742031Y-99457417D01*
X162754447Y-99464858D01*
X162766073Y-99473481D01*
X162776798Y-99483202D01*
X162786519Y-99493927D01*
X162795142Y-99505553D01*
X162802583Y-99517969D01*
X162808772Y-99531054D01*
X162813649Y-99544683D01*
X162817166Y-99558724D01*
X162819290Y-99573042D01*
X162820000Y-99587500D01*
X162820000Y-99882500D01*
X162819290Y-99896958D01*
X162817166Y-99911276D01*
X162813649Y-99925317D01*
X162808772Y-99938946D01*
X162802583Y-99952031D01*
X162795142Y-99964447D01*
X162786519Y-99976073D01*
X162776798Y-99986798D01*
X162766073Y-99996519D01*
X162754447Y-100005142D01*
X162742031Y-100012583D01*
X162728946Y-100018772D01*
X162715317Y-100023649D01*
X162701276Y-100027166D01*
X162686958Y-100029290D01*
X162672500Y-100030000D01*
X162327500Y-100030000D01*
X162313042Y-100029290D01*
X162298724Y-100027166D01*
X162284683Y-100023649D01*
X162271054Y-100018772D01*
X162257969Y-100012583D01*
X162245553Y-100005142D01*
X162233927Y-99996519D01*
X162223202Y-99986798D01*
X162213481Y-99976073D01*
X162204858Y-99964447D01*
X162197417Y-99952031D01*
X162191228Y-99938946D01*
X162186351Y-99925317D01*
X162182834Y-99911276D01*
X162180710Y-99896958D01*
X162180000Y-99882500D01*
X162180000Y-99587500D01*
X162180710Y-99573042D01*
X162182834Y-99558724D01*
X162186351Y-99544683D01*
X162191228Y-99531054D01*
X162197417Y-99517969D01*
X162204858Y-99505553D01*
X162213481Y-99493927D01*
X162223202Y-99483202D01*
X162233927Y-99473481D01*
X162245553Y-99464858D01*
X162257969Y-99457417D01*
X162271054Y-99451228D01*
X162284683Y-99446351D01*
X162298724Y-99442834D01*
X162313042Y-99440710D01*
X162327500Y-99440000D01*
X162672500Y-99440000D01*
X162686958Y-99440710D01*
X162686958Y-99440710D01*
G37*
D12*
X162500000Y-99735000D03*
G04 #@! TD*
D10*
G04 #@! TO.C,R14*
G36*
X160936958Y-99440710D02*
X160951276Y-99442834D01*
X160965317Y-99446351D01*
X160978946Y-99451228D01*
X160992031Y-99457417D01*
X161004447Y-99464858D01*
X161016073Y-99473481D01*
X161026798Y-99483202D01*
X161036519Y-99493927D01*
X161045142Y-99505553D01*
X161052583Y-99517969D01*
X161058772Y-99531054D01*
X161063649Y-99544683D01*
X161067166Y-99558724D01*
X161069290Y-99573042D01*
X161070000Y-99587500D01*
X161070000Y-99882500D01*
X161069290Y-99896958D01*
X161067166Y-99911276D01*
X161063649Y-99925317D01*
X161058772Y-99938946D01*
X161052583Y-99952031D01*
X161045142Y-99964447D01*
X161036519Y-99976073D01*
X161026798Y-99986798D01*
X161016073Y-99996519D01*
X161004447Y-100005142D01*
X160992031Y-100012583D01*
X160978946Y-100018772D01*
X160965317Y-100023649D01*
X160951276Y-100027166D01*
X160936958Y-100029290D01*
X160922500Y-100030000D01*
X160577500Y-100030000D01*
X160563042Y-100029290D01*
X160548724Y-100027166D01*
X160534683Y-100023649D01*
X160521054Y-100018772D01*
X160507969Y-100012583D01*
X160495553Y-100005142D01*
X160483927Y-99996519D01*
X160473202Y-99986798D01*
X160463481Y-99976073D01*
X160454858Y-99964447D01*
X160447417Y-99952031D01*
X160441228Y-99938946D01*
X160436351Y-99925317D01*
X160432834Y-99911276D01*
X160430710Y-99896958D01*
X160430000Y-99882500D01*
X160430000Y-99587500D01*
X160430710Y-99573042D01*
X160432834Y-99558724D01*
X160436351Y-99544683D01*
X160441228Y-99531054D01*
X160447417Y-99517969D01*
X160454858Y-99505553D01*
X160463481Y-99493927D01*
X160473202Y-99483202D01*
X160483927Y-99473481D01*
X160495553Y-99464858D01*
X160507969Y-99457417D01*
X160521054Y-99451228D01*
X160534683Y-99446351D01*
X160548724Y-99442834D01*
X160563042Y-99440710D01*
X160577500Y-99440000D01*
X160922500Y-99440000D01*
X160936958Y-99440710D01*
X160936958Y-99440710D01*
G37*
D12*
X160750000Y-99735000D03*
D10*
G36*
X160936958Y-98470710D02*
X160951276Y-98472834D01*
X160965317Y-98476351D01*
X160978946Y-98481228D01*
X160992031Y-98487417D01*
X161004447Y-98494858D01*
X161016073Y-98503481D01*
X161026798Y-98513202D01*
X161036519Y-98523927D01*
X161045142Y-98535553D01*
X161052583Y-98547969D01*
X161058772Y-98561054D01*
X161063649Y-98574683D01*
X161067166Y-98588724D01*
X161069290Y-98603042D01*
X161070000Y-98617500D01*
X161070000Y-98912500D01*
X161069290Y-98926958D01*
X161067166Y-98941276D01*
X161063649Y-98955317D01*
X161058772Y-98968946D01*
X161052583Y-98982031D01*
X161045142Y-98994447D01*
X161036519Y-99006073D01*
X161026798Y-99016798D01*
X161016073Y-99026519D01*
X161004447Y-99035142D01*
X160992031Y-99042583D01*
X160978946Y-99048772D01*
X160965317Y-99053649D01*
X160951276Y-99057166D01*
X160936958Y-99059290D01*
X160922500Y-99060000D01*
X160577500Y-99060000D01*
X160563042Y-99059290D01*
X160548724Y-99057166D01*
X160534683Y-99053649D01*
X160521054Y-99048772D01*
X160507969Y-99042583D01*
X160495553Y-99035142D01*
X160483927Y-99026519D01*
X160473202Y-99016798D01*
X160463481Y-99006073D01*
X160454858Y-98994447D01*
X160447417Y-98982031D01*
X160441228Y-98968946D01*
X160436351Y-98955317D01*
X160432834Y-98941276D01*
X160430710Y-98926958D01*
X160430000Y-98912500D01*
X160430000Y-98617500D01*
X160430710Y-98603042D01*
X160432834Y-98588724D01*
X160436351Y-98574683D01*
X160441228Y-98561054D01*
X160447417Y-98547969D01*
X160454858Y-98535553D01*
X160463481Y-98523927D01*
X160473202Y-98513202D01*
X160483927Y-98503481D01*
X160495553Y-98494858D01*
X160507969Y-98487417D01*
X160521054Y-98481228D01*
X160534683Y-98476351D01*
X160548724Y-98472834D01*
X160563042Y-98470710D01*
X160577500Y-98470000D01*
X160922500Y-98470000D01*
X160936958Y-98470710D01*
X160936958Y-98470710D01*
G37*
D12*
X160750000Y-98765000D03*
G04 #@! TD*
D10*
G04 #@! TO.C,R15*
G36*
X159186958Y-98470710D02*
X159201276Y-98472834D01*
X159215317Y-98476351D01*
X159228946Y-98481228D01*
X159242031Y-98487417D01*
X159254447Y-98494858D01*
X159266073Y-98503481D01*
X159276798Y-98513202D01*
X159286519Y-98523927D01*
X159295142Y-98535553D01*
X159302583Y-98547969D01*
X159308772Y-98561054D01*
X159313649Y-98574683D01*
X159317166Y-98588724D01*
X159319290Y-98603042D01*
X159320000Y-98617500D01*
X159320000Y-98912500D01*
X159319290Y-98926958D01*
X159317166Y-98941276D01*
X159313649Y-98955317D01*
X159308772Y-98968946D01*
X159302583Y-98982031D01*
X159295142Y-98994447D01*
X159286519Y-99006073D01*
X159276798Y-99016798D01*
X159266073Y-99026519D01*
X159254447Y-99035142D01*
X159242031Y-99042583D01*
X159228946Y-99048772D01*
X159215317Y-99053649D01*
X159201276Y-99057166D01*
X159186958Y-99059290D01*
X159172500Y-99060000D01*
X158827500Y-99060000D01*
X158813042Y-99059290D01*
X158798724Y-99057166D01*
X158784683Y-99053649D01*
X158771054Y-99048772D01*
X158757969Y-99042583D01*
X158745553Y-99035142D01*
X158733927Y-99026519D01*
X158723202Y-99016798D01*
X158713481Y-99006073D01*
X158704858Y-98994447D01*
X158697417Y-98982031D01*
X158691228Y-98968946D01*
X158686351Y-98955317D01*
X158682834Y-98941276D01*
X158680710Y-98926958D01*
X158680000Y-98912500D01*
X158680000Y-98617500D01*
X158680710Y-98603042D01*
X158682834Y-98588724D01*
X158686351Y-98574683D01*
X158691228Y-98561054D01*
X158697417Y-98547969D01*
X158704858Y-98535553D01*
X158713481Y-98523927D01*
X158723202Y-98513202D01*
X158733927Y-98503481D01*
X158745553Y-98494858D01*
X158757969Y-98487417D01*
X158771054Y-98481228D01*
X158784683Y-98476351D01*
X158798724Y-98472834D01*
X158813042Y-98470710D01*
X158827500Y-98470000D01*
X159172500Y-98470000D01*
X159186958Y-98470710D01*
X159186958Y-98470710D01*
G37*
D12*
X159000000Y-98765000D03*
D10*
G36*
X159186958Y-99440710D02*
X159201276Y-99442834D01*
X159215317Y-99446351D01*
X159228946Y-99451228D01*
X159242031Y-99457417D01*
X159254447Y-99464858D01*
X159266073Y-99473481D01*
X159276798Y-99483202D01*
X159286519Y-99493927D01*
X159295142Y-99505553D01*
X159302583Y-99517969D01*
X159308772Y-99531054D01*
X159313649Y-99544683D01*
X159317166Y-99558724D01*
X159319290Y-99573042D01*
X159320000Y-99587500D01*
X159320000Y-99882500D01*
X159319290Y-99896958D01*
X159317166Y-99911276D01*
X159313649Y-99925317D01*
X159308772Y-99938946D01*
X159302583Y-99952031D01*
X159295142Y-99964447D01*
X159286519Y-99976073D01*
X159276798Y-99986798D01*
X159266073Y-99996519D01*
X159254447Y-100005142D01*
X159242031Y-100012583D01*
X159228946Y-100018772D01*
X159215317Y-100023649D01*
X159201276Y-100027166D01*
X159186958Y-100029290D01*
X159172500Y-100030000D01*
X158827500Y-100030000D01*
X158813042Y-100029290D01*
X158798724Y-100027166D01*
X158784683Y-100023649D01*
X158771054Y-100018772D01*
X158757969Y-100012583D01*
X158745553Y-100005142D01*
X158733927Y-99996519D01*
X158723202Y-99986798D01*
X158713481Y-99976073D01*
X158704858Y-99964447D01*
X158697417Y-99952031D01*
X158691228Y-99938946D01*
X158686351Y-99925317D01*
X158682834Y-99911276D01*
X158680710Y-99896958D01*
X158680000Y-99882500D01*
X158680000Y-99587500D01*
X158680710Y-99573042D01*
X158682834Y-99558724D01*
X158686351Y-99544683D01*
X158691228Y-99531054D01*
X158697417Y-99517969D01*
X158704858Y-99505553D01*
X158713481Y-99493927D01*
X158723202Y-99483202D01*
X158733927Y-99473481D01*
X158745553Y-99464858D01*
X158757969Y-99457417D01*
X158771054Y-99451228D01*
X158784683Y-99446351D01*
X158798724Y-99442834D01*
X158813042Y-99440710D01*
X158827500Y-99440000D01*
X159172500Y-99440000D01*
X159186958Y-99440710D01*
X159186958Y-99440710D01*
G37*
D12*
X159000000Y-99735000D03*
G04 #@! TD*
D10*
G04 #@! TO.C,R16*
G36*
X157926958Y-95430710D02*
X157941276Y-95432834D01*
X157955317Y-95436351D01*
X157968946Y-95441228D01*
X157982031Y-95447417D01*
X157994447Y-95454858D01*
X158006073Y-95463481D01*
X158016798Y-95473202D01*
X158026519Y-95483927D01*
X158035142Y-95495553D01*
X158042583Y-95507969D01*
X158048772Y-95521054D01*
X158053649Y-95534683D01*
X158057166Y-95548724D01*
X158059290Y-95563042D01*
X158060000Y-95577500D01*
X158060000Y-95922500D01*
X158059290Y-95936958D01*
X158057166Y-95951276D01*
X158053649Y-95965317D01*
X158048772Y-95978946D01*
X158042583Y-95992031D01*
X158035142Y-96004447D01*
X158026519Y-96016073D01*
X158016798Y-96026798D01*
X158006073Y-96036519D01*
X157994447Y-96045142D01*
X157982031Y-96052583D01*
X157968946Y-96058772D01*
X157955317Y-96063649D01*
X157941276Y-96067166D01*
X157926958Y-96069290D01*
X157912500Y-96070000D01*
X157617500Y-96070000D01*
X157603042Y-96069290D01*
X157588724Y-96067166D01*
X157574683Y-96063649D01*
X157561054Y-96058772D01*
X157547969Y-96052583D01*
X157535553Y-96045142D01*
X157523927Y-96036519D01*
X157513202Y-96026798D01*
X157503481Y-96016073D01*
X157494858Y-96004447D01*
X157487417Y-95992031D01*
X157481228Y-95978946D01*
X157476351Y-95965317D01*
X157472834Y-95951276D01*
X157470710Y-95936958D01*
X157470000Y-95922500D01*
X157470000Y-95577500D01*
X157470710Y-95563042D01*
X157472834Y-95548724D01*
X157476351Y-95534683D01*
X157481228Y-95521054D01*
X157487417Y-95507969D01*
X157494858Y-95495553D01*
X157503481Y-95483927D01*
X157513202Y-95473202D01*
X157523927Y-95463481D01*
X157535553Y-95454858D01*
X157547969Y-95447417D01*
X157561054Y-95441228D01*
X157574683Y-95436351D01*
X157588724Y-95432834D01*
X157603042Y-95430710D01*
X157617500Y-95430000D01*
X157912500Y-95430000D01*
X157926958Y-95430710D01*
X157926958Y-95430710D01*
G37*
D12*
X157765000Y-95750000D03*
D10*
G36*
X158896958Y-95430710D02*
X158911276Y-95432834D01*
X158925317Y-95436351D01*
X158938946Y-95441228D01*
X158952031Y-95447417D01*
X158964447Y-95454858D01*
X158976073Y-95463481D01*
X158986798Y-95473202D01*
X158996519Y-95483927D01*
X159005142Y-95495553D01*
X159012583Y-95507969D01*
X159018772Y-95521054D01*
X159023649Y-95534683D01*
X159027166Y-95548724D01*
X159029290Y-95563042D01*
X159030000Y-95577500D01*
X159030000Y-95922500D01*
X159029290Y-95936958D01*
X159027166Y-95951276D01*
X159023649Y-95965317D01*
X159018772Y-95978946D01*
X159012583Y-95992031D01*
X159005142Y-96004447D01*
X158996519Y-96016073D01*
X158986798Y-96026798D01*
X158976073Y-96036519D01*
X158964447Y-96045142D01*
X158952031Y-96052583D01*
X158938946Y-96058772D01*
X158925317Y-96063649D01*
X158911276Y-96067166D01*
X158896958Y-96069290D01*
X158882500Y-96070000D01*
X158587500Y-96070000D01*
X158573042Y-96069290D01*
X158558724Y-96067166D01*
X158544683Y-96063649D01*
X158531054Y-96058772D01*
X158517969Y-96052583D01*
X158505553Y-96045142D01*
X158493927Y-96036519D01*
X158483202Y-96026798D01*
X158473481Y-96016073D01*
X158464858Y-96004447D01*
X158457417Y-95992031D01*
X158451228Y-95978946D01*
X158446351Y-95965317D01*
X158442834Y-95951276D01*
X158440710Y-95936958D01*
X158440000Y-95922500D01*
X158440000Y-95577500D01*
X158440710Y-95563042D01*
X158442834Y-95548724D01*
X158446351Y-95534683D01*
X158451228Y-95521054D01*
X158457417Y-95507969D01*
X158464858Y-95495553D01*
X158473481Y-95483927D01*
X158483202Y-95473202D01*
X158493927Y-95463481D01*
X158505553Y-95454858D01*
X158517969Y-95447417D01*
X158531054Y-95441228D01*
X158544683Y-95436351D01*
X158558724Y-95432834D01*
X158573042Y-95430710D01*
X158587500Y-95430000D01*
X158882500Y-95430000D01*
X158896958Y-95430710D01*
X158896958Y-95430710D01*
G37*
D12*
X158735000Y-95750000D03*
G04 #@! TD*
D10*
G04 #@! TO.C,R17*
G36*
X157926958Y-94180710D02*
X157941276Y-94182834D01*
X157955317Y-94186351D01*
X157968946Y-94191228D01*
X157982031Y-94197417D01*
X157994447Y-94204858D01*
X158006073Y-94213481D01*
X158016798Y-94223202D01*
X158026519Y-94233927D01*
X158035142Y-94245553D01*
X158042583Y-94257969D01*
X158048772Y-94271054D01*
X158053649Y-94284683D01*
X158057166Y-94298724D01*
X158059290Y-94313042D01*
X158060000Y-94327500D01*
X158060000Y-94672500D01*
X158059290Y-94686958D01*
X158057166Y-94701276D01*
X158053649Y-94715317D01*
X158048772Y-94728946D01*
X158042583Y-94742031D01*
X158035142Y-94754447D01*
X158026519Y-94766073D01*
X158016798Y-94776798D01*
X158006073Y-94786519D01*
X157994447Y-94795142D01*
X157982031Y-94802583D01*
X157968946Y-94808772D01*
X157955317Y-94813649D01*
X157941276Y-94817166D01*
X157926958Y-94819290D01*
X157912500Y-94820000D01*
X157617500Y-94820000D01*
X157603042Y-94819290D01*
X157588724Y-94817166D01*
X157574683Y-94813649D01*
X157561054Y-94808772D01*
X157547969Y-94802583D01*
X157535553Y-94795142D01*
X157523927Y-94786519D01*
X157513202Y-94776798D01*
X157503481Y-94766073D01*
X157494858Y-94754447D01*
X157487417Y-94742031D01*
X157481228Y-94728946D01*
X157476351Y-94715317D01*
X157472834Y-94701276D01*
X157470710Y-94686958D01*
X157470000Y-94672500D01*
X157470000Y-94327500D01*
X157470710Y-94313042D01*
X157472834Y-94298724D01*
X157476351Y-94284683D01*
X157481228Y-94271054D01*
X157487417Y-94257969D01*
X157494858Y-94245553D01*
X157503481Y-94233927D01*
X157513202Y-94223202D01*
X157523927Y-94213481D01*
X157535553Y-94204858D01*
X157547969Y-94197417D01*
X157561054Y-94191228D01*
X157574683Y-94186351D01*
X157588724Y-94182834D01*
X157603042Y-94180710D01*
X157617500Y-94180000D01*
X157912500Y-94180000D01*
X157926958Y-94180710D01*
X157926958Y-94180710D01*
G37*
D12*
X157765000Y-94500000D03*
D10*
G36*
X158896958Y-94180710D02*
X158911276Y-94182834D01*
X158925317Y-94186351D01*
X158938946Y-94191228D01*
X158952031Y-94197417D01*
X158964447Y-94204858D01*
X158976073Y-94213481D01*
X158986798Y-94223202D01*
X158996519Y-94233927D01*
X159005142Y-94245553D01*
X159012583Y-94257969D01*
X159018772Y-94271054D01*
X159023649Y-94284683D01*
X159027166Y-94298724D01*
X159029290Y-94313042D01*
X159030000Y-94327500D01*
X159030000Y-94672500D01*
X159029290Y-94686958D01*
X159027166Y-94701276D01*
X159023649Y-94715317D01*
X159018772Y-94728946D01*
X159012583Y-94742031D01*
X159005142Y-94754447D01*
X158996519Y-94766073D01*
X158986798Y-94776798D01*
X158976073Y-94786519D01*
X158964447Y-94795142D01*
X158952031Y-94802583D01*
X158938946Y-94808772D01*
X158925317Y-94813649D01*
X158911276Y-94817166D01*
X158896958Y-94819290D01*
X158882500Y-94820000D01*
X158587500Y-94820000D01*
X158573042Y-94819290D01*
X158558724Y-94817166D01*
X158544683Y-94813649D01*
X158531054Y-94808772D01*
X158517969Y-94802583D01*
X158505553Y-94795142D01*
X158493927Y-94786519D01*
X158483202Y-94776798D01*
X158473481Y-94766073D01*
X158464858Y-94754447D01*
X158457417Y-94742031D01*
X158451228Y-94728946D01*
X158446351Y-94715317D01*
X158442834Y-94701276D01*
X158440710Y-94686958D01*
X158440000Y-94672500D01*
X158440000Y-94327500D01*
X158440710Y-94313042D01*
X158442834Y-94298724D01*
X158446351Y-94284683D01*
X158451228Y-94271054D01*
X158457417Y-94257969D01*
X158464858Y-94245553D01*
X158473481Y-94233927D01*
X158483202Y-94223202D01*
X158493927Y-94213481D01*
X158505553Y-94204858D01*
X158517969Y-94197417D01*
X158531054Y-94191228D01*
X158544683Y-94186351D01*
X158558724Y-94182834D01*
X158573042Y-94180710D01*
X158587500Y-94180000D01*
X158882500Y-94180000D01*
X158896958Y-94180710D01*
X158896958Y-94180710D01*
G37*
D12*
X158735000Y-94500000D03*
G04 #@! TD*
D10*
G04 #@! TO.C,R18*
G36*
X158896958Y-88680710D02*
X158911276Y-88682834D01*
X158925317Y-88686351D01*
X158938946Y-88691228D01*
X158952031Y-88697417D01*
X158964447Y-88704858D01*
X158976073Y-88713481D01*
X158986798Y-88723202D01*
X158996519Y-88733927D01*
X159005142Y-88745553D01*
X159012583Y-88757969D01*
X159018772Y-88771054D01*
X159023649Y-88784683D01*
X159027166Y-88798724D01*
X159029290Y-88813042D01*
X159030000Y-88827500D01*
X159030000Y-89172500D01*
X159029290Y-89186958D01*
X159027166Y-89201276D01*
X159023649Y-89215317D01*
X159018772Y-89228946D01*
X159012583Y-89242031D01*
X159005142Y-89254447D01*
X158996519Y-89266073D01*
X158986798Y-89276798D01*
X158976073Y-89286519D01*
X158964447Y-89295142D01*
X158952031Y-89302583D01*
X158938946Y-89308772D01*
X158925317Y-89313649D01*
X158911276Y-89317166D01*
X158896958Y-89319290D01*
X158882500Y-89320000D01*
X158587500Y-89320000D01*
X158573042Y-89319290D01*
X158558724Y-89317166D01*
X158544683Y-89313649D01*
X158531054Y-89308772D01*
X158517969Y-89302583D01*
X158505553Y-89295142D01*
X158493927Y-89286519D01*
X158483202Y-89276798D01*
X158473481Y-89266073D01*
X158464858Y-89254447D01*
X158457417Y-89242031D01*
X158451228Y-89228946D01*
X158446351Y-89215317D01*
X158442834Y-89201276D01*
X158440710Y-89186958D01*
X158440000Y-89172500D01*
X158440000Y-88827500D01*
X158440710Y-88813042D01*
X158442834Y-88798724D01*
X158446351Y-88784683D01*
X158451228Y-88771054D01*
X158457417Y-88757969D01*
X158464858Y-88745553D01*
X158473481Y-88733927D01*
X158483202Y-88723202D01*
X158493927Y-88713481D01*
X158505553Y-88704858D01*
X158517969Y-88697417D01*
X158531054Y-88691228D01*
X158544683Y-88686351D01*
X158558724Y-88682834D01*
X158573042Y-88680710D01*
X158587500Y-88680000D01*
X158882500Y-88680000D01*
X158896958Y-88680710D01*
X158896958Y-88680710D01*
G37*
D12*
X158735000Y-89000000D03*
D10*
G36*
X157926958Y-88680710D02*
X157941276Y-88682834D01*
X157955317Y-88686351D01*
X157968946Y-88691228D01*
X157982031Y-88697417D01*
X157994447Y-88704858D01*
X158006073Y-88713481D01*
X158016798Y-88723202D01*
X158026519Y-88733927D01*
X158035142Y-88745553D01*
X158042583Y-88757969D01*
X158048772Y-88771054D01*
X158053649Y-88784683D01*
X158057166Y-88798724D01*
X158059290Y-88813042D01*
X158060000Y-88827500D01*
X158060000Y-89172500D01*
X158059290Y-89186958D01*
X158057166Y-89201276D01*
X158053649Y-89215317D01*
X158048772Y-89228946D01*
X158042583Y-89242031D01*
X158035142Y-89254447D01*
X158026519Y-89266073D01*
X158016798Y-89276798D01*
X158006073Y-89286519D01*
X157994447Y-89295142D01*
X157982031Y-89302583D01*
X157968946Y-89308772D01*
X157955317Y-89313649D01*
X157941276Y-89317166D01*
X157926958Y-89319290D01*
X157912500Y-89320000D01*
X157617500Y-89320000D01*
X157603042Y-89319290D01*
X157588724Y-89317166D01*
X157574683Y-89313649D01*
X157561054Y-89308772D01*
X157547969Y-89302583D01*
X157535553Y-89295142D01*
X157523927Y-89286519D01*
X157513202Y-89276798D01*
X157503481Y-89266073D01*
X157494858Y-89254447D01*
X157487417Y-89242031D01*
X157481228Y-89228946D01*
X157476351Y-89215317D01*
X157472834Y-89201276D01*
X157470710Y-89186958D01*
X157470000Y-89172500D01*
X157470000Y-88827500D01*
X157470710Y-88813042D01*
X157472834Y-88798724D01*
X157476351Y-88784683D01*
X157481228Y-88771054D01*
X157487417Y-88757969D01*
X157494858Y-88745553D01*
X157503481Y-88733927D01*
X157513202Y-88723202D01*
X157523927Y-88713481D01*
X157535553Y-88704858D01*
X157547969Y-88697417D01*
X157561054Y-88691228D01*
X157574683Y-88686351D01*
X157588724Y-88682834D01*
X157603042Y-88680710D01*
X157617500Y-88680000D01*
X157912500Y-88680000D01*
X157926958Y-88680710D01*
X157926958Y-88680710D01*
G37*
D12*
X157765000Y-89000000D03*
G04 #@! TD*
D10*
G04 #@! TO.C,R19*
G36*
X157926958Y-87430710D02*
X157941276Y-87432834D01*
X157955317Y-87436351D01*
X157968946Y-87441228D01*
X157982031Y-87447417D01*
X157994447Y-87454858D01*
X158006073Y-87463481D01*
X158016798Y-87473202D01*
X158026519Y-87483927D01*
X158035142Y-87495553D01*
X158042583Y-87507969D01*
X158048772Y-87521054D01*
X158053649Y-87534683D01*
X158057166Y-87548724D01*
X158059290Y-87563042D01*
X158060000Y-87577500D01*
X158060000Y-87922500D01*
X158059290Y-87936958D01*
X158057166Y-87951276D01*
X158053649Y-87965317D01*
X158048772Y-87978946D01*
X158042583Y-87992031D01*
X158035142Y-88004447D01*
X158026519Y-88016073D01*
X158016798Y-88026798D01*
X158006073Y-88036519D01*
X157994447Y-88045142D01*
X157982031Y-88052583D01*
X157968946Y-88058772D01*
X157955317Y-88063649D01*
X157941276Y-88067166D01*
X157926958Y-88069290D01*
X157912500Y-88070000D01*
X157617500Y-88070000D01*
X157603042Y-88069290D01*
X157588724Y-88067166D01*
X157574683Y-88063649D01*
X157561054Y-88058772D01*
X157547969Y-88052583D01*
X157535553Y-88045142D01*
X157523927Y-88036519D01*
X157513202Y-88026798D01*
X157503481Y-88016073D01*
X157494858Y-88004447D01*
X157487417Y-87992031D01*
X157481228Y-87978946D01*
X157476351Y-87965317D01*
X157472834Y-87951276D01*
X157470710Y-87936958D01*
X157470000Y-87922500D01*
X157470000Y-87577500D01*
X157470710Y-87563042D01*
X157472834Y-87548724D01*
X157476351Y-87534683D01*
X157481228Y-87521054D01*
X157487417Y-87507969D01*
X157494858Y-87495553D01*
X157503481Y-87483927D01*
X157513202Y-87473202D01*
X157523927Y-87463481D01*
X157535553Y-87454858D01*
X157547969Y-87447417D01*
X157561054Y-87441228D01*
X157574683Y-87436351D01*
X157588724Y-87432834D01*
X157603042Y-87430710D01*
X157617500Y-87430000D01*
X157912500Y-87430000D01*
X157926958Y-87430710D01*
X157926958Y-87430710D01*
G37*
D12*
X157765000Y-87750000D03*
D10*
G36*
X158896958Y-87430710D02*
X158911276Y-87432834D01*
X158925317Y-87436351D01*
X158938946Y-87441228D01*
X158952031Y-87447417D01*
X158964447Y-87454858D01*
X158976073Y-87463481D01*
X158986798Y-87473202D01*
X158996519Y-87483927D01*
X159005142Y-87495553D01*
X159012583Y-87507969D01*
X159018772Y-87521054D01*
X159023649Y-87534683D01*
X159027166Y-87548724D01*
X159029290Y-87563042D01*
X159030000Y-87577500D01*
X159030000Y-87922500D01*
X159029290Y-87936958D01*
X159027166Y-87951276D01*
X159023649Y-87965317D01*
X159018772Y-87978946D01*
X159012583Y-87992031D01*
X159005142Y-88004447D01*
X158996519Y-88016073D01*
X158986798Y-88026798D01*
X158976073Y-88036519D01*
X158964447Y-88045142D01*
X158952031Y-88052583D01*
X158938946Y-88058772D01*
X158925317Y-88063649D01*
X158911276Y-88067166D01*
X158896958Y-88069290D01*
X158882500Y-88070000D01*
X158587500Y-88070000D01*
X158573042Y-88069290D01*
X158558724Y-88067166D01*
X158544683Y-88063649D01*
X158531054Y-88058772D01*
X158517969Y-88052583D01*
X158505553Y-88045142D01*
X158493927Y-88036519D01*
X158483202Y-88026798D01*
X158473481Y-88016073D01*
X158464858Y-88004447D01*
X158457417Y-87992031D01*
X158451228Y-87978946D01*
X158446351Y-87965317D01*
X158442834Y-87951276D01*
X158440710Y-87936958D01*
X158440000Y-87922500D01*
X158440000Y-87577500D01*
X158440710Y-87563042D01*
X158442834Y-87548724D01*
X158446351Y-87534683D01*
X158451228Y-87521054D01*
X158457417Y-87507969D01*
X158464858Y-87495553D01*
X158473481Y-87483927D01*
X158483202Y-87473202D01*
X158493927Y-87463481D01*
X158505553Y-87454858D01*
X158517969Y-87447417D01*
X158531054Y-87441228D01*
X158544683Y-87436351D01*
X158558724Y-87432834D01*
X158573042Y-87430710D01*
X158587500Y-87430000D01*
X158882500Y-87430000D01*
X158896958Y-87430710D01*
X158896958Y-87430710D01*
G37*
D12*
X158735000Y-87750000D03*
G04 #@! TD*
D10*
G04 #@! TO.C,R20*
G36*
X158896958Y-86180710D02*
X158911276Y-86182834D01*
X158925317Y-86186351D01*
X158938946Y-86191228D01*
X158952031Y-86197417D01*
X158964447Y-86204858D01*
X158976073Y-86213481D01*
X158986798Y-86223202D01*
X158996519Y-86233927D01*
X159005142Y-86245553D01*
X159012583Y-86257969D01*
X159018772Y-86271054D01*
X159023649Y-86284683D01*
X159027166Y-86298724D01*
X159029290Y-86313042D01*
X159030000Y-86327500D01*
X159030000Y-86672500D01*
X159029290Y-86686958D01*
X159027166Y-86701276D01*
X159023649Y-86715317D01*
X159018772Y-86728946D01*
X159012583Y-86742031D01*
X159005142Y-86754447D01*
X158996519Y-86766073D01*
X158986798Y-86776798D01*
X158976073Y-86786519D01*
X158964447Y-86795142D01*
X158952031Y-86802583D01*
X158938946Y-86808772D01*
X158925317Y-86813649D01*
X158911276Y-86817166D01*
X158896958Y-86819290D01*
X158882500Y-86820000D01*
X158587500Y-86820000D01*
X158573042Y-86819290D01*
X158558724Y-86817166D01*
X158544683Y-86813649D01*
X158531054Y-86808772D01*
X158517969Y-86802583D01*
X158505553Y-86795142D01*
X158493927Y-86786519D01*
X158483202Y-86776798D01*
X158473481Y-86766073D01*
X158464858Y-86754447D01*
X158457417Y-86742031D01*
X158451228Y-86728946D01*
X158446351Y-86715317D01*
X158442834Y-86701276D01*
X158440710Y-86686958D01*
X158440000Y-86672500D01*
X158440000Y-86327500D01*
X158440710Y-86313042D01*
X158442834Y-86298724D01*
X158446351Y-86284683D01*
X158451228Y-86271054D01*
X158457417Y-86257969D01*
X158464858Y-86245553D01*
X158473481Y-86233927D01*
X158483202Y-86223202D01*
X158493927Y-86213481D01*
X158505553Y-86204858D01*
X158517969Y-86197417D01*
X158531054Y-86191228D01*
X158544683Y-86186351D01*
X158558724Y-86182834D01*
X158573042Y-86180710D01*
X158587500Y-86180000D01*
X158882500Y-86180000D01*
X158896958Y-86180710D01*
X158896958Y-86180710D01*
G37*
D12*
X158735000Y-86500000D03*
D10*
G36*
X157926958Y-86180710D02*
X157941276Y-86182834D01*
X157955317Y-86186351D01*
X157968946Y-86191228D01*
X157982031Y-86197417D01*
X157994447Y-86204858D01*
X158006073Y-86213481D01*
X158016798Y-86223202D01*
X158026519Y-86233927D01*
X158035142Y-86245553D01*
X158042583Y-86257969D01*
X158048772Y-86271054D01*
X158053649Y-86284683D01*
X158057166Y-86298724D01*
X158059290Y-86313042D01*
X158060000Y-86327500D01*
X158060000Y-86672500D01*
X158059290Y-86686958D01*
X158057166Y-86701276D01*
X158053649Y-86715317D01*
X158048772Y-86728946D01*
X158042583Y-86742031D01*
X158035142Y-86754447D01*
X158026519Y-86766073D01*
X158016798Y-86776798D01*
X158006073Y-86786519D01*
X157994447Y-86795142D01*
X157982031Y-86802583D01*
X157968946Y-86808772D01*
X157955317Y-86813649D01*
X157941276Y-86817166D01*
X157926958Y-86819290D01*
X157912500Y-86820000D01*
X157617500Y-86820000D01*
X157603042Y-86819290D01*
X157588724Y-86817166D01*
X157574683Y-86813649D01*
X157561054Y-86808772D01*
X157547969Y-86802583D01*
X157535553Y-86795142D01*
X157523927Y-86786519D01*
X157513202Y-86776798D01*
X157503481Y-86766073D01*
X157494858Y-86754447D01*
X157487417Y-86742031D01*
X157481228Y-86728946D01*
X157476351Y-86715317D01*
X157472834Y-86701276D01*
X157470710Y-86686958D01*
X157470000Y-86672500D01*
X157470000Y-86327500D01*
X157470710Y-86313042D01*
X157472834Y-86298724D01*
X157476351Y-86284683D01*
X157481228Y-86271054D01*
X157487417Y-86257969D01*
X157494858Y-86245553D01*
X157503481Y-86233927D01*
X157513202Y-86223202D01*
X157523927Y-86213481D01*
X157535553Y-86204858D01*
X157547969Y-86197417D01*
X157561054Y-86191228D01*
X157574683Y-86186351D01*
X157588724Y-86182834D01*
X157603042Y-86180710D01*
X157617500Y-86180000D01*
X157912500Y-86180000D01*
X157926958Y-86180710D01*
X157926958Y-86180710D01*
G37*
D12*
X157765000Y-86500000D03*
G04 #@! TD*
D10*
G04 #@! TO.C,R21*
G36*
X142176958Y-134930710D02*
X142191276Y-134932834D01*
X142205317Y-134936351D01*
X142218946Y-134941228D01*
X142232031Y-134947417D01*
X142244447Y-134954858D01*
X142256073Y-134963481D01*
X142266798Y-134973202D01*
X142276519Y-134983927D01*
X142285142Y-134995553D01*
X142292583Y-135007969D01*
X142298772Y-135021054D01*
X142303649Y-135034683D01*
X142307166Y-135048724D01*
X142309290Y-135063042D01*
X142310000Y-135077500D01*
X142310000Y-135422500D01*
X142309290Y-135436958D01*
X142307166Y-135451276D01*
X142303649Y-135465317D01*
X142298772Y-135478946D01*
X142292583Y-135492031D01*
X142285142Y-135504447D01*
X142276519Y-135516073D01*
X142266798Y-135526798D01*
X142256073Y-135536519D01*
X142244447Y-135545142D01*
X142232031Y-135552583D01*
X142218946Y-135558772D01*
X142205317Y-135563649D01*
X142191276Y-135567166D01*
X142176958Y-135569290D01*
X142162500Y-135570000D01*
X141867500Y-135570000D01*
X141853042Y-135569290D01*
X141838724Y-135567166D01*
X141824683Y-135563649D01*
X141811054Y-135558772D01*
X141797969Y-135552583D01*
X141785553Y-135545142D01*
X141773927Y-135536519D01*
X141763202Y-135526798D01*
X141753481Y-135516073D01*
X141744858Y-135504447D01*
X141737417Y-135492031D01*
X141731228Y-135478946D01*
X141726351Y-135465317D01*
X141722834Y-135451276D01*
X141720710Y-135436958D01*
X141720000Y-135422500D01*
X141720000Y-135077500D01*
X141720710Y-135063042D01*
X141722834Y-135048724D01*
X141726351Y-135034683D01*
X141731228Y-135021054D01*
X141737417Y-135007969D01*
X141744858Y-134995553D01*
X141753481Y-134983927D01*
X141763202Y-134973202D01*
X141773927Y-134963481D01*
X141785553Y-134954858D01*
X141797969Y-134947417D01*
X141811054Y-134941228D01*
X141824683Y-134936351D01*
X141838724Y-134932834D01*
X141853042Y-134930710D01*
X141867500Y-134930000D01*
X142162500Y-134930000D01*
X142176958Y-134930710D01*
X142176958Y-134930710D01*
G37*
D12*
X142015000Y-135250000D03*
D10*
G36*
X143146958Y-134930710D02*
X143161276Y-134932834D01*
X143175317Y-134936351D01*
X143188946Y-134941228D01*
X143202031Y-134947417D01*
X143214447Y-134954858D01*
X143226073Y-134963481D01*
X143236798Y-134973202D01*
X143246519Y-134983927D01*
X143255142Y-134995553D01*
X143262583Y-135007969D01*
X143268772Y-135021054D01*
X143273649Y-135034683D01*
X143277166Y-135048724D01*
X143279290Y-135063042D01*
X143280000Y-135077500D01*
X143280000Y-135422500D01*
X143279290Y-135436958D01*
X143277166Y-135451276D01*
X143273649Y-135465317D01*
X143268772Y-135478946D01*
X143262583Y-135492031D01*
X143255142Y-135504447D01*
X143246519Y-135516073D01*
X143236798Y-135526798D01*
X143226073Y-135536519D01*
X143214447Y-135545142D01*
X143202031Y-135552583D01*
X143188946Y-135558772D01*
X143175317Y-135563649D01*
X143161276Y-135567166D01*
X143146958Y-135569290D01*
X143132500Y-135570000D01*
X142837500Y-135570000D01*
X142823042Y-135569290D01*
X142808724Y-135567166D01*
X142794683Y-135563649D01*
X142781054Y-135558772D01*
X142767969Y-135552583D01*
X142755553Y-135545142D01*
X142743927Y-135536519D01*
X142733202Y-135526798D01*
X142723481Y-135516073D01*
X142714858Y-135504447D01*
X142707417Y-135492031D01*
X142701228Y-135478946D01*
X142696351Y-135465317D01*
X142692834Y-135451276D01*
X142690710Y-135436958D01*
X142690000Y-135422500D01*
X142690000Y-135077500D01*
X142690710Y-135063042D01*
X142692834Y-135048724D01*
X142696351Y-135034683D01*
X142701228Y-135021054D01*
X142707417Y-135007969D01*
X142714858Y-134995553D01*
X142723481Y-134983927D01*
X142733202Y-134973202D01*
X142743927Y-134963481D01*
X142755553Y-134954858D01*
X142767969Y-134947417D01*
X142781054Y-134941228D01*
X142794683Y-134936351D01*
X142808724Y-134932834D01*
X142823042Y-134930710D01*
X142837500Y-134930000D01*
X143132500Y-134930000D01*
X143146958Y-134930710D01*
X143146958Y-134930710D01*
G37*
D12*
X142985000Y-135250000D03*
G04 #@! TD*
D29*
G04 #@! TO.C,U1*
X151500000Y-93200000D03*
X151500000Y-92800000D03*
X151500000Y-92400000D03*
X151500000Y-92000000D03*
X151500000Y-91600000D03*
X151500000Y-91200000D03*
X151500000Y-90800000D03*
X151500000Y-90400000D03*
X151500000Y-90000000D03*
X151500000Y-89600000D03*
X151500000Y-89200000D03*
X151500000Y-88800000D03*
X151500000Y-88400000D03*
X151500000Y-88000000D03*
X151500000Y-87600000D03*
X151500000Y-87200000D03*
X151500000Y-86800000D03*
D30*
X150700000Y-86000000D03*
X150300000Y-86000000D03*
X149900000Y-86000000D03*
X149500000Y-86000000D03*
X149100000Y-86000000D03*
X148700000Y-86000000D03*
X148300000Y-86000000D03*
X147900000Y-86000000D03*
X147500000Y-86000000D03*
X147100000Y-86000000D03*
X146700000Y-86000000D03*
X146300000Y-86000000D03*
X145900000Y-86000000D03*
X145500000Y-86000000D03*
X145100000Y-86000000D03*
X144700000Y-86000000D03*
X144300000Y-86000000D03*
D29*
X143500000Y-86800000D03*
X143500000Y-87200000D03*
X143500000Y-87600000D03*
X143500000Y-88000000D03*
X143500000Y-88400000D03*
X143500000Y-88800000D03*
X143500000Y-89200000D03*
X143500000Y-89600000D03*
X143500000Y-90000000D03*
X143500000Y-90400000D03*
X143500000Y-90800000D03*
X143500000Y-91200000D03*
X143500000Y-91600000D03*
X143500000Y-92000000D03*
X143500000Y-92400000D03*
X143500000Y-92800000D03*
X143500000Y-93200000D03*
D30*
X144300000Y-94000000D03*
X144700000Y-94000000D03*
X145100000Y-94000000D03*
X145500000Y-94000000D03*
X145900000Y-94000000D03*
X146300000Y-94000000D03*
X146700000Y-94000000D03*
X147100000Y-94000000D03*
X147500000Y-94000000D03*
X147900000Y-94000000D03*
X148300000Y-94000000D03*
X148700000Y-94000000D03*
X149100000Y-94000000D03*
X149500000Y-94000000D03*
X149900000Y-94000000D03*
X150300000Y-94000000D03*
X150700000Y-94000000D03*
G04 #@! TD*
D31*
G04 #@! TO.C,U2*
X162250000Y-101800000D03*
X161750000Y-101800000D03*
X161250000Y-101800000D03*
X160750000Y-101800000D03*
X160250000Y-101800000D03*
X160250000Y-106200000D03*
X160750000Y-106200000D03*
X161250000Y-106200000D03*
X161750000Y-106200000D03*
X162250000Y-106200000D03*
G04 #@! TD*
D32*
G04 #@! TO.C,U3*
X133800000Y-101975000D03*
X133800000Y-101325000D03*
X133800000Y-100675000D03*
X133800000Y-100025000D03*
X130700000Y-100025000D03*
X130700000Y-100675000D03*
X130700000Y-101325000D03*
X130700000Y-101975000D03*
D33*
X132637500Y-100400000D03*
X131862500Y-100400000D03*
X131862500Y-101600000D03*
X132637500Y-101600000D03*
G04 #@! TD*
D34*
G04 #@! TO.C,VR1*
X140050000Y-105310000D03*
X141000000Y-105310000D03*
X141950000Y-105310000D03*
X141950000Y-102690000D03*
X140050000Y-102690000D03*
G04 #@! TD*
G04 #@! TO.C,VR2*
X147050000Y-102690000D03*
X148950000Y-102690000D03*
X148950000Y-105310000D03*
X148000000Y-105310000D03*
X147050000Y-105310000D03*
G04 #@! TD*
G04 #@! TO.C,VR3*
X153800000Y-105310000D03*
X154750000Y-105310000D03*
X155700000Y-105310000D03*
X155700000Y-102690000D03*
X153800000Y-102690000D03*
G04 #@! TD*
D35*
G04 #@! TO.C,Y1*
X145525000Y-82550000D03*
X143775000Y-82550000D03*
G04 #@! TD*
M02*
