G04 #@! TF.GenerationSoftware,KiCad,Pcbnew,(5.0.2)-1*
G04 #@! TF.CreationDate,2019-10-12T17:33:53+09:00*
G04 #@! TF.ProjectId,PM_Board,504d5f42-6f61-4726-942e-6b696361645f,rev?*
G04 #@! TF.SameCoordinates,Original*
G04 #@! TF.FileFunction,Soldermask,Bot*
G04 #@! TF.FilePolarity,Negative*
%FSLAX46Y46*%
G04 Gerber Fmt 4.6, Leading zero omitted, Abs format (unit mm)*
G04 Created by KiCad (PCBNEW (5.0.2)-1) date 2019/10/12 17:33:53*
%MOMM*%
%LPD*%
G01*
G04 APERTURE LIST*
%ADD10C,0.100000*%
G04 APERTURE END LIST*
D10*
G36*
X182875256Y-138391298D02*
X182981579Y-138412447D01*
X183282042Y-138536903D01*
X183524637Y-138699000D01*
X183552454Y-138717587D01*
X183782413Y-138947546D01*
X183963098Y-139217960D01*
X183999550Y-139305963D01*
X184087553Y-139518421D01*
X184151000Y-139837391D01*
X184151000Y-140162609D01*
X184099807Y-140419976D01*
X184087553Y-140481578D01*
X183971975Y-140760610D01*
X183963097Y-140782042D01*
X183784820Y-141048852D01*
X183782413Y-141052454D01*
X183552454Y-141282413D01*
X183552451Y-141282415D01*
X183282042Y-141463097D01*
X182981579Y-141587553D01*
X182875256Y-141608702D01*
X182662611Y-141651000D01*
X182337389Y-141651000D01*
X182124744Y-141608702D01*
X182018421Y-141587553D01*
X181717958Y-141463097D01*
X181447549Y-141282415D01*
X181447546Y-141282413D01*
X181217587Y-141052454D01*
X181215180Y-141048852D01*
X181036903Y-140782042D01*
X181028026Y-140760610D01*
X180912447Y-140481578D01*
X180900194Y-140419976D01*
X180849000Y-140162609D01*
X180849000Y-139837391D01*
X180912447Y-139518421D01*
X181000450Y-139305963D01*
X181036902Y-139217960D01*
X181217587Y-138947546D01*
X181447546Y-138717587D01*
X181475363Y-138699000D01*
X181717958Y-138536903D01*
X182018421Y-138412447D01*
X182124744Y-138391298D01*
X182337389Y-138349000D01*
X182662611Y-138349000D01*
X182875256Y-138391298D01*
X182875256Y-138391298D01*
G37*
G36*
X122875256Y-138391298D02*
X122981579Y-138412447D01*
X123282042Y-138536903D01*
X123524637Y-138699000D01*
X123552454Y-138717587D01*
X123782413Y-138947546D01*
X123963098Y-139217960D01*
X123999550Y-139305963D01*
X124087553Y-139518421D01*
X124151000Y-139837391D01*
X124151000Y-140162609D01*
X124099807Y-140419976D01*
X124087553Y-140481578D01*
X123971975Y-140760610D01*
X123963097Y-140782042D01*
X123784820Y-141048852D01*
X123782413Y-141052454D01*
X123552454Y-141282413D01*
X123552451Y-141282415D01*
X123282042Y-141463097D01*
X122981579Y-141587553D01*
X122875256Y-141608702D01*
X122662611Y-141651000D01*
X122337389Y-141651000D01*
X122124744Y-141608702D01*
X122018421Y-141587553D01*
X121717958Y-141463097D01*
X121447549Y-141282415D01*
X121447546Y-141282413D01*
X121217587Y-141052454D01*
X121215180Y-141048852D01*
X121036903Y-140782042D01*
X121028026Y-140760610D01*
X120912447Y-140481578D01*
X120900194Y-140419976D01*
X120849000Y-140162609D01*
X120849000Y-139837391D01*
X120912447Y-139518421D01*
X121000450Y-139305963D01*
X121036902Y-139217960D01*
X121217587Y-138947546D01*
X121447546Y-138717587D01*
X121475363Y-138699000D01*
X121717958Y-138536903D01*
X122018421Y-138412447D01*
X122124744Y-138391298D01*
X122337389Y-138349000D01*
X122662611Y-138349000D01*
X122875256Y-138391298D01*
X122875256Y-138391298D01*
G37*
G36*
X138556565Y-138739389D02*
X138747834Y-138818615D01*
X138919976Y-138933637D01*
X139066363Y-139080024D01*
X139181385Y-139252166D01*
X139260611Y-139443435D01*
X139301000Y-139646484D01*
X139301000Y-139853516D01*
X139260611Y-140056565D01*
X139181385Y-140247834D01*
X139066363Y-140419976D01*
X138919976Y-140566363D01*
X138747834Y-140681385D01*
X138556565Y-140760611D01*
X138353516Y-140801000D01*
X138146484Y-140801000D01*
X137943435Y-140760611D01*
X137752166Y-140681385D01*
X137580024Y-140566363D01*
X137433637Y-140419976D01*
X137318615Y-140247834D01*
X137239389Y-140056565D01*
X137199000Y-139853516D01*
X137199000Y-139646484D01*
X137239389Y-139443435D01*
X137318615Y-139252166D01*
X137433637Y-139080024D01*
X137580024Y-138933637D01*
X137752166Y-138818615D01*
X137943435Y-138739389D01*
X138146484Y-138699000D01*
X138353516Y-138699000D01*
X138556565Y-138739389D01*
X138556565Y-138739389D01*
G37*
G36*
X141056565Y-138739389D02*
X141247834Y-138818615D01*
X141419976Y-138933637D01*
X141566363Y-139080024D01*
X141681385Y-139252166D01*
X141760611Y-139443435D01*
X141801000Y-139646484D01*
X141801000Y-139853516D01*
X141760611Y-140056565D01*
X141681385Y-140247834D01*
X141566363Y-140419976D01*
X141419976Y-140566363D01*
X141247834Y-140681385D01*
X141056565Y-140760611D01*
X140853516Y-140801000D01*
X140646484Y-140801000D01*
X140443435Y-140760611D01*
X140252166Y-140681385D01*
X140080024Y-140566363D01*
X139933637Y-140419976D01*
X139818615Y-140247834D01*
X139739389Y-140056565D01*
X139699000Y-139853516D01*
X139699000Y-139646484D01*
X139739389Y-139443435D01*
X139818615Y-139252166D01*
X139933637Y-139080024D01*
X140080024Y-138933637D01*
X140252166Y-138818615D01*
X140443435Y-138739389D01*
X140646484Y-138699000D01*
X140853516Y-138699000D01*
X141056565Y-138739389D01*
X141056565Y-138739389D01*
G37*
G36*
X157056565Y-138739389D02*
X157247834Y-138818615D01*
X157419976Y-138933637D01*
X157566363Y-139080024D01*
X157681385Y-139252166D01*
X157760611Y-139443435D01*
X157801000Y-139646484D01*
X157801000Y-139853516D01*
X157760611Y-140056565D01*
X157681385Y-140247834D01*
X157566363Y-140419976D01*
X157419976Y-140566363D01*
X157247834Y-140681385D01*
X157056565Y-140760611D01*
X156853516Y-140801000D01*
X156646484Y-140801000D01*
X156443435Y-140760611D01*
X156252166Y-140681385D01*
X156080024Y-140566363D01*
X155933637Y-140419976D01*
X155818615Y-140247834D01*
X155739389Y-140056565D01*
X155699000Y-139853516D01*
X155699000Y-139646484D01*
X155739389Y-139443435D01*
X155818615Y-139252166D01*
X155933637Y-139080024D01*
X156080024Y-138933637D01*
X156252166Y-138818615D01*
X156443435Y-138739389D01*
X156646484Y-138699000D01*
X156853516Y-138699000D01*
X157056565Y-138739389D01*
X157056565Y-138739389D01*
G37*
G36*
X159556565Y-138739389D02*
X159747834Y-138818615D01*
X159919976Y-138933637D01*
X160066363Y-139080024D01*
X160181385Y-139252166D01*
X160260611Y-139443435D01*
X160301000Y-139646484D01*
X160301000Y-139853516D01*
X160260611Y-140056565D01*
X160181385Y-140247834D01*
X160066363Y-140419976D01*
X159919976Y-140566363D01*
X159747834Y-140681385D01*
X159556565Y-140760611D01*
X159353516Y-140801000D01*
X159146484Y-140801000D01*
X158943435Y-140760611D01*
X158752166Y-140681385D01*
X158580024Y-140566363D01*
X158433637Y-140419976D01*
X158318615Y-140247834D01*
X158239389Y-140056565D01*
X158199000Y-139853516D01*
X158199000Y-139646484D01*
X158239389Y-139443435D01*
X158318615Y-139252166D01*
X158433637Y-139080024D01*
X158580024Y-138933637D01*
X158752166Y-138818615D01*
X158943435Y-138739389D01*
X159146484Y-138699000D01*
X159353516Y-138699000D01*
X159556565Y-138739389D01*
X159556565Y-138739389D01*
G37*
G36*
X169556565Y-138739389D02*
X169747834Y-138818615D01*
X169919976Y-138933637D01*
X170066363Y-139080024D01*
X170181385Y-139252166D01*
X170260611Y-139443435D01*
X170301000Y-139646484D01*
X170301000Y-139853516D01*
X170260611Y-140056565D01*
X170181385Y-140247834D01*
X170066363Y-140419976D01*
X169919976Y-140566363D01*
X169747834Y-140681385D01*
X169556565Y-140760611D01*
X169353516Y-140801000D01*
X169146484Y-140801000D01*
X168943435Y-140760611D01*
X168752166Y-140681385D01*
X168580024Y-140566363D01*
X168433637Y-140419976D01*
X168318615Y-140247834D01*
X168239389Y-140056565D01*
X168199000Y-139853516D01*
X168199000Y-139646484D01*
X168239389Y-139443435D01*
X168318615Y-139252166D01*
X168433637Y-139080024D01*
X168580024Y-138933637D01*
X168752166Y-138818615D01*
X168943435Y-138739389D01*
X169146484Y-138699000D01*
X169353516Y-138699000D01*
X169556565Y-138739389D01*
X169556565Y-138739389D01*
G37*
G36*
X167056565Y-138739389D02*
X167247834Y-138818615D01*
X167419976Y-138933637D01*
X167566363Y-139080024D01*
X167681385Y-139252166D01*
X167760611Y-139443435D01*
X167801000Y-139646484D01*
X167801000Y-139853516D01*
X167760611Y-140056565D01*
X167681385Y-140247834D01*
X167566363Y-140419976D01*
X167419976Y-140566363D01*
X167247834Y-140681385D01*
X167056565Y-140760611D01*
X166853516Y-140801000D01*
X166646484Y-140801000D01*
X166443435Y-140760611D01*
X166252166Y-140681385D01*
X166080024Y-140566363D01*
X165933637Y-140419976D01*
X165818615Y-140247834D01*
X165739389Y-140056565D01*
X165699000Y-139853516D01*
X165699000Y-139646484D01*
X165739389Y-139443435D01*
X165818615Y-139252166D01*
X165933637Y-139080024D01*
X166080024Y-138933637D01*
X166252166Y-138818615D01*
X166443435Y-138739389D01*
X166646484Y-138699000D01*
X166853516Y-138699000D01*
X167056565Y-138739389D01*
X167056565Y-138739389D01*
G37*
G36*
X162056565Y-138739389D02*
X162247834Y-138818615D01*
X162419976Y-138933637D01*
X162566363Y-139080024D01*
X162681385Y-139252166D01*
X162760611Y-139443435D01*
X162801000Y-139646484D01*
X162801000Y-139853516D01*
X162760611Y-140056565D01*
X162681385Y-140247834D01*
X162566363Y-140419976D01*
X162419976Y-140566363D01*
X162247834Y-140681385D01*
X162056565Y-140760611D01*
X161853516Y-140801000D01*
X161646484Y-140801000D01*
X161443435Y-140760611D01*
X161252166Y-140681385D01*
X161080024Y-140566363D01*
X160933637Y-140419976D01*
X160818615Y-140247834D01*
X160739389Y-140056565D01*
X160699000Y-139853516D01*
X160699000Y-139646484D01*
X160739389Y-139443435D01*
X160818615Y-139252166D01*
X160933637Y-139080024D01*
X161080024Y-138933637D01*
X161252166Y-138818615D01*
X161443435Y-138739389D01*
X161646484Y-138699000D01*
X161853516Y-138699000D01*
X162056565Y-138739389D01*
X162056565Y-138739389D01*
G37*
G36*
X164556565Y-138739389D02*
X164747834Y-138818615D01*
X164919976Y-138933637D01*
X165066363Y-139080024D01*
X165181385Y-139252166D01*
X165260611Y-139443435D01*
X165301000Y-139646484D01*
X165301000Y-139853516D01*
X165260611Y-140056565D01*
X165181385Y-140247834D01*
X165066363Y-140419976D01*
X164919976Y-140566363D01*
X164747834Y-140681385D01*
X164556565Y-140760611D01*
X164353516Y-140801000D01*
X164146484Y-140801000D01*
X163943435Y-140760611D01*
X163752166Y-140681385D01*
X163580024Y-140566363D01*
X163433637Y-140419976D01*
X163318615Y-140247834D01*
X163239389Y-140056565D01*
X163199000Y-139853516D01*
X163199000Y-139646484D01*
X163239389Y-139443435D01*
X163318615Y-139252166D01*
X163433637Y-139080024D01*
X163580024Y-138933637D01*
X163752166Y-138818615D01*
X163943435Y-138739389D01*
X164146484Y-138699000D01*
X164353516Y-138699000D01*
X164556565Y-138739389D01*
X164556565Y-138739389D01*
G37*
G36*
X131835442Y-132905518D02*
X131901627Y-132912037D01*
X132014853Y-132946384D01*
X132071467Y-132963557D01*
X132210087Y-133037652D01*
X132227991Y-133047222D01*
X132263729Y-133076552D01*
X132365186Y-133159814D01*
X132448448Y-133261271D01*
X132477778Y-133297009D01*
X132477779Y-133297011D01*
X132561443Y-133453533D01*
X132561443Y-133453534D01*
X132612963Y-133623373D01*
X132630359Y-133800000D01*
X132612963Y-133976627D01*
X132578616Y-134089853D01*
X132561443Y-134146467D01*
X132487348Y-134285087D01*
X132477778Y-134302991D01*
X132448448Y-134338729D01*
X132365186Y-134440186D01*
X132263729Y-134523448D01*
X132227991Y-134552778D01*
X132227989Y-134552779D01*
X132071467Y-134636443D01*
X132014853Y-134653616D01*
X131901627Y-134687963D01*
X131835442Y-134694482D01*
X131769260Y-134701000D01*
X131430740Y-134701000D01*
X131364558Y-134694482D01*
X131298373Y-134687963D01*
X131185147Y-134653616D01*
X131128533Y-134636443D01*
X130972011Y-134552779D01*
X130972009Y-134552778D01*
X130936271Y-134523448D01*
X130834814Y-134440186D01*
X130751552Y-134338729D01*
X130722222Y-134302991D01*
X130712652Y-134285087D01*
X130638557Y-134146467D01*
X130621384Y-134089853D01*
X130587037Y-133976627D01*
X130569641Y-133800000D01*
X130587037Y-133623373D01*
X130638557Y-133453534D01*
X130638557Y-133453533D01*
X130722221Y-133297011D01*
X130722222Y-133297009D01*
X130751552Y-133261271D01*
X130834814Y-133159814D01*
X130936271Y-133076552D01*
X130972009Y-133047222D01*
X130989913Y-133037652D01*
X131128533Y-132963557D01*
X131185147Y-132946384D01*
X131298373Y-132912037D01*
X131364558Y-132905518D01*
X131430740Y-132899000D01*
X131769260Y-132899000D01*
X131835442Y-132905518D01*
X131835442Y-132905518D01*
G37*
G36*
X131835442Y-130405518D02*
X131901627Y-130412037D01*
X132014853Y-130446384D01*
X132071467Y-130463557D01*
X132210087Y-130537652D01*
X132227991Y-130547222D01*
X132263729Y-130576552D01*
X132365186Y-130659814D01*
X132448448Y-130761271D01*
X132477778Y-130797009D01*
X132477779Y-130797011D01*
X132561443Y-130953533D01*
X132561443Y-130953534D01*
X132612963Y-131123373D01*
X132630359Y-131300000D01*
X132612963Y-131476627D01*
X132578616Y-131589853D01*
X132561443Y-131646467D01*
X132487348Y-131785087D01*
X132477778Y-131802991D01*
X132448448Y-131838729D01*
X132365186Y-131940186D01*
X132263729Y-132023448D01*
X132227991Y-132052778D01*
X132227989Y-132052779D01*
X132071467Y-132136443D01*
X132014853Y-132153616D01*
X131901627Y-132187963D01*
X131835443Y-132194481D01*
X131769260Y-132201000D01*
X131430740Y-132201000D01*
X131364557Y-132194481D01*
X131298373Y-132187963D01*
X131185147Y-132153616D01*
X131128533Y-132136443D01*
X130972011Y-132052779D01*
X130972009Y-132052778D01*
X130936271Y-132023448D01*
X130834814Y-131940186D01*
X130751552Y-131838729D01*
X130722222Y-131802991D01*
X130712652Y-131785087D01*
X130638557Y-131646467D01*
X130621384Y-131589853D01*
X130587037Y-131476627D01*
X130569641Y-131300000D01*
X130587037Y-131123373D01*
X130638557Y-130953534D01*
X130638557Y-130953533D01*
X130722221Y-130797011D01*
X130722222Y-130797009D01*
X130751552Y-130761271D01*
X130834814Y-130659814D01*
X130936271Y-130576552D01*
X130972009Y-130547222D01*
X130989913Y-130537652D01*
X131128533Y-130463557D01*
X131185147Y-130446384D01*
X131298373Y-130412037D01*
X131364558Y-130405518D01*
X131430740Y-130399000D01*
X131769260Y-130399000D01*
X131835442Y-130405518D01*
X131835442Y-130405518D01*
G37*
G36*
X131835442Y-127905518D02*
X131901627Y-127912037D01*
X132014853Y-127946384D01*
X132071467Y-127963557D01*
X132210087Y-128037652D01*
X132227991Y-128047222D01*
X132263729Y-128076552D01*
X132365186Y-128159814D01*
X132448448Y-128261271D01*
X132477778Y-128297009D01*
X132477779Y-128297011D01*
X132561443Y-128453533D01*
X132561443Y-128453534D01*
X132612963Y-128623373D01*
X132630359Y-128800000D01*
X132612963Y-128976627D01*
X132578616Y-129089853D01*
X132561443Y-129146467D01*
X132487348Y-129285087D01*
X132477778Y-129302991D01*
X132448448Y-129338729D01*
X132365186Y-129440186D01*
X132263729Y-129523448D01*
X132227991Y-129552778D01*
X132227989Y-129552779D01*
X132071467Y-129636443D01*
X132014853Y-129653616D01*
X131901627Y-129687963D01*
X131835442Y-129694482D01*
X131769260Y-129701000D01*
X131430740Y-129701000D01*
X131364558Y-129694482D01*
X131298373Y-129687963D01*
X131185147Y-129653616D01*
X131128533Y-129636443D01*
X130972011Y-129552779D01*
X130972009Y-129552778D01*
X130936271Y-129523448D01*
X130834814Y-129440186D01*
X130751552Y-129338729D01*
X130722222Y-129302991D01*
X130712652Y-129285087D01*
X130638557Y-129146467D01*
X130621384Y-129089853D01*
X130587037Y-128976627D01*
X130569641Y-128800000D01*
X130587037Y-128623373D01*
X130638557Y-128453534D01*
X130638557Y-128453533D01*
X130722221Y-128297011D01*
X130722222Y-128297009D01*
X130751552Y-128261271D01*
X130834814Y-128159814D01*
X130936271Y-128076552D01*
X130972009Y-128047222D01*
X130989913Y-128037652D01*
X131128533Y-127963557D01*
X131185147Y-127946384D01*
X131298373Y-127912037D01*
X131364558Y-127905518D01*
X131430740Y-127899000D01*
X131769260Y-127899000D01*
X131835442Y-127905518D01*
X131835442Y-127905518D01*
G37*
G36*
X132483600Y-125402989D02*
X132516649Y-125413014D01*
X132547106Y-125429294D01*
X132573799Y-125451201D01*
X132595706Y-125477894D01*
X132611986Y-125508351D01*
X132622011Y-125541400D01*
X132626000Y-125581904D01*
X132626000Y-127018096D01*
X132622011Y-127058600D01*
X132611986Y-127091649D01*
X132595706Y-127122106D01*
X132573799Y-127148799D01*
X132547106Y-127170706D01*
X132516649Y-127186986D01*
X132483600Y-127197011D01*
X132443096Y-127201000D01*
X130756904Y-127201000D01*
X130716400Y-127197011D01*
X130683351Y-127186986D01*
X130652894Y-127170706D01*
X130626201Y-127148799D01*
X130604294Y-127122106D01*
X130588014Y-127091649D01*
X130577989Y-127058600D01*
X130574000Y-127018096D01*
X130574000Y-125581904D01*
X130577989Y-125541400D01*
X130588014Y-125508351D01*
X130604294Y-125477894D01*
X130626201Y-125451201D01*
X130652894Y-125429294D01*
X130683351Y-125413014D01*
X130716400Y-125402989D01*
X130756904Y-125399000D01*
X132443096Y-125399000D01*
X132483600Y-125402989D01*
X132483600Y-125402989D01*
G37*
G36*
X122875256Y-118391298D02*
X122981579Y-118412447D01*
X123282042Y-118536903D01*
X123548852Y-118715180D01*
X123552454Y-118717587D01*
X123782413Y-118947546D01*
X123963098Y-119217960D01*
X124087553Y-119518422D01*
X124151000Y-119837389D01*
X124151000Y-120162611D01*
X124087553Y-120481578D01*
X123963098Y-120782040D01*
X123782413Y-121052454D01*
X123552454Y-121282413D01*
X123552451Y-121282415D01*
X123282042Y-121463097D01*
X122981579Y-121587553D01*
X122875256Y-121608702D01*
X122662611Y-121651000D01*
X122337389Y-121651000D01*
X122124744Y-121608702D01*
X122018421Y-121587553D01*
X121717958Y-121463097D01*
X121447549Y-121282415D01*
X121447546Y-121282413D01*
X121217587Y-121052454D01*
X121036902Y-120782040D01*
X120912447Y-120481578D01*
X120849000Y-120162611D01*
X120849000Y-119837389D01*
X120912447Y-119518422D01*
X121036902Y-119217960D01*
X121217587Y-118947546D01*
X121447546Y-118717587D01*
X121451148Y-118715180D01*
X121717958Y-118536903D01*
X122018421Y-118412447D01*
X122124744Y-118391298D01*
X122337389Y-118349000D01*
X122662611Y-118349000D01*
X122875256Y-118391298D01*
X122875256Y-118391298D01*
G37*
G36*
X182875256Y-118391298D02*
X182981579Y-118412447D01*
X183282042Y-118536903D01*
X183548852Y-118715180D01*
X183552454Y-118717587D01*
X183782413Y-118947546D01*
X183963098Y-119217960D01*
X184087553Y-119518422D01*
X184151000Y-119837389D01*
X184151000Y-120162611D01*
X184087553Y-120481578D01*
X183963098Y-120782040D01*
X183782413Y-121052454D01*
X183552454Y-121282413D01*
X183552451Y-121282415D01*
X183282042Y-121463097D01*
X182981579Y-121587553D01*
X182875256Y-121608702D01*
X182662611Y-121651000D01*
X182337389Y-121651000D01*
X182124744Y-121608702D01*
X182018421Y-121587553D01*
X181717958Y-121463097D01*
X181447549Y-121282415D01*
X181447546Y-121282413D01*
X181217587Y-121052454D01*
X181036902Y-120782040D01*
X180912447Y-120481578D01*
X180849000Y-120162611D01*
X180849000Y-119837389D01*
X180912447Y-119518422D01*
X181036902Y-119217960D01*
X181217587Y-118947546D01*
X181447546Y-118717587D01*
X181451148Y-118715180D01*
X181717958Y-118536903D01*
X182018421Y-118412447D01*
X182124744Y-118391298D01*
X182337389Y-118349000D01*
X182662611Y-118349000D01*
X182875256Y-118391298D01*
X182875256Y-118391298D01*
G37*
G36*
X173558445Y-112516254D02*
X173906593Y-112585504D01*
X174316249Y-112755189D01*
X174684929Y-113001534D01*
X174998466Y-113315071D01*
X175244811Y-113683751D01*
X175414496Y-114093407D01*
X175465336Y-114349000D01*
X175501000Y-114528294D01*
X175501000Y-114971706D01*
X175483746Y-115058445D01*
X175414496Y-115406593D01*
X175244811Y-115816249D01*
X174998466Y-116184929D01*
X174684929Y-116498466D01*
X174316249Y-116744811D01*
X173906593Y-116914496D01*
X173558445Y-116983746D01*
X173471706Y-117001000D01*
X173028294Y-117001000D01*
X172941555Y-116983746D01*
X172593407Y-116914496D01*
X172183751Y-116744811D01*
X171815071Y-116498466D01*
X171501534Y-116184929D01*
X171255189Y-115816249D01*
X171085504Y-115406593D01*
X171016254Y-115058445D01*
X170999000Y-114971706D01*
X170999000Y-114528294D01*
X171034664Y-114349000D01*
X171085504Y-114093407D01*
X171255189Y-113683751D01*
X171501534Y-113315071D01*
X171815071Y-113001534D01*
X172183751Y-112755189D01*
X172593407Y-112585504D01*
X172941555Y-112516254D01*
X173028294Y-112499000D01*
X173471706Y-112499000D01*
X173558445Y-112516254D01*
X173558445Y-112516254D01*
G37*
G36*
X173558445Y-103516254D02*
X173906593Y-103585504D01*
X174316249Y-103755189D01*
X174684929Y-104001534D01*
X174998466Y-104315071D01*
X175244811Y-104683751D01*
X175414496Y-105093407D01*
X175465336Y-105349000D01*
X175501000Y-105528294D01*
X175501000Y-105971706D01*
X175483746Y-106058445D01*
X175414496Y-106406593D01*
X175244811Y-106816249D01*
X174998466Y-107184929D01*
X174684929Y-107498466D01*
X174316249Y-107744811D01*
X173906593Y-107914496D01*
X173558445Y-107983746D01*
X173471706Y-108001000D01*
X173028294Y-108001000D01*
X172941555Y-107983746D01*
X172593407Y-107914496D01*
X172183751Y-107744811D01*
X171815071Y-107498466D01*
X171501534Y-107184929D01*
X171255189Y-106816249D01*
X171085504Y-106406593D01*
X171016254Y-106058445D01*
X170999000Y-105971706D01*
X170999000Y-105528294D01*
X171034664Y-105349000D01*
X171085504Y-105093407D01*
X171255189Y-104683751D01*
X171501534Y-104315071D01*
X171815071Y-104001534D01*
X172183751Y-103755189D01*
X172593407Y-103585504D01*
X172941555Y-103516254D01*
X173028294Y-103499000D01*
X173471706Y-103499000D01*
X173558445Y-103516254D01*
X173558445Y-103516254D01*
G37*
G36*
X122875256Y-98391298D02*
X122981579Y-98412447D01*
X123282042Y-98536903D01*
X123548852Y-98715180D01*
X123552454Y-98717587D01*
X123782413Y-98947546D01*
X123963098Y-99217960D01*
X124087553Y-99518422D01*
X124151000Y-99837389D01*
X124151000Y-100162611D01*
X124087553Y-100481578D01*
X123963098Y-100782040D01*
X123782413Y-101052454D01*
X123552454Y-101282413D01*
X123552451Y-101282415D01*
X123282042Y-101463097D01*
X122981579Y-101587553D01*
X122875256Y-101608702D01*
X122662611Y-101651000D01*
X122337389Y-101651000D01*
X122124744Y-101608702D01*
X122018421Y-101587553D01*
X121717958Y-101463097D01*
X121447549Y-101282415D01*
X121447546Y-101282413D01*
X121217587Y-101052454D01*
X121036902Y-100782040D01*
X120912447Y-100481578D01*
X120849000Y-100162611D01*
X120849000Y-99837389D01*
X120912447Y-99518422D01*
X121036902Y-99217960D01*
X121217587Y-98947546D01*
X121447546Y-98717587D01*
X121451148Y-98715180D01*
X121717958Y-98536903D01*
X122018421Y-98412447D01*
X122124744Y-98391298D01*
X122337389Y-98349000D01*
X122662611Y-98349000D01*
X122875256Y-98391298D01*
X122875256Y-98391298D01*
G37*
G36*
X182875256Y-98391298D02*
X182981579Y-98412447D01*
X183282042Y-98536903D01*
X183548852Y-98715180D01*
X183552454Y-98717587D01*
X183782413Y-98947546D01*
X183963098Y-99217960D01*
X184087553Y-99518422D01*
X184151000Y-99837389D01*
X184151000Y-100162611D01*
X184087553Y-100481578D01*
X183963098Y-100782040D01*
X183782413Y-101052454D01*
X183552454Y-101282413D01*
X183552451Y-101282415D01*
X183282042Y-101463097D01*
X182981579Y-101587553D01*
X182875256Y-101608702D01*
X182662611Y-101651000D01*
X182337389Y-101651000D01*
X182124744Y-101608702D01*
X182018421Y-101587553D01*
X181717958Y-101463097D01*
X181447549Y-101282415D01*
X181447546Y-101282413D01*
X181217587Y-101052454D01*
X181036902Y-100782040D01*
X180912447Y-100481578D01*
X180849000Y-100162611D01*
X180849000Y-99837389D01*
X180912447Y-99518422D01*
X181036902Y-99217960D01*
X181217587Y-98947546D01*
X181447546Y-98717587D01*
X181451148Y-98715180D01*
X181717958Y-98536903D01*
X182018421Y-98412447D01*
X182124744Y-98391298D01*
X182337389Y-98349000D01*
X182662611Y-98349000D01*
X182875256Y-98391298D01*
X182875256Y-98391298D01*
G37*
G36*
X131835443Y-92805519D02*
X131901627Y-92812037D01*
X132014853Y-92846384D01*
X132071467Y-92863557D01*
X132210087Y-92937652D01*
X132227991Y-92947222D01*
X132263729Y-92976552D01*
X132365186Y-93059814D01*
X132448448Y-93161271D01*
X132477778Y-93197009D01*
X132477779Y-93197011D01*
X132561443Y-93353533D01*
X132561443Y-93353534D01*
X132612963Y-93523373D01*
X132630359Y-93700000D01*
X132612963Y-93876627D01*
X132578616Y-93989853D01*
X132561443Y-94046467D01*
X132487348Y-94185087D01*
X132477778Y-94202991D01*
X132448448Y-94238729D01*
X132365186Y-94340186D01*
X132263729Y-94423448D01*
X132227991Y-94452778D01*
X132227989Y-94452779D01*
X132071467Y-94536443D01*
X132014853Y-94553616D01*
X131901627Y-94587963D01*
X131835443Y-94594481D01*
X131769260Y-94601000D01*
X131430740Y-94601000D01*
X131364557Y-94594481D01*
X131298373Y-94587963D01*
X131185147Y-94553616D01*
X131128533Y-94536443D01*
X130972011Y-94452779D01*
X130972009Y-94452778D01*
X130936271Y-94423448D01*
X130834814Y-94340186D01*
X130751552Y-94238729D01*
X130722222Y-94202991D01*
X130712652Y-94185087D01*
X130638557Y-94046467D01*
X130621384Y-93989853D01*
X130587037Y-93876627D01*
X130569641Y-93700000D01*
X130587037Y-93523373D01*
X130638557Y-93353534D01*
X130638557Y-93353533D01*
X130722221Y-93197011D01*
X130722222Y-93197009D01*
X130751552Y-93161271D01*
X130834814Y-93059814D01*
X130936271Y-92976552D01*
X130972009Y-92947222D01*
X130989913Y-92937652D01*
X131128533Y-92863557D01*
X131185147Y-92846384D01*
X131298373Y-92812037D01*
X131364557Y-92805519D01*
X131430740Y-92799000D01*
X131769260Y-92799000D01*
X131835443Y-92805519D01*
X131835443Y-92805519D01*
G37*
G36*
X146866951Y-91738075D02*
X146906291Y-91745900D01*
X146980405Y-91776599D01*
X147047107Y-91821168D01*
X147103832Y-91877893D01*
X147148401Y-91944595D01*
X147179100Y-92018709D01*
X147194750Y-92097389D01*
X147194750Y-92177611D01*
X147179100Y-92256291D01*
X147148401Y-92330405D01*
X147103832Y-92397107D01*
X147047107Y-92453832D01*
X146980405Y-92498401D01*
X146906291Y-92529100D01*
X146866951Y-92536925D01*
X146827612Y-92544750D01*
X146747388Y-92544750D01*
X146708049Y-92536925D01*
X146668709Y-92529100D01*
X146594595Y-92498401D01*
X146527893Y-92453832D01*
X146471168Y-92397107D01*
X146426599Y-92330405D01*
X146395900Y-92256291D01*
X146380250Y-92177611D01*
X146380250Y-92097389D01*
X146395900Y-92018709D01*
X146426599Y-91944595D01*
X146471168Y-91877893D01*
X146527893Y-91821168D01*
X146594595Y-91776599D01*
X146668709Y-91745900D01*
X146708049Y-91738075D01*
X146747388Y-91730250D01*
X146827612Y-91730250D01*
X146866951Y-91738075D01*
X146866951Y-91738075D01*
G37*
G36*
X149716951Y-91738075D02*
X149756291Y-91745900D01*
X149830405Y-91776599D01*
X149897107Y-91821168D01*
X149953832Y-91877893D01*
X149998401Y-91944595D01*
X150029100Y-92018709D01*
X150044750Y-92097389D01*
X150044750Y-92177611D01*
X150029100Y-92256291D01*
X149998401Y-92330405D01*
X149953832Y-92397107D01*
X149897107Y-92453832D01*
X149830405Y-92498401D01*
X149756291Y-92529100D01*
X149716951Y-92536925D01*
X149677612Y-92544750D01*
X149597388Y-92544750D01*
X149558049Y-92536925D01*
X149518709Y-92529100D01*
X149444595Y-92498401D01*
X149377893Y-92453832D01*
X149321168Y-92397107D01*
X149276599Y-92330405D01*
X149245900Y-92256291D01*
X149230250Y-92177611D01*
X149230250Y-92097389D01*
X149245900Y-92018709D01*
X149276599Y-91944595D01*
X149321168Y-91877893D01*
X149377893Y-91821168D01*
X149444595Y-91776599D01*
X149518709Y-91745900D01*
X149558049Y-91738075D01*
X149597388Y-91730250D01*
X149677612Y-91730250D01*
X149716951Y-91738075D01*
X149716951Y-91738075D01*
G37*
G36*
X148291951Y-91738075D02*
X148331291Y-91745900D01*
X148405405Y-91776599D01*
X148472107Y-91821168D01*
X148528832Y-91877893D01*
X148573401Y-91944595D01*
X148604100Y-92018709D01*
X148619750Y-92097389D01*
X148619750Y-92177611D01*
X148604100Y-92256291D01*
X148573401Y-92330405D01*
X148528832Y-92397107D01*
X148472107Y-92453832D01*
X148405405Y-92498401D01*
X148331291Y-92529100D01*
X148291951Y-92536925D01*
X148252612Y-92544750D01*
X148172388Y-92544750D01*
X148133049Y-92536925D01*
X148093709Y-92529100D01*
X148019595Y-92498401D01*
X147952893Y-92453832D01*
X147896168Y-92397107D01*
X147851599Y-92330405D01*
X147820900Y-92256291D01*
X147805250Y-92177611D01*
X147805250Y-92097389D01*
X147820900Y-92018709D01*
X147851599Y-91944595D01*
X147896168Y-91877893D01*
X147952893Y-91821168D01*
X148019595Y-91776599D01*
X148093709Y-91745900D01*
X148133049Y-91738075D01*
X148172388Y-91730250D01*
X148252612Y-91730250D01*
X148291951Y-91738075D01*
X148291951Y-91738075D01*
G37*
G36*
X145441951Y-91738075D02*
X145481291Y-91745900D01*
X145555405Y-91776599D01*
X145622107Y-91821168D01*
X145678832Y-91877893D01*
X145723401Y-91944595D01*
X145754100Y-92018709D01*
X145769750Y-92097389D01*
X145769750Y-92177611D01*
X145754100Y-92256291D01*
X145723401Y-92330405D01*
X145678832Y-92397107D01*
X145622107Y-92453832D01*
X145555405Y-92498401D01*
X145481291Y-92529100D01*
X145441951Y-92536925D01*
X145402612Y-92544750D01*
X145322388Y-92544750D01*
X145283049Y-92536925D01*
X145243709Y-92529100D01*
X145169595Y-92498401D01*
X145102893Y-92453832D01*
X145046168Y-92397107D01*
X145001599Y-92330405D01*
X144970900Y-92256291D01*
X144955250Y-92177611D01*
X144955250Y-92097389D01*
X144970900Y-92018709D01*
X145001599Y-91944595D01*
X145046168Y-91877893D01*
X145102893Y-91821168D01*
X145169595Y-91776599D01*
X145243709Y-91745900D01*
X145283049Y-91738075D01*
X145322388Y-91730250D01*
X145402612Y-91730250D01*
X145441951Y-91738075D01*
X145441951Y-91738075D01*
G37*
G36*
X131832716Y-90305250D02*
X131901627Y-90312037D01*
X132014853Y-90346384D01*
X132071467Y-90363557D01*
X132210087Y-90437652D01*
X132227991Y-90447222D01*
X132263729Y-90476552D01*
X132365186Y-90559814D01*
X132448448Y-90661271D01*
X132477778Y-90697009D01*
X132477779Y-90697011D01*
X132561443Y-90853533D01*
X132561443Y-90853534D01*
X132612963Y-91023373D01*
X132630359Y-91200000D01*
X132612963Y-91376627D01*
X132578616Y-91489853D01*
X132561443Y-91546467D01*
X132487348Y-91685087D01*
X132477778Y-91702991D01*
X132455407Y-91730250D01*
X132365186Y-91840186D01*
X132263729Y-91923448D01*
X132227991Y-91952778D01*
X132227989Y-91952779D01*
X132071467Y-92036443D01*
X132014853Y-92053616D01*
X131901627Y-92087963D01*
X131835443Y-92094481D01*
X131769260Y-92101000D01*
X131430740Y-92101000D01*
X131364557Y-92094481D01*
X131298373Y-92087963D01*
X131185147Y-92053616D01*
X131128533Y-92036443D01*
X130972011Y-91952779D01*
X130972009Y-91952778D01*
X130936271Y-91923448D01*
X130834814Y-91840186D01*
X130744593Y-91730250D01*
X130722222Y-91702991D01*
X130712652Y-91685087D01*
X130638557Y-91546467D01*
X130621384Y-91489853D01*
X130587037Y-91376627D01*
X130569641Y-91200000D01*
X130587037Y-91023373D01*
X130638557Y-90853534D01*
X130638557Y-90853533D01*
X130722221Y-90697011D01*
X130722222Y-90697009D01*
X130751552Y-90661271D01*
X130834814Y-90559814D01*
X130936271Y-90476552D01*
X130972009Y-90447222D01*
X130989913Y-90437652D01*
X131128533Y-90363557D01*
X131185147Y-90346384D01*
X131298373Y-90312037D01*
X131367284Y-90305250D01*
X131430740Y-90299000D01*
X131769260Y-90299000D01*
X131832716Y-90305250D01*
X131832716Y-90305250D01*
G37*
G36*
X145441951Y-90313075D02*
X145481291Y-90320900D01*
X145555405Y-90351599D01*
X145622107Y-90396168D01*
X145678832Y-90452893D01*
X145723401Y-90519595D01*
X145754100Y-90593709D01*
X145769750Y-90672389D01*
X145769750Y-90752611D01*
X145754100Y-90831291D01*
X145723401Y-90905405D01*
X145678832Y-90972107D01*
X145622107Y-91028832D01*
X145555405Y-91073401D01*
X145481291Y-91104100D01*
X145441951Y-91111925D01*
X145402612Y-91119750D01*
X145322388Y-91119750D01*
X145283049Y-91111925D01*
X145243709Y-91104100D01*
X145169595Y-91073401D01*
X145102893Y-91028832D01*
X145046168Y-90972107D01*
X145001599Y-90905405D01*
X144970900Y-90831291D01*
X144955250Y-90752611D01*
X144955250Y-90672389D01*
X144970900Y-90593709D01*
X145001599Y-90519595D01*
X145046168Y-90452893D01*
X145102893Y-90396168D01*
X145169595Y-90351599D01*
X145243709Y-90320900D01*
X145283049Y-90313075D01*
X145322388Y-90305250D01*
X145402612Y-90305250D01*
X145441951Y-90313075D01*
X145441951Y-90313075D01*
G37*
G36*
X146866951Y-90313075D02*
X146906291Y-90320900D01*
X146980405Y-90351599D01*
X147047107Y-90396168D01*
X147103832Y-90452893D01*
X147148401Y-90519595D01*
X147179100Y-90593709D01*
X147194750Y-90672389D01*
X147194750Y-90752611D01*
X147179100Y-90831291D01*
X147148401Y-90905405D01*
X147103832Y-90972107D01*
X147047107Y-91028832D01*
X146980405Y-91073401D01*
X146906291Y-91104100D01*
X146866951Y-91111925D01*
X146827612Y-91119750D01*
X146747388Y-91119750D01*
X146708049Y-91111925D01*
X146668709Y-91104100D01*
X146594595Y-91073401D01*
X146527893Y-91028832D01*
X146471168Y-90972107D01*
X146426599Y-90905405D01*
X146395900Y-90831291D01*
X146380250Y-90752611D01*
X146380250Y-90672389D01*
X146395900Y-90593709D01*
X146426599Y-90519595D01*
X146471168Y-90452893D01*
X146527893Y-90396168D01*
X146594595Y-90351599D01*
X146668709Y-90320900D01*
X146708049Y-90313075D01*
X146747388Y-90305250D01*
X146827612Y-90305250D01*
X146866951Y-90313075D01*
X146866951Y-90313075D01*
G37*
G36*
X148291951Y-90313075D02*
X148331291Y-90320900D01*
X148405405Y-90351599D01*
X148472107Y-90396168D01*
X148528832Y-90452893D01*
X148573401Y-90519595D01*
X148604100Y-90593709D01*
X148619750Y-90672389D01*
X148619750Y-90752611D01*
X148604100Y-90831291D01*
X148573401Y-90905405D01*
X148528832Y-90972107D01*
X148472107Y-91028832D01*
X148405405Y-91073401D01*
X148331291Y-91104100D01*
X148291951Y-91111925D01*
X148252612Y-91119750D01*
X148172388Y-91119750D01*
X148133049Y-91111925D01*
X148093709Y-91104100D01*
X148019595Y-91073401D01*
X147952893Y-91028832D01*
X147896168Y-90972107D01*
X147851599Y-90905405D01*
X147820900Y-90831291D01*
X147805250Y-90752611D01*
X147805250Y-90672389D01*
X147820900Y-90593709D01*
X147851599Y-90519595D01*
X147896168Y-90452893D01*
X147952893Y-90396168D01*
X148019595Y-90351599D01*
X148093709Y-90320900D01*
X148133049Y-90313075D01*
X148172388Y-90305250D01*
X148252612Y-90305250D01*
X148291951Y-90313075D01*
X148291951Y-90313075D01*
G37*
G36*
X149716951Y-90313075D02*
X149756291Y-90320900D01*
X149830405Y-90351599D01*
X149897107Y-90396168D01*
X149953832Y-90452893D01*
X149998401Y-90519595D01*
X150029100Y-90593709D01*
X150044750Y-90672389D01*
X150044750Y-90752611D01*
X150029100Y-90831291D01*
X149998401Y-90905405D01*
X149953832Y-90972107D01*
X149897107Y-91028832D01*
X149830405Y-91073401D01*
X149756291Y-91104100D01*
X149716951Y-91111925D01*
X149677612Y-91119750D01*
X149597388Y-91119750D01*
X149558049Y-91111925D01*
X149518709Y-91104100D01*
X149444595Y-91073401D01*
X149377893Y-91028832D01*
X149321168Y-90972107D01*
X149276599Y-90905405D01*
X149245900Y-90831291D01*
X149230250Y-90752611D01*
X149230250Y-90672389D01*
X149245900Y-90593709D01*
X149276599Y-90519595D01*
X149321168Y-90452893D01*
X149377893Y-90396168D01*
X149444595Y-90351599D01*
X149518709Y-90320900D01*
X149558049Y-90313075D01*
X149597388Y-90305250D01*
X149677612Y-90305250D01*
X149716951Y-90313075D01*
X149716951Y-90313075D01*
G37*
G36*
X149716951Y-88888075D02*
X149756291Y-88895900D01*
X149830405Y-88926599D01*
X149897107Y-88971168D01*
X149953832Y-89027893D01*
X149998401Y-89094595D01*
X150029100Y-89168709D01*
X150044750Y-89247389D01*
X150044750Y-89327611D01*
X150029100Y-89406291D01*
X149998401Y-89480405D01*
X149953832Y-89547107D01*
X149897107Y-89603832D01*
X149830405Y-89648401D01*
X149756291Y-89679100D01*
X149716951Y-89686925D01*
X149677612Y-89694750D01*
X149597388Y-89694750D01*
X149558049Y-89686925D01*
X149518709Y-89679100D01*
X149444595Y-89648401D01*
X149377893Y-89603832D01*
X149321168Y-89547107D01*
X149276599Y-89480405D01*
X149245900Y-89406291D01*
X149230250Y-89327611D01*
X149230250Y-89247389D01*
X149245900Y-89168709D01*
X149276599Y-89094595D01*
X149321168Y-89027893D01*
X149377893Y-88971168D01*
X149444595Y-88926599D01*
X149518709Y-88895900D01*
X149558049Y-88888075D01*
X149597388Y-88880250D01*
X149677612Y-88880250D01*
X149716951Y-88888075D01*
X149716951Y-88888075D01*
G37*
G36*
X145441951Y-88888075D02*
X145481291Y-88895900D01*
X145555405Y-88926599D01*
X145622107Y-88971168D01*
X145678832Y-89027893D01*
X145723401Y-89094595D01*
X145754100Y-89168709D01*
X145769750Y-89247389D01*
X145769750Y-89327611D01*
X145754100Y-89406291D01*
X145723401Y-89480405D01*
X145678832Y-89547107D01*
X145622107Y-89603832D01*
X145555405Y-89648401D01*
X145481291Y-89679100D01*
X145441951Y-89686925D01*
X145402612Y-89694750D01*
X145322388Y-89694750D01*
X145283049Y-89686925D01*
X145243709Y-89679100D01*
X145169595Y-89648401D01*
X145102893Y-89603832D01*
X145046168Y-89547107D01*
X145001599Y-89480405D01*
X144970900Y-89406291D01*
X144955250Y-89327611D01*
X144955250Y-89247389D01*
X144970900Y-89168709D01*
X145001599Y-89094595D01*
X145046168Y-89027893D01*
X145102893Y-88971168D01*
X145169595Y-88926599D01*
X145243709Y-88895900D01*
X145283049Y-88888075D01*
X145322388Y-88880250D01*
X145402612Y-88880250D01*
X145441951Y-88888075D01*
X145441951Y-88888075D01*
G37*
G36*
X148291951Y-88888075D02*
X148331291Y-88895900D01*
X148405405Y-88926599D01*
X148472107Y-88971168D01*
X148528832Y-89027893D01*
X148573401Y-89094595D01*
X148604100Y-89168709D01*
X148619750Y-89247389D01*
X148619750Y-89327611D01*
X148604100Y-89406291D01*
X148573401Y-89480405D01*
X148528832Y-89547107D01*
X148472107Y-89603832D01*
X148405405Y-89648401D01*
X148331291Y-89679100D01*
X148291951Y-89686925D01*
X148252612Y-89694750D01*
X148172388Y-89694750D01*
X148133049Y-89686925D01*
X148093709Y-89679100D01*
X148019595Y-89648401D01*
X147952893Y-89603832D01*
X147896168Y-89547107D01*
X147851599Y-89480405D01*
X147820900Y-89406291D01*
X147805250Y-89327611D01*
X147805250Y-89247389D01*
X147820900Y-89168709D01*
X147851599Y-89094595D01*
X147896168Y-89027893D01*
X147952893Y-88971168D01*
X148019595Y-88926599D01*
X148093709Y-88895900D01*
X148133049Y-88888075D01*
X148172388Y-88880250D01*
X148252612Y-88880250D01*
X148291951Y-88888075D01*
X148291951Y-88888075D01*
G37*
G36*
X146866951Y-88888075D02*
X146906291Y-88895900D01*
X146980405Y-88926599D01*
X147047107Y-88971168D01*
X147103832Y-89027893D01*
X147148401Y-89094595D01*
X147179100Y-89168709D01*
X147194750Y-89247389D01*
X147194750Y-89327611D01*
X147179100Y-89406291D01*
X147148401Y-89480405D01*
X147103832Y-89547107D01*
X147047107Y-89603832D01*
X146980405Y-89648401D01*
X146906291Y-89679100D01*
X146866951Y-89686925D01*
X146827612Y-89694750D01*
X146747388Y-89694750D01*
X146708049Y-89686925D01*
X146668709Y-89679100D01*
X146594595Y-89648401D01*
X146527893Y-89603832D01*
X146471168Y-89547107D01*
X146426599Y-89480405D01*
X146395900Y-89406291D01*
X146380250Y-89327611D01*
X146380250Y-89247389D01*
X146395900Y-89168709D01*
X146426599Y-89094595D01*
X146471168Y-89027893D01*
X146527893Y-88971168D01*
X146594595Y-88926599D01*
X146668709Y-88895900D01*
X146708049Y-88888075D01*
X146747388Y-88880250D01*
X146827612Y-88880250D01*
X146866951Y-88888075D01*
X146866951Y-88888075D01*
G37*
G36*
X131835443Y-87805519D02*
X131901627Y-87812037D01*
X132014853Y-87846384D01*
X132071467Y-87863557D01*
X132210087Y-87937652D01*
X132227991Y-87947222D01*
X132263729Y-87976552D01*
X132365186Y-88059814D01*
X132448448Y-88161271D01*
X132477778Y-88197009D01*
X132477779Y-88197011D01*
X132561443Y-88353533D01*
X132561443Y-88353534D01*
X132612963Y-88523373D01*
X132630359Y-88700000D01*
X132612963Y-88876627D01*
X132597804Y-88926599D01*
X132561443Y-89046467D01*
X132496102Y-89168709D01*
X132477778Y-89202991D01*
X132448448Y-89238729D01*
X132365186Y-89340186D01*
X132263729Y-89423448D01*
X132227991Y-89452778D01*
X132227989Y-89452779D01*
X132071467Y-89536443D01*
X132014853Y-89553616D01*
X131901627Y-89587963D01*
X131835443Y-89594481D01*
X131769260Y-89601000D01*
X131430740Y-89601000D01*
X131364557Y-89594481D01*
X131298373Y-89587963D01*
X131185147Y-89553616D01*
X131128533Y-89536443D01*
X130972011Y-89452779D01*
X130972009Y-89452778D01*
X130936271Y-89423448D01*
X130834814Y-89340186D01*
X130751552Y-89238729D01*
X130722222Y-89202991D01*
X130703898Y-89168709D01*
X130638557Y-89046467D01*
X130602196Y-88926599D01*
X130587037Y-88876627D01*
X130569641Y-88700000D01*
X130587037Y-88523373D01*
X130638557Y-88353534D01*
X130638557Y-88353533D01*
X130722221Y-88197011D01*
X130722222Y-88197009D01*
X130751552Y-88161271D01*
X130834814Y-88059814D01*
X130936271Y-87976552D01*
X130972009Y-87947222D01*
X130989913Y-87937652D01*
X131128533Y-87863557D01*
X131185147Y-87846384D01*
X131298373Y-87812037D01*
X131364557Y-87805519D01*
X131430740Y-87799000D01*
X131769260Y-87799000D01*
X131835443Y-87805519D01*
X131835443Y-87805519D01*
G37*
G36*
X149716951Y-87463075D02*
X149756291Y-87470900D01*
X149830405Y-87501599D01*
X149897107Y-87546168D01*
X149953832Y-87602893D01*
X149998401Y-87669595D01*
X150029100Y-87743709D01*
X150044750Y-87822389D01*
X150044750Y-87902611D01*
X150029100Y-87981291D01*
X149998401Y-88055405D01*
X149953832Y-88122107D01*
X149897107Y-88178832D01*
X149830405Y-88223401D01*
X149756291Y-88254100D01*
X149716951Y-88261925D01*
X149677612Y-88269750D01*
X149597388Y-88269750D01*
X149558049Y-88261925D01*
X149518709Y-88254100D01*
X149444595Y-88223401D01*
X149377893Y-88178832D01*
X149321168Y-88122107D01*
X149276599Y-88055405D01*
X149245900Y-87981291D01*
X149230250Y-87902611D01*
X149230250Y-87822389D01*
X149245900Y-87743709D01*
X149276599Y-87669595D01*
X149321168Y-87602893D01*
X149377893Y-87546168D01*
X149444595Y-87501599D01*
X149518709Y-87470900D01*
X149558049Y-87463075D01*
X149597388Y-87455250D01*
X149677612Y-87455250D01*
X149716951Y-87463075D01*
X149716951Y-87463075D01*
G37*
G36*
X145441951Y-87463075D02*
X145481291Y-87470900D01*
X145555405Y-87501599D01*
X145622107Y-87546168D01*
X145678832Y-87602893D01*
X145723401Y-87669595D01*
X145754100Y-87743709D01*
X145769750Y-87822389D01*
X145769750Y-87902611D01*
X145754100Y-87981291D01*
X145723401Y-88055405D01*
X145678832Y-88122107D01*
X145622107Y-88178832D01*
X145555405Y-88223401D01*
X145481291Y-88254100D01*
X145441951Y-88261925D01*
X145402612Y-88269750D01*
X145322388Y-88269750D01*
X145283049Y-88261925D01*
X145243709Y-88254100D01*
X145169595Y-88223401D01*
X145102893Y-88178832D01*
X145046168Y-88122107D01*
X145001599Y-88055405D01*
X144970900Y-87981291D01*
X144955250Y-87902611D01*
X144955250Y-87822389D01*
X144970900Y-87743709D01*
X145001599Y-87669595D01*
X145046168Y-87602893D01*
X145102893Y-87546168D01*
X145169595Y-87501599D01*
X145243709Y-87470900D01*
X145283049Y-87463075D01*
X145322388Y-87455250D01*
X145402612Y-87455250D01*
X145441951Y-87463075D01*
X145441951Y-87463075D01*
G37*
G36*
X146866951Y-87463075D02*
X146906291Y-87470900D01*
X146980405Y-87501599D01*
X147047107Y-87546168D01*
X147103832Y-87602893D01*
X147148401Y-87669595D01*
X147179100Y-87743709D01*
X147194750Y-87822389D01*
X147194750Y-87902611D01*
X147179100Y-87981291D01*
X147148401Y-88055405D01*
X147103832Y-88122107D01*
X147047107Y-88178832D01*
X146980405Y-88223401D01*
X146906291Y-88254100D01*
X146866951Y-88261925D01*
X146827612Y-88269750D01*
X146747388Y-88269750D01*
X146708049Y-88261925D01*
X146668709Y-88254100D01*
X146594595Y-88223401D01*
X146527893Y-88178832D01*
X146471168Y-88122107D01*
X146426599Y-88055405D01*
X146395900Y-87981291D01*
X146380250Y-87902611D01*
X146380250Y-87822389D01*
X146395900Y-87743709D01*
X146426599Y-87669595D01*
X146471168Y-87602893D01*
X146527893Y-87546168D01*
X146594595Y-87501599D01*
X146668709Y-87470900D01*
X146708049Y-87463075D01*
X146747388Y-87455250D01*
X146827612Y-87455250D01*
X146866951Y-87463075D01*
X146866951Y-87463075D01*
G37*
G36*
X148291951Y-87463075D02*
X148331291Y-87470900D01*
X148405405Y-87501599D01*
X148472107Y-87546168D01*
X148528832Y-87602893D01*
X148573401Y-87669595D01*
X148604100Y-87743709D01*
X148619750Y-87822389D01*
X148619750Y-87902611D01*
X148604100Y-87981291D01*
X148573401Y-88055405D01*
X148528832Y-88122107D01*
X148472107Y-88178832D01*
X148405405Y-88223401D01*
X148331291Y-88254100D01*
X148291951Y-88261925D01*
X148252612Y-88269750D01*
X148172388Y-88269750D01*
X148133049Y-88261925D01*
X148093709Y-88254100D01*
X148019595Y-88223401D01*
X147952893Y-88178832D01*
X147896168Y-88122107D01*
X147851599Y-88055405D01*
X147820900Y-87981291D01*
X147805250Y-87902611D01*
X147805250Y-87822389D01*
X147820900Y-87743709D01*
X147851599Y-87669595D01*
X147896168Y-87602893D01*
X147952893Y-87546168D01*
X148019595Y-87501599D01*
X148093709Y-87470900D01*
X148133049Y-87463075D01*
X148172388Y-87455250D01*
X148252612Y-87455250D01*
X148291951Y-87463075D01*
X148291951Y-87463075D01*
G37*
G36*
X132483600Y-85302989D02*
X132516649Y-85313014D01*
X132547106Y-85329294D01*
X132573799Y-85351201D01*
X132595706Y-85377894D01*
X132611986Y-85408351D01*
X132622011Y-85441400D01*
X132626000Y-85481904D01*
X132626000Y-86918096D01*
X132622011Y-86958600D01*
X132611986Y-86991649D01*
X132595706Y-87022106D01*
X132573799Y-87048799D01*
X132547106Y-87070706D01*
X132516649Y-87086986D01*
X132483600Y-87097011D01*
X132443096Y-87101000D01*
X130756904Y-87101000D01*
X130716400Y-87097011D01*
X130683351Y-87086986D01*
X130652894Y-87070706D01*
X130626201Y-87048799D01*
X130604294Y-87022106D01*
X130588014Y-86991649D01*
X130577989Y-86958600D01*
X130574000Y-86918096D01*
X130574000Y-85481904D01*
X130577989Y-85441400D01*
X130588014Y-85408351D01*
X130604294Y-85377894D01*
X130626201Y-85351201D01*
X130652894Y-85329294D01*
X130683351Y-85313014D01*
X130716400Y-85302989D01*
X130756904Y-85299000D01*
X132443096Y-85299000D01*
X132483600Y-85302989D01*
X132483600Y-85302989D01*
G37*
G36*
X122875256Y-78391298D02*
X122981579Y-78412447D01*
X123282042Y-78536903D01*
X123366992Y-78593665D01*
X123552454Y-78717587D01*
X123782413Y-78947546D01*
X123782415Y-78947549D01*
X123888443Y-79106230D01*
X123963098Y-79217960D01*
X123999550Y-79305963D01*
X124087553Y-79518421D01*
X124151000Y-79837391D01*
X124151000Y-80162609D01*
X124087553Y-80481579D01*
X123963097Y-80782042D01*
X123903325Y-80871497D01*
X123782413Y-81052454D01*
X123552454Y-81282413D01*
X123552451Y-81282415D01*
X123282042Y-81463097D01*
X122981579Y-81587553D01*
X122875256Y-81608702D01*
X122662611Y-81651000D01*
X122337389Y-81651000D01*
X122124744Y-81608702D01*
X122018421Y-81587553D01*
X121717958Y-81463097D01*
X121447549Y-81282415D01*
X121447546Y-81282413D01*
X121217587Y-81052454D01*
X121096675Y-80871497D01*
X121036903Y-80782042D01*
X120912447Y-80481579D01*
X120849000Y-80162609D01*
X120849000Y-79837391D01*
X120912447Y-79518421D01*
X121000450Y-79305963D01*
X121036902Y-79217960D01*
X121111558Y-79106230D01*
X121217585Y-78947549D01*
X121217587Y-78947546D01*
X121447546Y-78717587D01*
X121633008Y-78593665D01*
X121717958Y-78536903D01*
X122018421Y-78412447D01*
X122124744Y-78391298D01*
X122337389Y-78349000D01*
X122662611Y-78349000D01*
X122875256Y-78391298D01*
X122875256Y-78391298D01*
G37*
G36*
X182875256Y-78391298D02*
X182981579Y-78412447D01*
X183282042Y-78536903D01*
X183366992Y-78593665D01*
X183552454Y-78717587D01*
X183782413Y-78947546D01*
X183782415Y-78947549D01*
X183888443Y-79106230D01*
X183963098Y-79217960D01*
X183999550Y-79305963D01*
X184087553Y-79518421D01*
X184151000Y-79837391D01*
X184151000Y-80162609D01*
X184087553Y-80481579D01*
X183963097Y-80782042D01*
X183903325Y-80871497D01*
X183782413Y-81052454D01*
X183552454Y-81282413D01*
X183552451Y-81282415D01*
X183282042Y-81463097D01*
X182981579Y-81587553D01*
X182875256Y-81608702D01*
X182662611Y-81651000D01*
X182337389Y-81651000D01*
X182124744Y-81608702D01*
X182018421Y-81587553D01*
X181717958Y-81463097D01*
X181447549Y-81282415D01*
X181447546Y-81282413D01*
X181217587Y-81052454D01*
X181096675Y-80871497D01*
X181036903Y-80782042D01*
X180912447Y-80481579D01*
X180849000Y-80162609D01*
X180849000Y-79837391D01*
X180912447Y-79518421D01*
X181000450Y-79305963D01*
X181036902Y-79217960D01*
X181111558Y-79106230D01*
X181217585Y-78947549D01*
X181217587Y-78947546D01*
X181447546Y-78717587D01*
X181633008Y-78593665D01*
X181717958Y-78536903D01*
X182018421Y-78412447D01*
X182124744Y-78391298D01*
X182337389Y-78349000D01*
X182662611Y-78349000D01*
X182875256Y-78391298D01*
X182875256Y-78391298D01*
G37*
G36*
X155887916Y-79882334D02*
X155996492Y-79915271D01*
X156096557Y-79968756D01*
X156184264Y-80040736D01*
X156256244Y-80128444D01*
X156309729Y-80228509D01*
X156342666Y-80337085D01*
X156351000Y-80421703D01*
X156351000Y-80678298D01*
X156342666Y-80762916D01*
X156309729Y-80871492D01*
X156256244Y-80971557D01*
X156184264Y-81059264D01*
X156096556Y-81131244D01*
X155996491Y-81184729D01*
X155887915Y-81217666D01*
X155775000Y-81228787D01*
X155662084Y-81217666D01*
X155553508Y-81184729D01*
X155453443Y-81131244D01*
X155365736Y-81059264D01*
X155293756Y-80971556D01*
X155240271Y-80871491D01*
X155207334Y-80762915D01*
X155199000Y-80678297D01*
X155199000Y-80421702D01*
X155207334Y-80337084D01*
X155240271Y-80228508D01*
X155293757Y-80128443D01*
X155365737Y-80040736D01*
X155453444Y-79968756D01*
X155553509Y-79915271D01*
X155662085Y-79882334D01*
X155775000Y-79871213D01*
X155887916Y-79882334D01*
X155887916Y-79882334D01*
G37*
G36*
X151037916Y-79882334D02*
X151146492Y-79915271D01*
X151246557Y-79968756D01*
X151334264Y-80040736D01*
X151406244Y-80128444D01*
X151459729Y-80228509D01*
X151492666Y-80337085D01*
X151501000Y-80421703D01*
X151501000Y-80678298D01*
X151492666Y-80762916D01*
X151459729Y-80871492D01*
X151406244Y-80971557D01*
X151334264Y-81059264D01*
X151246556Y-81131244D01*
X151146491Y-81184729D01*
X151037915Y-81217666D01*
X150925000Y-81228787D01*
X150812084Y-81217666D01*
X150703508Y-81184729D01*
X150603443Y-81131244D01*
X150515736Y-81059264D01*
X150443756Y-80971556D01*
X150390271Y-80871491D01*
X150357334Y-80762915D01*
X150349000Y-80678297D01*
X150349000Y-80421702D01*
X150357334Y-80337084D01*
X150390271Y-80228508D01*
X150443757Y-80128443D01*
X150515737Y-80040736D01*
X150603444Y-79968756D01*
X150703509Y-79915271D01*
X150812085Y-79882334D01*
X150925000Y-79871213D01*
X151037916Y-79882334D01*
X151037916Y-79882334D01*
G37*
G36*
X164027396Y-77585546D02*
X164200466Y-77657234D01*
X164356230Y-77761312D01*
X164488688Y-77893770D01*
X164592766Y-78049534D01*
X164664454Y-78222604D01*
X164701000Y-78406333D01*
X164701000Y-78593667D01*
X164664454Y-78777396D01*
X164592766Y-78950466D01*
X164488688Y-79106230D01*
X164356230Y-79238688D01*
X164200466Y-79342766D01*
X164027396Y-79414454D01*
X163843667Y-79451000D01*
X163656333Y-79451000D01*
X163472604Y-79414454D01*
X163299534Y-79342766D01*
X163143770Y-79238688D01*
X163011312Y-79106230D01*
X162907234Y-78950466D01*
X162835546Y-78777396D01*
X162799000Y-78593667D01*
X162799000Y-78406333D01*
X162835546Y-78222604D01*
X162907234Y-78049534D01*
X163011312Y-77893770D01*
X163143770Y-77761312D01*
X163299534Y-77657234D01*
X163472604Y-77585546D01*
X163656333Y-77549000D01*
X163843667Y-77549000D01*
X164027396Y-77585546D01*
X164027396Y-77585546D01*
G37*
G36*
X166527396Y-77585546D02*
X166700466Y-77657234D01*
X166856230Y-77761312D01*
X166988688Y-77893770D01*
X167092766Y-78049534D01*
X167164454Y-78222604D01*
X167201000Y-78406333D01*
X167201000Y-78593667D01*
X167164454Y-78777396D01*
X167092766Y-78950466D01*
X166988688Y-79106230D01*
X166856230Y-79238688D01*
X166700466Y-79342766D01*
X166527396Y-79414454D01*
X166343667Y-79451000D01*
X166156333Y-79451000D01*
X165972604Y-79414454D01*
X165799534Y-79342766D01*
X165643770Y-79238688D01*
X165511312Y-79106230D01*
X165407234Y-78950466D01*
X165335546Y-78777396D01*
X165299000Y-78593667D01*
X165299000Y-78406333D01*
X165335546Y-78222604D01*
X165407234Y-78049534D01*
X165511312Y-77893770D01*
X165643770Y-77761312D01*
X165799534Y-77657234D01*
X165972604Y-77585546D01*
X166156333Y-77549000D01*
X166343667Y-77549000D01*
X166527396Y-77585546D01*
X166527396Y-77585546D01*
G37*
G36*
X169027396Y-77585546D02*
X169200466Y-77657234D01*
X169356230Y-77761312D01*
X169488688Y-77893770D01*
X169592766Y-78049534D01*
X169664454Y-78222604D01*
X169701000Y-78406333D01*
X169701000Y-78593667D01*
X169664454Y-78777396D01*
X169592766Y-78950466D01*
X169488688Y-79106230D01*
X169356230Y-79238688D01*
X169200466Y-79342766D01*
X169027396Y-79414454D01*
X168843667Y-79451000D01*
X168656333Y-79451000D01*
X168472604Y-79414454D01*
X168299534Y-79342766D01*
X168143770Y-79238688D01*
X168011312Y-79106230D01*
X167907234Y-78950466D01*
X167835546Y-78777396D01*
X167799000Y-78593667D01*
X167799000Y-78406333D01*
X167835546Y-78222604D01*
X167907234Y-78049534D01*
X168011312Y-77893770D01*
X168143770Y-77761312D01*
X168299534Y-77657234D01*
X168472604Y-77585546D01*
X168656333Y-77549000D01*
X168843667Y-77549000D01*
X169027396Y-77585546D01*
X169027396Y-77585546D01*
G37*
G36*
X171527396Y-77585546D02*
X171700466Y-77657234D01*
X171856230Y-77761312D01*
X171988688Y-77893770D01*
X172092766Y-78049534D01*
X172164454Y-78222604D01*
X172201000Y-78406333D01*
X172201000Y-78593667D01*
X172164454Y-78777396D01*
X172092766Y-78950466D01*
X171988688Y-79106230D01*
X171856230Y-79238688D01*
X171700466Y-79342766D01*
X171527396Y-79414454D01*
X171343667Y-79451000D01*
X171156333Y-79451000D01*
X170972604Y-79414454D01*
X170799534Y-79342766D01*
X170643770Y-79238688D01*
X170511312Y-79106230D01*
X170407234Y-78950466D01*
X170335546Y-78777396D01*
X170299000Y-78593667D01*
X170299000Y-78406333D01*
X170335546Y-78222604D01*
X170407234Y-78049534D01*
X170511312Y-77893770D01*
X170643770Y-77761312D01*
X170799534Y-77657234D01*
X170972604Y-77585546D01*
X171156333Y-77549000D01*
X171343667Y-77549000D01*
X171527396Y-77585546D01*
X171527396Y-77585546D01*
G37*
G36*
X174701000Y-79451000D02*
X172799000Y-79451000D01*
X172799000Y-77549000D01*
X174701000Y-77549000D01*
X174701000Y-79451000D01*
X174701000Y-79451000D01*
G37*
G36*
X150801000Y-78551000D02*
X148599000Y-78551000D01*
X148599000Y-76549000D01*
X150801000Y-76549000D01*
X150801000Y-78551000D01*
X150801000Y-78551000D01*
G37*
G36*
X158101000Y-78551000D02*
X155899000Y-78551000D01*
X155899000Y-76549000D01*
X158101000Y-76549000D01*
X158101000Y-78551000D01*
X158101000Y-78551000D01*
G37*
M02*
