M48
;DRILL file {KiCad (5.0.2)-1} date 2019/10/12 17:33:55
;FORMAT={-:-/ absolute / inch / decimal}
FMAT,2
INCH,TZ
T1C0.0118
T2C0.0140
T3C0.0157
T4C0.0256
T5C0.0325
T6C0.0354
T7C0.0374
T8C0.0433
T9C0.0866
T10C0.1260
%
G90
G05
T1
X4.7244Y-3.3465
X4.7244Y-3.4449
X4.7244Y-3.5433
X4.7244Y-3.6417
X4.7244Y-3.7402
X4.7244Y-4.1339
X4.7244Y-4.2323
X4.7244Y-4.3307
X4.7244Y-4.4291
X4.7244Y-4.5276
X4.7244Y-4.9213
X4.7244Y-5.0197
X4.7244Y-5.1181
X4.7244Y-5.2165
X4.7244Y-5.315
X4.8228Y-3.3465
X4.8228Y-3.4449
X4.8228Y-3.5433
X4.8228Y-3.6417
X4.8228Y-3.7402
X4.8228Y-4.1339
X4.8228Y-4.2323
X4.8228Y-4.2323
X4.8228Y-4.2323
X4.8228Y-4.3307
X4.8228Y-4.3307
X4.8228Y-4.3307
X4.8228Y-4.3307
X4.8228Y-4.3307
X4.8228Y-4.4291
X4.8228Y-4.5276
X4.8228Y-4.9213
X4.8228Y-5.0197
X4.8228Y-5.1181
X4.8228Y-5.2165
X4.8228Y-5.315
X4.9213Y-3.3465
X4.9213Y-5.2165
X4.9213Y-5.315
X5.0197Y-3.0512
X5.0197Y-3.1496
X5.0197Y-3.248
X5.0197Y-3.3465
X5.0197Y-5.315
X5.0197Y-5.4134
X5.0197Y-5.5118
X5.0394Y-3.9665
X5.0492Y-3.5768
X5.0492Y-4.5177
X5.0551Y-3.9252
X5.0689Y-4.0059
X5.0787Y-4.9016
X5.0787Y-4.9902
X5.0984Y-4.2323
X5.0984Y-4.5177
X5.1083Y-4.0551
X5.1102Y-3.5748
X5.1181Y-4.3307
X5.1181Y-5.4134
X5.1181Y-5.5118
X5.128Y-3.6398
X5.1417Y-3.8996
X5.1476Y-3.2087
X5.1476Y-3.2539
X5.1476Y-3.8189
X5.1791Y-3.3209
X5.1969Y-4.3701
X5.1969Y-4.5079
X5.1969Y-4.685
X5.2165Y-4.1339
X5.2165Y-4.2323
X5.2165Y-4.3307
X5.2165Y-5.4134
X5.2165Y-5.5118
X5.2264Y-4.813
X5.2283Y-3.6398
X5.2461Y-4.0827
X5.2559Y-4.5177
X5.2657Y-5.3169
X5.2756Y-4.9665
X5.2776Y-5.0728
X5.2795Y-3.8996
X5.3012Y-4.689
X5.3012Y-4.7736
X5.3051Y-4.0157
X5.315Y-3.0512
X5.315Y-3.1496
X5.315Y-3.3465
X5.315Y-3.4449
X5.315Y-3.5433
X5.315Y-3.6417
X5.315Y-4.1339
X5.315Y-4.2323
X5.315Y-4.3307
X5.315Y-5.4134
X5.315Y-5.5118
X5.3543Y-3.878
X5.3937Y-3.878
X5.4134Y-3.0512
X5.4134Y-3.1496
X5.4134Y-3.5433
X5.4134Y-4.2323
X5.4134Y-4.3307
X5.4134Y-5.4134
X5.4252Y-3.3957
X5.4331Y-3.878
X5.4626Y-3.9469
X5.4665Y-4.002
X5.4685Y-3.75
X5.4705Y-3.8661
X5.4902Y-3.4213
X5.5118Y-3.0512
X5.5118Y-3.1496
X5.5118Y-3.8386
X5.5118Y-4.5276
X5.5118Y-4.626
X5.5118Y-4.7244
X5.5118Y-4.8228
X5.5118Y-5.1181
X5.5374Y-3.1811
X5.5374Y-3.2303
X5.5374Y-3.2795
X5.5374Y-3.3287
X5.5394Y-3.6122
X5.5512Y-3.7894
X5.5512Y-4.0571
X5.5531Y-4.2736
X5.5551Y-4.4134
X5.5807Y-3.376
X5.5807Y-3.6122
X5.5866Y-3.1811
X5.5965Y-3.3287
X5.6102Y-3.0512
X5.6102Y-3.8386
X5.6102Y-3.937
X5.6102Y-4.2323
X5.6102Y-4.3307
X5.6102Y-4.5276
X5.6102Y-4.626
X5.6102Y-4.7244
X5.6102Y-4.8228
X5.6102Y-5.1181
X5.6102Y-5.4134
X5.6102Y-5.5118
X5.6358Y-3.1811
X5.6358Y-3.3287
X5.6398Y-3.7894
X5.6457Y-3.3878
X5.6476Y-3.7028
X5.685Y-3.1811
X5.7087Y-3.0512
X5.7087Y-3.937
X5.7087Y-4.2323
X5.7087Y-4.3307
X5.7087Y-4.5276
X5.7087Y-4.626
X5.7087Y-4.7244
X5.7087Y-4.8228
X5.7087Y-4.9213
X5.7087Y-5.0197
X5.7087Y-5.1181
X5.7087Y-5.5118
X5.7343Y-3.1811
X5.7362Y-4.4075
X5.7382Y-3.75
X5.7461Y-4.002
X5.748Y-4.185
X5.7933Y-3.2992
X5.8031Y-3.1811
X5.8071Y-3.0512
X5.8071Y-4.5276
X5.8071Y-4.626
X5.8071Y-4.7244
X5.8071Y-4.8228
X5.8071Y-5.1181
X5.8071Y-5.315
X5.8071Y-5.4134
X5.8071Y-5.5118
X5.8169Y-3.3378
X5.8228Y-3.8701
X5.8268Y-4.0551
X5.8287Y-4.4193
X5.8425Y-3.1811
X5.8425Y-3.2303
X5.8425Y-3.2697
X5.8425Y-3.2992
X5.8661Y-3.9232
X5.8937Y-3.126
X5.9055Y-3.7894
X5.9055Y-4.2323
X5.9055Y-4.3307
X5.9055Y-4.5276
X5.9055Y-4.626
X5.9055Y-4.7244
X5.9055Y-4.7244
X5.9055Y-4.7244
X5.9055Y-4.8228
X5.9075Y-3.248
X5.9094Y-4.0768
X5.9646Y-3.3268
X5.9646Y-3.3575
X5.9941Y-3.7894
X6.0039Y-4.2323
X6.0039Y-4.3307
X6.0039Y-4.5276
X6.0039Y-4.626
X6.0039Y-4.7244
X6.0039Y-4.8228
X6.0039Y-5.315
X6.0039Y-5.4134
X6.0039Y-5.5118
X6.0098Y-4.1831
X6.0118Y-4.4173
X6.0138Y-4.
X6.0236Y-3.3563
X6.0335Y-3.7992
X6.0335Y-3.8681
X6.0374Y-5.0571
X6.0394Y-5.1201
X6.0433Y-3.6024
X6.0531Y-3.3256
X6.0531Y-3.4874
X6.0543Y-3.3563
X6.0827Y-3.7795
X6.0925Y-4.0571
X6.0939Y-3.3971
X6.094Y-3.4293
X6.0992Y-3.4595
X6.1024Y-3.6122
X6.1024Y-4.3307
X6.1024Y-4.4291
X6.1024Y-4.7244
X6.1024Y-4.8228
X6.1024Y-5.1181
X6.1063Y-5.0551
X6.1142Y-3.2323
X6.1181Y-3.3051
X6.1209Y-3.7795
X6.1516Y-3.7795
X6.1614Y-3.6319
X6.1732Y-3.5295
X6.1811Y-3.7402
X6.1839Y-3.9075
X6.2008Y-4.0413
X6.2008Y-4.3307
X6.2008Y-4.4291
X6.2185Y-3.9291
X6.25Y-3.8091
X6.2598Y-3.9567
X6.2756Y-3.9961
X6.2776Y-4.1043
X6.2776Y-4.2087
X6.2815Y-3.6791
X6.2894Y-3.4547
X6.2894Y-3.5039
X6.2894Y-3.7205
X6.2914Y-3.6174
X6.2992Y-3.0512
X6.3287Y-3.9567
X6.3307Y-3.6378
X6.3386Y-4.7244
X6.3386Y-4.8031
X6.3386Y-4.8819
X6.3386Y-4.9606
X6.3386Y-5.1181
X6.3386Y-5.1969
X6.3386Y-5.2756
X6.3425Y-3.6673
X6.3484Y-3.7717
X6.3681Y-4.0748
X6.378Y-4.5886
X6.3976Y-3.9567
X6.3976Y-4.7244
X6.3976Y-5.6102
X6.4173Y-5.2756
X6.4469Y-3.2087
X6.4961Y-3.3465
X6.4961Y-3.4449
X6.4961Y-3.5433
X6.4961Y-3.6417
X6.4961Y-3.7402
X6.4961Y-3.937
X6.4961Y-4.0354
X6.4961Y-4.1339
X6.4961Y-4.2323
X6.4961Y-5.2756
X6.4961Y-5.6102
X6.5315Y-4.6063
X6.5374Y-4.4291
X6.5748Y-5.3543
X6.5945Y-3.3465
X6.5945Y-3.4449
X6.5945Y-3.5433
X6.5945Y-3.6417
X6.5945Y-3.7402
X6.5945Y-3.937
X6.5945Y-4.0354
X6.5945Y-4.1339
X6.5945Y-4.2323
X6.5945Y-4.3307
X6.5945Y-5.4134
X6.5945Y-5.6102
X6.6496Y-4.6083
X6.6909Y-4.4311
X6.6929Y-3.3465
X6.6929Y-3.4449
X6.6929Y-3.5433
X6.6929Y-3.6417
X6.6929Y-3.7402
X6.6929Y-3.937
X6.6929Y-4.0354
X6.6929Y-4.3307
X6.6929Y-5.4134
X6.6929Y-5.6102
X6.7913Y-3.3465
X6.7913Y-3.4449
X6.7913Y-3.5433
X6.7913Y-3.6417
X6.7913Y-3.7402
X6.7913Y-3.937
X6.7913Y-4.0354
X6.7913Y-4.3307
X6.7913Y-5.4134
X6.7913Y-5.5118
X6.7913Y-5.6102
X6.811Y-5.2362
X6.8898Y-3.3465
X6.8898Y-3.4449
X6.8898Y-3.5433
X6.8898Y-3.6417
X6.8898Y-3.7402
X6.8898Y-3.937
X6.8898Y-4.0354
X6.8898Y-4.3307
X6.8898Y-5.315
X6.8898Y-5.4134
X6.8898Y-5.5118
X6.8898Y-5.6102
X6.9291Y-4.7244
X6.9291Y-4.8031
X6.9882Y-3.0512
X6.9882Y-3.3465
X6.9882Y-3.4449
X6.9882Y-3.5433
X6.9882Y-3.6417
X6.9882Y-3.7402
X6.9882Y-3.937
X6.9882Y-4.0354
X6.9882Y-4.1339
X6.9882Y-4.2323
X6.9882Y-4.3307
X6.9882Y-4.5276
X6.9882Y-5.4134
X6.9882Y-5.5118
X6.9882Y-5.6102
X7.0472Y-4.3996
X7.0866Y-3.3465
X7.0866Y-3.4449
X7.0866Y-3.7402
X7.0866Y-4.1339
X7.0866Y-4.2323
X7.0866Y-4.4291
X7.0866Y-4.5276
X7.185Y-3.3465
X7.185Y-3.4449
X7.185Y-3.7402
X7.185Y-4.1339
X7.185Y-4.2323
X7.185Y-4.4291
X7.185Y-4.5276
X7.2835Y-3.3465
X7.2835Y-3.7402
X7.2835Y-4.1339
X7.2835Y-4.2323
X7.2835Y-4.4291
X7.2835Y-4.5276
X7.3228Y-5.1969
X7.3228Y-5.2756
X7.3228Y-5.3543
T2
X5.7229Y-3.4592
X5.7229Y-3.5153
X5.7229Y-3.5714
X5.7229Y-3.6275
X5.779Y-3.4592
X5.779Y-3.5153
X5.779Y-3.5714
X5.779Y-3.6275
X5.8351Y-3.4592
X5.8351Y-3.5153
X5.8351Y-3.5714
X5.8351Y-3.6275
X5.8912Y-3.4592
X5.8912Y-3.5153
X5.8912Y-3.5714
X5.8912Y-3.6275
T3
X6.7559Y-4.5177
X6.7749Y-4.4718
X6.7749Y-4.5637
X6.8209Y-4.4528
X6.8209Y-4.5827
X6.8668Y-4.4718
X6.8668Y-4.5637
X6.8858Y-4.5177
X6.7559Y-4.1634
X6.7749Y-4.1175
X6.7749Y-4.2093
X6.8209Y-4.0984
X6.8209Y-4.2283
X6.8668Y-4.1175
X6.8668Y-4.2093
X6.8858Y-4.1634
T6
X6.4469Y-3.0906
X6.5453Y-3.0906
X6.6437Y-3.0906
X6.7421Y-3.0906
X6.8406Y-3.0906
T7
X5.1811Y-4.9724
X5.1811Y-5.0709
X5.1811Y-5.1693
X5.1811Y-5.2677
X5.1811Y-3.3937
X5.1811Y-3.4921
X5.1811Y-3.5906
X5.1811Y-3.689
T8
X5.4429Y-5.502
X5.5413Y-5.502
X6.1713Y-5.502
X6.2697Y-5.502
X6.3681Y-5.502
X6.4665Y-5.502
X6.565Y-5.502
X6.6634Y-5.502
T9
X6.8209Y-4.5177
X6.8209Y-4.1634
T10
X7.185Y-5.5118
X4.8228Y-3.937
X4.8228Y-4.7244
X4.8228Y-3.1496
X7.185Y-3.1496
X7.185Y-4.7244
X7.185Y-3.937
X4.8228Y-5.5118
T4
X5.9419Y-3.1752G85X5.9419Y-3.1673
G05
X6.1329Y-3.1752G85X6.1329Y-3.1673
G05
T5
X5.8976Y-3.0664G85X5.8976Y-3.0399
G05
X6.1772Y-3.0664G85X6.1772Y-3.0399
G05
T0
M30
