<?xml version="1.0" standalone="no"?>
 <!DOCTYPE svg PUBLIC "-//W3C//DTD SVG 1.1//EN" 
 "http://www.w3.org/Graphics/SVG/1.1/DTD/svg11.dtd"> 
<svg xmlns="http://www.w3.org/2000/svg" version="1.1" 
    width="29.7002cm" height="21.0007cm" viewBox="0 0 116930 82680 ">
<title>SVG Picture created as PM_Board-F.Paste.svg date 2019/10/03 05:40:52 </title>
  <desc>Picture generated by PCBNEW </desc>
<g style="fill:#000000; fill-opacity:1;stroke:#000000; stroke-opacity:1;
stroke-linecap:round; stroke-linejoin:round; "
 transform="translate(0 0) scale(1 1)">
</g>
<g style="fill:#000000; fill-opacity:0.0; 
stroke:#000000; stroke-width:-0.000393701; stroke-opacity:1; 
stroke-linecap:round; stroke-linejoin:round;">
</g>
<g style="fill:#000000; fill-opacity:0.0; 
stroke:#000000; stroke-width:0; stroke-opacity:1; 
stroke-linecap:round; stroke-linejoin:round;">
</g>
<g style="fill:#000000; fill-opacity:1.0; 
stroke:#000000; stroke-width:0; stroke-opacity:1; 
stroke-linecap:round; stroke-linejoin:round;">
<polyline style="fill-rule:evenodd;"
points="69467,40386
69472,40386
69478,40388
69483,40390
69488,40392
69493,40395
69498,40399
69502,40402
69506,40407
69509,40411
69512,40416
69515,40421
69517,40427
69518,40432
69519,40438
69519,40443
69519,40579
69519,40585
69518,40591
69517,40596
69515,40601
69512,40607
69509,40611
69506,40616
69502,40620
69498,40624
69493,40628
69488,40630
69483,40633
69478,40635
69472,40636
69467,40637
69461,40637
69345,40637
69339,40637
69334,40636
69328,40635
69323,40633
69318,40630
69313,40628
69308,40624
69304,40620
69300,40616
69297,40611
69294,40607
69291,40601
69289,40596
69288,40591
69287,40585
69287,40579
69287,40443
69287,40438
69288,40432
69289,40427
69291,40421
69294,40416
69297,40411
69300,40407
69304,40402
69308,40399
69313,40395
69318,40392
69323,40390
69328,40388
69334,40386
69339,40386
69345,40385
69461,40385
69467,40386
" /> 
<polyline style="fill-rule:evenodd;"
points="69085,40386
69091,40386
69096,40388
69101,40390
69107,40392
69111,40395
69116,40399
69120,40402
69124,40407
69128,40411
69130,40416
69133,40421
69135,40427
69136,40432
69137,40438
69137,40443
69137,40579
69137,40585
69136,40591
69135,40596
69133,40601
69130,40607
69128,40611
69124,40616
69120,40620
69116,40624
69111,40628
69107,40630
69101,40633
69096,40635
69091,40636
69085,40637
69079,40637
68963,40637
68957,40637
68952,40636
68946,40635
68941,40633
68936,40630
68931,40628
68926,40624
68922,40620
68918,40616
68915,40611
68912,40607
68909,40601
68908,40596
68906,40591
68905,40585
68905,40579
68905,40443
68905,40438
68906,40432
68908,40427
68909,40421
68912,40416
68915,40411
68918,40407
68922,40402
68926,40399
68931,40395
68936,40392
68941,40390
68946,40388
68952,40386
68957,40386
68963,40385
69079,40385
69085,40386
" /> 
<polyline style="fill-rule:evenodd;"
points="69085,41173
69091,41174
69096,41175
69101,41177
69107,41180
69111,41183
69116,41186
69120,41190
69124,41194
69128,41199
69130,41203
69133,41209
69135,41214
69136,41219
69137,41225
69137,41231
69137,41367
69137,41372
69136,41378
69135,41383
69133,41389
69130,41394
69128,41399
69124,41403
69120,41408
69116,41412
69111,41415
69107,41418
69101,41420
69096,41422
69091,41424
69085,41424
69079,41425
68963,41425
68957,41424
68952,41424
68946,41422
68941,41420
68936,41418
68931,41415
68926,41412
68922,41408
68918,41403
68915,41399
68912,41394
68909,41389
68908,41383
68906,41378
68905,41372
68905,41367
68905,41231
68905,41225
68906,41219
68908,41214
68909,41209
68912,41203
68915,41199
68918,41194
68922,41190
68926,41186
68931,41183
68936,41180
68941,41177
68946,41175
68952,41174
68957,41173
68963,41173
69079,41173
69085,41173
" /> 
<polyline style="fill-rule:evenodd;"
points="69467,41173
69472,41174
69478,41175
69483,41177
69488,41180
69493,41183
69498,41186
69502,41190
69506,41194
69509,41199
69512,41203
69515,41209
69517,41214
69518,41219
69519,41225
69519,41231
69519,41367
69519,41372
69518,41378
69517,41383
69515,41389
69512,41394
69509,41399
69506,41403
69502,41408
69498,41412
69493,41415
69488,41418
69483,41420
69478,41422
69472,41424
69467,41424
69461,41425
69345,41425
69339,41424
69334,41424
69328,41422
69323,41420
69318,41418
69313,41415
69308,41412
69304,41408
69300,41403
69297,41399
69294,41394
69291,41389
69289,41383
69288,41378
69287,41372
69287,41367
69287,41231
69287,41225
69288,41219
69289,41214
69291,41209
69294,41203
69297,41199
69300,41194
69304,41190
69308,41186
69313,41183
69318,41180
69323,41177
69328,41175
69334,41174
69339,41173
69345,41173
69461,41173
69467,41173
" /> 
<polyline style="fill-rule:evenodd;"
points="70798,41900
70806,41901
70814,41903
70822,41906
70830,41909
70837,41914
70844,41919
70850,41924
70856,41931
70861,41937
70865,41945
70869,41952
70872,41960
70874,41968
70875,41977
70875,41985
70875,42187
70875,42195
70874,42204
70872,42212
70869,42220
70865,42228
70861,42235
70856,42242
70850,42248
70844,42254
70837,42259
70830,42263
70822,42267
70814,42269
70806,42271
70798,42273
70789,42273
70617,42273
70609,42273
70600,42271
70592,42269
70584,42267
70577,42263
70569,42259
70562,42254
70556,42248
70551,42242
70546,42235
70541,42228
70538,42220
70535,42212
70533,42204
70531,42195
70531,42187
70531,41985
70531,41977
70533,41968
70535,41960
70538,41952
70541,41945
70546,41937
70551,41931
70556,41924
70562,41919
70569,41914
70577,41909
70584,41906
70592,41903
70600,41901
70609,41900
70617,41899
70789,41899
70798,41900
" /> 
<polyline style="fill-rule:evenodd;"
points="70178,41900
70186,41901
70194,41903
70202,41906
70210,41909
70217,41914
70224,41919
70230,41924
70236,41931
70241,41937
70245,41945
70249,41952
70252,41960
70254,41968
70255,41977
70255,41985
70255,42187
70255,42195
70254,42204
70252,42212
70249,42220
70245,42228
70241,42235
70236,42242
70230,42248
70224,42254
70217,42259
70210,42263
70202,42267
70194,42269
70186,42271
70178,42273
70169,42273
69997,42273
69989,42273
69980,42271
69972,42269
69964,42267
69956,42263
69949,42259
69942,42254
69936,42248
69930,42242
69925,42235
69921,42228
69917,42220
69915,42212
69913,42204
69911,42195
69911,42187
69911,41985
69911,41977
69913,41968
69915,41960
69917,41952
69921,41945
69925,41937
69930,41931
69936,41924
69942,41919
69949,41914
69956,41909
69964,41906
69972,41903
69980,41901
69989,41900
69997,41899
70169,41899
70178,41900
" /> 
<polyline style="fill-rule:evenodd;"
points="70798,41112
70806,41113
70814,41115
70822,41118
70830,41122
70837,41126
70844,41131
70850,41137
70856,41143
70861,41150
70865,41157
70869,41165
70872,41173
70874,41181
70875,41189
70875,41198
70875,41400
70875,41408
70874,41416
70872,41425
70869,41433
70865,41440
70861,41447
70856,41454
70850,41460
70844,41466
70837,41471
70830,41476
70822,41479
70814,41482
70806,41484
70798,41485
70789,41486
70617,41486
70609,41485
70600,41484
70592,41482
70584,41479
70577,41476
70569,41471
70562,41466
70556,41460
70551,41454
70546,41447
70541,41440
70538,41433
70535,41425
70533,41416
70531,41408
70531,41400
70531,41198
70531,41189
70533,41181
70535,41173
70538,41165
70541,41157
70546,41150
70551,41143
70556,41137
70562,41131
70569,41126
70577,41122
70584,41118
70592,41115
70600,41113
70609,41112
70617,41112
70789,41112
70798,41112
" /> 
<polyline style="fill-rule:evenodd;"
points="70178,41112
70186,41113
70194,41115
70202,41118
70210,41122
70217,41126
70224,41131
70230,41137
70236,41143
70241,41150
70245,41157
70249,41165
70252,41173
70254,41181
70255,41189
70255,41198
70255,41400
70255,41408
70254,41416
70252,41425
70249,41433
70245,41440
70241,41447
70236,41454
70230,41460
70224,41466
70217,41471
70210,41476
70202,41479
70194,41482
70186,41484
70178,41485
70169,41486
69997,41486
69989,41485
69980,41484
69972,41482
69964,41479
69956,41476
69949,41471
69942,41466
69936,41460
69930,41454
69925,41447
69921,41440
69917,41433
69915,41425
69913,41416
69911,41408
69911,41400
69911,41198
69911,41189
69913,41181
69915,41173
69917,41165
69921,41157
69925,41150
69930,41143
69936,41137
69942,41131
69949,41126
69956,41122
69964,41118
69972,41115
69980,41113
69989,41112
69997,41112
70169,41112
70178,41112
" /> 
<polyline style="fill-rule:evenodd;"
points="69085,41960
69091,41961
69096,41963
69101,41965
69107,41967
69111,41970
69116,41973
69120,41977
69124,41981
69128,41986
69130,41991
69133,41996
69135,42001
69136,42007
69137,42013
69137,42018
69137,42154
69137,42160
69136,42165
69135,42171
69133,42176
69130,42181
69128,42186
69124,42191
69120,42195
69116,42199
69111,42202
69107,42205
69101,42208
69096,42210
69091,42211
69085,42212
69079,42212
68963,42212
68957,42212
68952,42211
68946,42210
68941,42208
68936,42205
68931,42202
68926,42199
68922,42195
68918,42191
68915,42186
68912,42181
68909,42176
68908,42171
68906,42165
68905,42160
68905,42154
68905,42018
68905,42013
68906,42007
68908,42001
68909,41996
68912,41991
68915,41986
68918,41981
68922,41977
68926,41973
68931,41970
68936,41967
68941,41965
68946,41963
68952,41961
68957,41960
68963,41960
69079,41960
69085,41960
" /> 
<polyline style="fill-rule:evenodd;"
points="69467,41960
69472,41961
69478,41963
69483,41965
69488,41967
69493,41970
69498,41973
69502,41977
69506,41981
69509,41986
69512,41991
69515,41996
69517,42001
69518,42007
69519,42013
69519,42018
69519,42154
69519,42160
69518,42165
69517,42171
69515,42176
69512,42181
69509,42186
69506,42191
69502,42195
69498,42199
69493,42202
69488,42205
69483,42208
69478,42210
69472,42211
69467,42212
69461,42212
69345,42212
69339,42212
69334,42211
69328,42210
69323,42208
69318,42205
69313,42202
69308,42199
69304,42195
69300,42191
69297,42186
69294,42181
69291,42176
69289,42171
69288,42165
69287,42160
69287,42154
69287,42018
69287,42013
69288,42007
69289,42001
69291,41996
69294,41991
69297,41986
69300,41981
69304,41977
69308,41973
69313,41970
69318,41967
69323,41965
69328,41963
69334,41961
69339,41960
69345,41960
69461,41960
69467,41960
" /> 
<polyline style="fill-rule:evenodd;"
points="70178,40325
70186,40326
70194,40328
70202,40331
70210,40334
70217,40339
70224,40344
70230,40350
70236,40356
70241,40363
70245,40370
70249,40377
70252,40385
70254,40394
70255,40402
70255,40410
70255,40612
70255,40621
70254,40629
70252,40637
70249,40645
70245,40653
70241,40660
70236,40667
70230,40673
70224,40679
70217,40684
70210,40688
70202,40692
70194,40695
70186,40697
70178,40698
70169,40698
69997,40698
69989,40698
69980,40697
69972,40695
69964,40692
69956,40688
69949,40684
69942,40679
69936,40673
69930,40667
69925,40660
69921,40653
69917,40645
69915,40637
69913,40629
69911,40621
69911,40612
69911,40410
69911,40402
69913,40394
69915,40385
69917,40377
69921,40370
69925,40363
69930,40356
69936,40350
69942,40344
69949,40339
69956,40334
69964,40331
69972,40328
69980,40326
69989,40325
69997,40324
70169,40324
70178,40325
" /> 
<polyline style="fill-rule:evenodd;"
points="70798,40325
70806,40326
70814,40328
70822,40331
70830,40334
70837,40339
70844,40344
70850,40350
70856,40356
70861,40363
70865,40370
70869,40377
70872,40385
70874,40394
70875,40402
70875,40410
70875,40612
70875,40621
70874,40629
70872,40637
70869,40645
70865,40653
70861,40660
70856,40667
70850,40673
70844,40679
70837,40684
70830,40688
70822,40692
70814,40695
70806,40697
70798,40698
70789,40698
70617,40698
70609,40698
70600,40697
70592,40695
70584,40692
70577,40688
70569,40684
70562,40679
70556,40673
70551,40667
70546,40660
70541,40653
70538,40645
70535,40637
70533,40629
70531,40621
70531,40612
70531,40410
70531,40402
70533,40394
70535,40385
70538,40377
70541,40370
70546,40363
70551,40356
70556,40350
70562,40344
70569,40339
70577,40334
70584,40331
70592,40328
70600,40326
70609,40325
70617,40324
70789,40324
70798,40325
" /> 
<polyline style="fill-rule:evenodd;"
points="61309,31449
61315,31449
61320,31451
61326,31453
61331,31455
61336,31458
61340,31462
61345,31465
61349,31470
61352,31474
61355,31479
61357,31484
61359,31490
61361,31495
61361,31501
61362,31506
61362,31642
61361,31648
61361,31654
61359,31659
61357,31664
61355,31670
61352,31674
61349,31679
61345,31683
61340,31687
61336,31691
61331,31693
61326,31696
61320,31698
61315,31699
61309,31700
61304,31700
61187,31700
61182,31700
61176,31699
61171,31698
61165,31696
61160,31693
61155,31691
61151,31687
61146,31683
61143,31679
61139,31674
61136,31670
61134,31664
61132,31659
61131,31654
61130,31648
61129,31642
61129,31506
61130,31501
61131,31495
61132,31490
61134,31484
61136,31479
61139,31474
61143,31470
61146,31465
61151,31462
61155,31458
61160,31455
61165,31453
61171,31451
61176,31449
61182,31449
61187,31448
61304,31448
61309,31449
" /> 
<polyline style="fill-rule:evenodd;"
points="61691,31449
61697,31449
61702,31451
61708,31453
61713,31455
61718,31458
61722,31462
61727,31465
61730,31470
61734,31474
61737,31479
61739,31484
61741,31490
61742,31495
61743,31501
61744,31506
61744,31642
61743,31648
61742,31654
61741,31659
61739,31664
61737,31670
61734,31674
61730,31679
61727,31683
61722,31687
61718,31691
61713,31693
61708,31696
61702,31698
61697,31699
61691,31700
61686,31700
61569,31700
61564,31700
61558,31699
61553,31698
61547,31696
61542,31693
61537,31691
61533,31687
61528,31683
61524,31679
61521,31674
61518,31670
61516,31664
61514,31659
61512,31654
61512,31648
61511,31642
61511,31506
61512,31501
61512,31495
61514,31490
61516,31484
61518,31479
61521,31474
61524,31470
61528,31465
61533,31462
61537,31458
61542,31455
61547,31453
61553,31451
61558,31449
61564,31449
61569,31448
61686,31448
61691,31449
" /> 
<polyline style="fill-rule:evenodd;"
points="54699,44464
54705,44465
54710,44467
54716,44468
54721,44471
54726,44474
54730,44477
54734,44481
54738,44485
54742,44490
54745,44495
54747,44500
54749,44505
54750,44511
54751,44516
54751,44522
54751,44638
54751,44644
54750,44650
54749,44655
54747,44661
54745,44666
54742,44671
54738,44675
54734,44679
54730,44683
54726,44687
54721,44689
54716,44692
54710,44694
54705,44695
54699,44696
54693,44696
54558,44696
54552,44696
54546,44695
54541,44694
54535,44692
54530,44689
54525,44687
54521,44683
54517,44679
54513,44675
54509,44671
54506,44666
54504,44661
54502,44655
54501,44650
54500,44644
54500,44638
54500,44522
54500,44516
54501,44511
54502,44505
54504,44500
54506,44495
54509,44490
54513,44485
54517,44481
54521,44477
54525,44474
54530,44471
54535,44468
54541,44467
54546,44465
54552,44464
54558,44464
54693,44464
54699,44464
" /> 
<polyline style="fill-rule:evenodd;"
points="54699,44082
54705,44083
54710,44085
54716,44087
54721,44089
54726,44092
54730,44095
54734,44099
54738,44103
54742,44108
54745,44113
54747,44118
54749,44123
54750,44129
54751,44135
54751,44140
54751,44256
54751,44262
54750,44268
54749,44273
54747,44279
54745,44284
54742,44289
54738,44293
54734,44297
54730,44301
54726,44305
54721,44308
54716,44310
54710,44312
54705,44313
54699,44314
54693,44314
54558,44314
54552,44314
54546,44313
54541,44312
54535,44310
54530,44308
54525,44305
54521,44301
54517,44297
54513,44293
54509,44289
54506,44284
54504,44279
54502,44273
54501,44268
54500,44262
54500,44256
54500,44140
54500,44135
54501,44129
54502,44123
54504,44118
54506,44113
54509,44108
54513,44103
54517,44099
54521,44095
54525,44092
54530,44089
54535,44087
54541,44085
54546,44083
54552,44082
54558,44082
54693,44082
54699,44082
" /> 
<polyline style="fill-rule:evenodd;"
points="51992,42807
51998,42808
52004,42809
52009,42811
52014,42813
52019,42816
52024,42820
52028,42824
52032,42828
52035,42832
52038,42837
52040,42842
52042,42848
52044,42853
52044,42859
52045,42865
52045,43000
52044,43006
52044,43012
52042,43017
52040,43023
52038,43028
52035,43033
52032,43037
52028,43042
52024,43045
52019,43049
52014,43052
52009,43054
52004,43056
51998,43057
51992,43058
51987,43059
51871,43059
51865,43058
51859,43057
51854,43056
51848,43054
51843,43052
51838,43049
51834,43045
51830,43042
51826,43037
51822,43033
51819,43028
51817,43023
51815,43017
51814,43012
51813,43006
51812,43000
51812,42865
51813,42859
51814,42853
51815,42848
51817,42842
51819,42837
51822,42832
51826,42828
51830,42824
51834,42820
51838,42816
51843,42813
51848,42811
51854,42809
51859,42808
51865,42807
51871,42807
51987,42807
51992,42807
" /> 
<polyline style="fill-rule:evenodd;"
points="52374,42807
52380,42808
52385,42809
52391,42811
52396,42813
52401,42816
52405,42820
52410,42824
52413,42828
52417,42832
52420,42837
52422,42842
52424,42848
52426,42853
52426,42859
52427,42865
52427,43000
52426,43006
52426,43012
52424,43017
52422,43023
52420,43028
52417,43033
52413,43037
52410,43042
52405,43045
52401,43049
52396,43052
52391,43054
52385,43056
52380,43057
52374,43058
52369,43059
52252,43059
52247,43058
52241,43057
52236,43056
52230,43054
52225,43052
52220,43049
52216,43045
52211,43042
52208,43037
52204,43033
52201,43028
52199,43023
52197,43017
52195,43012
52195,43006
52194,43000
52194,42865
52195,42859
52195,42853
52197,42848
52199,42842
52201,42837
52204,42832
52208,42828
52211,42824
52216,42820
52220,42816
52225,42813
52230,42811
52236,42809
52241,42808
52247,42807
52252,42807
52369,42807
52374,42807
" /> 
<polyline style="fill-rule:evenodd;"
points="59872,31944
59872,31826
60423,31826
60423,31944
59872,31944
" /> 
<polyline style="fill-rule:evenodd;"
points="59872,32141
59872,32023
60423,32023
60423,32141
59872,32141
" /> 
<polyline style="fill-rule:evenodd;"
points="59872,32338
59872,32220
60423,32220
60423,32338
59872,32338
" /> 
<polyline style="fill-rule:evenodd;"
points="59872,32535
59872,32417
60423,32417
60423,32535
59872,32535
" /> 
<polyline style="fill-rule:evenodd;"
points="59872,32732
59872,32614
60423,32614
60423,32732
59872,32732
" /> 
<polyline style="fill-rule:evenodd;"
points="58139,32732
58139,32614
58691,32614
58691,32732
58139,32732
" /> 
<polyline style="fill-rule:evenodd;"
points="58139,32535
58139,32417
58691,32417
58691,32535
58139,32535
" /> 
<polyline style="fill-rule:evenodd;"
points="58139,32338
58139,32220
58691,32220
58691,32338
58139,32338
" /> 
<polyline style="fill-rule:evenodd;"
points="58139,32141
58139,32023
58691,32023
58691,32141
58139,32141
" /> 
<polyline style="fill-rule:evenodd;"
points="58139,31944
58139,31826
58691,31826
58691,31944
58139,31944
" /> 
<polyline style="fill-rule:evenodd;"
points="61309,32315
61315,32316
61320,32317
61326,32319
61331,32321
61336,32324
61340,32328
61345,32331
61349,32336
61352,32340
61355,32345
61357,32350
61359,32356
61361,32361
61361,32367
61362,32373
61362,32508
61361,32514
61361,32520
61359,32525
61357,32531
61355,32536
61352,32541
61349,32545
61345,32549
61340,32553
61336,32557
61331,32560
61326,32562
61320,32564
61315,32565
61309,32566
61304,32566
61187,32566
61182,32566
61176,32565
61171,32564
61165,32562
61160,32560
61155,32557
61151,32553
61146,32549
61143,32545
61139,32541
61136,32536
61134,32531
61132,32525
61131,32520
61130,32514
61129,32508
61129,32373
61130,32367
61131,32361
61132,32356
61134,32350
61136,32345
61139,32340
61143,32336
61146,32331
61151,32328
61155,32324
61160,32321
61165,32319
61171,32317
61176,32316
61182,32315
61187,32314
61304,32314
61309,32315
" /> 
<polyline style="fill-rule:evenodd;"
points="61691,32315
61697,32316
61702,32317
61708,32319
61713,32321
61718,32324
61722,32328
61727,32331
61730,32336
61734,32340
61737,32345
61739,32350
61741,32356
61742,32361
61743,32367
61744,32373
61744,32508
61743,32514
61742,32520
61741,32525
61739,32531
61737,32536
61734,32541
61730,32545
61727,32549
61722,32553
61718,32557
61713,32560
61708,32562
61702,32564
61697,32565
61691,32566
61686,32566
61569,32566
61564,32566
61558,32565
61553,32564
61547,32562
61542,32560
61537,32557
61533,32553
61528,32549
61524,32545
61521,32541
61518,32536
61516,32531
61514,32525
61512,32520
61512,32514
61511,32508
61511,32373
61512,32367
61512,32361
61514,32356
61516,32350
61518,32345
61521,32340
61524,32336
61528,32331
61533,32328
61537,32324
61542,32321
61547,32319
61553,32317
61558,32316
61564,32315
61569,32314
61686,32314
61691,32315
" /> 
<polyline style="fill-rule:evenodd;"
points="62334,32170
62344,32172
62353,32174
62362,32177
62370,32181
62378,32186
62386,32192
62393,32198
62399,32205
62405,32212
62409,32221
62413,32229
62417,32238
62419,32247
62420,32256
62421,32266
62421,32458
62420,32467
62419,32476
62417,32486
62413,32494
62409,32503
62405,32511
62399,32519
62393,32526
62386,32532
62378,32537
62370,32542
62362,32546
62353,32550
62344,32552
62334,32553
62325,32554
61966,32554
61956,32553
61947,32552
61938,32550
61929,32546
61920,32542
61912,32537
61905,32532
61898,32526
61891,32519
61886,32511
61881,32503
61877,32494
61874,32486
61871,32476
61870,32467
61870,32458
61870,32266
61870,32256
61871,32247
61874,32238
61877,32229
61881,32221
61886,32212
61891,32205
61898,32198
61905,32192
61912,32186
61920,32181
61929,32177
61938,32174
61947,32172
61956,32170
61966,32170
62325,32170
62334,32170
" /> 
<polyline style="fill-rule:evenodd;"
points="62334,31432
62344,31433
62353,31436
62362,31439
62370,31443
62378,31448
62386,31453
62393,31460
62399,31467
62405,31474
62409,31482
62413,31491
62417,31500
62419,31509
62420,31518
62421,31528
62421,31719
62420,31729
62419,31738
62417,31747
62413,31756
62409,31765
62405,31773
62399,31780
62393,31787
62386,31794
62378,31799
62370,31804
62362,31808
62353,31811
62344,31814
62334,31815
62325,31815
61966,31815
61956,31815
61947,31814
61938,31811
61929,31808
61920,31804
61912,31799
61905,31794
61898,31787
61891,31780
61886,31773
61881,31765
61877,31756
61874,31747
61871,31738
61870,31729
61870,31719
61870,31528
61870,31518
61871,31509
61874,31500
61877,31491
61881,31482
61886,31474
61891,31467
61898,31460
61905,31453
61912,31448
61920,31443
61929,31439
61938,31436
61947,31433
61956,31432
61966,31432
62325,31432
62334,31432
" /> 
<polyline style="fill-rule:evenodd;"
points="54010,44082
54016,44083
54021,44085
54027,44087
54032,44089
54037,44092
54041,44095
54045,44099
54049,44103
54053,44108
54056,44113
54058,44118
54060,44123
54061,44129
54062,44135
54062,44140
54062,44256
54062,44262
54061,44268
54060,44273
54058,44279
54056,44284
54053,44289
54049,44293
54045,44297
54041,44301
54037,44305
54032,44308
54027,44310
54021,44312
54016,44313
54010,44314
54004,44314
53869,44314
53863,44314
53857,44313
53852,44312
53846,44310
53841,44308
53836,44305
53832,44301
53828,44297
53824,44293
53820,44289
53817,44284
53815,44279
53813,44273
53812,44268
53811,44262
53811,44256
53811,44140
53811,44135
53812,44129
53813,44123
53815,44118
53817,44113
53820,44108
53824,44103
53828,44099
53832,44095
53836,44092
53841,44089
53846,44087
53852,44085
53857,44083
53863,44082
53869,44082
54004,44082
54010,44082
" /> 
<polyline style="fill-rule:evenodd;"
points="54010,44464
54016,44465
54021,44467
54027,44468
54032,44471
54037,44474
54041,44477
54045,44481
54049,44485
54053,44490
54056,44495
54058,44500
54060,44505
54061,44511
54062,44516
54062,44522
54062,44638
54062,44644
54061,44650
54060,44655
54058,44661
54056,44666
54053,44671
54049,44675
54045,44679
54041,44683
54037,44687
54032,44689
54027,44692
54021,44694
54016,44695
54010,44696
54004,44696
53869,44696
53863,44696
53857,44695
53852,44694
53846,44692
53841,44689
53836,44687
53832,44683
53828,44679
53824,44675
53820,44671
53817,44666
53815,44661
53813,44655
53812,44650
53811,44644
53811,44638
53811,44522
53811,44516
53812,44511
53813,44505
53815,44500
53817,44495
53820,44490
53824,44485
53828,44481
53832,44477
53836,44474
53841,44471
53846,44468
53852,44467
53857,44465
53863,44464
53869,44464
54004,44464
54010,44464
" /> 
<polyline style="fill-rule:evenodd;"
points="60927,31704
60933,31705
60938,31706
60944,31708
60949,31711
60954,31714
60958,31717
60962,31721
60966,31725
60970,31730
60973,31735
60975,31740
60977,31745
60978,31751
60979,31756
60979,31762
60979,31878
60979,31884
60978,31889
60977,31895
60975,31900
60973,31905
60970,31910
60966,31915
60962,31919
60958,31923
60954,31926
60949,31929
60944,31932
60938,31934
60933,31935
60927,31936
60921,31936
60786,31936
60780,31936
60774,31935
60769,31934
60763,31932
60758,31929
60753,31926
60749,31923
60744,31919
60741,31915
60737,31910
60734,31905
60732,31900
60730,31895
60729,31889
60728,31884
60727,31878
60727,31762
60728,31756
60729,31751
60730,31745
60732,31740
60734,31735
60737,31730
60741,31725
60744,31721
60749,31717
60753,31714
60758,31711
60763,31708
60769,31706
60774,31705
60780,31704
60786,31704
60921,31704
60927,31704
" /> 
<polyline style="fill-rule:evenodd;"
points="60927,32086
60933,32087
60938,32088
60944,32090
60949,32093
60954,32096
60958,32099
60962,32103
60966,32107
60970,32112
60973,32116
60975,32122
60977,32127
60978,32132
60979,32138
60979,32144
60979,32260
60979,32266
60978,32271
60977,32277
60975,32282
60973,32287
60970,32292
60966,32297
60962,32301
60958,32305
60954,32308
60949,32311
60944,32314
60938,32316
60933,32317
60927,32318
60921,32318
60786,32318
60780,32318
60774,32317
60769,32316
60763,32314
60758,32311
60753,32308
60749,32305
60744,32301
60741,32297
60737,32292
60734,32287
60732,32282
60730,32277
60729,32271
60728,32266
60727,32260
60727,32144
60728,32138
60729,32132
60730,32127
60732,32122
60734,32116
60737,32112
60741,32107
60744,32103
60749,32099
60753,32096
60758,32093
60763,32090
60769,32088
60774,32087
60780,32086
60786,32086
60921,32086
60927,32086
" /> 
<polyline style="fill-rule:evenodd;"
points="60034,50626
60039,50627
60045,50628
60050,50630
60055,50632
60060,50635
60065,50639
60069,50642
60073,50647
60076,50651
60079,50656
60082,50661
60084,50667
60085,50672
60086,50678
60086,50684
60086,50800
60086,50805
60085,50811
60084,50817
60082,50822
60079,50827
60076,50832
60073,50837
60069,50841
60065,50845
60060,50848
60055,50851
60050,50853
60045,50855
60039,50857
60034,50857
60028,50858
59892,50858
59887,50857
59881,50857
59875,50855
59870,50853
59865,50851
59860,50848
59855,50845
59851,50841
59847,50837
59844,50832
59841,50827
59839,50822
59837,50817
59835,50811
59834,50805
59834,50800
59834,50684
59834,50678
59835,50672
59837,50667
59839,50661
59841,50656
59844,50651
59847,50647
59851,50642
59855,50639
59860,50635
59865,50632
59870,50630
59875,50628
59881,50627
59887,50626
59892,50625
60028,50625
60034,50626
" /> 
<polyline style="fill-rule:evenodd;"
points="60034,50244
60039,50245
60045,50246
60050,50248
60055,50250
60060,50253
60065,50257
60069,50261
60073,50265
60076,50269
60079,50274
60082,50279
60084,50285
60085,50290
60086,50296
60086,50302
60086,50418
60086,50423
60085,50429
60084,50435
60082,50440
60079,50445
60076,50450
60073,50455
60069,50459
60065,50463
60060,50466
60055,50469
60050,50471
60045,50473
60039,50475
60034,50476
60028,50476
59892,50476
59887,50476
59881,50475
59875,50473
59870,50471
59865,50469
59860,50466
59855,50463
59851,50459
59847,50455
59844,50450
59841,50445
59839,50440
59837,50435
59835,50429
59834,50423
59834,50418
59834,50302
59834,50296
59835,50290
59837,50285
59839,50279
59841,50274
59844,50269
59847,50265
59851,50261
59855,50257
59860,50253
59865,50250
59870,50248
59875,50246
59881,50245
59887,50244
59892,50244
60028,50244
60034,50244
" /> 
<polyline style="fill-rule:evenodd;"
points="59404,50244
59409,50245
59415,50246
59420,50248
59425,50250
59430,50253
59435,50257
59439,50261
59443,50265
59446,50269
59449,50274
59452,50279
59454,50285
59455,50290
59456,50296
59456,50302
59456,50418
59456,50423
59455,50429
59454,50435
59452,50440
59449,50445
59446,50450
59443,50455
59439,50459
59435,50463
59430,50466
59425,50469
59420,50471
59415,50473
59409,50475
59404,50476
59398,50476
59262,50476
59257,50476
59251,50475
59245,50473
59240,50471
59235,50469
59230,50466
59225,50463
59221,50459
59217,50455
59214,50450
59211,50445
59209,50440
59207,50435
59205,50429
59205,50423
59204,50418
59204,50302
59205,50296
59205,50290
59207,50285
59209,50279
59211,50274
59214,50269
59217,50265
59221,50261
59225,50257
59230,50253
59235,50250
59240,50248
59245,50246
59251,50245
59257,50244
59262,50244
59398,50244
59404,50244
" /> 
<polyline style="fill-rule:evenodd;"
points="59404,50626
59409,50627
59415,50628
59420,50630
59425,50632
59430,50635
59435,50639
59439,50642
59443,50647
59446,50651
59449,50656
59452,50661
59454,50667
59455,50672
59456,50678
59456,50684
59456,50800
59456,50805
59455,50811
59454,50817
59452,50822
59449,50827
59446,50832
59443,50837
59439,50841
59435,50845
59430,50848
59425,50851
59420,50853
59415,50855
59409,50857
59404,50857
59398,50858
59262,50858
59257,50857
59251,50857
59245,50855
59240,50853
59235,50851
59230,50848
59225,50845
59221,50841
59217,50837
59214,50832
59211,50827
59209,50822
59207,50817
59205,50811
59205,50805
59204,50800
59204,50684
59205,50678
59205,50672
59207,50667
59209,50661
59211,50656
59214,50651
59217,50647
59221,50642
59225,50639
59230,50635
59235,50632
59240,50630
59245,50628
59251,50627
59257,50626
59262,50625
59398,50625
59404,50626
" /> 
<polyline style="fill-rule:evenodd;"
points="54006,49480
54012,49481
54017,49482
54023,49484
54028,49487
54033,49490
54037,49493
54042,49497
54045,49501
54049,49506
54052,49511
54054,49516
54056,49521
54057,49527
54058,49532
54059,49538
54059,49674
54058,49679
54057,49685
54056,49691
54054,49696
54052,49701
54049,49706
54045,49711
54042,49715
54037,49719
54033,49722
54028,49725
54023,49727
54017,49729
54012,49731
54006,49732
54000,49732
53884,49732
53879,49732
53873,49731
53867,49729
53862,49727
53857,49725
53852,49722
53848,49719
53843,49715
53839,49711
53836,49706
53833,49701
53831,49696
53829,49691
53827,49685
53827,49679
53826,49674
53826,49538
53827,49532
53827,49527
53829,49521
53831,49516
53833,49511
53836,49506
53839,49501
53843,49497
53848,49493
53852,49490
53857,49487
53862,49484
53867,49482
53873,49481
53879,49480
53884,49480
54000,49480
54006,49480
" /> 
<polyline style="fill-rule:evenodd;"
points="54388,49480
54394,49481
54399,49482
54405,49484
54410,49487
54415,49490
54419,49493
54423,49497
54427,49501
54431,49506
54434,49511
54436,49516
54438,49521
54439,49527
54440,49532
54440,49538
54440,49674
54440,49679
54439,49685
54438,49691
54436,49696
54434,49701
54431,49706
54427,49711
54423,49715
54419,49719
54415,49722
54410,49725
54405,49727
54399,49729
54394,49731
54388,49732
54382,49732
54266,49732
54261,49732
54255,49731
54249,49729
54244,49727
54239,49725
54234,49722
54229,49719
54225,49715
54221,49711
54218,49706
54215,49701
54213,49696
54211,49691
54209,49685
54208,49679
54208,49674
54208,49538
54208,49532
54209,49527
54211,49521
54213,49516
54215,49511
54218,49506
54221,49501
54225,49497
54229,49493
54234,49490
54239,49487
54244,49484
54249,49482
54255,49481
54261,49480
54266,49480
54382,49480
54388,49480
" /> 
<polyline style="fill-rule:evenodd;"
points="58065,51458
58071,51459
58076,51461
58082,51463
58087,51465
58092,51468
58096,51471
58101,51475
58104,51479
58108,51484
58111,51489
58113,51494
58115,51499
58116,51505
58117,51511
58118,51516
58118,51632
58117,51638
58116,51644
58115,51649
58113,51655
58111,51660
58108,51665
58104,51669
58101,51673
58096,51677
58092,51681
58087,51684
58082,51686
58076,51688
58071,51689
58065,51690
58060,51690
57924,51690
57918,51690
57912,51689
57907,51688
57901,51686
57896,51684
57891,51681
57887,51677
57883,51673
57879,51669
57875,51665
57872,51660
57870,51655
57868,51649
57867,51644
57866,51638
57866,51632
57866,51516
57866,51511
57867,51505
57868,51499
57870,51494
57872,51489
57875,51484
57879,51479
57883,51475
57887,51471
57891,51468
57896,51465
57901,51463
57907,51461
57912,51459
57918,51458
57924,51458
58060,51458
58065,51458
" /> 
<polyline style="fill-rule:evenodd;"
points="58065,51840
58071,51841
58076,51843
58082,51844
58087,51847
58092,51850
58096,51853
58101,51857
58104,51861
58108,51866
58111,51871
58113,51876
58115,51881
58116,51887
58117,51892
58118,51898
58118,52014
58117,52020
58116,52026
58115,52031
58113,52036
58111,52042
58108,52047
58104,52051
58101,52055
58096,52059
58092,52063
58087,52065
58082,52068
58076,52070
58071,52071
58065,52072
58060,52072
57924,52072
57918,52072
57912,52071
57907,52070
57901,52068
57896,52065
57891,52063
57887,52059
57883,52055
57879,52051
57875,52047
57872,52042
57870,52036
57868,52031
57867,52026
57866,52020
57866,52014
57866,51898
57866,51892
57867,51887
57868,51881
57870,51876
57872,51871
57875,51866
57879,51861
57883,51857
57887,51853
57891,51850
57896,51847
57901,51844
57907,51843
57912,51841
57918,51840
57924,51840
58060,51840
58065,51840
" /> 
<polyline style="fill-rule:evenodd;"
points="58065,46228
58071,46229
58076,46230
58082,46232
58087,46235
58092,46238
58096,46241
58101,46245
58104,46249
58108,46254
58111,46259
58113,46264
58115,46269
58116,46275
58117,46280
58118,46286
58118,46402
58117,46408
58116,46413
58115,46419
58113,46424
58111,46429
58108,46434
58104,46439
58101,46443
58096,46447
58092,46450
58087,46453
58082,46456
58076,46458
58071,46459
58065,46460
58060,46460
57924,46460
57918,46460
57912,46459
57907,46458
57901,46456
57896,46453
57891,46450
57887,46447
57883,46443
57879,46439
57875,46434
57872,46429
57870,46424
57868,46419
57867,46413
57866,46408
57866,46402
57866,46286
57866,46280
57867,46275
57868,46269
57870,46264
57872,46259
57875,46254
57879,46249
57883,46245
57887,46241
57891,46238
57896,46235
57901,46232
57907,46230
57912,46229
57918,46228
57924,46228
58060,46228
58065,46228
" /> 
<polyline style="fill-rule:evenodd;"
points="58065,46610
58071,46611
58076,46612
58082,46614
58087,46617
58092,46620
58096,46623
58101,46627
58104,46631
58108,46636
58111,46640
58113,46646
58115,46651
58116,46656
58117,46662
58118,46668
58118,46784
58117,46790
58116,46795
58115,46801
58113,46806
58111,46811
58108,46816
58104,46821
58101,46825
58096,46829
58092,46832
58087,46835
58082,46838
58076,46840
58071,46841
58065,46842
58060,46842
57924,46842
57918,46842
57912,46841
57907,46840
57901,46838
57896,46835
57891,46832
57887,46829
57883,46825
57879,46821
57875,46816
57872,46811
57870,46806
57868,46801
57867,46795
57866,46790
57866,46784
57866,46668
57866,46662
57867,46656
57868,46651
57870,46646
57872,46640
57875,46636
57879,46631
57883,46627
57887,46623
57891,46620
57896,46617
57901,46614
57907,46612
57912,46611
57918,46610
57924,46610
58060,46610
58065,46610
" /> 
<polyline style="fill-rule:evenodd;"
points="54388,47827
54394,47827
54399,47829
54405,47831
54410,47833
54415,47836
54419,47839
54423,47843
54427,47848
54431,47852
54434,47857
54436,47862
54438,47867
54439,47873
54440,47879
54440,47884
54440,48020
54440,48026
54439,48031
54438,48037
54436,48042
54434,48048
54431,48052
54427,48057
54423,48061
54419,48065
54415,48068
54410,48071
54405,48074
54399,48076
54394,48077
54388,48078
54382,48078
54266,48078
54261,48078
54255,48077
54249,48076
54244,48074
54239,48071
54234,48068
54229,48065
54225,48061
54221,48057
54218,48052
54215,48048
54213,48042
54211,48037
54209,48031
54208,48026
54208,48020
54208,47884
54208,47879
54209,47873
54211,47867
54213,47862
54215,47857
54218,47852
54221,47848
54225,47843
54229,47839
54234,47836
54239,47833
54244,47831
54249,47829
54255,47827
54261,47827
54266,47826
54382,47826
54388,47827
" /> 
<polyline style="fill-rule:evenodd;"
points="54006,47827
54012,47827
54017,47829
54023,47831
54028,47833
54033,47836
54037,47839
54042,47843
54045,47848
54049,47852
54052,47857
54054,47862
54056,47867
54057,47873
54058,47879
54059,47884
54059,48020
54058,48026
54057,48031
54056,48037
54054,48042
54052,48048
54049,48052
54045,48057
54042,48061
54037,48065
54033,48068
54028,48071
54023,48074
54017,48076
54012,48077
54006,48078
54000,48078
53884,48078
53879,48078
53873,48077
53867,48076
53862,48074
53857,48071
53852,48068
53848,48065
53843,48061
53839,48057
53836,48052
53833,48048
53831,48042
53829,48037
53827,48031
53827,48026
53826,48020
53826,47884
53827,47879
53827,47873
53829,47867
53831,47862
53833,47857
53836,47852
53839,47848
53843,47843
53848,47839
53852,47836
53857,47833
53862,47831
53867,47829
53873,47827
53879,47827
53884,47826
54000,47826
54006,47827
" /> 
<polyline style="fill-rule:evenodd;"
points="54388,50071
54394,50071
54399,50073
54405,50075
54410,50077
54415,50080
54419,50084
54423,50087
54427,50092
54431,50096
54434,50101
54436,50106
54438,50112
54439,50117
54440,50123
54440,50128
54440,50264
54440,50270
54439,50276
54438,50281
54436,50286
54434,50292
54431,50297
54427,50301
54423,50305
54419,50309
54415,50313
54410,50315
54405,50318
54399,50320
54394,50321
54388,50322
54382,50322
54266,50322
54261,50322
54255,50321
54249,50320
54244,50318
54239,50315
54234,50313
54229,50309
54225,50305
54221,50301
54218,50297
54215,50292
54213,50286
54211,50281
54209,50276
54208,50270
54208,50264
54208,50128
54208,50123
54209,50117
54211,50112
54213,50106
54215,50101
54218,50096
54221,50092
54225,50087
54229,50084
54234,50080
54239,50077
54244,50075
54249,50073
54255,50071
54261,50071
54266,50070
54382,50070
54388,50071
" /> 
<polyline style="fill-rule:evenodd;"
points="54006,50071
54012,50071
54017,50073
54023,50075
54028,50077
54033,50080
54037,50084
54042,50087
54045,50092
54049,50096
54052,50101
54054,50106
54056,50112
54057,50117
54058,50123
54059,50128
54059,50264
54058,50270
54057,50276
54056,50281
54054,50286
54052,50292
54049,50297
54045,50301
54042,50305
54037,50309
54033,50313
54028,50315
54023,50318
54017,50320
54012,50321
54006,50322
54000,50322
53884,50322
53879,50322
53873,50321
53867,50320
53862,50318
53857,50315
53852,50313
53848,50309
53843,50305
53839,50301
53836,50297
53833,50292
53831,50286
53829,50281
53827,50276
53827,50270
53826,50264
53826,50128
53827,50123
53827,50117
53829,50112
53831,50106
53833,50101
53836,50096
53839,50092
53843,50087
53848,50084
53852,50080
53857,50077
53862,50075
53867,50073
53873,50071
53879,50071
53884,50070
54000,50070
54006,50071
" /> 
<polyline style="fill-rule:evenodd;"
points="56333,46610
56339,46611
56344,46612
56349,46614
56355,46617
56360,46620
56364,46623
56368,46627
56372,46631
56376,46636
56378,46640
56381,46646
56383,46651
56384,46656
56385,46662
56385,46668
56385,46784
56385,46790
56384,46795
56383,46801
56381,46806
56378,46811
56376,46816
56372,46821
56368,46825
56364,46829
56360,46832
56355,46835
56349,46838
56344,46840
56339,46841
56333,46842
56327,46842
56191,46842
56186,46842
56180,46841
56175,46840
56169,46838
56164,46835
56159,46832
56155,46829
56150,46825
56147,46821
56143,46816
56140,46811
56138,46806
56136,46801
56134,46795
56134,46790
56133,46784
56133,46668
56134,46662
56134,46656
56136,46651
56138,46646
56140,46640
56143,46636
56147,46631
56150,46627
56155,46623
56159,46620
56164,46617
56169,46614
56175,46612
56180,46611
56186,46610
56191,46610
56327,46610
56333,46610
" /> 
<polyline style="fill-rule:evenodd;"
points="56333,46228
56339,46229
56344,46230
56349,46232
56355,46235
56360,46238
56364,46241
56368,46245
56372,46249
56376,46254
56378,46259
56381,46264
56383,46269
56384,46275
56385,46280
56385,46286
56385,46402
56385,46408
56384,46413
56383,46419
56381,46424
56378,46429
56376,46434
56372,46439
56368,46443
56364,46447
56360,46450
56355,46453
56349,46456
56344,46458
56339,46459
56333,46460
56327,46460
56191,46460
56186,46460
56180,46459
56175,46458
56169,46456
56164,46453
56159,46450
56155,46447
56150,46443
56147,46439
56143,46434
56140,46429
56138,46424
56136,46419
56134,46413
56134,46408
56133,46402
56133,46286
56134,46280
56134,46275
56136,46269
56138,46264
56140,46259
56143,46254
56147,46249
56150,46245
56155,46241
56159,46238
56164,46235
56169,46232
56175,46230
56180,46229
56186,46228
56191,46228
56327,46228
56333,46228
" /> 
<polyline style="fill-rule:evenodd;"
points="54388,48890
54394,48890
54399,48892
54405,48894
54410,48896
54415,48899
54419,48902
54423,48906
54427,48910
54431,48915
54434,48920
54436,48925
54438,48930
54439,48936
54440,48942
54440,48947
54440,49083
54440,49089
54439,49094
54438,49100
54436,49105
54434,49111
54431,49115
54427,49120
54423,49124
54419,49128
54415,49131
54410,49134
54405,49137
54399,49139
54394,49140
54388,49141
54382,49141
54266,49141
54261,49141
54255,49140
54249,49139
54244,49137
54239,49134
54234,49131
54229,49128
54225,49124
54221,49120
54218,49115
54215,49111
54213,49105
54211,49100
54209,49094
54208,49089
54208,49083
54208,48947
54208,48942
54209,48936
54211,48930
54213,48925
54215,48920
54218,48915
54221,48910
54225,48906
54229,48902
54234,48899
54239,48896
54244,48894
54249,48892
54255,48890
54261,48890
54266,48889
54382,48889
54388,48890
" /> 
<polyline style="fill-rule:evenodd;"
points="54006,48890
54012,48890
54017,48892
54023,48894
54028,48896
54033,48899
54037,48902
54042,48906
54045,48910
54049,48915
54052,48920
54054,48925
54056,48930
54057,48936
54058,48942
54059,48947
54059,49083
54058,49089
54057,49094
54056,49100
54054,49105
54052,49111
54049,49115
54045,49120
54042,49124
54037,49128
54033,49131
54028,49134
54023,49137
54017,49139
54012,49140
54006,49141
54000,49141
53884,49141
53879,49141
53873,49140
53867,49139
53862,49137
53857,49134
53852,49131
53848,49128
53843,49124
53839,49120
53836,49115
53833,49111
53831,49105
53829,49100
53827,49094
53827,49089
53826,49083
53826,48947
53827,48942
53827,48936
53829,48930
53831,48925
53833,48920
53836,48915
53839,48910
53843,48906
53848,48902
53852,48899
53857,48896
53862,48894
53867,48892
53873,48890
53879,48890
53884,48889
54000,48889
54006,48890
" /> 
<polyline style="fill-rule:evenodd;"
points="56963,46610
56969,46611
56974,46612
56979,46614
56985,46617
56989,46620
56994,46623
56998,46627
57002,46631
57005,46636
57008,46640
57011,46646
57013,46651
57014,46656
57015,46662
57015,46668
57015,46784
57015,46790
57014,46795
57013,46801
57011,46806
57008,46811
57005,46816
57002,46821
56998,46825
56994,46829
56989,46832
56985,46835
56979,46838
56974,46840
56969,46841
56963,46842
56957,46842
56821,46842
56816,46842
56810,46841
56804,46840
56799,46838
56794,46835
56789,46832
56785,46829
56780,46825
56776,46821
56773,46816
56770,46811
56768,46806
56766,46801
56764,46795
56764,46790
56763,46784
56763,46668
56764,46662
56764,46656
56766,46651
56768,46646
56770,46640
56773,46636
56776,46631
56780,46627
56785,46623
56789,46620
56794,46617
56799,46614
56804,46612
56810,46611
56816,46610
56821,46610
56957,46610
56963,46610
" /> 
<polyline style="fill-rule:evenodd;"
points="56963,46228
56969,46229
56974,46230
56979,46232
56985,46235
56989,46238
56994,46241
56998,46245
57002,46249
57005,46254
57008,46259
57011,46264
57013,46269
57014,46275
57015,46280
57015,46286
57015,46402
57015,46408
57014,46413
57013,46419
57011,46424
57008,46429
57005,46434
57002,46439
56998,46443
56994,46447
56989,46450
56985,46453
56979,46456
56974,46458
56969,46459
56963,46460
56957,46460
56821,46460
56816,46460
56810,46459
56804,46458
56799,46456
56794,46453
56789,46450
56785,46447
56780,46443
56776,46439
56773,46434
56770,46429
56768,46424
56766,46419
56764,46413
56764,46408
56763,46402
56763,46286
56764,46280
56764,46275
56766,46269
56768,46264
56770,46259
56773,46254
56776,46249
56780,46245
56785,46241
56789,46238
56794,46235
56799,46232
56804,46230
56810,46229
56816,46228
56821,46228
56957,46228
56963,46228
" /> 
<polyline style="fill-rule:evenodd;"
points="59563,47315
59569,47316
59574,47317
59580,47319
59585,47321
59590,47324
59594,47328
59599,47331
59602,47336
59606,47340
59609,47345
59611,47350
59613,47356
59615,47361
59615,47367
59616,47373
59616,47508
59615,47514
59615,47520
59613,47525
59611,47531
59609,47536
59606,47541
59602,47545
59599,47549
59594,47553
59590,47557
59585,47560
59580,47562
59574,47564
59569,47565
59563,47566
59558,47566
59441,47566
59436,47566
59430,47565
59425,47564
59419,47562
59414,47560
59409,47557
59405,47553
59400,47549
59397,47545
59393,47541
59390,47536
59388,47531
59386,47525
59384,47520
59384,47514
59383,47508
59383,47373
59384,47367
59384,47361
59386,47356
59388,47350
59390,47345
59393,47340
59397,47336
59400,47331
59405,47328
59409,47324
59414,47321
59419,47319
59425,47317
59430,47316
59436,47315
59441,47314
59558,47314
59563,47315
" /> 
<polyline style="fill-rule:evenodd;"
points="59945,47315
59951,47316
59956,47317
59962,47319
59967,47321
59972,47324
59976,47328
59981,47331
59984,47336
59988,47340
59991,47345
59993,47350
59995,47356
59996,47361
59997,47367
59998,47373
59998,47508
59997,47514
59996,47520
59995,47525
59993,47531
59991,47536
59988,47541
59984,47545
59981,47549
59976,47553
59972,47557
59967,47560
59962,47562
59956,47564
59951,47565
59945,47566
59939,47566
59823,47566
59818,47566
59812,47565
59806,47564
59801,47562
59796,47560
59791,47557
59786,47553
59782,47549
59778,47545
59775,47541
59772,47536
59770,47531
59768,47525
59766,47520
59766,47514
59765,47508
59765,47373
59766,47367
59766,47361
59768,47356
59770,47350
59772,47345
59775,47340
59778,47336
59782,47331
59786,47328
59791,47324
59796,47321
59801,47319
59806,47317
59812,47316
59818,47315
59823,47314
59939,47314
59945,47315
" /> 
<polyline style="fill-rule:evenodd;"
points="59945,49441
59951,49442
59956,49443
59962,49445
59967,49447
59972,49450
59976,49454
59981,49457
59984,49462
59988,49466
59991,49471
59993,49476
59995,49482
59996,49487
59997,49493
59998,49499
59998,49634
59997,49640
59996,49646
59995,49651
59993,49657
59991,49662
59988,49667
59984,49671
59981,49675
59976,49679
59972,49683
59967,49686
59962,49688
59956,49690
59951,49691
59945,49692
59939,49692
59823,49692
59818,49692
59812,49691
59806,49690
59801,49688
59796,49686
59791,49683
59786,49679
59782,49675
59778,49671
59775,49667
59772,49662
59770,49657
59768,49651
59766,49646
59766,49640
59765,49634
59765,49499
59766,49493
59766,49487
59768,49482
59770,49476
59772,49471
59775,49466
59778,49462
59782,49457
59786,49454
59791,49450
59796,49447
59801,49445
59806,49443
59812,49442
59818,49441
59823,49440
59939,49440
59945,49441
" /> 
<polyline style="fill-rule:evenodd;"
points="59563,49441
59569,49442
59574,49443
59580,49445
59585,49447
59590,49450
59594,49454
59599,49457
59602,49462
59606,49466
59609,49471
59611,49476
59613,49482
59615,49487
59615,49493
59616,49499
59616,49634
59615,49640
59615,49646
59613,49651
59611,49657
59609,49662
59606,49667
59602,49671
59599,49675
59594,49679
59590,49683
59585,49686
59580,49688
59574,49690
59569,49691
59563,49692
59558,49692
59441,49692
59436,49692
59430,49691
59425,49690
59419,49688
59414,49686
59409,49683
59405,49679
59400,49675
59397,49671
59393,49667
59390,49662
59388,49657
59386,49651
59384,49646
59384,49640
59383,49634
59383,49499
59384,49493
59384,49487
59386,49482
59388,49476
59390,49471
59393,49466
59397,49462
59400,49457
59405,49454
59409,49450
59414,49447
59419,49445
59425,49443
59430,49442
59436,49441
59441,49440
59558,49440
59563,49441
" /> 
<polyline style="fill-rule:evenodd;"
points="60823,50267
60829,50268
60834,50270
60840,50272
60845,50274
60850,50277
60854,50280
60858,50284
60862,50288
60866,50293
60869,50298
60871,50303
60873,50308
60874,50314
60875,50320
60875,50325
60875,50461
60875,50467
60874,50472
60873,50478
60871,50483
60869,50488
60866,50493
60862,50498
60858,50502
60854,50506
60850,50509
60845,50512
60840,50515
60834,50517
60829,50518
60823,50519
60817,50519
60701,50519
60696,50519
60690,50518
60684,50517
60679,50515
60674,50512
60669,50509
60664,50506
60660,50502
60656,50498
60653,50493
60650,50488
60648,50483
60646,50478
60644,50472
60643,50467
60643,50461
60643,50325
60643,50320
60644,50314
60646,50308
60648,50303
60650,50298
60653,50293
60656,50288
60660,50284
60664,50280
60669,50277
60674,50274
60679,50272
60684,50270
60690,50268
60696,50267
60701,50267
60817,50267
60823,50267
" /> 
<polyline style="fill-rule:evenodd;"
points="61205,50267
61211,50268
61216,50270
61222,50272
61227,50274
61232,50277
61236,50280
61240,50284
61244,50288
61248,50293
61251,50298
61253,50303
61255,50308
61256,50314
61257,50320
61257,50325
61257,50461
61257,50467
61256,50472
61255,50478
61253,50483
61251,50488
61248,50493
61244,50498
61240,50502
61236,50506
61232,50509
61227,50512
61222,50515
61216,50517
61211,50518
61205,50519
61199,50519
61083,50519
61077,50519
61072,50518
61066,50517
61061,50515
61056,50512
61051,50509
61046,50506
61042,50502
61038,50498
61035,50493
61032,50488
61030,50483
61028,50478
61026,50472
61025,50467
61025,50461
61025,50325
61025,50320
61026,50314
61028,50308
61030,50303
61032,50298
61035,50293
61038,50288
61042,50284
61046,50280
61051,50277
61056,50274
61061,50272
61066,50270
61072,50268
61077,50267
61083,50267
61199,50267
61205,50267
" /> 
<polyline style="fill-rule:evenodd;"
points="61199,49677
61205,49678
61210,49679
61216,49681
61221,49684
61226,49686
61230,49690
61234,49694
61238,49698
61242,49702
61245,49707
61247,49713
61249,49718
61250,49723
61251,49729
61251,49735
61251,49871
61251,49876
61250,49882
61249,49887
61247,49893
61245,49898
61242,49903
61238,49907
61234,49912
61230,49915
61226,49919
61221,49922
61216,49924
61210,49926
61205,49928
61199,49928
61193,49929
61077,49929
61072,49928
61066,49928
61060,49926
61055,49924
61050,49922
61045,49919
61040,49915
61036,49912
61032,49907
61029,49903
61026,49898
61024,49893
61022,49887
61020,49882
61019,49876
61019,49871
61019,49735
61019,49729
61020,49723
61022,49718
61024,49713
61026,49707
61029,49702
61032,49698
61036,49694
61040,49690
61045,49686
61050,49684
61055,49681
61060,49679
61066,49678
61072,49677
61077,49677
61193,49677
61199,49677
" /> 
<polyline style="fill-rule:evenodd;"
points="60817,49677
60823,49678
60828,49679
60834,49681
60839,49684
60844,49686
60848,49690
60853,49694
60856,49698
60860,49702
60863,49707
60865,49713
60867,49718
60868,49723
60869,49729
60870,49735
60870,49871
60869,49876
60868,49882
60867,49887
60865,49893
60863,49898
60860,49903
60856,49907
60853,49912
60848,49915
60844,49919
60839,49922
60834,49924
60828,49926
60823,49928
60817,49928
60812,49929
60695,49929
60690,49928
60684,49928
60679,49926
60673,49924
60668,49922
60663,49919
60659,49915
60654,49912
60650,49907
60647,49903
60644,49898
60642,49893
60640,49887
60638,49882
60638,49876
60637,49871
60637,49735
60638,49729
60638,49723
60640,49718
60642,49713
60644,49707
60647,49702
60650,49698
60654,49694
60659,49690
60663,49686
60668,49684
60673,49681
60679,49679
60684,49678
60690,49677
60695,49677
60812,49677
60817,49677
" /> 
<polyline style="fill-rule:evenodd;"
points="58272,33181
58278,33182
58283,33183
58288,33185
58294,33187
58298,33190
58303,33194
58307,33198
58311,33202
58315,33206
58317,33211
58320,33216
58322,33222
58323,33227
58324,33233
58324,33239
58324,33375
58324,33380
58323,33386
58322,33391
58320,33397
58317,33402
58315,33407
58311,33411
58307,33416
58303,33419
58298,33423
58294,33426
58288,33428
58283,33430
58278,33431
58272,33432
58266,33433
58150,33433
58144,33432
58139,33431
58133,33430
58128,33428
58123,33426
58118,33423
58113,33419
58109,33416
58105,33411
58102,33407
58099,33402
58096,33397
58095,33391
58093,33386
58092,33380
58092,33375
58092,33239
58092,33233
58093,33227
58095,33222
58096,33216
58099,33211
58102,33206
58105,33202
58109,33198
58113,33194
58118,33190
58123,33187
58128,33185
58133,33183
58139,33182
58144,33181
58150,33181
58266,33181
58272,33181
" /> 
<polyline style="fill-rule:evenodd;"
points="58654,33181
58659,33182
58665,33183
58670,33185
58675,33187
58680,33190
58685,33194
58689,33198
58693,33202
58696,33206
58699,33211
58702,33216
58704,33222
58705,33227
58706,33233
58706,33239
58706,33375
58706,33380
58705,33386
58704,33391
58702,33397
58699,33402
58696,33407
58693,33411
58689,33416
58685,33419
58680,33423
58675,33426
58670,33428
58665,33430
58659,33431
58654,33432
58648,33433
58532,33433
58526,33432
58521,33431
58515,33430
58510,33428
58505,33426
58500,33423
58495,33419
58491,33416
58487,33411
58484,33407
58481,33402
58478,33397
58476,33391
58475,33386
58474,33380
58474,33375
58474,33239
58474,33233
58475,33227
58476,33222
58478,33216
58481,33211
58484,33206
58487,33202
58491,33198
58495,33194
58500,33190
58505,33187
58510,33185
58515,33183
58521,33182
58526,33181
58532,33181
58648,33181
58654,33181
" /> 
<polyline style="fill-rule:evenodd;"
points="56388,42433
56394,42434
56399,42435
56405,42437
56410,42439
56415,42442
56419,42446
56423,42450
56427,42454
56431,42458
56434,42463
56436,42468
56438,42474
56439,42479
56440,42485
56440,42491
56440,42626
56440,42632
56439,42638
56438,42643
56436,42649
56434,42654
56431,42659
56427,42663
56423,42668
56419,42671
56415,42675
56410,42678
56405,42680
56399,42682
56394,42683
56388,42684
56382,42685
56266,42685
56261,42684
56255,42683
56249,42682
56244,42680
56239,42678
56234,42675
56229,42671
56225,42668
56221,42663
56218,42659
56215,42654
56213,42649
56211,42643
56209,42638
56208,42632
56208,42626
56208,42491
56208,42485
56209,42479
56211,42474
56213,42468
56215,42463
56218,42458
56221,42454
56225,42450
56229,42446
56234,42442
56239,42439
56244,42437
56249,42435
56255,42434
56261,42433
56266,42433
56382,42433
56388,42433
" /> 
<polyline style="fill-rule:evenodd;"
points="56770,42433
56776,42434
56781,42435
56786,42437
56792,42439
56797,42442
56801,42446
56805,42450
56809,42454
56813,42458
56815,42463
56818,42468
56820,42474
56821,42479
56822,42485
56822,42491
56822,42626
56822,42632
56821,42638
56820,42643
56818,42649
56815,42654
56813,42659
56809,42663
56805,42668
56801,42671
56797,42675
56792,42678
56786,42680
56781,42682
56776,42683
56770,42684
56764,42685
56648,42685
56642,42684
56637,42683
56631,42682
56626,42680
56621,42678
56616,42675
56611,42671
56607,42668
56603,42663
56600,42659
56597,42654
56594,42649
56593,42643
56591,42638
56590,42632
56590,42626
56590,42491
56590,42485
56591,42479
56593,42474
56594,42468
56597,42463
56600,42458
56603,42454
56607,42450
56611,42446
56616,42442
56621,42439
56626,42437
56631,42435
56637,42434
56642,42433
56648,42433
56764,42433
56770,42433
" /> 
<polyline style="fill-rule:evenodd;"
points="56388,45189
56394,45190
56399,45191
56405,45193
56410,45195
56415,45198
56419,45202
56423,45205
56427,45210
56431,45214
56434,45219
56436,45224
56438,45230
56439,45235
56440,45241
56440,45247
56440,45382
56440,45388
56439,45394
56438,45399
56436,45405
56434,45410
56431,45415
56427,45419
56423,45423
56419,45427
56415,45431
56410,45434
56405,45436
56399,45438
56394,45439
56388,45440
56382,45440
56266,45440
56261,45440
56255,45439
56249,45438
56244,45436
56239,45434
56234,45431
56229,45427
56225,45423
56221,45419
56218,45415
56215,45410
56213,45405
56211,45399
56209,45394
56208,45388
56208,45382
56208,45247
56208,45241
56209,45235
56211,45230
56213,45224
56215,45219
56218,45214
56221,45210
56225,45205
56229,45202
56234,45198
56239,45195
56244,45193
56249,45191
56255,45190
56261,45189
56266,45188
56382,45188
56388,45189
" /> 
<polyline style="fill-rule:evenodd;"
points="56770,45189
56776,45190
56781,45191
56786,45193
56792,45195
56797,45198
56801,45202
56805,45205
56809,45210
56813,45214
56815,45219
56818,45224
56820,45230
56821,45235
56822,45241
56822,45247
56822,45382
56822,45388
56821,45394
56820,45399
56818,45405
56815,45410
56813,45415
56809,45419
56805,45423
56801,45427
56797,45431
56792,45434
56786,45436
56781,45438
56776,45439
56770,45440
56764,45440
56648,45440
56642,45440
56637,45439
56631,45438
56626,45436
56621,45434
56616,45431
56611,45427
56607,45423
56603,45419
56600,45415
56597,45410
56594,45405
56593,45399
56591,45394
56590,45388
56590,45382
56590,45247
56590,45241
56591,45235
56593,45230
56594,45224
56597,45219
56600,45214
56603,45210
56607,45205
56611,45202
56616,45198
56621,45195
56626,45193
56631,45191
56637,45190
56642,45189
56648,45188
56764,45188
56770,45189
" /> 
<polyline style="fill-rule:evenodd;"
points="58357,42433
58362,42434
58368,42435
58373,42437
58378,42439
58383,42442
58388,42446
58392,42450
58396,42454
58399,42458
58402,42463
58405,42468
58406,42474
58408,42479
58409,42485
58409,42491
58409,42626
58409,42632
58408,42638
58406,42643
58405,42649
58402,42654
58399,42659
58396,42663
58392,42668
58388,42671
58383,42675
58378,42678
58373,42680
58368,42682
58362,42683
58357,42684
58351,42685
58235,42685
58229,42684
58223,42683
58218,42682
58213,42680
58207,42678
58202,42675
58198,42671
58194,42668
58190,42663
58186,42659
58184,42654
58181,42649
58179,42643
58178,42638
58177,42632
58177,42626
58177,42491
58177,42485
58178,42479
58179,42474
58181,42468
58184,42463
58186,42458
58190,42454
58194,42450
58198,42446
58202,42442
58207,42439
58213,42437
58218,42435
58223,42434
58229,42433
58235,42433
58351,42433
58357,42433
" /> 
<polyline style="fill-rule:evenodd;"
points="58738,42433
58744,42434
58750,42435
58755,42437
58760,42439
58765,42442
58770,42446
58774,42450
58778,42454
58781,42458
58784,42463
58786,42468
58788,42474
58790,42479
58791,42485
58791,42491
58791,42626
58791,42632
58790,42638
58788,42643
58786,42649
58784,42654
58781,42659
58778,42663
58774,42668
58770,42671
58765,42675
58760,42678
58755,42680
58750,42682
58744,42683
58738,42684
58733,42685
58617,42685
58611,42684
58605,42683
58600,42682
58594,42680
58589,42678
58584,42675
58580,42671
58576,42668
58572,42663
58568,42659
58565,42654
58563,42649
58561,42643
58560,42638
58559,42632
58559,42626
58559,42491
58559,42485
58560,42479
58561,42474
58563,42468
58565,42463
58568,42458
58572,42454
58576,42450
58580,42446
58584,42442
58589,42439
58594,42437
58600,42435
58605,42434
58611,42433
58617,42433
58733,42433
58738,42433
" /> 
<polyline style="fill-rule:evenodd;"
points="58357,45189
58362,45190
58368,45191
58373,45193
58378,45195
58383,45198
58388,45202
58392,45205
58396,45210
58399,45214
58402,45219
58405,45224
58406,45230
58408,45235
58409,45241
58409,45247
58409,45382
58409,45388
58408,45394
58406,45399
58405,45405
58402,45410
58399,45415
58396,45419
58392,45423
58388,45427
58383,45431
58378,45434
58373,45436
58368,45438
58362,45439
58357,45440
58351,45440
58235,45440
58229,45440
58223,45439
58218,45438
58213,45436
58207,45434
58202,45431
58198,45427
58194,45423
58190,45419
58186,45415
58184,45410
58181,45405
58179,45399
58178,45394
58177,45388
58177,45382
58177,45247
58177,45241
58178,45235
58179,45230
58181,45224
58184,45219
58186,45214
58190,45210
58194,45205
58198,45202
58202,45198
58207,45195
58213,45193
58218,45191
58223,45190
58229,45189
58235,45188
58351,45188
58357,45189
" /> 
<polyline style="fill-rule:evenodd;"
points="58738,45189
58744,45190
58750,45191
58755,45193
58760,45195
58765,45198
58770,45202
58774,45205
58778,45210
58781,45214
58784,45219
58786,45224
58788,45230
58790,45235
58791,45241
58791,45247
58791,45382
58791,45388
58790,45394
58788,45399
58786,45405
58784,45410
58781,45415
58778,45419
58774,45423
58770,45427
58765,45431
58760,45434
58755,45436
58750,45438
58744,45439
58738,45440
58733,45440
58617,45440
58611,45440
58605,45439
58600,45438
58594,45436
58589,45434
58584,45431
58580,45427
58576,45423
58572,45419
58568,45415
58565,45410
58563,45405
58561,45399
58560,45394
58559,45388
58559,45382
58559,45247
58559,45241
58560,45235
58561,45230
58563,45224
58565,45219
58568,45214
58572,45210
58576,45205
58580,45202
58584,45198
58589,45195
58594,45193
58600,45191
58605,45190
58611,45189
58617,45188
58733,45188
58738,45189
" /> 
<polyline style="fill-rule:evenodd;"
points="53656,51307
53661,51308
53667,51309
53672,51311
53677,51313
53682,51316
53687,51320
53691,51324
53695,51328
53698,51332
53701,51337
53704,51342
53706,51348
53707,51353
53708,51359
53708,51365
53708,51481
53708,51486
53707,51492
53706,51498
53704,51503
53701,51508
53698,51513
53695,51518
53691,51522
53687,51526
53682,51529
53677,51532
53672,51534
53667,51536
53661,51538
53656,51539
53650,51539
53514,51539
53509,51539
53503,51538
53497,51536
53492,51534
53487,51532
53482,51529
53477,51526
53473,51522
53469,51518
53466,51513
53463,51508
53461,51503
53459,51498
53457,51492
53456,51486
53456,51481
53456,51365
53456,51359
53457,51353
53459,51348
53461,51342
53463,51337
53466,51332
53469,51328
53473,51324
53477,51320
53482,51316
53487,51313
53492,51311
53497,51309
53503,51308
53509,51307
53514,51307
53650,51307
53656,51307
" /> 
<polyline style="fill-rule:evenodd;"
points="53656,51689
53661,51690
53667,51691
53672,51693
53677,51695
53682,51698
53687,51702
53691,51705
53695,51710
53698,51714
53701,51719
53704,51724
53706,51730
53707,51735
53708,51741
53708,51747
53708,51863
53708,51868
53707,51874
53706,51880
53704,51885
53701,51890
53698,51895
53695,51900
53691,51904
53687,51908
53682,51911
53677,51914
53672,51916
53667,51918
53661,51920
53656,51920
53650,51921
53514,51921
53509,51920
53503,51920
53497,51918
53492,51916
53487,51914
53482,51911
53477,51908
53473,51904
53469,51900
53466,51895
53463,51890
53461,51885
53459,51880
53457,51874
53456,51868
53456,51863
53456,51747
53456,51741
53457,51735
53459,51730
53461,51724
53463,51719
53466,51714
53469,51710
53473,51705
53477,51702
53482,51698
53487,51695
53492,51693
53497,51691
53503,51690
53509,51689
53514,51688
53650,51688
53656,51689
" /> 
<polyline style="fill-rule:evenodd;"
points="51638,50386
51644,50386
51649,50388
51655,50390
51660,50392
51665,50395
51669,50399
51673,50402
51677,50407
51681,50411
51684,50416
51686,50421
51688,50427
51689,50432
51690,50438
51690,50443
51690,50579
51690,50585
51689,50591
51688,50596
51686,50601
51684,50607
51681,50611
51677,50616
51673,50620
51669,50624
51665,50628
51660,50630
51655,50633
51649,50635
51644,50636
51638,50637
51632,50637
51516,50637
51511,50637
51505,50636
51499,50635
51494,50633
51489,50630
51484,50628
51479,50624
51475,50620
51471,50616
51468,50611
51465,50607
51463,50601
51461,50596
51459,50591
51458,50585
51458,50579
51458,50443
51458,50438
51459,50432
51461,50427
51463,50421
51465,50416
51468,50411
51471,50407
51475,50402
51479,50399
51484,50395
51489,50392
51494,50390
51499,50388
51505,50386
51511,50386
51516,50385
51632,50385
51638,50386
" /> 
<polyline style="fill-rule:evenodd;"
points="52020,50386
52026,50386
52031,50388
52036,50390
52042,50392
52047,50395
52051,50399
52055,50402
52059,50407
52063,50411
52065,50416
52068,50421
52070,50427
52071,50432
52072,50438
52072,50443
52072,50579
52072,50585
52071,50591
52070,50596
52068,50601
52065,50607
52063,50611
52059,50616
52055,50620
52051,50624
52047,50628
52042,50630
52036,50633
52031,50635
52026,50636
52020,50637
52014,50637
51898,50637
51892,50637
51887,50636
51881,50635
51876,50633
51871,50630
51866,50628
51861,50624
51857,50620
51853,50616
51850,50611
51847,50607
51844,50601
51843,50596
51841,50591
51840,50585
51840,50579
51840,50443
51840,50438
51841,50432
51843,50427
51844,50421
51847,50416
51850,50411
51853,50407
51857,50402
51861,50399
51866,50395
51871,50392
51876,50390
51881,50388
51887,50386
51892,50386
51898,50385
52014,50385
52020,50386
" /> 
<polyline style="fill-rule:evenodd;"
points="49817,53210
49823,53211
49828,53213
49834,53215
49839,53217
49844,53220
49848,53223
49853,53227
49856,53231
49860,53236
49863,53241
49865,53246
49867,53251
49868,53257
49869,53263
49870,53268
49870,53384
49869,53390
49868,53396
49867,53401
49865,53407
49863,53412
49860,53417
49856,53421
49853,53425
49848,53429
49844,53433
49839,53436
49834,53438
49828,53440
49823,53441
49817,53442
49812,53442
49676,53442
49670,53442
49664,53441
49659,53440
49653,53438
49648,53436
49643,53433
49639,53429
49635,53425
49631,53421
49627,53417
49624,53412
49622,53407
49620,53401
49619,53396
49618,53390
49618,53384
49618,53268
49618,53263
49619,53257
49620,53251
49622,53246
49624,53241
49627,53236
49631,53231
49635,53227
49639,53223
49643,53220
49648,53217
49653,53215
49659,53213
49664,53211
49670,53210
49676,53210
49812,53210
49817,53210
" /> 
<polyline style="fill-rule:evenodd;"
points="49817,53592
49823,53593
49828,53595
49834,53596
49839,53599
49844,53602
49848,53605
49853,53609
49856,53613
49860,53618
49863,53623
49865,53628
49867,53633
49868,53639
49869,53644
49870,53650
49870,53766
49869,53772
49868,53778
49867,53783
49865,53788
49863,53794
49860,53798
49856,53803
49853,53807
49848,53811
49844,53815
49839,53817
49834,53820
49828,53822
49823,53823
49817,53824
49812,53824
49676,53824
49670,53824
49664,53823
49659,53822
49653,53820
49648,53817
49643,53815
49639,53811
49635,53807
49631,53803
49627,53798
49624,53794
49622,53788
49620,53783
49619,53778
49618,53772
49618,53766
49618,53650
49618,53644
49619,53639
49620,53633
49622,53628
49624,53623
49627,53618
49631,53613
49635,53609
49639,53605
49643,53602
49648,53599
49653,53596
49659,53595
49664,53593
49670,53592
49676,53592
49812,53592
49817,53592
" /> 
<polyline style="fill-rule:evenodd;"
points="56289,35098
56298,35100
56308,35102
56317,35105
56325,35110
56334,35115
56341,35120
56349,35127
56355,35134
56361,35142
56366,35150
56370,35159
56373,35168
56376,35177
56377,35187
56377,35196
56377,35984
56377,35993
56376,36003
56373,36012
56370,36021
56366,36030
56361,36038
56355,36046
56349,36053
56341,36060
56334,36066
56325,36071
56317,36075
56308,36078
56298,36080
56289,36082
56279,36082
54901,36082
54891,36082
54882,36080
54873,36078
54863,36075
54855,36071
54846,36066
54839,36060
54831,36053
54825,36046
54819,36038
54814,36030
54810,36021
54807,36012
54805,36003
54803,35993
54803,35984
54803,35196
54803,35187
54805,35177
54807,35168
54810,35159
54814,35150
54819,35142
54825,35134
54831,35127
54839,35120
54846,35115
54855,35110
54863,35105
54873,35102
54882,35100
54891,35098
54901,35098
56279,35098
56289,35098
" /> 
<polyline style="fill-rule:evenodd;"
points="53139,35098
53149,35100
53158,35102
53167,35105
53176,35110
53184,35115
53192,35120
53199,35127
53206,35134
53211,35142
53216,35150
53220,35159
53224,35168
53226,35177
53227,35187
53228,35196
53228,35984
53227,35993
53226,36003
53224,36012
53220,36021
53216,36030
53211,36038
53206,36046
53199,36053
53192,36060
53184,36066
53176,36071
53167,36075
53158,36078
53149,36080
53139,36082
53129,36082
51751,36082
51742,36082
51732,36080
51723,36078
51714,36075
51705,36071
51697,36066
51689,36060
51682,36053
51675,36046
51670,36038
51665,36030
51661,36021
51657,36012
51655,36003
51654,35993
51653,35984
51653,35196
51654,35187
51655,35177
51657,35168
51661,35159
51665,35150
51670,35142
51675,35134
51682,35127
51689,35120
51697,35115
51705,35110
51714,35105
51723,35102
51732,35100
51742,35098
51751,35098
53129,35098
53139,35098
" /> 
<polyline style="fill-rule:evenodd;"
points="56308,38878
56318,38879
56327,38882
56336,38885
56345,38889
56353,38894
56361,38900
56368,38906
56375,38913
56381,38921
56386,38929
56390,38938
56393,38947
56395,38957
56397,38966
56397,38976
56397,39409
56397,39419
56395,39428
56393,39438
56390,39447
56386,39455
56381,39464
56375,39471
56368,39479
56361,39485
56353,39491
56345,39496
56336,39500
56327,39503
56318,39505
56308,39507
56299,39507
55118,39507
55108,39507
55098,39505
55089,39503
55080,39500
55071,39496
55063,39491
55055,39485
55048,39479
55042,39471
55036,39464
55031,39455
55027,39447
55023,39438
55021,39428
55020,39419
55019,39409
55019,38976
55020,38966
55021,38957
55023,38947
55027,38938
55031,38929
55036,38921
55042,38913
55048,38906
55055,38900
55063,38894
55071,38889
55080,38885
55089,38882
55098,38879
55108,38878
55118,38877
56299,38877
56308,38878
" /> 
<polyline style="fill-rule:evenodd;"
points="54182,38878
54192,38879
54201,38882
54210,38885
54219,38889
54227,38894
54235,38900
54242,38906
54249,38913
54255,38921
54260,38929
54264,38938
54267,38947
54269,38957
54271,38966
54271,38976
54271,39409
54271,39419
54269,39428
54267,39438
54264,39447
54260,39455
54255,39464
54249,39471
54242,39479
54235,39485
54227,39491
54219,39496
54210,39500
54201,39503
54192,39505
54182,39507
54173,39507
52992,39507
52982,39507
52972,39505
52963,39503
52954,39500
52945,39496
52937,39491
52929,39485
52922,39479
52916,39471
52910,39464
52905,39455
52901,39447
52897,39438
52895,39428
52894,39419
52893,39409
52893,38976
52894,38966
52895,38957
52897,38947
52901,38938
52905,38929
52910,38921
52916,38913
52922,38906
52929,38900
52937,38894
52945,38889
52954,38885
52963,38882
52972,38879
52982,38878
52992,38877
54173,38877
54182,38878
" /> 
<polyline style="fill-rule:evenodd;"
points="55861,40803
55866,40804
55872,40805
55877,40807
55882,40810
55887,40812
55892,40816
55896,40820
55900,40824
55903,40828
55906,40833
55908,40838
55910,40844
55912,40849
55913,40855
55913,40861
55913,40977
55913,40983
55912,40988
55910,40994
55908,40999
55906,41004
55903,41009
55900,41014
55896,41018
55892,41022
55887,41025
55882,41028
55877,41031
55872,41032
55866,41034
55861,41035
55855,41035
55719,41035
55713,41035
55708,41034
55702,41032
55697,41031
55692,41028
55687,41025
55682,41022
55678,41018
55674,41014
55671,41009
55668,41004
55665,40999
55663,40994
55662,40988
55661,40983
55661,40977
55661,40861
55661,40855
55662,40849
55663,40844
55665,40838
55668,40833
55671,40828
55674,40824
55678,40820
55682,40816
55687,40812
55692,40810
55697,40807
55702,40805
55708,40804
55713,40803
55719,40803
55855,40803
55861,40803
" /> 
<polyline style="fill-rule:evenodd;"
points="55861,40421
55866,40422
55872,40423
55877,40425
55882,40428
55887,40431
55892,40434
55896,40438
55900,40442
55903,40447
55906,40451
55908,40457
55910,40462
55912,40468
55913,40473
55913,40479
55913,40595
55913,40601
55912,40606
55910,40612
55908,40617
55906,40622
55903,40627
55900,40632
55896,40636
55892,40640
55887,40643
55882,40646
55877,40649
55872,40651
55866,40652
55861,40653
55855,40653
55719,40653
55713,40653
55708,40652
55702,40651
55697,40649
55692,40646
55687,40643
55682,40640
55678,40636
55674,40632
55671,40627
55668,40622
55665,40617
55663,40612
55662,40606
55661,40601
55661,40595
55661,40479
55661,40473
55662,40468
55663,40462
55665,40457
55668,40451
55671,40447
55674,40442
55678,40438
55682,40434
55687,40431
55692,40428
55697,40425
55702,40423
55708,40422
55713,40421
55719,40421
55855,40421
55861,40421
" /> 
<polyline style="fill-rule:evenodd;"
points="62234,51505
61761,51505
61761,51230
62234,51230
62234,51505
" /> 
<polyline style="fill-rule:evenodd;"
points="62234,51131
61761,51131
61761,50856
62234,50856
62234,51131
" /> 
<polyline style="fill-rule:evenodd;"
points="62234,48100
61761,48100
61761,47824
62234,47824
62234,48100
" /> 
<polyline style="fill-rule:evenodd;"
points="62234,48533
61761,48533
61761,48257
62234,48257
62234,48533
" /> 
<polyline style="fill-rule:evenodd;"
points="62234,48966
61761,48966
61761,48690
62234,48690
62234,48966
" /> 
<polyline style="fill-rule:evenodd;"
points="62234,49399
61761,49399
61761,49124
62234,49124
62234,49399
" /> 
<polyline style="fill-rule:evenodd;"
points="62234,49832
61761,49832
61761,49557
62234,49557
62234,49832
" /> 
<polyline style="fill-rule:evenodd;"
points="62234,50265
61761,50265
61761,49990
62234,49990
62234,50265
" /> 
<polyline style="fill-rule:evenodd;"
points="62234,50698
61761,50698
61761,50423
62234,50423
62234,50698
" /> 
<polyline style="fill-rule:evenodd;"
points="62234,47549
61761,47549
61761,47155
62234,47155
62234,47549
" /> 
<polyline style="fill-rule:evenodd;"
points="63927,51938
63454,51938
63454,51545
63927,51545
63927,51938
" /> 
<polyline style="fill-rule:evenodd;"
points="66289,51938
65974,51938
65974,51545
66289,51545
66289,51938
" /> 
<polyline style="fill-rule:evenodd;"
points="68316,51938
67214,51938
67214,51545
68316,51545
68316,51938
" /> 
<polyline style="fill-rule:evenodd;"
points="68316,46683
67568,46683
67568,46171
68316,46171
68316,46683
" /> 
<polyline style="fill-rule:evenodd;"
points="58917,53415
58917,52883
59074,52883
59074,53415
58917,53415
" /> 
<polyline style="fill-rule:evenodd;"
points="59173,53415
59173,52883
59330,52883
59330,53415
59173,53415
" /> 
<polyline style="fill-rule:evenodd;"
points="59429,53415
59429,52883
59586,52883
59586,53415
59429,53415
" /> 
<polyline style="fill-rule:evenodd;"
points="59685,53415
59685,52883
59842,52883
59842,53415
59685,53415
" /> 
<polyline style="fill-rule:evenodd;"
points="59940,53415
59940,52883
60098,52883
60098,53415
59940,53415
" /> 
<polyline style="fill-rule:evenodd;"
points="58700,54576
58700,53828
59409,53828
59409,54576
58700,54576
" /> 
<polyline style="fill-rule:evenodd;"
points="59606,54576
59606,53828
60314,53828
60314,54576
59606,54576
" /> 
<polyline style="fill-rule:evenodd;"
points="59640,52082
59646,52083
59651,52085
59657,52087
59662,52089
59667,52092
59671,52095
59675,52099
59679,52103
59683,52108
59686,52113
59688,52118
59690,52123
59691,52129
59692,52135
59692,52140
59692,52256
59692,52262
59691,52268
59690,52273
59688,52279
59686,52284
59683,52289
59679,52293
59675,52297
59671,52301
59667,52305
59662,52308
59657,52310
59651,52312
59646,52313
59640,52314
59634,52314
59499,52314
59493,52314
59487,52313
59482,52312
59476,52310
59471,52308
59466,52305
59462,52301
59457,52297
59454,52293
59450,52289
59447,52284
59445,52279
59443,52273
59442,52268
59441,52262
59440,52256
59440,52140
59441,52135
59442,52129
59443,52123
59445,52118
59447,52113
59450,52108
59454,52103
59457,52099
59462,52095
59466,52092
59471,52089
59476,52087
59482,52085
59487,52083
59493,52082
59499,52082
59634,52082
59640,52082
" /> 
<polyline style="fill-rule:evenodd;"
points="59640,51701
59646,51701
59651,51703
59657,51705
59662,51707
59667,51710
59671,51713
59675,51717
59679,51722
59683,51726
59686,51731
59688,51736
59690,51742
59691,51747
59692,51753
59692,51758
59692,51875
59692,51880
59691,51886
59690,51891
59688,51897
59686,51902
59683,51907
59679,51911
59675,51916
59671,51919
59667,51923
59662,51926
59657,51928
59651,51930
59646,51931
59640,51932
59634,51933
59499,51933
59493,51932
59487,51931
59482,51930
59476,51928
59471,51926
59466,51923
59462,51919
59457,51916
59454,51911
59450,51907
59447,51902
59445,51897
59443,51891
59442,51886
59441,51880
59440,51875
59440,51758
59441,51753
59442,51747
59443,51742
59445,51736
59447,51731
59450,51726
59454,51722
59457,51717
59462,51713
59466,51710
59471,51707
59476,51705
59482,51703
59487,51701
59493,51701
59499,51700
59634,51700
59640,51701
" /> 
<polyline style="fill-rule:evenodd;"
points="59089,51701
59094,51701
59100,51703
59105,51705
59111,51707
59115,51710
59120,51713
59124,51717
59128,51722
59131,51726
59134,51731
59137,51736
59139,51742
59140,51747
59141,51753
59141,51758
59141,51875
59141,51880
59140,51886
59139,51891
59137,51897
59134,51902
59131,51907
59128,51911
59124,51916
59120,51919
59115,51923
59111,51926
59105,51928
59100,51930
59094,51931
59089,51932
59083,51933
58947,51933
58942,51932
58936,51931
58930,51930
58925,51928
58920,51926
58915,51923
58910,51919
58906,51916
58902,51911
58899,51907
58896,51902
58894,51897
58892,51891
58890,51886
58890,51880
58889,51875
58889,51758
58890,51753
58890,51747
58892,51742
58894,51736
58896,51731
58899,51726
58902,51722
58906,51717
58910,51713
58915,51710
58920,51707
58925,51705
58930,51703
58936,51701
58942,51701
58947,51700
59083,51700
59089,51701
" /> 
<polyline style="fill-rule:evenodd;"
points="59089,52082
59094,52083
59100,52085
59105,52087
59111,52089
59115,52092
59120,52095
59124,52099
59128,52103
59131,52108
59134,52113
59137,52118
59139,52123
59140,52129
59141,52135
59141,52140
59141,52256
59141,52262
59140,52268
59139,52273
59137,52279
59134,52284
59131,52289
59128,52293
59124,52297
59120,52301
59115,52305
59111,52308
59105,52310
59100,52312
59094,52313
59089,52314
59083,52314
58947,52314
58942,52314
58936,52313
58930,52312
58925,52310
58920,52308
58915,52305
58910,52301
58906,52297
58902,52293
58899,52289
58896,52284
58894,52279
58892,52273
58890,52268
58890,52262
58889,52256
58889,52140
58890,52135
58890,52129
58892,52123
58894,52118
58896,52113
58899,52108
58902,52103
58906,52099
58910,52095
58915,52092
58920,52089
58925,52087
58930,52085
58936,52083
58942,52082
58947,52082
59083,52082
59089,52082
" /> 
<polyline style="fill-rule:evenodd;"
points="61205,50858
61211,50859
61216,50860
61222,50862
61227,50865
61232,50868
61236,50871
61240,50875
61244,50879
61248,50884
61251,50888
61253,50894
61255,50899
61256,50905
61257,50910
61257,50916
61257,51052
61257,51057
61256,51063
61255,51069
61253,51074
61251,51079
61248,51084
61244,51089
61240,51093
61236,51097
61232,51100
61227,51103
61222,51105
61216,51107
61211,51109
61205,51109
61199,51110
61083,51110
61077,51109
61072,51109
61066,51107
61061,51105
61056,51103
61051,51100
61046,51097
61042,51093
61038,51089
61035,51084
61032,51079
61030,51074
61028,51069
61026,51063
61025,51057
61025,51052
61025,50916
61025,50910
61026,50905
61028,50899
61030,50894
61032,50888
61035,50884
61038,50879
61042,50875
61046,50871
61051,50868
61056,50865
61061,50862
61066,50860
61072,50859
61077,50858
61083,50858
61199,50858
61205,50858
" /> 
<polyline style="fill-rule:evenodd;"
points="60823,50858
60829,50859
60834,50860
60840,50862
60845,50865
60850,50868
60854,50871
60858,50875
60862,50879
60866,50884
60869,50888
60871,50894
60873,50899
60874,50905
60875,50910
60875,50916
60875,51052
60875,51057
60874,51063
60873,51069
60871,51074
60869,51079
60866,51084
60862,51089
60858,51093
60854,51097
60850,51100
60845,51103
60840,51105
60834,51107
60829,51109
60823,51109
60817,51110
60701,51110
60696,51109
60690,51109
60684,51107
60679,51105
60674,51103
60669,51100
60664,51097
60660,51093
60656,51089
60653,51084
60650,51079
60648,51074
60646,51069
60644,51063
60643,51057
60643,51052
60643,50916
60643,50910
60644,50905
60646,50899
60648,50894
60650,50888
60653,50884
60656,50879
60660,50875
60664,50871
60669,50868
60674,50865
60679,50862
60684,50860
60690,50859
60696,50858
60701,50858
60817,50858
60823,50858
" /> 
<polyline style="fill-rule:evenodd;"
points="61199,47827
61205,47827
61210,47829
61216,47831
61221,47833
61226,47836
61230,47839
61234,47843
61238,47848
61242,47852
61245,47857
61247,47862
61249,47867
61250,47873
61251,47879
61251,47884
61251,48020
61251,48026
61250,48031
61249,48037
61247,48042
61245,48048
61242,48052
61238,48057
61234,48061
61230,48065
61226,48068
61221,48071
61216,48074
61210,48076
61205,48077
61199,48078
61193,48078
61077,48078
61072,48078
61066,48077
61060,48076
61055,48074
61050,48071
61045,48068
61040,48065
61036,48061
61032,48057
61029,48052
61026,48048
61024,48042
61022,48037
61020,48031
61019,48026
61019,48020
61019,47884
61019,47879
61020,47873
61022,47867
61024,47862
61026,47857
61029,47852
61032,47848
61036,47843
61040,47839
61045,47836
61050,47833
61055,47831
61060,47829
61066,47827
61072,47827
61077,47826
61193,47826
61199,47827
" /> 
<polyline style="fill-rule:evenodd;"
points="60817,47827
60823,47827
60828,47829
60834,47831
60839,47833
60844,47836
60848,47839
60853,47843
60856,47848
60860,47852
60863,47857
60865,47862
60867,47867
60868,47873
60869,47879
60870,47884
60870,48020
60869,48026
60868,48031
60867,48037
60865,48042
60863,48048
60860,48052
60856,48057
60853,48061
60848,48065
60844,48068
60839,48071
60834,48074
60828,48076
60823,48077
60817,48078
60812,48078
60695,48078
60690,48078
60684,48077
60679,48076
60673,48074
60668,48071
60663,48068
60659,48065
60654,48061
60650,48057
60647,48052
60644,48048
60642,48042
60640,48037
60638,48031
60638,48026
60637,48020
60637,47884
60638,47879
60638,47873
60640,47867
60642,47862
60644,47857
60647,47852
60650,47848
60654,47843
60659,47839
60663,47836
60668,47833
60673,47831
60679,47829
60684,47827
60690,47827
60695,47826
60812,47826
60817,47827
" /> 
<polyline style="fill-rule:evenodd;"
points="50112,52232
50118,52233
50124,52234
50129,52236
50134,52239
50139,52242
50144,52245
50148,52249
50152,52253
50155,52258
50158,52262
50160,52268
50162,52273
50164,52279
50165,52284
50165,52290
50165,52406
50165,52412
50164,52417
50162,52423
50160,52428
50158,52433
50155,52438
50152,52443
50148,52447
50144,52451
50139,52454
50134,52457
50129,52460
50124,52462
50118,52463
50112,52464
50107,52464
49971,52464
49965,52464
49960,52463
49954,52462
49949,52460
49944,52457
49939,52454
49934,52451
49930,52447
49926,52443
49923,52438
49920,52433
49917,52428
49915,52423
49914,52417
49913,52412
49913,52406
49913,52290
49913,52284
49914,52279
49915,52273
49917,52268
49920,52262
49923,52258
49926,52253
49930,52249
49934,52245
49939,52242
49944,52239
49949,52236
49954,52234
49960,52233
49965,52232
49971,52232
50107,52232
50112,52232
" /> 
<polyline style="fill-rule:evenodd;"
points="50112,52614
50118,52615
50124,52616
50129,52618
50134,52621
50139,52623
50144,52627
50148,52631
50152,52635
50155,52639
50158,52644
50160,52650
50162,52655
50164,52660
50165,52666
50165,52672
50165,52788
50165,52794
50164,52799
50162,52805
50160,52810
50158,52815
50155,52820
50152,52825
50148,52829
50144,52833
50139,52836
50134,52839
50129,52842
50124,52843
50118,52845
50112,52846
50107,52846
49971,52846
49965,52846
49960,52845
49954,52843
49949,52842
49944,52839
49939,52836
49934,52833
49930,52829
49926,52825
49923,52820
49920,52815
49917,52810
49915,52805
49914,52799
49913,52794
49913,52788
49913,52672
49913,52666
49914,52660
49915,52655
49917,52650
49920,52644
49923,52639
49926,52635
49930,52631
49934,52627
49939,52623
49944,52621
49949,52618
49954,52616
49960,52615
49965,52614
49971,52614
50107,52614
50112,52614
" /> 
<polyline style="fill-rule:evenodd;"
points="49522,52232
49528,52233
49533,52234
49538,52236
49544,52239
49548,52242
49553,52245
49557,52249
49561,52253
49565,52258
49567,52262
49570,52268
49572,52273
49573,52279
49574,52284
49574,52290
49574,52406
49574,52412
49573,52417
49572,52423
49570,52428
49567,52433
49565,52438
49561,52443
49557,52447
49553,52451
49548,52454
49544,52457
49538,52460
49533,52462
49528,52463
49522,52464
49516,52464
49380,52464
49375,52464
49369,52463
49364,52462
49358,52460
49353,52457
49348,52454
49344,52451
49339,52447
49336,52443
49332,52438
49329,52433
49327,52428
49325,52423
49323,52417
49323,52412
49322,52406
49322,52290
49323,52284
49323,52279
49325,52273
49327,52268
49329,52262
49332,52258
49336,52253
49339,52249
49344,52245
49348,52242
49353,52239
49358,52236
49364,52234
49369,52233
49375,52232
49380,52232
49516,52232
49522,52232
" /> 
<polyline style="fill-rule:evenodd;"
points="49522,52614
49528,52615
49533,52616
49538,52618
49544,52621
49548,52623
49553,52627
49557,52631
49561,52635
49565,52639
49567,52644
49570,52650
49572,52655
49573,52660
49574,52666
49574,52672
49574,52788
49574,52794
49573,52799
49572,52805
49570,52810
49567,52815
49565,52820
49561,52825
49557,52829
49553,52833
49548,52836
49544,52839
49538,52842
49533,52843
49528,52845
49522,52846
49516,52846
49380,52846
49375,52846
49369,52845
49364,52843
49358,52842
49353,52839
49348,52836
49344,52833
49339,52829
49336,52825
49332,52820
49329,52815
49327,52810
49325,52805
49323,52799
49323,52794
49322,52788
49322,52672
49323,52666
49323,52660
49325,52655
49327,52650
49329,52644
49332,52639
49336,52635
49339,52631
49344,52627
49348,52623
49353,52621
49358,52618
49364,52616
49369,52615
49375,52614
49380,52614
49516,52614
49522,52614
" /> 
<polyline style="fill-rule:evenodd;"
points="49916,42687
49921,42688
49927,42689
49932,42691
49937,42693
49942,42696
49947,42700
49951,42704
49955,42708
49958,42712
49961,42717
49964,42722
49966,42728
49967,42733
49968,42739
49968,42745
49968,42861
49968,42866
49967,42872
49966,42878
49964,42883
49961,42888
49958,42893
49955,42898
49951,42902
49947,42906
49942,42909
49937,42912
49932,42914
49927,42916
49921,42918
49916,42919
49910,42919
49774,42919
49768,42919
49763,42918
49757,42916
49752,42914
49747,42912
49742,42909
49737,42906
49733,42902
49729,42898
49726,42893
49723,42888
49720,42883
49719,42878
49717,42872
49716,42866
49716,42861
49716,42745
49716,42739
49717,42733
49719,42728
49720,42722
49723,42717
49726,42712
49729,42708
49733,42704
49737,42700
49742,42696
49747,42693
49752,42691
49757,42689
49763,42688
49768,42687
49774,42687
49910,42687
49916,42687
" /> 
<polyline style="fill-rule:evenodd;"
points="49916,42305
49921,42306
49927,42307
49932,42309
49937,42311
49942,42314
49947,42318
49951,42322
49955,42326
49958,42330
49961,42335
49964,42340
49966,42346
49967,42351
49968,42357
49968,42363
49968,42479
49968,42485
49967,42490
49966,42496
49964,42501
49961,42506
49958,42511
49955,42516
49951,42520
49947,42524
49942,42527
49937,42530
49932,42532
49927,42534
49921,42536
49916,42537
49910,42537
49774,42537
49768,42537
49763,42536
49757,42534
49752,42532
49747,42530
49742,42527
49737,42524
49733,42520
49729,42516
49726,42511
49723,42506
49720,42501
49719,42496
49717,42490
49716,42485
49716,42479
49716,42363
49716,42357
49717,42351
49719,42346
49720,42340
49723,42335
49726,42330
49729,42326
49733,42322
49737,42318
49742,42314
49747,42311
49752,42309
49757,42307
49763,42306
49768,42305
49774,42305
49910,42305
49916,42305
" /> 
</g>
<g style="fill:#000000; fill-opacity:1.0; 
stroke:#000000; stroke-width:78.7402; stroke-opacity:1; 
stroke-linecap:round; stroke-linejoin:round;">
</g>
<g style="fill:#000000; fill-opacity:0.0; 
stroke:#000000; stroke-width:78.7402; stroke-opacity:1; 
stroke-linecap:round; stroke-linejoin:round;">
<path d="M55472 50866
L55472 50629
" />
<path d="M55629 50866
L55629 50629
" />
<path d="M55787 50866
L55787 50629
" />
<path d="M55944 50866
L55944 50629
" />
<path d="M56102 50866
L56102 50629
" />
<path d="M56259 50866
L56259 50629
" />
<path d="M56417 50866
L56417 50629
" />
<path d="M56574 50866
L56574 50629
" />
<path d="M56732 50866
L56732 50629
" />
<path d="M56889 50866
L56889 50629
" />
<path d="M57047 50866
L57047 50629
" />
<path d="M57204 50866
L57204 50629
" />
<path d="M57362 50866
L57362 50629
" />
<path d="M57519 50866
L57519 50629
" />
<path d="M57677 50866
L57677 50629
" />
<path d="M57834 50866
L57834 50629
" />
<path d="M57992 50866
L57992 50629
" />
<path d="M58188 50433
L58425 50433
" />
<path d="M58188 50275
L58425 50275
" />
<path d="M58188 50118
L58425 50118
" />
<path d="M58188 49960
L58425 49960
" />
<path d="M58188 49803
L58425 49803
" />
<path d="M58188 49645
L58425 49645
" />
<path d="M58188 49488
L58425 49488
" />
<path d="M58188 49330
L58425 49330
" />
<path d="M58188 49173
L58425 49173
" />
<path d="M58188 49015
L58425 49015
" />
<path d="M58188 48858
L58425 48858
" />
<path d="M58188 48700
L58425 48700
" />
<path d="M58188 48543
L58425 48543
" />
<path d="M58188 48385
L58425 48385
" />
<path d="M58188 48228
L58425 48228
" />
<path d="M58188 48070
L58425 48070
" />
<path d="M58188 47913
L58425 47913
" />
<path d="M57992 47716
L57992 47480
" />
<path d="M57834 47716
L57834 47480
" />
<path d="M57677 47716
L57677 47480
" />
<path d="M57519 47716
L57519 47480
" />
<path d="M57362 47716
L57362 47480
" />
<path d="M57204 47716
L57204 47480
" />
<path d="M57047 47716
L57047 47480
" />
<path d="M56889 47716
L56889 47480
" />
<path d="M56732 47716
L56732 47480
" />
<path d="M56574 47716
L56574 47480
" />
<path d="M56417 47716
L56417 47480
" />
<path d="M56259 47716
L56259 47480
" />
<path d="M56102 47716
L56102 47480
" />
<path d="M55944 47716
L55944 47480
" />
<path d="M55787 47716
L55787 47480
" />
<path d="M55629 47716
L55629 47480
" />
<path d="M55472 47716
L55472 47480
" />
<path d="M55039 47913
L55275 47913
" />
<path d="M55039 48070
L55275 48070
" />
<path d="M55039 48228
L55275 48228
" />
<path d="M55039 48385
L55275 48385
" />
<path d="M55039 48543
L55275 48543
" />
<path d="M55039 48700
L55275 48700
" />
<path d="M55039 48858
L55275 48858
" />
<path d="M55039 49015
L55275 49015
" />
<path d="M55039 49173
L55275 49173
" />
<path d="M55039 49330
L55275 49330
" />
<path d="M55039 49488
L55275 49488
" />
<path d="M55039 49645
L55275 49645
" />
<path d="M55039 49803
L55275 49803
" />
<path d="M55039 49960
L55275 49960
" />
<path d="M55039 50118
L55275 50118
" />
<path d="M55039 50275
L55275 50275
" />
<path d="M55039 50433
L55275 50433
" />
</g>
<g style="fill:#000000; fill-opacity:0.0; 
stroke:#000000; stroke-width:0; stroke-opacity:1; 
stroke-linecap:round; stroke-linejoin:round;">
</g>
<g style="fill:#000000; fill-opacity:1.0; 
stroke:#000000; stroke-width:0; stroke-opacity:1; 
stroke-linecap:round; stroke-linejoin:round;">
<polyline style="fill-rule:evenodd;"
points="52962,51870
52962,52007
52706,52007
52706,51870
52962,51870
" /> 
<polyline style="fill-rule:evenodd;"
points="52962,51614
52962,51751
52706,51751
52706,51614
52962,51614
" /> 
<polyline style="fill-rule:evenodd;"
points="52962,51358
52962,51496
52706,51496
52706,51358
52962,51358
" /> 
<polyline style="fill-rule:evenodd;"
points="52962,51102
52962,51240
52706,51240
52706,51102
52962,51102
" /> 
<polyline style="fill-rule:evenodd;"
points="51742,51102
51742,51240
51486,51240
51486,51102
51742,51102
" /> 
<polyline style="fill-rule:evenodd;"
points="51742,51358
51742,51496
51486,51496
51486,51358
51742,51358
" /> 
<polyline style="fill-rule:evenodd;"
points="51742,51614
51742,51751
51486,51751
51486,51614
51742,51614
" /> 
<polyline style="fill-rule:evenodd;"
points="51742,51870
51742,52007
51486,52007
51486,51870
51742,51870
" /> 
<polyline style="fill-rule:evenodd;"
points="52495,51122
52495,51515
52258,51515
52258,51122
52495,51122
" /> 
<polyline style="fill-rule:evenodd;"
points="52189,51122
52189,51515
51953,51515
51953,51122
52189,51122
" /> 
<polyline style="fill-rule:evenodd;"
points="52189,51594
52189,51988
51953,51988
51953,51594
52189,51594
" /> 
<polyline style="fill-rule:evenodd;"
points="52495,51594
52495,51988
52258,51988
52258,51594
52495,51594
" /> 
<polyline style="fill-rule:evenodd;"
points="56761,44212
57017,44212
57017,44692
56761,44692
56761,44212
" /> 
<polyline style="fill-rule:evenodd;"
points="56013,44212
56269,44212
56269,44692
56013,44692
56013,44212
" /> 
<polyline style="fill-rule:evenodd;"
points="56013,43181
56269,43181
56269,43661
56013,43661
56013,43181
" /> 
<polyline style="fill-rule:evenodd;"
points="56387,43181
56643,43181
56643,43661
56387,43661
56387,43181
" /> 
<polyline style="fill-rule:evenodd;"
points="56761,43181
57017,43181
57017,43661
56761,43661
56761,43181
" /> 
<polyline style="fill-rule:evenodd;"
points="58730,43181
58986,43181
58986,43661
58730,43661
58730,43181
" /> 
<polyline style="fill-rule:evenodd;"
points="58356,43181
58612,43181
58612,43661
58356,43661
58356,43181
" /> 
<polyline style="fill-rule:evenodd;"
points="57982,43181
58238,43181
58238,43661
57982,43661
57982,43181
" /> 
<polyline style="fill-rule:evenodd;"
points="57982,44212
58238,44212
58238,44692
57982,44692
57982,44212
" /> 
<polyline style="fill-rule:evenodd;"
points="58730,44212
58986,44212
58986,44692
58730,44692
58730,44212
" /> 
<polyline style="fill-rule:evenodd;"
points="59094,48572
59960,48572
59960,49104
59094,49104
59094,48572
" /> 
<polyline style="fill-rule:evenodd;"
points="59094,47883
59960,47883
59960,48415
59094,48415
59094,47883
" /> 
<polyline style="fill-rule:evenodd;"
points="62661,33944
63055,33944
63055,34240
62661,34240
62661,33944
" /> 
<polyline style="fill-rule:evenodd;"
points="62661,34444
63055,34444
63055,34740
62661,34740
62661,34444
" /> 
<polyline style="fill-rule:evenodd;"
points="62661,35444
63055,35444
63055,35740
62661,35740
62661,35444
" /> 
<polyline style="fill-rule:evenodd;"
points="60682,33944
62278,33944
62278,35740
60682,35740
60682,33944
" /> 
<polyline style="fill-rule:evenodd;"
points="60495,35444
60682,35444
60682,35740
60495,35740
60495,35444
" /> 
<polyline style="fill-rule:evenodd;"
points="60495,33944
60682,33944
60682,34240
60495,34240
60495,33944
" /> 
<polyline style="fill-rule:evenodd;"
points="61755,35740
62112,35740
62112,35935
61755,35935
61755,35740
" /> 
<polyline style="fill-rule:evenodd;"
points="61755,33749
62112,33749
62112,33944
61755,33944
61755,33749
" /> 
<polyline style="fill-rule:evenodd;"
points="62661,34944
63055,34944
63055,35240
62661,35240
62661,34944
" /> 
<polyline style="fill-rule:evenodd;"
points="56755,29700
56755,29307
57051,29307
57051,29700
56755,29700
" /> 
<polyline style="fill-rule:evenodd;"
points="55560,30606
55560,30250
55755,30250
55755,30606
55560,30606
" /> 
<polyline style="fill-rule:evenodd;"
points="57551,30606
57551,30250
57746,30250
57746,30606
57551,30606
" /> 
<polyline style="fill-rule:evenodd;"
points="55755,31867
55755,31680
56051,31680
56051,31867
55755,31867
" /> 
<polyline style="fill-rule:evenodd;"
points="57255,31867
57255,31680
57551,31680
57551,31867
57255,31867
" /> 
<polyline style="fill-rule:evenodd;"
points="55755,31680
55755,30083
57551,30083
57551,31680
55755,31680
" /> 
<polyline style="fill-rule:evenodd;"
points="57255,29700
57255,29307
57551,29307
57551,29700
57255,29700
" /> 
<polyline style="fill-rule:evenodd;"
points="56255,29700
56255,29307
56551,29307
56551,29700
56255,29700
" /> 
<polyline style="fill-rule:evenodd;"
points="55755,29700
55755,29307
56051,29307
56051,29700
55755,29700
" /> 
<polyline style="fill-rule:evenodd;"
points="48759,42401
48759,42234
48917,42234
48917,42401
48759,42401
" /> 
<polyline style="fill-rule:evenodd;"
points="49015,42401
49015,42234
49173,42234
49173,42401
49015,42401
" /> 
<polyline style="fill-rule:evenodd;"
points="48503,42401
48503,42234
48661,42234
48661,42401
48503,42401
" /> 
<polyline style="fill-rule:evenodd;"
points="49015,41663
49015,41496
49173,41496
49173,41663
49015,41663
" /> 
<polyline style="fill-rule:evenodd;"
points="48503,41663
48503,41496
48661,41496
48661,41663
48503,41663
" /> 
<polyline style="fill-rule:evenodd;"
points="48759,41663
48759,41496
48917,41496
48917,41663
48759,41663
" /> 
<polyline style="fill-rule:evenodd;"
points="48543,42175
48543,41722
48917,41722
48917,42175
48543,42175
" /> 
<polyline style="fill-rule:evenodd;"
points="49035,42096
49035,41801
49153,41801
49153,42096
49035,42096
" /> 
<polyline style="fill-rule:evenodd;"
points="52106,42125
52106,42440
51751,42440
51751,42125
52106,42125
" /> 
<polyline style="fill-rule:evenodd;"
points="52106,41377
52106,41692
51751,41692
51751,41377
52106,41377
" /> 
<polyline style="fill-rule:evenodd;"
points="51318,41751
51318,42066
50964,42066
50964,41751
51318,41751
" /> 
<polyline style="fill-rule:evenodd;"
points="55388,44082
55394,44083
55399,44085
55405,44087
55410,44089
55415,44092
55419,44095
55423,44099
55427,44103
55431,44108
55434,44113
55436,44118
55438,44123
55439,44129
55440,44135
55440,44140
55440,44256
55440,44262
55439,44268
55438,44273
55436,44279
55434,44284
55431,44289
55427,44293
55423,44297
55419,44301
55415,44305
55410,44308
55405,44310
55399,44312
55394,44313
55388,44314
55382,44314
55247,44314
55241,44314
55235,44313
55230,44312
55224,44310
55219,44308
55214,44305
55210,44301
55205,44297
55202,44293
55198,44289
55195,44284
55193,44279
55191,44273
55190,44268
55189,44262
55188,44256
55188,44140
55189,44135
55190,44129
55191,44123
55193,44118
55195,44113
55198,44108
55202,44103
55205,44099
55210,44095
55214,44092
55219,44089
55224,44087
55230,44085
55235,44083
55241,44082
55247,44082
55382,44082
55388,44082
" /> 
<polyline style="fill-rule:evenodd;"
points="55388,44464
55394,44465
55399,44467
55405,44468
55410,44471
55415,44474
55419,44477
55423,44481
55427,44485
55431,44490
55434,44495
55436,44500
55438,44505
55439,44511
55440,44516
55440,44522
55440,44638
55440,44644
55439,44650
55438,44655
55436,44661
55434,44666
55431,44671
55427,44675
55423,44679
55419,44683
55415,44687
55410,44689
55405,44692
55399,44694
55394,44695
55388,44696
55382,44696
55247,44696
55241,44696
55235,44695
55230,44694
55224,44692
55219,44689
55214,44687
55210,44683
55205,44679
55202,44675
55198,44671
55195,44666
55193,44661
55191,44655
55190,44650
55189,44644
55188,44638
55188,44522
55189,44516
55190,44511
55191,44505
55193,44500
55195,44495
55198,44490
55202,44485
55205,44481
55210,44477
55214,44474
55219,44471
55224,44468
55230,44467
55235,44465
55241,44464
55247,44464
55382,44464
55388,44464
" /> 
</g> 
</svg>
