<?xml version="1.0" standalone="no"?>
 <!DOCTYPE svg PUBLIC "-//W3C//DTD SVG 1.1//EN" 
 "http://www.w3.org/Graphics/SVG/1.1/DTD/svg11.dtd"> 
<svg xmlns="http://www.w3.org/2000/svg" version="1.1" 
    width="29.7002cm" height="21.0007cm" viewBox="0 0 116930 82680 ">
<title>SVG Picture created as PM_Board-Edge.Cuts.svg date 2019/10/03 06:37:10 </title>
  <desc>Picture generated by PCBNEW </desc>
<g style="fill:#000000; fill-opacity:1;stroke:#000000; stroke-opacity:1;
stroke-linecap:round; stroke-linejoin:round; "
 transform="translate(0 0) scale(1 1)">
</g>
<g style="fill:#000000; fill-opacity:0.0; 
stroke:#000000; stroke-width:-0.000393701; stroke-opacity:1; 
stroke-linecap:round; stroke-linejoin:round;">
</g>
<g style="fill:#000000; fill-opacity:0.0; 
stroke:#000000; stroke-width:59.0551; stroke-opacity:1; 
stroke-linecap:round; stroke-linejoin:round;">
<path d="M69881 55118
L61220 55118
" />
<path d="M61220 54724
L61220 55118
" />
<path d="M57874 54724
L61220 54724
" />
<path d="M57874 55118
L57874 54724
" />
<path d="M46259 55118
L57874 55118
" />
<path d="M69881.9 55118.1 A1968.5 1968.5 0.0 0 0 71850.4 53149.6 " />
<path d="M44291.3 53149.6 A1968.5 1968.5 0.0 0 0 46259.8 55118.1 " />
<path d="M46259.8 27559.1 A1968.5 1968.5 0.0 0 0 44291.3 29527.6 " />
<path d="M71850.4 29527.6 A1968.5 1968.5 0.0 0 0 69881.9 27559.1 " />
<path d="M71850 53149
L71850 29527
" />
<path d="M44291 29527
L44291 53149
" />
<path d="M46259 27559
L69881 27559
" />
</g> 
</svg>
