<?xml version="1.0" standalone="no"?>
 <!DOCTYPE svg PUBLIC "-//W3C//DTD SVG 1.1//EN" 
 "http://www.w3.org/Graphics/SVG/1.1/DTD/svg11.dtd"> 
<svg xmlns="http://www.w3.org/2000/svg" version="1.1" 
    width="29.7002cm" height="21.0007cm" viewBox="0 0 116930 82680 ">
<title>SVG Picture created as PM_Board-B.Mask.svg date 2019/10/10 06:56:16 </title>
  <desc>Picture generated by PCBNEW </desc>
<g style="fill:#000000; fill-opacity:1;stroke:#000000; stroke-opacity:1;
stroke-linecap:round; stroke-linejoin:round; "
 transform="translate(0 0) scale(1 1)">
</g>
<g style="fill:#000000; fill-opacity:0.0; 
stroke:#000000; stroke-width:-0.000393701; stroke-opacity:1; 
stroke-linecap:round; stroke-linejoin:round;">
</g>
<g style="fill:#000000; fill-opacity:1.0; 
stroke:#000000; stroke-width:0; stroke-opacity:1; 
stroke-linecap:round; stroke-linejoin:round;">
<polyline style="fill-rule:evenodd;"
points="71998,54484
72039,54493
72158,54542
72253,54605
72264,54613
72355,54703
72426,54810
72440,54844
72475,54928
72500,55054
72500,55182
72480,55283
72475,55307
72429,55417
72426,55426
72356,55531
72355,55532
72264,55622
72264,55622
72158,55694
72039,55743
71998,55751
71914,55768
71786,55768
71702,55751
71660,55743
71542,55694
71436,55622
71436,55622
71345,55532
71344,55531
71274,55426
71270,55417
71225,55307
71220,55283
71200,55182
71200,55054
71225,54928
71260,54844
71274,54810
71345,54703
71436,54613
71446,54605
71542,54542
71660,54493
71702,54484
71786,54468
71914,54468
71998,54484
" /> 
<polyline style="fill-rule:evenodd;"
points="48376,54484
48417,54493
48536,54542
48631,54605
48642,54613
48733,54703
48804,54810
48818,54844
48853,54928
48878,55054
48878,55182
48858,55283
48853,55307
48807,55417
48804,55426
48734,55531
48733,55532
48642,55622
48642,55622
48536,55694
48417,55743
48376,55751
48292,55768
48164,55768
48080,55751
48038,55743
47920,55694
47813,55622
47813,55622
47723,55532
47722,55531
47652,55426
47648,55417
47603,55307
47598,55283
47578,55182
47578,55054
47603,54928
47637,54844
47652,54810
47723,54703
47813,54613
47824,54605
47920,54542
48038,54493
48080,54484
48164,54468
48292,54468
48376,54484
" /> 
<polyline style="fill-rule:evenodd;"
points="54549,54621
54625,54652
54692,54698
54750,54755
54795,54823
54827,54898
54842,54978
54842,55060
54827,55140
54795,55215
54750,55283
54692,55341
54625,55386
54549,55417
54469,55433
54388,55433
54308,55417
54233,55386
54165,55341
54107,55283
54062,55215
54031,55140
54015,55060
54015,54978
54031,54898
54062,54823
54107,54755
54165,54698
54233,54652
54308,54621
54388,54605
54469,54605
54549,54621
" /> 
<polyline style="fill-rule:evenodd;"
points="55534,54621
55609,54652
55677,54698
55734,54755
55780,54823
55811,54898
55827,54978
55827,55060
55811,55140
55780,55215
55734,55283
55677,55341
55609,55386
55534,55417
55454,55433
55372,55433
55292,55417
55217,55386
55149,55341
55091,55283
55046,55215
55015,55140
54999,55060
54999,54978
55015,54898
55046,54823
55091,54755
55149,54698
55217,54652
55292,54621
55372,54605
55454,54605
55534,54621
" /> 
<polyline style="fill-rule:evenodd;"
points="61833,54621
61908,54652
61976,54698
62034,54755
62079,54823
62110,54898
62126,54978
62126,55060
62110,55140
62079,55215
62034,55283
61976,55341
61908,55386
61833,55417
61753,55433
61671,55433
61591,55417
61516,55386
61448,55341
61391,55283
61345,55215
61314,55140
61298,55060
61298,54978
61314,54898
61345,54823
61391,54755
61448,54698
61516,54652
61591,54621
61671,54605
61753,54605
61833,54621
" /> 
<polyline style="fill-rule:evenodd;"
points="62817,54621
62892,54652
62960,54698
63018,54755
63063,54823
63094,54898
63110,54978
63110,55060
63094,55140
63063,55215
63018,55283
62960,55341
62892,55386
62817,55417
62737,55433
62656,55433
62576,55417
62500,55386
62433,55341
62375,55283
62330,55215
62298,55140
62283,55060
62283,54978
62298,54898
62330,54823
62375,54755
62433,54698
62500,54652
62576,54621
62656,54605
62737,54605
62817,54621
" /> 
<polyline style="fill-rule:evenodd;"
points="66754,54621
66829,54652
66897,54698
66955,54755
67000,54823
67031,54898
67047,54978
67047,55060
67031,55140
67000,55215
66955,55283
66897,55341
66829,55386
66754,55417
66674,55433
66593,55433
66513,55417
66437,55386
66370,55341
66312,55283
66267,55215
66235,55140
66220,55060
66220,54978
66235,54898
66267,54823
66312,54755
66370,54698
66437,54652
66513,54621
66593,54605
66674,54605
66754,54621
" /> 
<polyline style="fill-rule:evenodd;"
points="65770,54621
65845,54652
65913,54698
65971,54755
66016,54823
66047,54898
66063,54978
66063,55060
66047,55140
66016,55215
65971,55283
65913,55341
65845,55386
65770,55417
65690,55433
65608,55433
65528,55417
65453,55386
65385,55341
65328,55283
65282,55215
65251,55140
65235,55060
65235,54978
65251,54898
65282,54823
65328,54755
65385,54698
65453,54652
65528,54621
65608,54605
65690,54605
65770,54621
" /> 
<polyline style="fill-rule:evenodd;"
points="63801,54621
63877,54652
63944,54698
64002,54755
64047,54823
64078,54898
64094,54978
64094,55060
64078,55140
64047,55215
64002,55283
63944,55341
63877,55386
63801,55417
63721,55433
63640,55433
63560,55417
63485,55386
63417,55341
63359,55283
63314,55215
63283,55140
63267,55060
63267,54978
63283,54898
63314,54823
63359,54755
63417,54698
63485,54652
63560,54621
63640,54605
63721,54605
63801,54621
" /> 
<polyline style="fill-rule:evenodd;"
points="64786,54621
64861,54652
64929,54698
64986,54755
65032,54823
65063,54898
65079,54978
65079,55060
65063,55140
65032,55215
64986,55283
64929,55341
64861,55386
64786,55417
64706,55433
64624,55433
64544,55417
64469,55386
64401,55341
64343,55283
64298,55215
64267,55140
64251,55060
64251,54978
64267,54898
64298,54823
64343,54755
64401,54698
64469,54652
64544,54621
64624,54605
64706,54605
64786,54621
" /> 
<polyline style="fill-rule:evenodd;"
points="51903,52325
51929,52327
51974,52341
51996,52347
52051,52377
52058,52380
52072,52392
52112,52425
52145,52465
52156,52479
52156,52479
52189,52540
52189,52540
52209,52607
52216,52677
52209,52746
52196,52791
52189,52813
52160,52868
52156,52875
52145,52889
52112,52929
52072,52961
52058,52973
52058,52973
51996,53006
51974,53013
51929,53026
51903,53029
51877,53031
51744,53031
51718,53029
51692,53026
51647,53013
51625,53006
51563,52973
51563,52973
51549,52961
51509,52929
51476,52889
51465,52875
51461,52868
51432,52813
51425,52791
51412,52746
51405,52677
51412,52607
51432,52540
51432,52540
51465,52479
51465,52479
51476,52465
51509,52425
51549,52392
51563,52380
51570,52377
51625,52347
51647,52341
51692,52327
51718,52325
51744,52322
51877,52322
51903,52325
" /> 
<polyline style="fill-rule:evenodd;"
points="51903,51340
51929,51343
51974,51356
51996,51363
52051,51392
52058,51396
52072,51408
52112,51440
52145,51480
52156,51494
52156,51494
52189,51556
52189,51556
52209,51623
52216,51692
52209,51762
52196,51807
52189,51829
52160,51883
52156,51890
52145,51905
52112,51944
52072,51977
52058,51989
52058,51989
51996,52022
51974,52028
51929,52042
51903,52045
51877,52047
51744,52047
51718,52045
51692,52042
51647,52028
51625,52022
51563,51989
51563,51989
51549,51977
51509,51944
51476,51905
51465,51890
51461,51883
51432,51829
51425,51807
51412,51762
51405,51692
51412,51623
51432,51556
51432,51556
51465,51494
51465,51494
51476,51480
51509,51440
51549,51408
51563,51396
51570,51392
51625,51363
51647,51356
51692,51343
51718,51340
51744,51338
51877,51338
51903,51340
" /> 
<polyline style="fill-rule:evenodd;"
points="51903,50356
51929,50359
51974,50372
51996,50379
52051,50408
52058,50412
52072,50423
52112,50456
52145,50496
52156,50510
52156,50510
52189,50572
52189,50572
52209,50639
52216,50708
52209,50778
52196,50822
52189,50845
52160,50899
52156,50906
52145,50920
52112,50960
52072,50993
52058,51005
52058,51005
51996,51037
51974,51044
51929,51058
51903,51060
51877,51063
51744,51063
51718,51060
51692,51058
51647,51044
51625,51037
51563,51005
51563,51005
51549,50993
51509,50960
51476,50920
51465,50906
51461,50899
51432,50845
51425,50822
51412,50778
51405,50708
51412,50639
51432,50572
51432,50572
51465,50510
51465,50510
51476,50496
51509,50456
51549,50423
51563,50412
51570,50408
51625,50379
51647,50372
51692,50359
51718,50356
51744,50353
51877,50353
51903,50356
" /> 
<polyline style="fill-rule:evenodd;"
points="52158,49371
52171,49375
52183,49381
52194,49390
52203,49400
52209,49412
52213,49425
52214,49441
52214,50007
52213,50023
52209,50036
52203,50048
52194,50058
52183,50067
52171,50073
52158,50077
52142,50079
51479,50079
51463,50077
51450,50073
51438,50067
51427,50058
51419,50048
51412,50036
51408,50023
51407,50007
51407,49441
51408,49425
51412,49412
51419,49400
51427,49390
51438,49381
51450,49375
51463,49371
51479,49369
52142,49369
52158,49371
" /> 
<polyline style="fill-rule:evenodd;"
points="48376,46610
48417,46619
48536,46668
48641,46738
48642,46739
48733,46829
48804,46936
48853,47054
48878,47180
48878,47308
48853,47433
48804,47551
48733,47658
48642,47748
48642,47748
48536,47820
48417,47869
48376,47877
48292,47894
48164,47894
48080,47877
48038,47869
47920,47820
47813,47748
47813,47748
47723,47658
47652,47551
47603,47433
47578,47308
47578,47180
47603,47054
47652,46936
47723,46829
47813,46739
47815,46738
47920,46668
48038,46619
48080,46610
48164,46594
48292,46594
48376,46610
" /> 
<polyline style="fill-rule:evenodd;"
points="71998,46610
72039,46619
72158,46668
72263,46738
72264,46739
72355,46829
72426,46936
72475,47054
72500,47180
72500,47308
72475,47433
72426,47551
72355,47658
72264,47748
72264,47748
72158,47820
72039,47869
71998,47877
71914,47894
71786,47894
71702,47877
71660,47869
71542,47820
71436,47748
71436,47748
71345,47658
71274,47551
71225,47433
71200,47308
71200,47180
71225,47054
71274,46936
71345,46829
71436,46739
71437,46738
71542,46668
71660,46619
71702,46610
71786,46594
71914,46594
71998,46610
" /> 
<polyline style="fill-rule:evenodd;"
points="68330,44297
68467,44325
68628,44391
68773,44488
68897,44612
68994,44757
69060,44918
69080,45019
69094,45089
69094,45264
69088,45298
69060,45435
68994,45596
68897,45742
68773,45865
68628,45962
68467,46029
68330,46056
68295,46063
68121,46063
68087,46056
67950,46029
67788,45962
67643,45865
67520,45742
67423,45596
67356,45435
67329,45298
67322,45264
67322,45089
67336,45019
67356,44918
67423,44757
67520,44612
67643,44488
67788,44391
67950,44325
68087,44297
68121,44290
68295,44290
68330,44297
" /> 
<polyline style="fill-rule:evenodd;"
points="68330,40754
68467,40781
68628,40848
68773,40945
68897,41068
68994,41214
69060,41375
69080,41475
69094,41546
69094,41721
69088,41755
69060,41892
68994,42053
68897,42198
68773,42322
68628,42419
68467,42486
68330,42513
68295,42520
68121,42520
68087,42513
67950,42486
67788,42419
67643,42322
67520,42198
67423,42053
67356,41892
67329,41755
67322,41721
67322,41546
67336,41475
67356,41375
67423,41214
67520,41068
67643,40945
67788,40848
67950,40781
68087,40754
68121,40747
68295,40747
68330,40754
" /> 
<polyline style="fill-rule:evenodd;"
points="48376,38736
48417,38745
48536,38794
48641,38864
48642,38865
48733,38955
48804,39062
48853,39180
48878,39306
48878,39434
48853,39559
48804,39677
48733,39784
48642,39874
48642,39874
48536,39946
48417,39995
48376,40003
48292,40020
48164,40020
48080,40003
48038,39995
47920,39946
47813,39874
47813,39874
47723,39784
47652,39677
47603,39559
47578,39434
47578,39306
47603,39180
47652,39062
47723,38955
47813,38865
47815,38864
47920,38794
48038,38745
48080,38736
48164,38720
48292,38720
48376,38736
" /> 
<polyline style="fill-rule:evenodd;"
points="71998,38736
72039,38745
72158,38794
72263,38864
72264,38865
72355,38955
72426,39062
72475,39180
72500,39306
72500,39434
72475,39559
72426,39677
72355,39784
72264,39874
72264,39874
72158,39946
72039,39995
71998,40003
71914,40020
71786,40020
71702,40003
71660,39995
71542,39946
71436,39874
71436,39874
71345,39784
71274,39677
71225,39559
71200,39434
71200,39306
71225,39180
71274,39062
71345,38955
71436,38865
71437,38864
71542,38794
71660,38745
71702,38736
71786,38720
71914,38720
71998,38736
" /> 
<polyline style="fill-rule:evenodd;"
points="51903,36537
51929,36540
51974,36553
51996,36560
52051,36589
52058,36593
52072,36604
52112,36637
52145,36677
52156,36691
52156,36691
52189,36753
52189,36753
52209,36820
52216,36889
52209,36959
52196,37003
52189,37026
52160,37080
52156,37087
52145,37101
52112,37141
52072,37174
52058,37186
52058,37186
51996,37219
51974,37225
51929,37239
51903,37241
51877,37244
51744,37244
51718,37241
51692,37239
51647,37225
51625,37219
51563,37186
51563,37186
51549,37174
51509,37141
51476,37101
51465,37087
51461,37080
51432,37026
51425,37003
51412,36959
51405,36889
51412,36820
51432,36753
51432,36753
51465,36691
51465,36691
51476,36677
51509,36637
51549,36604
51563,36593
51570,36589
51625,36560
51647,36553
51692,36540
51718,36537
51744,36535
51877,36535
51903,36537
" /> 
<polyline style="fill-rule:evenodd;"
points="57821,36117
57837,36120
57866,36132
57892,36150
57914,36172
57932,36198
57944,36227
57950,36258
57950,36290
57944,36321
57932,36350
57914,36376
57892,36399
57866,36416
57837,36428
57821,36431
57806,36434
57774,36434
57759,36431
57743,36428
57714,36416
57688,36399
57665,36376
57648,36350
57636,36321
57630,36290
57630,36258
57636,36227
57648,36198
57665,36172
57688,36150
57714,36132
57743,36120
57759,36117
57774,36114
57806,36114
57821,36117
" /> 
<polyline style="fill-rule:evenodd;"
points="58943,36117
58959,36120
58988,36132
59014,36150
59036,36172
59054,36198
59066,36227
59072,36258
59072,36290
59066,36321
59054,36350
59036,36376
59014,36399
58988,36416
58959,36428
58943,36431
58928,36434
58896,36434
58881,36431
58865,36428
58836,36416
58810,36399
58787,36376
58770,36350
58758,36321
58752,36290
58752,36258
58758,36227
58770,36198
58787,36172
58810,36150
58836,36132
58865,36120
58881,36117
58896,36114
58928,36114
58943,36117
" /> 
<polyline style="fill-rule:evenodd;"
points="58382,36117
58398,36120
58427,36132
58453,36150
58475,36172
58493,36198
58505,36227
58511,36258
58511,36290
58505,36321
58493,36350
58475,36376
58453,36399
58427,36416
58398,36428
58382,36431
58367,36434
58335,36434
58320,36431
58304,36428
58275,36416
58249,36399
58226,36376
58209,36350
58197,36321
58191,36290
58191,36258
58197,36227
58209,36198
58226,36172
58249,36150
58275,36132
58304,36120
58320,36117
58335,36114
58367,36114
58382,36117
" /> 
<polyline style="fill-rule:evenodd;"
points="57260,36117
57276,36120
57305,36132
57331,36150
57353,36172
57371,36198
57383,36227
57389,36258
57389,36290
57383,36321
57371,36350
57353,36376
57331,36399
57305,36416
57276,36428
57260,36431
57245,36434
57213,36434
57198,36431
57182,36428
57153,36416
57127,36399
57104,36376
57087,36350
57075,36321
57068,36290
57068,36258
57075,36227
57087,36198
57104,36172
57127,36150
57153,36132
57182,36120
57198,36117
57213,36114
57245,36114
57260,36117
" /> 
<polyline style="fill-rule:evenodd;"
points="51902,35553
51929,35555
51974,35569
51996,35576
52051,35605
52058,35609
52072,35620
52112,35653
52145,35693
52156,35707
52156,35707
52189,35769
52189,35769
52209,35835
52216,35905
52209,35975
52196,36019
52189,36041
52160,36096
52156,36103
52147,36114
52112,36157
52072,36190
52058,36201
52058,36201
51996,36234
51974,36241
51929,36255
51903,36257
51877,36260
51744,36260
51718,36257
51692,36255
51647,36241
51625,36234
51563,36201
51563,36201
51549,36190
51509,36157
51474,36114
51465,36103
51461,36096
51432,36041
51425,36019
51412,35975
51405,35905
51412,35835
51432,35769
51432,35769
51465,35707
51465,35707
51476,35693
51509,35653
51549,35620
51563,35609
51570,35605
51625,35576
51647,35569
51692,35555
51719,35553
51744,35550
51877,35550
51902,35553
" /> 
<polyline style="fill-rule:evenodd;"
points="57260,35556
57276,35559
57305,35571
57331,35589
57353,35611
57371,35637
57383,35666
57389,35697
57389,35729
57383,35760
57371,35789
57353,35815
57331,35838
57305,35855
57276,35867
57260,35870
57245,35873
57213,35873
57198,35870
57182,35867
57153,35855
57127,35838
57104,35815
57087,35789
57075,35760
57068,35729
57068,35697
57075,35666
57087,35637
57104,35611
57127,35589
57153,35571
57182,35559
57198,35556
57213,35553
57245,35553
57260,35556
" /> 
<polyline style="fill-rule:evenodd;"
points="57821,35556
57837,35559
57866,35571
57892,35589
57914,35611
57932,35637
57944,35666
57950,35697
57950,35729
57944,35760
57932,35789
57914,35815
57892,35838
57866,35855
57837,35867
57821,35870
57806,35873
57774,35873
57759,35870
57743,35867
57714,35855
57688,35838
57665,35815
57648,35789
57636,35760
57630,35729
57630,35697
57636,35666
57648,35637
57665,35611
57688,35589
57714,35571
57743,35559
57759,35556
57774,35553
57806,35553
57821,35556
" /> 
<polyline style="fill-rule:evenodd;"
points="58382,35556
58398,35559
58427,35571
58453,35589
58475,35611
58493,35637
58505,35666
58511,35697
58511,35729
58505,35760
58493,35789
58475,35815
58453,35838
58427,35855
58398,35867
58382,35870
58367,35873
58335,35873
58320,35870
58304,35867
58275,35855
58249,35838
58226,35815
58209,35789
58197,35760
58191,35729
58191,35697
58197,35666
58209,35637
58226,35611
58249,35589
58275,35571
58304,35559
58320,35556
58335,35553
58367,35553
58382,35556
" /> 
<polyline style="fill-rule:evenodd;"
points="58943,35556
58959,35559
58988,35571
59014,35589
59036,35611
59054,35637
59066,35666
59072,35697
59072,35729
59066,35760
59054,35789
59036,35815
59014,35838
58988,35855
58959,35867
58943,35870
58928,35873
58896,35873
58881,35870
58865,35867
58836,35855
58810,35838
58787,35815
58770,35789
58758,35760
58752,35729
58752,35697
58758,35666
58770,35637
58787,35611
58810,35589
58836,35571
58865,35559
58881,35556
58896,35553
58928,35553
58943,35556
" /> 
<polyline style="fill-rule:evenodd;"
points="58943,34995
58959,34998
58988,35010
59014,35028
59036,35050
59054,35076
59066,35105
59072,35136
59072,35168
59066,35199
59054,35228
59036,35254
59014,35277
58988,35294
58959,35306
58943,35309
58928,35312
58896,35312
58881,35309
58865,35306
58836,35294
58810,35277
58787,35254
58770,35228
58758,35199
58752,35168
58752,35136
58758,35105
58770,35076
58787,35050
58810,35028
58836,35010
58865,34998
58881,34995
58896,34992
58928,34992
58943,34995
" /> 
<polyline style="fill-rule:evenodd;"
points="57260,34995
57276,34998
57305,35010
57331,35028
57353,35050
57371,35076
57383,35105
57389,35136
57389,35168
57383,35199
57371,35228
57353,35254
57331,35277
57305,35294
57276,35306
57260,35309
57245,35312
57213,35312
57198,35309
57182,35306
57153,35294
57127,35277
57104,35254
57087,35228
57075,35199
57068,35168
57068,35136
57075,35105
57087,35076
57104,35050
57127,35028
57153,35010
57182,34998
57198,34995
57213,34992
57245,34992
57260,34995
" /> 
<polyline style="fill-rule:evenodd;"
points="58382,34995
58398,34998
58427,35010
58453,35028
58475,35050
58493,35076
58505,35105
58511,35136
58511,35168
58505,35199
58493,35228
58475,35254
58453,35277
58427,35294
58398,35306
58382,35309
58367,35312
58335,35312
58320,35309
58304,35306
58275,35294
58249,35277
58226,35254
58209,35228
58197,35199
58191,35168
58191,35136
58197,35105
58209,35076
58226,35050
58249,35028
58275,35010
58304,34998
58320,34995
58335,34992
58367,34992
58382,34995
" /> 
<polyline style="fill-rule:evenodd;"
points="57821,34995
57837,34998
57866,35010
57892,35028
57914,35050
57932,35076
57944,35105
57950,35136
57950,35168
57944,35199
57932,35228
57914,35254
57892,35277
57866,35294
57837,35306
57821,35309
57806,35312
57774,35312
57759,35309
57743,35306
57714,35294
57688,35277
57665,35254
57648,35228
57636,35199
57630,35168
57630,35136
57636,35105
57648,35076
57665,35050
57688,35028
57714,35010
57743,34998
57759,34995
57774,34992
57806,34992
57821,34995
" /> 
<polyline style="fill-rule:evenodd;"
points="51903,34569
51929,34571
51974,34585
51996,34591
52051,34621
52058,34624
52072,34636
52112,34669
52145,34709
52156,34723
52156,34723
52189,34784
52189,34784
52209,34851
52216,34921
52209,34990
52203,35010
52189,35057
52163,35105
52156,35119
52145,35133
52112,35173
52072,35206
52058,35217
52058,35217
51996,35250
51974,35257
51929,35270
51903,35273
51877,35275
51744,35275
51718,35273
51692,35270
51647,35257
51625,35250
51563,35217
51563,35217
51549,35206
51509,35173
51476,35133
51465,35119
51458,35105
51432,35057
51418,35010
51412,34990
51405,34921
51412,34851
51432,34784
51432,34784
51465,34723
51465,34723
51476,34709
51509,34669
51549,34636
51563,34624
51570,34621
51625,34591
51647,34585
51692,34571
51718,34569
51744,34566
51877,34566
51903,34569
" /> 
<polyline style="fill-rule:evenodd;"
points="58943,34434
58959,34437
58988,34449
59014,34466
59036,34489
59054,34515
59066,34544
59072,34575
59072,34607
59066,34638
59054,34667
59036,34693
59014,34716
58988,34733
58959,34745
58943,34748
58928,34751
58896,34751
58881,34748
58865,34745
58836,34733
58810,34716
58787,34693
58770,34667
58758,34638
58752,34607
58752,34575
58758,34544
58770,34515
58787,34489
58810,34466
58836,34449
58865,34437
58881,34434
58896,34431
58928,34431
58943,34434
" /> 
<polyline style="fill-rule:evenodd;"
points="57260,34434
57276,34437
57305,34449
57331,34466
57353,34489
57371,34515
57383,34544
57389,34575
57389,34607
57383,34638
57371,34667
57353,34693
57331,34716
57305,34733
57276,34745
57260,34748
57245,34751
57213,34751
57198,34748
57182,34745
57153,34733
57127,34716
57104,34693
57087,34667
57075,34638
57068,34607
57068,34575
57075,34544
57087,34515
57104,34489
57127,34466
57153,34449
57182,34437
57198,34434
57213,34431
57245,34431
57260,34434
" /> 
<polyline style="fill-rule:evenodd;"
points="57821,34434
57837,34437
57866,34449
57892,34466
57914,34489
57932,34515
57944,34544
57950,34575
57950,34607
57944,34638
57932,34667
57914,34693
57892,34716
57866,34733
57837,34745
57821,34748
57806,34751
57774,34751
57759,34748
57743,34745
57714,34733
57688,34716
57665,34693
57648,34667
57636,34638
57630,34607
57630,34575
57636,34544
57648,34515
57665,34489
57688,34466
57714,34449
57743,34437
57759,34434
57774,34431
57806,34431
57821,34434
" /> 
<polyline style="fill-rule:evenodd;"
points="58382,34434
58398,34437
58427,34449
58453,34466
58475,34489
58493,34515
58505,34544
58511,34575
58511,34607
58505,34638
58493,34667
58475,34693
58453,34716
58427,34733
58398,34745
58382,34748
58367,34751
58335,34751
58320,34748
58304,34745
58275,34733
58249,34716
58226,34693
58209,34667
58197,34638
58191,34607
58191,34575
58197,34544
58209,34515
58226,34489
58249,34466
58275,34449
58304,34437
58320,34434
58335,34431
58367,34431
58382,34434
" /> 
<polyline style="fill-rule:evenodd;"
points="52158,33583
52171,33587
52183,33594
52194,33602
52203,33613
52209,33625
52213,33638
52214,33654
52214,34219
52213,34235
52209,34248
52203,34260
52194,34271
52183,34279
52171,34286
52158,34290
52142,34291
51479,34291
51463,34290
51450,34286
51438,34279
51427,34271
51419,34260
51412,34248
51408,34235
51407,34219
51407,33654
51408,33638
51412,33625
51419,33613
51427,33602
51438,33594
51450,33587
51463,33583
51479,33582
52142,33582
52158,33583
" /> 
<polyline style="fill-rule:evenodd;"
points="48376,30862
48417,30871
48536,30920
48569,30942
48642,30991
48733,31081
48733,31081
48774,31144
48804,31188
48818,31222
48853,31306
48878,31432
48878,31560
48853,31685
48804,31803
48780,31839
48733,31910
48642,32000
48642,32000
48536,32072
48417,32121
48376,32129
48292,32146
48164,32146
48080,32129
48038,32121
47920,32072
47813,32000
47813,32000
47723,31910
47675,31839
47652,31803
47603,31685
47578,31560
47578,31432
47603,31306
47637,31222
47652,31188
47681,31144
47723,31081
47723,31081
47813,30991
47887,30942
47920,30920
48038,30871
48080,30862
48164,30846
48292,30846
48376,30862
" /> 
<polyline style="fill-rule:evenodd;"
points="71998,30862
72039,30871
72158,30920
72191,30942
72264,30991
72355,31081
72355,31081
72397,31144
72426,31188
72440,31222
72475,31306
72500,31432
72500,31560
72475,31685
72426,31803
72402,31839
72355,31910
72264,32000
72264,32000
72158,32072
72039,32121
71998,32129
71914,32146
71786,32146
71702,32129
71660,32121
71542,32072
71436,32000
71436,32000
71345,31910
71297,31839
71274,31803
71225,31685
71200,31560
71200,31432
71225,31306
71260,31222
71274,31188
71303,31144
71345,31081
71345,31081
71436,30991
71509,30942
71542,30920
71660,30871
71702,30862
71786,30846
71914,30846
71998,30862
" /> 
<polyline style="fill-rule:evenodd;"
points="61373,31449
61415,31462
61455,31483
61489,31512
61518,31546
61539,31586
61552,31628
61555,31662
61555,31763
61552,31796
61539,31839
61518,31878
61489,31913
61455,31941
61415,31962
61373,31975
61328,31979
61284,31975
61241,31962
61202,31941
61167,31913
61139,31878
61118,31839
61105,31796
61101,31763
61101,31662
61105,31628
61118,31586
61139,31546
61167,31512
61202,31483
61241,31462
61284,31449
61328,31445
61373,31449
" /> 
<polyline style="fill-rule:evenodd;"
points="59463,31449
59506,31462
59545,31483
59580,31512
59608,31546
59629,31586
59642,31628
59646,31662
59646,31763
59642,31796
59629,31839
59608,31878
59580,31913
59545,31941
59506,31962
59463,31975
59419,31979
59374,31975
59332,31962
59292,31941
59258,31913
59229,31878
59208,31839
59195,31796
59192,31763
59192,31662
59195,31628
59208,31586
59229,31546
59258,31512
59292,31483
59332,31462
59374,31449
59419,31445
59463,31449
" /> 
<polyline style="fill-rule:evenodd;"
points="64577,30545
64645,30573
64707,30614
64759,30666
64800,30728
64828,30796
64842,30868
64842,30942
64828,31014
64800,31082
64759,31144
64707,31196
64645,31237
64577,31265
64505,31279
64431,31279
64359,31265
64291,31237
64229,31196
64177,31144
64136,31082
64108,31014
64094,30942
64094,30868
64108,30796
64136,30728
64177,30666
64229,30614
64291,30573
64359,30545
64431,30531
64505,30531
64577,30545
" /> 
<polyline style="fill-rule:evenodd;"
points="65561,30545
65630,30573
65691,30614
65743,30666
65784,30728
65812,30796
65827,30868
65827,30942
65812,31014
65784,31082
65743,31144
65691,31196
65630,31237
65561,31265
65489,31279
65415,31279
65343,31265
65275,31237
65214,31196
65161,31144
65120,31082
65092,31014
65078,30942
65078,30868
65092,30796
65120,30728
65161,30666
65214,30614
65275,30573
65343,30545
65415,30531
65489,30531
65561,30545
" /> 
<polyline style="fill-rule:evenodd;"
points="66546,30545
66614,30573
66675,30614
66727,30666
66768,30728
66797,30796
66811,30868
66811,30942
66797,31014
66768,31082
66727,31144
66675,31196
66614,31237
66546,31265
66473,31279
66400,31279
66327,31265
66259,31237
66198,31196
66146,31144
66105,31082
66076,31014
66062,30942
66062,30868
66076,30796
66105,30728
66146,30666
66198,30614
66259,30573
66327,30545
66400,30531
66473,30531
66546,30545
" /> 
<polyline style="fill-rule:evenodd;"
points="67530,30545
67598,30573
67659,30614
67712,30666
67753,30728
67781,30796
67795,30868
67795,30942
67781,31014
67753,31082
67712,31144
67659,31196
67598,31237
67530,31265
67458,31279
67384,31279
67312,31265
67243,31237
67182,31196
67130,31144
67089,31082
67061,31014
67046,30942
67046,30868
67061,30796
67089,30728
67130,30666
67182,30614
67243,30573
67312,30545
67384,30531
67458,30531
67530,30545
" /> 
<polyline style="fill-rule:evenodd;"
points="68779,31279
68031,31279
68031,30531
68779,30531
68779,31279
" /> 
<polyline style="fill-rule:evenodd;"
points="59370,30925
58503,30925
58503,30137
59370,30137
59370,30925
" /> 
<polyline style="fill-rule:evenodd;"
points="62244,30925
61377,30925
61377,30137
62244,30137
62244,30925
" /> 
</g> 
</svg>
