<?xml version="1.0" standalone="no"?>
 <!DOCTYPE svg PUBLIC "-//W3C//DTD SVG 1.1//EN" 
 "http://www.w3.org/Graphics/SVG/1.1/DTD/svg11.dtd"> 
<svg xmlns="http://www.w3.org/2000/svg" version="1.1" 
    width="29.7002cm" height="21.0007cm" viewBox="0 0 116930 82680 ">
<title>SVG Picture created as PM_Board-B.SilkS.svg date 2019/10/10 02:44:50 </title>
  <desc>Picture generated by PCBNEW </desc>
<g style="fill:#000000; fill-opacity:1;stroke:#000000; stroke-opacity:1;
stroke-linecap:round; stroke-linejoin:round; "
 transform="translate(0 0) scale(1 1)">
</g>
<g style="fill:#000000; fill-opacity:0.0; 
stroke:#000000; stroke-width:-0.000393701; stroke-opacity:1; 
stroke-linecap:round; stroke-linejoin:round;">
</g>
<g style="fill:#000000; fill-opacity:0.0; 
stroke:#000000; stroke-width:59.0551; stroke-opacity:1; 
stroke-linecap:round; stroke-linejoin:round;">
<path d="M62923 55580
L62968 55558
L63036 55558
L63103 55580
L63148 55625
L63171 55670
L63193 55760
L63193 55828
L63171 55918
L63148 55963
L63103 56008
L63036 56030
L62991 56030
L62923 56008
L62901 55985
L62901 55828
L62991 55828
" />
<path d="M62721 56008
L62653 56030
L62541 56030
L62496 56008
L62473 55985
L62451 55940
L62451 55895
L62473 55850
L62496 55828
L62541 55805
L62631 55783
L62676 55760
L62698 55738
L62721 55693
L62721 55648
L62698 55603
L62676 55580
L62631 55558
L62518 55558
L62451 55580
" />
<path d="M62248 55850
L61888 55850
" />
<path d="M61596 55760
L61641 55738
L61663 55715
L61686 55670
L61686 55648
L61663 55603
L61641 55580
L61596 55558
L61506 55558
L61461 55580
L61438 55603
L61416 55648
L61416 55670
L61438 55715
L61461 55738
L61506 55760
L61596 55760
L61641 55783
L61663 55805
L61686 55850
L61686 55940
L61663 55985
L61641 56008
L61596 56030
L61506 56030
L61461 56008
L61438 55985
L61416 55940
L61416 55850
L61438 55805
L61461 55783
L61506 55760
" />
<path d="M60853 56030
L60853 55558
L60673 55558
L60628 55580
L60606 55603
L60583 55648
L60583 55715
L60606 55760
L60628 55783
L60673 55805
L60853 55805
" />
<path d="M60313 56030
L60358 56008
L60381 55985
L60403 55940
L60403 55805
L60381 55760
L60358 55738
L60313 55715
L60246 55715
L60201 55738
L60178 55760
L60156 55805
L60156 55940
L60178 55985
L60201 56008
L60246 56030
L60313 56030
" />
<path d="M59999 55715
L59909 56030
L59819 55805
L59729 56030
L59639 55715
" />
<path d="M59279 56008
L59324 56030
L59414 56030
L59459 56008
L59481 55963
L59481 55783
L59459 55738
L59414 55715
L59324 55715
L59279 55738
L59256 55783
L59256 55828
L59481 55873
" />
<path d="M59054 56030
L59054 55715
" />
<path d="M59054 55805
L59031 55760
L59009 55738
L58964 55715
L58919 55715
" />
<path d="M58401 56030
L58401 55558
L58244 55895
L58086 55558
L58086 56030
" />
<path d="M57659 56030
L57659 55783
L57681 55738
L57726 55715
L57816 55715
L57861 55738
" />
<path d="M57659 56008
L57704 56030
L57816 56030
L57861 56008
L57884 55963
L57884 55918
L57861 55873
L57816 55850
L57704 55850
L57659 55828
" />
<path d="M57434 55715
L57434 56030
" />
<path d="M57434 55760
L57411 55738
L57366 55715
L57299 55715
L57254 55738
L57231 55783
L57231 56030
" />
<path d="M56804 56030
L56804 55783
L56826 55738
L56871 55715
L56961 55715
L57006 55738
" />
<path d="M56804 56008
L56849 56030
L56961 56030
L57006 56008
L57029 55963
L57029 55918
L57006 55873
L56961 55850
L56849 55850
L56804 55828
" />
<path d="M56376 55715
L56376 56098
L56399 56143
L56421 56165
L56466 56188
L56534 56188
L56579 56165
" />
<path d="M56376 56008
L56421 56030
L56511 56030
L56556 56008
L56579 55985
L56601 55940
L56601 55805
L56579 55760
L56556 55738
L56511 55715
L56421 55715
L56376 55738
" />
<path d="M55972 56008
L56017 56030
L56107 56030
L56151 56008
L56174 55963
L56174 55783
L56151 55738
L56107 55715
L56017 55715
L55972 55738
L55949 55783
L55949 55828
L56174 55873
" />
<path d="M55747 56030
L55747 55715
" />
<path d="M55747 55760
L55724 55738
L55679 55715
L55612 55715
L55567 55738
L55544 55783
L55544 56030
" />
<path d="M55544 55783
L55522 55738
L55477 55715
L55409 55715
L55364 55738
L55342 55783
L55342 56030
" />
<path d="M54937 56008
L54982 56030
L55072 56030
L55117 56008
L55139 55963
L55139 55783
L55117 55738
L55072 55715
L54982 55715
L54937 55738
L54914 55783
L54914 55828
L55139 55873
" />
<path d="M54712 55715
L54712 56030
" />
<path d="M54712 55760
L54689 55738
L54644 55715
L54577 55715
L54532 55738
L54509 55783
L54509 56030
" />
<path d="M54352 55715
L54172 55715
" />
<path d="M54284 55558
L54284 55963
L54262 56008
L54217 56030
L54172 56030
" />
<path d="M53497 55783
L53429 55805
L53407 55828
L53384 55873
L53384 55940
L53407 55985
L53429 56008
L53474 56030
L53654 56030
L53654 55558
L53497 55558
L53452 55580
L53429 55603
L53407 55648
L53407 55693
L53429 55738
L53452 55760
L53497 55783
L53654 55783
" />
<path d="M53114 56030
L53159 56008
L53182 55985
L53204 55940
L53204 55805
L53182 55760
L53159 55738
L53114 55715
L53047 55715
L53002 55738
L52979 55760
L52957 55805
L52957 55940
L52979 55985
L53002 56008
L53047 56030
L53114 56030
" />
<path d="M52552 56030
L52552 55783
L52574 55738
L52619 55715
L52709 55715
L52754 55738
" />
<path d="M52552 56008
L52597 56030
L52709 56030
L52754 56008
L52777 55963
L52777 55918
L52754 55873
L52709 55850
L52597 55850
L52552 55828
" />
<path d="M52327 56030
L52327 55715
" />
<path d="M52327 55805
L52304 55760
L52282 55738
L52237 55715
L52192 55715
" />
<path d="M51832 56030
L51832 55558
" />
<path d="M51832 56008
L51877 56030
L51967 56030
L52012 56008
L52035 55985
L52057 55940
L52057 55805
L52035 55760
L52012 55738
L51967 55715
L51877 55715
L51832 55738
" />
<path d="M50977 56030
L51135 55805
" />
<path d="M51247 56030
L51247 55558
L51067 55558
L51022 55580
L51000 55603
L50977 55648
L50977 55715
L51000 55760
L51022 55783
L51067 55805
L51247 55805
" />
<path d="M50595 56008
L50640 56030
L50730 56030
L50775 56008
L50797 55963
L50797 55783
L50775 55738
L50730 55715
L50640 55715
L50595 55738
L50572 55783
L50572 55828
L50797 55873
" />
<path d="M50415 55715
L50302 56030
L50190 55715
" />
<path d="M50010 55985
L49987 56008
L50010 56030
L50032 56008
L50010 55985
L50010 56030
" />
<path d="M49537 56030
L49807 56030
" />
<path d="M49672 56030
L49672 55558
L49717 55625
L49762 55670
L49807 55693
" />
<path d="M59076 56798
L59076 56325
L58964 56325
L58896 56348
L58851 56393
L58829 56438
L58806 56528
L58806 56595
L58829 56685
L58851 56730
L58896 56775
L58964 56798
L59076 56798
" />
<path d="M58424 56775
L58469 56798
L58559 56798
L58604 56775
L58626 56730
L58626 56550
L58604 56505
L58559 56483
L58469 56483
L58424 56505
L58401 56550
L58401 56595
L58626 56640
" />
<path d="M58221 56775
L58176 56798
L58086 56798
L58041 56775
L58019 56730
L58019 56708
L58041 56663
L58086 56640
L58154 56640
L58199 56618
L58221 56573
L58221 56550
L58199 56505
L58154 56483
L58086 56483
L58041 56505
" />
<path d="M57816 56798
L57816 56483
" />
<path d="M57816 56325
L57839 56348
L57816 56370
L57794 56348
L57816 56325
L57816 56370
" />
<path d="M57389 56483
L57389 56865
L57411 56910
L57434 56933
L57479 56955
L57546 56955
L57591 56933
" />
<path d="M57389 56775
L57434 56798
L57524 56798
L57569 56775
L57591 56753
L57614 56708
L57614 56573
L57591 56528
L57569 56505
L57524 56483
L57434 56483
L57389 56505
" />
<path d="M57164 56483
L57164 56798
" />
<path d="M57164 56528
L57141 56505
L57096 56483
L57029 56483
L56984 56505
L56961 56550
L56961 56798
" />
<path d="M56556 56775
L56601 56798
L56691 56798
L56736 56775
L56759 56730
L56759 56550
L56736 56505
L56691 56483
L56601 56483
L56556 56505
L56534 56550
L56534 56595
L56759 56640
" />
<path d="M56129 56798
L56129 56325
" />
<path d="M56129 56775
L56174 56798
L56264 56798
L56309 56775
L56331 56753
L56354 56708
L56354 56573
L56331 56528
L56309 56505
L56264 56483
L56174 56483
L56129 56505
" />
<path d="M55544 56798
L55544 56325
" />
<path d="M55544 56505
L55499 56483
L55409 56483
L55364 56505
L55342 56528
L55319 56573
L55319 56708
L55342 56753
L55364 56775
L55409 56798
L55499 56798
L55544 56775
" />
<path d="M55162 56483
L55049 56798
" />
<path d="M54937 56483
L55049 56798
L55094 56910
L55117 56933
L55162 56955
" />
<path d="M54464 56325
L54194 56325
" />
<path d="M54329 56798
L54329 56325
" />
<path d="M54037 56753
L54014 56775
L54037 56798
L54059 56775
L54037 56753
L54037 56798
" />
<path d="M53812 56798
L53812 56325
L53542 56798
L53542 56325
" />
<path d="M53317 56798
L53317 56483
" />
<path d="M53317 56325
L53339 56348
L53317 56370
L53294 56348
L53317 56325
L53317 56370
" />
<path d="M53137 56483
L53047 56798
L52957 56573
L52867 56798
L52777 56483
" />
<path d="M52394 56798
L52394 56550
L52417 56505
L52462 56483
L52552 56483
L52597 56505
" />
<path d="M52394 56775
L52439 56798
L52552 56798
L52597 56775
L52619 56730
L52619 56685
L52597 56640
L52552 56618
L52439 56618
L52394 56595
" />
<path d="M51832 56370
L51810 56348
L51765 56325
L51652 56325
L51607 56348
L51585 56370
L51562 56415
L51562 56460
L51585 56528
L51855 56798
L51562 56798
" />
<path d="M51270 56325
L51225 56325
L51180 56348
L51157 56370
L51135 56415
L51112 56505
L51112 56618
L51135 56708
L51157 56753
L51180 56775
L51225 56798
L51270 56798
L51315 56775
L51337 56753
L51360 56708
L51382 56618
L51382 56505
L51360 56415
L51337 56370
L51315 56348
L51270 56325
" />
<path d="M50662 56798
L50932 56798
" />
<path d="M50797 56798
L50797 56325
L50842 56393
L50887 56438
L50932 56460
" />
<path d="M50437 56798
L50347 56798
L50302 56775
L50280 56753
L50235 56685
L50212 56595
L50212 56415
L50235 56370
L50257 56348
L50302 56325
L50392 56325
L50437 56348
L50460 56370
L50482 56415
L50482 56528
L50460 56573
L50437 56595
L50392 56618
L50302 56618
L50257 56595
L50235 56573
L50212 56528
" />
<path d="M50010 56753
L49987 56775
L50010 56798
L50032 56775
L50010 56753
L50010 56798
" />
<path d="M49762 56798
L49672 56798
L49627 56775
L49605 56753
L49560 56685
L49537 56595
L49537 56415
L49560 56370
L49582 56348
L49627 56325
L49717 56325
L49762 56348
L49785 56370
L49807 56415
L49807 56528
L49785 56573
L49762 56595
L49717 56618
L49627 56618
L49582 56595
L49560 56573
L49537 56528
" />
</g>
<g style="fill:#000000; fill-opacity:1.0; 
stroke:#000000; stroke-width:3.93701; stroke-opacity:1; 
stroke-linecap:round; stroke-linejoin:round;">
<polyline style="fill-rule:evenodd;"
points="61632,53244
61722,53239
61839,53230
61919,53219
61965,53204
61982,53185
61982,53183
61988,53172
62011,53163
62055,53158
62127,53155
62232,53154
62272,53154
62399,53156
62488,53160
62542,53168
62563,53180
62554,53196
62545,53202
62522,53208
62464,53218
62379,53232
62272,53248
62150,53266
62100,53274
61973,53292
61858,53309
61763,53324
61692,53335
61652,53343
61647,53344
61634,53364
61626,53416
61622,53502
61622,53544
61622,53734
62258,53734
62414,53734
62557,53733
62682,53731
62784,53729
62859,53726
62901,53723
62908,53721
62915,53695
62920,53642
62922,53581
62922,53454
62827,53456
62715,53461
62629,53473
62573,53491
62552,53513
62552,53514
62533,53528
62483,53539
62411,53547
62325,53552
62234,53554
62146,53552
62070,53547
62015,53538
61989,53525
61989,53524
61982,53493
61984,53485
62005,53480
62060,53471
62144,53457
62250,53441
62373,53422
62452,53411
62912,53344
62912,52964
61632,52964
61632,53244
" /> 
<polyline style="fill-rule:evenodd;"
points="63722,53184
63674,53268
63632,53336
63600,53382
63582,53400
63580,53400
63567,53376
63541,53324
63507,53253
63480,53194
63443,53113
63409,53043
63385,52995
63376,52979
63350,52969
63298,52960
63232,52955
63162,52953
63099,52955
63055,52961
63041,52969
63049,52991
63071,53044
63106,53121
63149,53218
63200,53329
63214,53359
63387,53734
63569,53734
63752,53734
63859,53544
63902,53468
63939,53406
63964,53366
63972,53354
63985,53370
64013,53414
64052,53479
64091,53544
64203,53734
64564,53734
64669,53509
64712,53416
64752,53330
64783,53261
64800,53219
64821,53178
64848,53160
64897,53154
64914,53154
65002,53154
65002,52953
64788,52959
64575,52964
64474,53189
64435,53274
64400,53341
64374,53385
64360,53400
64359,53399
64344,53377
64314,53327
64273,53256
64227,53174
64111,52964
63980,52958
63850,52953
63722,53184
" /> 
<polyline style="fill-rule:evenodd;"
points="65787,52959
65132,52964
65126,53349
65121,53734
66442,53734
66442,53154
66082,53154
66082,53341
66080,53424
66077,53491
66071,53533
66068,53541
66044,53546
65987,53549
65906,53551
65808,53550
65773,53550
65492,53544
65486,53349
65480,53154
66082,53154
66442,53154
66442,52954
65787,52959
" /> 
<polyline style="fill-rule:evenodd;"
points="66622,53277
66787,53263
66876,53255
66933,53247
66964,53238
66978,53223
66982,53201
66982,53193
66985,53176
66998,53165
67029,53158
67085,53155
67172,53154
67192,53154
67402,53154
67402,53734
67572,53734
67663,53732
67720,53726
67748,53714
67753,53707
67757,53677
67759,53616
67759,53532
67758,53434
67758,53418
67752,53156
67932,53144
67932,52964
67724,52959
67629,52957
67565,52958
67523,52964
67495,52976
67470,52996
67469,52997
67422,53041
67375,52998
67357,52982
67335,52971
67303,52963
67256,52958
67187,52956
67089,52954
66975,52954
66622,52954
66622,53277
" /> 
<polyline style="fill-rule:evenodd;"
points="68987,52955
68920,52958
68878,52965
68850,52978
68832,52994
68806,53020
68784,53021
68750,52997
68746,52994
68725,52980
68699,52969
68662,52962
68606,52958
68528,52955
68419,52954
68339,52954
67982,52954
67982,53280
68105,53267
68181,53260
68250,53255
68285,53254
68326,53248
68341,53223
68342,53204
68342,53154
68762,53154
68762,53734
69122,53734
69122,53154
69302,53154
69302,52954
69085,52954
68987,52955
" /> 
<polyline style="fill-rule:evenodd;"
points="70240,52719
69739,52724
69520,53224
69463,53356
69411,53474
69367,53576
69333,53655
69310,53708
69302,53729
69302,53729
69320,53731
69370,53733
69443,53734
69493,53734
69684,53734
69743,53604
69803,53473
70114,53479
70425,53484
70478,53609
70532,53734
70727,53734
70922,53734
70894,53669
70877,53630
70848,53561
70808,53471
70763,53366
70724,53278
70717,53263
70322,53263
70303,53268
70253,53271
70179,53274
70112,53274
70026,53273
69956,53268
69913,53262
69902,53256
69909,53231
69930,53178
69960,53109
69975,53076
70010,52999
70036,52951
70059,52926
70083,52916
70112,52914
70144,52916
70167,52927
70189,52953
70214,53002
70249,53081
70249,53083
70281,53158
70306,53219
70320,53256
70322,53263
70717,53263
70678,53172
70638,53078
70607,53003
70588,52952
70582,52933
70599,52921
70644,52915
70662,52914
70742,52914
70742,52714
70240,52719
" /> 
<polyline style="fill-rule:evenodd;"
points="58813,48782
58837,48834
58876,48917
58929,49029
58995,49166
59072,49328
59160,49511
59257,49713
59361,49931
59473,50163
59590,50406
59711,50659
59836,50918
59963,51182
60091,51447
60218,51711
60344,51973
60467,52228
60587,52476
60701,52713
60810,52937
60910,53146
61003,53336
61085,53507
61157,53654
61217,53777
61263,53871
61295,53936
61311,53968
61313,53971
61322,53961
61329,53941
61336,53915
61350,53854
61371,53761
61399,53640
61432,53494
61470,53327
61511,53143
61556,52946
61589,52798
61635,52594
61678,52402
61718,52225
61755,52068
61786,51932
61811,51823
61830,51743
61841,51696
61845,51685
61865,51681
61922,51674
62012,51662
62130,51648
62274,51630
62440,51610
62625,51589
62825,51565
62990,51546
63199,51522
63395,51499
63576,51478
63738,51459
63876,51442
63989,51428
64072,51418
64121,51411
64134,51409
64117,51400
64066,51373
63983,51331
63871,51274
63730,51204
63563,51120
63373,51025
63160,50918
62927,50802
62676,50677
62408,50543
62127,50403
61833,50257
61529,50106
61476,50080
61170,49928
60874,49781
60590,49640
60319,49506
60065,49380
59828,49263
59610,49156
59415,49059
59242,48975
59096,48903
58977,48845
58888,48802
58830,48775
58806,48764
58805,48764
58813,48782
" /> 
<polyline style="fill-rule:evenodd;"
points="70185,53930
70182,53944
70198,53971
70212,53974
70238,53958
70242,53944
70226,53918
70212,53914
70185,53930
" /> 
<polyline style="fill-rule:evenodd;"
points="65840,54041
65822,54062
65822,54064
65837,54086
65885,54094
65892,54094
65943,54088
65962,54067
65962,54064
65947,54042
65898,54034
65892,54034
65840,54041
" /> 
<polyline style="fill-rule:evenodd;"
points="59124,54251
59122,54264
59134,54292
59162,54287
59168,54282
59172,54257
59152,54236
59141,54234
59124,54251
" /> 
<polyline style="fill-rule:evenodd;"
points="63654,54040
63608,54061
63586,54104
63582,54164
63587,54222
63601,54264
63606,54270
63642,54285
63701,54293
63768,54293
63826,54285
63858,54270
63874,54232
63877,54209
63820,54209
63809,54228
63775,54234
63733,54234
63677,54233
63651,54223
63642,54196
63642,54163
63642,54092
63727,54098
63780,54105
63806,54120
63816,54153
63818,54169
63820,54209
63877,54209
63881,54173
63877,54112
63864,54066
63858,54058
63825,54044
63768,54036
63732,54034
63654,54040
" /> 
<polyline style="fill-rule:evenodd;"
points="66970,54041
66926,54064
66905,54110
66902,54164
66907,54222
66921,54264
66926,54270
66962,54285
67021,54293
67088,54293
67146,54285
67178,54270
67200,54226
67189,54181
67152,54142
67095,54118
67057,54114
67013,54123
67001,54144
67020,54166
67065,54178
67120,54190
67139,54208
67121,54225
67070,54234
67053,54234
66997,54233
66971,54223
66962,54197
66962,54164
66964,54121
66977,54101
67012,54095
67052,54094
67111,54090
67138,54077
67142,54064
67131,54045
67092,54036
67046,54034
66970,54041
" /> 
<polyline style="fill-rule:evenodd;"
points="69074,54040
69028,54061
69006,54104
69002,54164
69007,54222
69021,54264
69026,54270
69062,54285
69121,54293
69188,54293
69246,54285
69278,54270
69294,54232
69297,54209
69240,54209
69229,54228
69195,54234
69153,54234
69097,54233
69071,54223
69062,54196
69062,54163
69062,54092
69147,54098
69200,54105
69226,54120
69236,54153
69238,54169
69240,54209
69297,54209
69301,54173
69297,54112
69284,54066
69278,54058
69245,54044
69188,54036
69152,54034
69074,54040
" /> 
<polyline style="fill-rule:evenodd;"
points="59272,54041
59222,54064
59202,54105
59202,54117
59220,54167
59267,54202
59333,54214
59385,54205
59403,54185
59387,54164
59338,54151
59283,54138
59265,54121
59282,54104
59333,54095
59350,54094
59406,54096
59433,54105
59441,54132
59442,54164
59439,54211
59421,54230
59377,54234
59372,54234
59323,54239
59304,54256
59302,54274
59304,54305
59307,54311
59328,54307
59373,54301
59382,54299
59451,54284
59488,54252
59501,54197
59502,54181
59495,54104
59469,54059
59418,54038
59355,54034
59272,54041
" /> 
<polyline style="fill-rule:evenodd;"
points="60016,54041
59960,54065
59931,54111
59924,54184
59926,54207
59934,54271
59948,54296
59964,54283
59977,54233
59982,54200
59992,54104
60162,54092
60162,54203
60165,54275
60177,54310
60198,54310
60208,54301
60215,54275
60220,54222
60222,54161
60222,54034
60105,54034
60016,54041
" /> 
<polyline style="fill-rule:evenodd;"
points="60361,54039
60319,54050
60306,54058
60288,54098
60282,54157
60287,54218
60303,54264
60311,54274
60358,54294
60424,54301
60492,54296
60529,54284
60569,54249
60576,54207
60556,54164
60512,54131
60451,54115
60437,54114
60393,54123
60381,54144
60400,54166
60445,54178
60500,54190
60519,54208
60501,54225
60450,54234
60433,54234
60377,54233
60351,54223
60342,54197
60342,54165
60344,54122
60360,54101
60399,54093
60425,54090
60479,54081
60513,54065
60517,54059
60505,54044
60467,54036
60414,54034
60361,54039
" /> 
<polyline style="fill-rule:evenodd;"
points="60687,54041
60647,54067
60627,54118
60622,54201
60622,54202
60627,54259
60639,54298
60655,54312
60670,54293
60671,54291
60678,54255
60685,54198
60686,54184
60692,54133
60709,54109
60748,54100
60767,54098
60823,54086
60842,54063
60842,54063
60828,54044
60784,54035
60752,54034
60687,54041
" /> 
<polyline style="fill-rule:evenodd;"
points="60877,53921
60868,53946
60863,53996
60862,54077
60862,54103
60864,54208
60872,54275
60885,54306
60905,54304
60909,54300
60914,54276
60919,54221
60921,54146
60922,54101
60921,54011
60917,53955
60909,53925
60895,53915
60892,53914
60877,53921
" /> 
<polyline style="fill-rule:evenodd;"
points="61031,54037
60993,54045
60982,54062
60982,54063
60995,54083
61040,54094
61087,54098
61148,54103
61179,54113
61190,54133
61192,54164
61189,54199
61176,54218
61142,54226
61085,54230
61022,54236
60991,54247
60985,54266
60985,54268
61005,54291
61055,54301
61077,54302
61136,54302
61179,54299
61187,54297
61230,54266
61256,54210
61261,54142
61242,54076
61241,54073
61221,54050
61186,54039
61125,54034
61101,54034
61031,54037
" /> 
<polyline style="fill-rule:evenodd;"
points="61518,54042
61486,54058
61471,54091
61464,54146
61463,54206
61469,54257
61482,54284
61520,54295
61580,54300
61644,54300
61693,54293
61699,54292
61742,54261
61755,54221
61741,54179
61707,54142
61656,54119
61594,54117
61590,54118
61552,54133
61549,54154
61579,54171
61615,54178
61671,54188
61689,54204
61670,54219
61615,54230
61607,54230
61522,54237
61522,54165
61524,54120
61539,54100
61578,54094
61602,54094
61657,54089
61680,54073
61682,54064
61664,54046
61622,54035
61569,54034
61518,54042
" /> 
<polyline style="fill-rule:evenodd;"
points="62002,54037
61964,54049
61942,54073
61941,54076
61931,54129
61954,54175
62005,54205
62062,54214
62120,54206
62144,54188
62134,54168
62088,54152
62071,54151
62016,54140
61999,54124
62019,54108
62076,54098
62077,54098
62162,54092
62162,54163
62159,54210
62142,54230
62099,54234
62090,54234
62042,54238
62025,54254
62025,54268
62048,54293
62096,54304
62156,54298
62181,54291
62207,54273
62219,54239
62222,54179
62217,54117
62205,54070
62198,54058
62165,54045
62108,54036
62068,54034
62002,54037
" /> 
<polyline style="fill-rule:evenodd;"
points="62293,54037
62289,54046
62311,54069
62341,54095
62410,54154
62346,54220
62302,54268
62285,54295
62293,54306
62311,54308
62341,54294
62385,54260
62411,54235
62451,54191
62477,54158
62482,54148
62465,54118
62426,54084
62377,54053
62332,54037
62322,54036
62293,54037
" /> 
<polyline style="fill-rule:evenodd;"
points="62523,53917
62512,53929
62506,53959
62505,54014
62506,54100
62506,54108
62512,54212
62522,54279
62538,54310
62560,54308
62568,54301
62574,54277
62579,54221
62581,54145
62582,54101
62581,54014
62578,53959
62571,53929
62559,53917
62541,53914
62523,53917
" /> 
<polyline style="fill-rule:evenodd;"
points="62698,54042
62666,54058
62650,54094
62643,54152
62644,54214
62655,54262
62659,54270
62689,54288
62743,54299
62806,54302
62863,54296
62879,54292
62922,54261
62935,54221
62921,54179
62887,54142
62836,54119
62774,54117
62770,54118
62732,54133
62730,54154
62759,54172
62794,54178
62855,54190
62878,54207
62864,54224
62814,54234
62793,54234
62737,54233
62711,54223
62702,54197
62702,54164
62704,54119
62719,54100
62758,54094
62782,54094
62837,54089
62860,54073
62862,54064
62844,54046
62802,54035
62749,54034
62698,54042
" /> 
<polyline style="fill-rule:evenodd;"
points="63042,54045
63005,54065
62987,54102
62985,54161
62986,54188
62994,54259
63007,54293
63021,54290
63033,54250
63038,54199
63044,54137
63055,54105
63075,54095
63082,54094
63105,54101
63118,54126
63124,54181
63126,54199
63134,54267
63148,54300
63160,54304
63179,54291
63188,54247
63190,54204
63193,54145
63202,54114
63224,54101
63246,54098
63277,54097
63294,54109
63302,54145
63306,54197
63315,54261
63331,54302
63351,54315
63370,54294
63373,54289
63378,54253
63379,54194
63378,54152
63372,54044
63205,54038
63107,54037
63042,54045
" /> 
<polyline style="fill-rule:evenodd;"
points="64048,53952
64042,53984
64035,54020
64008,54033
63982,54034
63934,54043
63922,54064
63940,54088
63982,54094
64017,54097
64035,54110
64041,54146
64042,54193
64047,54264
64061,54303
64082,54306
64089,54300
64096,54274
64101,54223
64102,54191
64104,54132
64113,54103
64134,54095
64142,54094
64174,54082
64182,54064
64165,54040
64142,54034
64110,54023
64102,53984
64091,53944
64072,53934
64048,53952
" /> 
<polyline style="fill-rule:evenodd;"
points="64438,54038
64408,54049
64402,54064
64414,54084
64455,54094
64497,54097
64592,54100
64495,54113
64435,54127
64391,54146
64381,54155
64363,54212
64379,54261
64390,54273
64424,54287
64479,54296
64541,54301
64596,54300
64631,54293
64635,54289
64636,54261
64601,54242
64532,54234
64519,54234
64454,54228
64426,54213
64436,54196
64484,54182
64517,54178
64590,54164
64628,54134
64629,54091
64622,54076
64600,54050
64561,54037
64501,54034
64438,54038
" /> 
<polyline style="fill-rule:evenodd;"
points="64699,54039
64687,54058
64682,54102
64682,54153
64685,54221
64695,54269
64704,54286
64744,54297
64805,54302
64870,54300
64921,54291
64923,54290
64964,54255
64992,54189
65002,54103
65002,54103
64997,54055
64979,54036
64962,54034
64938,54040
64926,54062
64922,54111
64922,54134
64922,54234
64762,54234
64762,54134
64760,54074
64751,54044
64731,54035
64722,54034
64699,54039
" /> 
<polyline style="fill-rule:evenodd;"
points="65255,54035
65207,54043
65183,54060
65182,54064
65193,54084
65234,54093
65272,54094
65362,54094
65362,54193
65367,54264
65381,54303
65402,54306
65409,54300
65419,54270
65422,54216
65419,54152
65412,54095
65399,54060
65398,54058
65363,54042
65311,54034
65255,54035
" /> 
<polyline style="fill-rule:evenodd;"
points="65568,54039
65520,54050
65506,54058
65489,54095
65483,54152
65486,54212
65498,54258
65507,54270
65552,54289
65618,54297
65686,54296
65737,54283
65743,54279
65769,54241
65781,54182
65781,54164
65722,54164
65720,54207
65707,54228
65672,54234
65632,54234
65576,54233
65550,54223
65542,54195
65542,54164
65544,54121
65557,54101
65592,54095
65632,54094
65687,54096
65713,54106
65721,54133
65722,54164
65781,54164
65781,54118
65765,54068
65758,54058
65725,54044
65668,54036
65632,54034
65568,54039
" /> 
<polyline style="fill-rule:evenodd;"
points="65895,53915
65847,53923
65823,53940
65822,53944
65833,53964
65874,53973
65912,53974
66002,53974
66002,54133
66005,54230
66015,54289
66031,54309
66049,54300
66057,54272
66062,54216
66062,54143
66059,54068
66053,54000
66044,53952
66038,53938
66003,53922
65951,53914
65895,53915
" /> 
<polyline style="fill-rule:evenodd;"
points="66351,54039
66301,54050
66286,54058
66264,54103
66268,54154
66297,54192
66300,54194
66351,54211
66404,54214
66445,54205
66462,54184
66447,54162
66398,54154
66392,54154
66341,54148
66322,54128
66322,54123
66331,54103
66364,54097
66407,54098
66460,54105
66486,54120
66496,54152
66498,54168
66499,54210
66484,54229
66442,54237
66428,54238
66372,54250
66352,54272
66352,54273
66369,54293
66411,54304
66464,54302
66485,54298
66529,54266
66556,54209
66561,54141
66542,54074
66541,54073
66519,54049
66480,54037
66415,54034
66351,54039
" /> 
<polyline style="fill-rule:evenodd;"
points="66722,53963
66718,53978
66700,54016
66657,54031
66612,54046
66602,54069
66624,54089
66662,54094
66697,54097
66715,54110
66721,54146
66722,54193
66727,54264
66741,54303
66762,54306
66769,54300
66776,54274
66781,54223
66782,54191
66784,54132
66793,54103
66814,54095
66822,54094
66854,54082
66862,54064
66845,54040
66823,54034
66788,54017
66778,53991
66763,53951
66740,53941
66722,53963
" /> 
<polyline style="fill-rule:evenodd;"
points="67296,53922
67287,53950
67282,54006
67282,54067
67280,54150
67273,54203
67259,54234
67247,54246
67225,54274
67236,54295
67270,54300
67297,54293
67318,54282
67331,54263
67338,54229
67341,54169
67342,54095
67341,54007
67336,53952
67328,53924
67314,53914
67312,53914
67296,53922
" /> 
<polyline style="fill-rule:evenodd;"
points="67600,54046
67582,54054
67563,54085
67553,54140
67552,54201
67562,54253
67574,54274
67607,54289
67663,54299
67725,54303
67777,54299
67785,54297
67828,54266
67855,54212
67862,54148
67860,54140
67798,54140
67798,54194
67770,54224
67709,54234
67702,54234
67651,54232
67628,54219
67622,54185
67622,54163
67622,54092
67707,54098
67765,54108
67793,54127
67798,54140
67860,54140
67847,54089
67830,54066
67790,54046
67727,54036
67658,54035
67600,54046
" /> 
<polyline style="fill-rule:evenodd;"
points="67983,54036
67948,54046
67929,54068
67921,54086
67903,54171
67916,54242
67927,54261
67964,54285
68025,54299
68093,54303
68154,54293
68160,54291
68193,54260
68212,54205
68214,54164
68142,54164
68139,54209
68124,54229
68085,54234
68062,54234
68010,54232
67988,54219
67982,54185
67982,54164
67984,54119
67999,54100
68038,54094
68062,54094
68113,54096
68136,54110
68142,54144
68142,54164
68214,54164
68215,54142
68202,54085
68174,54050
68142,54041
68086,54036
68046,54035
67983,54036
" /> 
<polyline style="fill-rule:evenodd;"
points="68369,53974
68365,53991
68347,54026
68310,54034
68271,54045
68262,54064
68279,54088
68311,54094
68340,54098
68355,54116
68363,54157
68366,54198
68375,54271
68390,54308
68405,54308
68417,54272
68422,54206
68423,54142
68430,54109
68446,54096
68472,54094
68511,54083
68521,54059
68499,54037
68477,54031
68436,54008
68425,53978
68410,53945
68388,53944
68369,53974
" /> 
<polyline style="fill-rule:evenodd;"
points="68812,53968
68805,53989
68788,54025
68750,54034
68711,54045
68702,54064
68719,54088
68751,54094
68780,54098
68795,54116
68803,54157
68806,54198
68814,54262
68828,54302
68837,54309
68861,54307
68863,54301
68864,54272
68863,54219
68862,54189
68862,54132
68869,54104
68891,54095
68910,54094
68951,54083
68961,54060
68940,54037
68917,54031
68879,54011
68872,53984
68860,53952
68835,53946
68812,53968
" /> 
<polyline style="fill-rule:evenodd;"
points="69454,54040
69401,54059
69372,54103
69362,54178
69362,54207
69367,54277
69380,54309
69397,54303
69413,54261
69422,54203
69432,54104
69602,54092
69602,54192
69606,54255
69618,54297
69634,54311
69651,54292
69653,54288
69658,54253
69659,54194
69658,54152
69652,54044
69539,54038
69454,54040
" /> 
<polyline style="fill-rule:evenodd;"
points="69895,54043
69882,54057
69882,54063
69893,54084
69931,54094
69977,54097
70072,54099
69992,54113
69934,54125
69893,54138
69887,54141
69867,54172
69862,54219
69871,54264
69891,54287
69927,54294
69982,54299
70042,54302
70090,54301
70113,54296
70121,54271
70122,54261
70107,54244
70058,54235
70020,54234
69954,54229
69926,54215
69935,54197
69981,54181
70023,54174
70078,54166
70104,54151
70111,54122
70112,54104
70110,54070
70098,54052
70065,54043
70004,54039
69997,54038
69930,54037
69895,54043
" /> 
<polyline style="fill-rule:evenodd;"
points="70195,54043
70185,54074
70182,54135
70182,54163
70186,54249
70198,54298
70217,54309
70229,54300
70236,54275
70240,54222
70242,54161
70240,54089
70232,54050
70218,54035
70212,54034
70195,54043
" /> 
<polyline style="fill-rule:evenodd;"
points="70568,53952
70562,53984
70555,54020
70528,54033
70502,54034
70454,54043
70442,54064
70460,54088
70502,54094
70537,54097
70555,54110
70561,54146
70562,54193
70567,54264
70581,54303
70602,54306
70609,54300
70616,54274
70621,54223
70622,54191
70624,54132
70633,54103
70654,54095
70662,54094
70694,54082
70702,54064
70685,54040
70662,54034
70630,54023
70622,53984
70611,53944
70592,53934
70568,53952
" /> 
<polyline style="fill-rule:evenodd;"
points="70777,53941
70768,53967
70763,54018
70762,54102
70762,54113
70764,54215
70773,54280
70787,54308
70808,54301
70809,54300
70815,54276
70819,54221
70821,54147
70822,54111
70821,54024
70816,53970
70807,53943
70793,53934
70792,53934
70777,53941
" /> 
<polyline style="fill-rule:evenodd;"
points="59648,54039
59600,54050
59586,54058
59573,54092
59564,54155
59562,54224
59565,54305
59574,54364
59586,54390
59621,54408
59671,54415
59720,54411
59754,54398
59762,54384
59747,54362
59698,54354
59692,54354
59622,54354
59622,54092
59707,54098
59760,54105
59786,54120
59796,54152
59798,54168
59799,54210
59784,54229
59742,54237
59728,54238
59671,54250
59652,54273
59652,54274
59669,54293
59710,54301
59762,54299
59811,54286
59833,54273
59852,54237
59861,54179
59859,54117
59845,54069
59838,54058
59805,54044
59748,54036
59712,54034
59648,54039
" /> 
</g> 
</svg>
