<?xml version="1.0" standalone="no"?>
 <!DOCTYPE svg PUBLIC "-//W3C//DTD SVG 1.1//EN" 
 "http://www.w3.org/Graphics/SVG/1.1/DTD/svg11.dtd"> 
<svg xmlns="http://www.w3.org/2000/svg" version="1.1" 
    width="29.7002cm" height="21.0007cm" viewBox="0 0 116930 82680 ">
<title>SVG Picture created as PM_Board-B.Mask.svg date 2019/10/03 06:37:10 </title>
  <desc>Picture generated by PCBNEW </desc>
<g style="fill:#000000; fill-opacity:1;stroke:#000000; stroke-opacity:1;
stroke-linecap:round; stroke-linejoin:round; "
 transform="translate(0 0) scale(1 1)">
</g>
<g style="fill:#000000; fill-opacity:0.0; 
stroke:#000000; stroke-width:-0.000393701; stroke-opacity:1; 
stroke-linecap:round; stroke-linejoin:round;">
</g>
<g style="fill:#000000; fill-opacity:1.0; 
stroke:#000000; stroke-width:0; stroke-opacity:1; 
stroke-linecap:round; stroke-linejoin:round;">
<polyline style="fill-rule:evenodd;"
points="61378,54596
60511,54596
60511,53808
61378,53808
61378,54596
" /> 
<polyline style="fill-rule:evenodd;"
points="58504,54596
57637,54596
57637,53808
58504,53808
58504,54596
" /> 
<polyline style="fill-rule:evenodd;"
points="55463,53576
55531,53605
55593,53646
55645,53698
55686,53759
55714,53827
55728,53900
55728,53973
55714,54046
55686,54114
55645,54175
55593,54227
55531,54268
55463,54297
55391,54311
55317,54311
55245,54297
55176,54268
55115,54227
55063,54175
55022,54114
54994,54046
54979,53973
54979,53900
54994,53827
55022,53759
55063,53698
55115,53646
55176,53605
55245,53576
55317,53562
55391,53562
55463,53576
" /> 
<polyline style="fill-rule:evenodd;"
points="54479,53576
54547,53605
54608,53646
54660,53698
54701,53759
54730,53827
54744,53900
54744,53973
54730,54046
54701,54114
54660,54175
54608,54227
54547,54268
54479,54297
54406,54311
54333,54311
54260,54297
54192,54268
54131,54227
54079,54175
54038,54114
54010,54046
53995,53973
53995,53900
54010,53827
54038,53759
54079,53698
54131,53646
54192,53605
54260,53576
54333,53562
54406,53562
54479,53576
" /> 
<polyline style="fill-rule:evenodd;"
points="53495,53576
53563,53605
53624,53646
53676,53698
53717,53759
53745,53827
53760,53900
53760,53973
53745,54046
53717,54114
53676,54175
53624,54227
53563,54268
53495,54297
53422,54311
53348,54311
53276,54297
53208,54268
53147,54227
53095,54175
53054,54114
53025,54046
53011,53973
53011,53900
53025,53827
53054,53759
53095,53698
53147,53646
53208,53605
53276,53576
53348,53562
53422,53562
53495,53576
" /> 
<polyline style="fill-rule:evenodd;"
points="52510,53576
52578,53605
52640,53646
52692,53698
52733,53759
52761,53827
52775,53900
52775,53973
52761,54046
52733,54114
52692,54175
52640,54227
52578,54268
52510,54297
52438,54311
52364,54311
52292,54297
52224,54268
52162,54227
52110,54175
52069,54114
52041,54046
52027,53973
52027,53900
52041,53827
52069,53759
52110,53698
52162,53646
52224,53605
52292,53576
52364,53562
52438,53562
52510,53576
" /> 
<polyline style="fill-rule:evenodd;"
points="56712,54311
55964,54311
55964,53562
56712,53562
56712,54311
" /> 
<polyline style="fill-rule:evenodd;"
points="70029,52516
70071,52524
70189,52573
70294,52643
70296,52644
70386,52735
70386,52735
70457,52841
70506,52960
70509,52971
70531,53085
70531,53213
70506,53339
70457,53457
70386,53563
70296,53654
70296,53654
70189,53725
70071,53774
70029,53782
69945,53799
69817,53799
69734,53782
69692,53774
69573,53725
69467,53654
69467,53654
69377,53563
69305,53457
69256,53339
69231,53213
69231,53085
69254,52971
69256,52960
69305,52841
69377,52735
69377,52735
69467,52644
69468,52643
69573,52573
69692,52524
69734,52516
69817,52499
69945,52499
70029,52516
" /> 
<polyline style="fill-rule:evenodd;"
points="46407,52516
46449,52524
46567,52573
46672,52643
46674,52644
46764,52735
46764,52735
46835,52841
46884,52960
46887,52971
46909,53085
46909,53213
46884,53339
46835,53457
46764,53563
46674,53654
46674,53654
46567,53725
46449,53774
46407,53782
46323,53799
46195,53799
46112,53782
46070,53774
45951,53725
45845,53654
45845,53654
45754,53563
45683,53457
45634,53339
45609,53213
45609,53085
45632,52971
45634,52960
45683,52841
45754,52735
45754,52735
45845,52644
45846,52643
45951,52573
46070,52524
46112,52516
46195,52499
46323,52499
46407,52516
" /> 
<polyline style="fill-rule:evenodd;"
points="58597,52758
58640,52771
58679,52792
58714,52821
58742,52855
58763,52895
58776,52937
58779,52971
58779,53072
58776,53105
58763,53148
58742,53187
58714,53222
58679,53250
58640,53271
58597,53284
58553,53288
58508,53284
58465,53271
58426,53250
58392,53222
58363,53187
58342,53148
58329,53105
58326,53072
58326,52971
58329,52937
58342,52895
58363,52855
58392,52821
58426,52792
58465,52771
58508,52758
58553,52754
58597,52758
" /> 
<polyline style="fill-rule:evenodd;"
points="60507,52758
60549,52771
60589,52792
60623,52821
60652,52855
60673,52895
60686,52937
60689,52971
60689,53072
60686,53105
60673,53148
60652,53187
60623,53222
60589,53250
60549,53271
60507,53284
60462,53288
60418,53284
60375,53271
60336,53250
60301,53222
60273,53187
60252,53148
60239,53105
60235,53072
60235,52971
60239,52937
60252,52895
60273,52855
60301,52821
60336,52792
60375,52771
60418,52758
60462,52754
60507,52758
" /> 
<polyline style="fill-rule:evenodd;"
points="49974,50317
50000,50319
50045,50333
50067,50339
50122,50369
50129,50372
50143,50384
50183,50417
50215,50457
50227,50471
50227,50471
50260,50532
50260,50532
50280,50599
50287,50669
50280,50738
50267,50783
50260,50805
50231,50860
50227,50867
50215,50881
50183,50921
50143,50954
50129,50965
50129,50965
50067,50998
50045,51005
50000,51018
49974,51021
49948,51024
49815,51024
49789,51021
49763,51018
49718,51005
49696,50998
49634,50965
49634,50965
49620,50954
49580,50921
49547,50881
49536,50867
49532,50860
49503,50805
49496,50783
49483,50738
49476,50669
49483,50599
49503,50532
49503,50532
49536,50471
49536,50471
49547,50457
49580,50417
49620,50384
49634,50372
49641,50369
49696,50339
49718,50333
49763,50319
49789,50317
49815,50314
49948,50314
49974,50317
" /> 
<polyline style="fill-rule:evenodd;"
points="55922,49857
55937,49860
55966,49872
55992,49890
56015,49912
56032,49938
56044,49967
56051,49998
56051,50030
56044,50061
56032,50090
56015,50116
55992,50139
55966,50156
55937,50168
55922,50172
55906,50175
55874,50175
55859,50172
55843,50168
55814,50156
55788,50139
55766,50116
55748,50090
55736,50061
55730,50030
55730,49998
55736,49967
55748,49938
55766,49912
55788,49890
55814,49872
55843,49860
55859,49857
55874,49854
55906,49854
55922,49857
" /> 
<polyline style="fill-rule:evenodd;"
points="57605,49857
57620,49860
57649,49872
57676,49890
57698,49912
57715,49938
57727,49967
57734,49998
57734,50030
57727,50061
57715,50090
57698,50116
57676,50139
57649,50156
57620,50168
57605,50172
57589,50175
57558,50175
57542,50172
57527,50168
57497,50156
57471,50139
57449,50116
57431,50090
57419,50061
57413,50030
57413,49998
57419,49967
57431,49938
57449,49912
57471,49890
57497,49872
57527,49860
57542,49857
57558,49854
57589,49854
57605,49857
" /> 
<polyline style="fill-rule:evenodd;"
points="57044,49857
57059,49860
57088,49872
57115,49890
57137,49912
57154,49938
57166,49967
57173,49998
57173,50030
57166,50061
57154,50090
57137,50116
57115,50139
57088,50156
57059,50168
57044,50172
57028,50175
56997,50175
56981,50172
56966,50168
56936,50156
56910,50139
56888,50116
56870,50090
56858,50061
56852,50030
56852,49998
56858,49967
56870,49938
56888,49912
56910,49890
56936,49872
56966,49860
56981,49857
56997,49854
57028,49854
57044,49857
" /> 
<polyline style="fill-rule:evenodd;"
points="56483,49857
56498,49860
56527,49872
56553,49890
56576,49912
56593,49938
56605,49967
56612,49998
56612,50030
56605,50061
56593,50090
56576,50116
56553,50139
56527,50156
56498,50168
56483,50172
56467,50175
56435,50175
56420,50172
56405,50168
56375,50156
56349,50139
56327,50116
56309,50090
56297,50061
56291,50030
56291,49998
56297,49967
56309,49938
56327,49912
56349,49890
56375,49872
56405,49860
56420,49857
56435,49854
56467,49854
56483,49857
" /> 
<polyline style="fill-rule:evenodd;"
points="49974,49332
50000,49335
50045,49348
50067,49355
50108,49377
50129,49388
50143,49400
50183,49432
50213,49469
50227,49487
50227,49487
50260,49548
50260,49548
50280,49615
50287,49685
50280,49754
50267,49799
50260,49821
50242,49854
50227,49883
50215,49897
50183,49937
50145,49967
50129,49981
50129,49981
50067,50014
50045,50021
50000,50034
49974,50037
49948,50039
49815,50039
49789,50037
49763,50034
49718,50021
49696,50014
49634,49981
49634,49981
49618,49967
49580,49937
49547,49897
49536,49883
49521,49854
49503,49821
49496,49799
49483,49754
49476,49685
49483,49615
49503,49548
49503,49548
49536,49487
49536,49487
49550,49469
49580,49432
49620,49400
49634,49388
49654,49377
49696,49355
49718,49348
49763,49335
49789,49332
49815,49330
49948,49330
49974,49332
" /> 
<polyline style="fill-rule:evenodd;"
points="55922,49296
55937,49299
55966,49311
55992,49329
56015,49351
56032,49377
56044,49406
56051,49437
56051,49469
56044,49500
56032,49529
56015,49555
55992,49578
55966,49595
55937,49607
55922,49610
55906,49614
55874,49614
55859,49610
55843,49607
55814,49595
55788,49578
55766,49555
55748,49529
55736,49500
55730,49469
55730,49437
55736,49406
55748,49377
55766,49351
55788,49329
55814,49311
55843,49299
55859,49296
55874,49293
55906,49293
55922,49296
" /> 
<polyline style="fill-rule:evenodd;"
points="56483,49296
56498,49299
56527,49311
56553,49329
56576,49351
56593,49377
56605,49406
56612,49437
56612,49469
56605,49500
56593,49529
56576,49555
56553,49578
56527,49595
56498,49607
56483,49610
56467,49614
56435,49614
56420,49610
56405,49607
56375,49595
56349,49578
56327,49555
56309,49529
56297,49500
56291,49469
56291,49437
56297,49406
56309,49377
56327,49351
56349,49329
56375,49311
56405,49299
56420,49296
56435,49293
56467,49293
56483,49296
" /> 
<polyline style="fill-rule:evenodd;"
points="57044,49296
57059,49299
57088,49311
57115,49329
57137,49351
57154,49377
57166,49406
57173,49437
57173,49469
57166,49500
57154,49529
57137,49555
57115,49578
57088,49595
57059,49607
57044,49610
57028,49614
56997,49614
56981,49610
56966,49607
56936,49595
56910,49578
56888,49555
56870,49529
56858,49500
56852,49469
56852,49437
56858,49406
56870,49377
56888,49351
56910,49329
56936,49311
56966,49299
56981,49296
56997,49293
57028,49293
57044,49296
" /> 
<polyline style="fill-rule:evenodd;"
points="57605,49296
57620,49299
57649,49311
57676,49329
57698,49351
57715,49377
57727,49406
57734,49437
57734,49469
57727,49500
57715,49529
57698,49555
57676,49578
57649,49595
57620,49607
57605,49610
57589,49614
57558,49614
57542,49610
57527,49607
57497,49595
57471,49578
57449,49555
57431,49529
57419,49500
57413,49469
57413,49437
57419,49406
57431,49377
57449,49351
57471,49329
57497,49311
57527,49299
57542,49296
57558,49293
57589,49293
57605,49296
" /> 
<polyline style="fill-rule:evenodd;"
points="49974,48348
50000,48351
50045,48364
50067,48371
50080,48378
50129,48404
50143,48415
50183,48448
50213,48485
50227,48502
50227,48502
50260,48564
50260,48564
50280,48631
50287,48700
50280,48770
50267,48814
50260,48837
50239,48876
50227,48898
50219,48908
50183,48952
50143,48985
50129,48997
50129,48997
50067,49030
50051,49034
50000,49050
49974,49052
49948,49055
49815,49055
49789,49052
49763,49050
49711,49034
49696,49030
49634,48997
49634,48997
49620,48985
49580,48952
49544,48908
49536,48898
49524,48876
49503,48837
49496,48814
49483,48770
49476,48700
49483,48631
49503,48564
49503,48564
49536,48502
49536,48502
49550,48485
49580,48448
49620,48415
49634,48404
49683,48378
49696,48371
49718,48364
49763,48351
49789,48348
49815,48346
49948,48346
49974,48348
" /> 
<polyline style="fill-rule:evenodd;"
points="55922,48735
55937,48738
55966,48750
55992,48768
56015,48790
56032,48816
56044,48845
56051,48876
56051,48908
56044,48939
56032,48968
56015,48994
55992,49017
55966,49034
55937,49046
55922,49049
55906,49053
55874,49053
55859,49049
55843,49046
55814,49034
55788,49017
55766,48994
55748,48968
55736,48939
55730,48908
55730,48876
55736,48845
55748,48816
55766,48790
55788,48768
55814,48750
55843,48738
55859,48735
55874,48732
55906,48732
55922,48735
" /> 
<polyline style="fill-rule:evenodd;"
points="57044,48735
57059,48738
57088,48750
57115,48768
57137,48790
57154,48816
57166,48845
57173,48876
57173,48908
57166,48939
57154,48968
57137,48994
57115,49017
57088,49034
57059,49046
57044,49049
57028,49053
56997,49053
56981,49049
56966,49046
56936,49034
56910,49017
56888,48994
56870,48968
56858,48939
56852,48908
56852,48876
56858,48845
56870,48816
56888,48790
56910,48768
56936,48750
56966,48738
56981,48735
56997,48732
57028,48732
57044,48735
" /> 
<polyline style="fill-rule:evenodd;"
points="56483,48735
56498,48738
56527,48750
56553,48768
56576,48790
56593,48816
56605,48845
56612,48876
56612,48908
56605,48939
56593,48968
56576,48994
56553,49017
56527,49034
56498,49046
56483,49049
56467,49053
56435,49053
56420,49049
56405,49046
56375,49034
56349,49017
56327,48994
56309,48968
56297,48939
56291,48908
56291,48876
56297,48845
56309,48816
56327,48790
56349,48768
56375,48750
56405,48738
56420,48735
56435,48732
56467,48732
56483,48735
" /> 
<polyline style="fill-rule:evenodd;"
points="57605,48735
57620,48738
57649,48750
57676,48768
57698,48790
57715,48816
57727,48845
57734,48876
57734,48908
57727,48939
57715,48968
57698,48994
57676,49017
57649,49034
57620,49046
57605,49049
57589,49053
57558,49053
57542,49049
57527,49046
57497,49034
57471,49017
57449,48994
57431,48968
57419,48939
57413,48908
57413,48876
57419,48845
57431,48816
57449,48790
57471,48768
57497,48750
57527,48738
57542,48735
57558,48732
57589,48732
57605,48735
" /> 
<polyline style="fill-rule:evenodd;"
points="55922,48174
55937,48177
55966,48189
55992,48207
56015,48229
56032,48255
56044,48284
56051,48315
56051,48347
56044,48378
56032,48407
56015,48433
55992,48456
55966,48473
55937,48485
55922,48488
55906,48492
55874,48492
55859,48488
55843,48485
55814,48473
55788,48456
55766,48433
55748,48407
55736,48378
55730,48347
55730,48315
55736,48284
55748,48255
55766,48229
55788,48207
55814,48189
55843,48177
55859,48174
55874,48171
55906,48171
55922,48174
" /> 
<polyline style="fill-rule:evenodd;"
points="56483,48174
56498,48177
56527,48189
56553,48207
56576,48229
56593,48255
56605,48284
56612,48315
56612,48347
56605,48378
56593,48407
56576,48433
56553,48456
56527,48473
56498,48485
56483,48488
56467,48492
56435,48492
56420,48488
56405,48485
56375,48473
56349,48456
56327,48433
56309,48407
56297,48378
56291,48347
56291,48315
56297,48284
56309,48255
56327,48229
56349,48207
56375,48189
56405,48177
56420,48174
56435,48171
56467,48171
56483,48174
" /> 
<polyline style="fill-rule:evenodd;"
points="57044,48174
57059,48177
57088,48189
57115,48207
57137,48229
57154,48255
57166,48284
57173,48315
57173,48347
57166,48378
57154,48407
57137,48433
57115,48456
57088,48473
57059,48485
57044,48488
57028,48492
56997,48492
56981,48488
56966,48485
56936,48473
56910,48456
56888,48433
56870,48407
56858,48378
56852,48347
56852,48315
56858,48284
56870,48255
56888,48229
56910,48207
56936,48189
56966,48177
56981,48174
56997,48171
57028,48171
57044,48174
" /> 
<polyline style="fill-rule:evenodd;"
points="57605,48174
57620,48177
57649,48189
57676,48207
57698,48229
57715,48255
57727,48284
57734,48315
57734,48347
57727,48378
57715,48407
57698,48433
57676,48456
57649,48473
57620,48485
57605,48488
57589,48492
57558,48492
57542,48488
57527,48485
57497,48473
57471,48456
57449,48433
57431,48407
57419,48378
57413,48347
57413,48315
57419,48284
57431,48255
57449,48229
57471,48207
57497,48189
57527,48177
57542,48174
57558,48171
57589,48171
57605,48174
" /> 
<polyline style="fill-rule:evenodd;"
points="50229,47363
50242,47367
50254,47373
50265,47382
50273,47392
50280,47404
50284,47417
50285,47433
50285,47999
50284,48015
50280,48028
50273,48040
50265,48050
50254,48059
50242,48065
50229,48069
50213,48071
49549,48071
49534,48069
49521,48065
49509,48059
49498,48050
49489,48040
49483,48028
49479,48015
49477,47999
49477,47433
49479,47417
49483,47404
49489,47392
49498,47382
49509,47373
49521,47367
49534,47363
49549,47361
50213,47361
50229,47363
" /> 
<polyline style="fill-rule:evenodd;"
points="70029,44642
70071,44650
70189,44699
70294,44769
70296,44770
70386,44861
70457,44967
70506,45085
70531,45211
70531,45339
70506,45465
70457,45583
70386,45689
70296,45780
70296,45780
70189,45851
70071,45900
70029,45908
69945,45925
69817,45925
69734,45908
69692,45900
69573,45851
69467,45780
69467,45780
69377,45689
69305,45583
69256,45465
69231,45339
69231,45211
69256,45085
69305,44967
69377,44861
69467,44770
69468,44769
69573,44699
69692,44650
69734,44642
69817,44625
69945,44625
70029,44642
" /> 
<polyline style="fill-rule:evenodd;"
points="46407,44642
46449,44650
46567,44699
46672,44769
46674,44770
46764,44861
46835,44967
46884,45085
46909,45211
46909,45339
46884,45465
46835,45583
46764,45689
46674,45780
46674,45780
46567,45851
46449,45900
46407,45908
46323,45925
46195,45925
46112,45908
46070,45900
45951,45851
45845,45780
45845,45780
45754,45689
45683,45583
45634,45465
45609,45339
45609,45211
45634,45085
45683,44967
45754,44861
45845,44770
45846,44769
45951,44699
46070,44650
46112,44642
46195,44625
46323,44625
46407,44642
" /> 
<polyline style="fill-rule:evenodd;"
points="46407,36768
46449,36776
46567,36825
46672,36895
46674,36896
46764,36987
46835,37093
46884,37211
46909,37337
46909,37465
46884,37591
46835,37709
46764,37815
46674,37906
46674,37906
46567,37977
46449,38026
46407,38034
46323,38051
46195,38051
46112,38034
46070,38026
45951,37977
45845,37906
45845,37906
45754,37815
45683,37709
45634,37591
45609,37465
45609,37337
45634,37211
45683,37093
45754,36987
45845,36896
45846,36895
45951,36825
46070,36776
46112,36768
46195,36751
46323,36751
46407,36768
" /> 
<polyline style="fill-rule:evenodd;"
points="70029,36768
70071,36776
70189,36825
70294,36895
70296,36896
70386,36987
70457,37093
70506,37211
70531,37337
70531,37465
70506,37591
70457,37709
70386,37815
70296,37906
70296,37906
70189,37977
70071,38026
70029,38034
69945,38051
69817,38051
69734,38034
69692,38026
69573,37977
69467,37906
69467,37906
69377,37815
69305,37709
69256,37591
69231,37465
69231,37337
69256,37211
69305,37093
69377,36987
69467,36896
69468,36895
69573,36825
69692,36776
69734,36768
69817,36751
69945,36751
70029,36768
" /> 
<polyline style="fill-rule:evenodd;"
points="49974,34608
50000,34611
50045,34624
50067,34631
50122,34660
50129,34664
50143,34675
50183,34708
50215,34748
50227,34762
50227,34762
50260,34824
50260,34824
50280,34891
50287,34960
50280,35030
50267,35074
50260,35097
50231,35151
50227,35158
50215,35172
50183,35212
50143,35245
50129,35256
50129,35256
50067,35289
50045,35296
50000,35310
49974,35312
49948,35315
49815,35315
49789,35312
49763,35310
49718,35296
49696,35289
49634,35256
49634,35256
49620,35245
49580,35212
49547,35172
49536,35158
49532,35151
49503,35097
49496,35074
49483,35030
49476,34960
49483,34891
49503,34824
49503,34824
49536,34762
49536,34762
49547,34748
49580,34708
49620,34675
49634,34664
49641,34660
49696,34631
49718,34624
49763,34611
49789,34608
49815,34605
49948,34605
49974,34608
" /> 
<polyline style="fill-rule:evenodd;"
points="49974,33624
50000,33626
50045,33640
50067,33647
50122,33676
50129,33680
50143,33691
50183,33724
50215,33764
50227,33778
50227,33778
50260,33839
50260,33839
50280,33906
50287,33976
50280,34045
50267,34090
50260,34112
50231,34167
50227,34174
50215,34188
50183,34228
50143,34261
50129,34272
50129,34272
50067,34305
50045,34312
50000,34325
49974,34328
49948,34331
49815,34331
49789,34328
49763,34325
49718,34312
49696,34305
49634,34272
49634,34272
49620,34261
49580,34228
49547,34188
49536,34174
49532,34167
49503,34112
49496,34090
49483,34045
49476,33976
49483,33906
49503,33839
49503,33839
49536,33778
49536,33778
49547,33764
49580,33724
49620,33691
49634,33680
49641,33676
49696,33647
49718,33640
49763,33626
49789,33624
49815,33621
49948,33621
49974,33624
" /> 
<polyline style="fill-rule:evenodd;"
points="49974,32639
50000,32642
50045,32656
50067,32662
50122,32691
50129,32695
50143,32707
50183,32740
50215,32780
50227,32794
50227,32794
50260,32855
50260,32855
50280,32922
50287,32992
50280,33061
50267,33106
50260,33128
50231,33183
50227,33190
50215,33204
50183,33244
50143,33276
50129,33288
50129,33288
50067,33321
50045,33328
50000,33341
49974,33344
49948,33346
49815,33346
49789,33344
49763,33341
49718,33328
49696,33321
49634,33288
49634,33288
49620,33276
49580,33244
49547,33204
49536,33190
49532,33183
49503,33128
49496,33106
49483,33061
49476,32992
49483,32922
49503,32855
49503,32855
49536,32794
49536,32794
49547,32780
49580,32740
49620,32707
49634,32695
49641,32691
49696,32662
49718,32656
49763,32642
49789,32639
49815,32637
49948,32637
49974,32639
" /> 
<polyline style="fill-rule:evenodd;"
points="50229,31654
50242,31658
50254,31665
50265,31673
50273,31684
50280,31696
50284,31709
50285,31725
50285,32290
50284,32306
50280,32319
50273,32331
50265,32342
50254,32350
50242,32357
50229,32361
50213,32362
49549,32362
49534,32361
49521,32357
49509,32350
49498,32342
49489,32331
49483,32319
49479,32306
49477,32290
49477,31725
49479,31709
49483,31696
49489,31684
49498,31673
49509,31665
49521,31658
49534,31654
49549,31653
50213,31653
50229,31654
" /> 
<polyline style="fill-rule:evenodd;"
points="62129,28648
62266,28675
62427,28742
62572,28839
62696,28962
62793,29107
62860,29269
62873,29337
62894,29440
62894,29614
62887,29648
62860,29786
62793,29947
62696,30092
62572,30215
62427,30312
62266,30379
62129,30406
62095,30413
61920,30413
61886,30406
61749,30379
61588,30312
61442,30215
61319,30092
61222,29947
61155,29786
61128,29648
61121,29614
61121,29440
61142,29337
61155,29269
61222,29107
61319,28962
61442,28839
61588,28742
61749,28675
61886,28648
61920,28641
62095,28641
62129,28648
" /> 
<polyline style="fill-rule:evenodd;"
points="66066,28648
66203,28675
66364,28742
66509,28839
66633,28962
66730,29107
66797,29269
66810,29337
66831,29440
66831,29614
66824,29648
66797,29786
66730,29947
66633,30092
66509,30215
66364,30312
66203,30379
66066,30406
66032,30413
65857,30413
65823,30406
65686,30379
65525,30312
65379,30215
65256,30092
65159,29947
65092,29786
65065,29648
65058,29614
65058,29440
65079,29337
65092,29269
65159,29107
65256,28962
65379,28839
65525,28742
65686,28675
65823,28648
65857,28641
66032,28641
66066,28648
" /> 
<polyline style="fill-rule:evenodd;"
points="70026,28893
70071,28902
70189,28951
70206,28962
70296,29022
70386,29113
70386,29113
70457,29219
70505,29334
70506,29337
70531,29463
70531,29591
70527,29614
70506,29717
70457,29835
70423,29886
70386,29941
70296,30032
70296,30032
70189,30103
70071,30152
70029,30160
69945,30177
69817,30177
69734,30160
69692,30152
69573,30103
69467,30032
69467,30032
69377,29941
69339,29886
69305,29835
69256,29717
69236,29614
69231,29591
69231,29463
69256,29337
69258,29334
69305,29219
69377,29113
69377,29113
69467,29022
69557,28962
69573,28951
69692,28902
69737,28893
69817,28877
69945,28877
70026,28893
" /> 
<polyline style="fill-rule:evenodd;"
points="46404,28893
46449,28902
46567,28951
46584,28962
46674,29022
46764,29113
46764,29113
46835,29219
46883,29334
46884,29337
46909,29463
46909,29591
46905,29614
46884,29717
46835,29835
46801,29886
46764,29941
46674,30032
46674,30032
46567,30103
46449,30152
46407,30160
46323,30177
46195,30177
46112,30160
46070,30152
45951,30103
45845,30032
45845,30032
45754,29941
45717,29886
45683,29835
45634,29717
45614,29614
45609,29591
45609,29463
45634,29337
45636,29334
45683,29219
45754,29113
45754,29113
45845,29022
45935,28962
45951,28951
46070,28902
46115,28893
46195,28877
46323,28877
46404,28893
" /> 
<polyline style="fill-rule:evenodd;"
points="54372,28539
54447,28570
54515,28615
54573,28673
54618,28741
54649,28816
54665,28896
54665,28977
54649,29057
54618,29133
54573,29200
54515,29258
54447,29303
54372,29334
54292,29350
54211,29350
54131,29334
54055,29303
53988,29258
53930,29200
53885,29133
53854,29057
53838,28977
53838,28896
53854,28816
53885,28741
53930,28673
53988,28615
54055,28570
54131,28539
54211,28523
54292,28523
54372,28539
" /> 
<polyline style="fill-rule:evenodd;"
points="56341,28539
56416,28570
56484,28615
56541,28673
56587,28741
56618,28816
56634,28896
56634,28977
56618,29057
56587,29133
56541,29200
56484,29258
56416,29303
56341,29334
56261,29350
56179,29350
56099,29334
56024,29303
55956,29258
55899,29200
55853,29133
55822,29057
55806,28977
55806,28896
55822,28816
55853,28741
55899,28673
55956,28615
56024,28570
56099,28539
56179,28523
56261,28523
56341,28539
" /> 
<polyline style="fill-rule:evenodd;"
points="55356,28539
55432,28570
55499,28615
55557,28673
55602,28741
55634,28816
55650,28896
55650,28977
55634,29057
55602,29133
55557,29200
55499,29258
55432,29303
55356,29334
55276,29350
55195,29350
55115,29334
55040,29303
54972,29258
54914,29200
54869,29133
54838,29057
54822,28977
54822,28896
54838,28816
54869,28741
54914,28673
54972,28615
55040,28570
55115,28539
55195,28523
55276,28523
55356,28539
" /> 
<polyline style="fill-rule:evenodd;"
points="57325,28539
57400,28570
57468,28615
57526,28673
57571,28741
57602,28816
57618,28896
57618,28977
57602,29057
57571,29133
57526,29200
57468,29258
57400,29303
57325,29334
57245,29350
57163,29350
57084,29334
57008,29303
56940,29258
56883,29200
56838,29133
56806,29057
56790,28977
56790,28896
56806,28816
56838,28741
56883,28673
56940,28615
57008,28570
57084,28539
57163,28523
57245,28523
57325,28539
" /> 
<polyline style="fill-rule:evenodd;"
points="53388,28539
53463,28570
53531,28615
53589,28673
53634,28741
53665,28816
53681,28896
53681,28977
53665,29057
53634,29133
53589,29200
53531,29258
53463,29303
53388,29334
53308,29350
53226,29350
53147,29334
53071,29303
53003,29258
52946,29200
52901,29133
52869,29057
52853,28977
52853,28896
52869,28816
52901,28741
52946,28673
53003,28615
53071,28570
53147,28539
53226,28523
53308,28523
53388,28539
" /> 
<polyline style="fill-rule:evenodd;"
points="52404,28539
52479,28570
52547,28615
52604,28673
52650,28741
52681,28816
52697,28896
52697,28977
52681,29057
52650,29133
52604,29200
52547,29258
52479,29303
52404,29334
52324,29350
52242,29350
52162,29334
52087,29303
52019,29258
51962,29200
51916,29133
51885,29057
51869,28977
51869,28896
51885,28816
51916,28741
51962,28673
52019,28615
52087,28570
52162,28539
52242,28523
52324,28523
52404,28539
" /> 
</g> 
</svg>
