<?xml version="1.0" standalone="no"?>
 <!DOCTYPE svg PUBLIC "-//W3C//DTD SVG 1.1//EN" 
 "http://www.w3.org/Graphics/SVG/1.1/DTD/svg11.dtd"> 
<svg xmlns="http://www.w3.org/2000/svg" version="1.1" 
    width="29.7002cm" height="21.0007cm" viewBox="0 0 116930 82680 ">
<title>SVG Picture created as PM_Board-B.SilkS.svg date 2019/10/05 01:37:59 </title>
  <desc>Picture generated by PCBNEW </desc>
<g style="fill:#000000; fill-opacity:1;stroke:#000000; stroke-opacity:1;
stroke-linecap:round; stroke-linejoin:round; "
 transform="translate(0 0) scale(1 1)">
</g>
<g style="fill:#000000; fill-opacity:0.0; 
stroke:#000000; stroke-width:-0.000393701; stroke-opacity:1; 
stroke-linecap:round; stroke-linejoin:round;">
</g>
<g style="fill:#000000; fill-opacity:0.0; 
stroke:#000000; stroke-width:78.7402; stroke-opacity:1; 
stroke-linecap:round; stroke-linejoin:round;">
<path d="M68408 52125
L68453 52103
L68520 52103
L68588 52125
L68633 52170
L68655 52215
L68678 52305
L68678 52373
L68655 52463
L68633 52508
L68588 52553
L68520 52575
L68475 52575
L68408 52553
L68385 52530
L68385 52373
L68475 52373
" />
<path d="M68205 52553
L68138 52575
L68025 52575
L67980 52553
L67958 52530
L67935 52485
L67935 52440
L67958 52395
L67980 52373
L68025 52350
L68115 52328
L68160 52305
L68183 52283
L68205 52238
L68205 52193
L68183 52148
L68160 52125
L68115 52103
L68003 52103
L67935 52125
" />
<path d="M67733 52395
L67373 52395
" />
<path d="M67080 52305
L67125 52283
L67148 52260
L67170 52215
L67170 52193
L67148 52148
L67125 52125
L67080 52103
L66991 52103
L66946 52125
L66923 52148
L66901 52193
L66901 52215
L66923 52260
L66946 52283
L66991 52305
L67080 52305
L67125 52328
L67148 52350
L67170 52395
L67170 52485
L67148 52530
L67125 52553
L67080 52575
L66991 52575
L66946 52553
L66923 52530
L66901 52485
L66901 52395
L66923 52350
L66946 52328
L66991 52305
" />
<path d="M66338 52575
L66338 52103
L66158 52103
L66113 52125
L66091 52148
L66068 52193
L66068 52260
L66091 52305
L66113 52328
L66158 52350
L66338 52350
" />
<path d="M65866 52575
L65866 52103
L65708 52440
L65551 52103
L65551 52575
" />
<path d="M64808 52328
L64741 52350
L64718 52373
L64696 52418
L64696 52485
L64718 52530
L64741 52553
L64786 52575
L64966 52575
L64966 52103
L64808 52103
L64763 52125
L64741 52148
L64718 52193
L64718 52238
L64741 52283
L64763 52305
L64808 52328
L64966 52328
" />
<path d="M64426 52575
L64471 52553
L64493 52530
L64516 52485
L64516 52350
L64493 52305
L64471 52283
L64426 52260
L64358 52260
L64313 52283
L64291 52305
L64268 52350
L64268 52485
L64291 52530
L64313 52553
L64358 52575
L64426 52575
" />
<path d="M63863 52575
L63863 52328
L63886 52283
L63931 52260
L64021 52260
L64066 52283
" />
<path d="M63863 52553
L63908 52575
L64021 52575
L64066 52553
L64088 52508
L64088 52463
L64066 52418
L64021 52395
L63908 52395
L63863 52373
" />
<path d="M63638 52575
L63638 52260
" />
<path d="M63638 52350
L63616 52305
L63593 52283
L63548 52260
L63503 52260
" />
<path d="M63143 52575
L63143 52103
" />
<path d="M63143 52553
L63188 52575
L63278 52575
L63323 52553
L63346 52530
L63368 52485
L63368 52350
L63346 52305
L63323 52283
L63278 52260
L63188 52260
L63143 52283
" />
<path d="M62289 52575
L62446 52350
" />
<path d="M62559 52575
L62559 52103
L62379 52103
L62334 52125
L62311 52148
L62289 52193
L62289 52260
L62311 52305
L62334 52328
L62379 52350
L62559 52350
" />
<path d="M61906 52553
L61951 52575
L62041 52575
L62086 52553
L62109 52508
L62109 52328
L62086 52283
L62041 52260
L61951 52260
L61906 52283
L61884 52328
L61884 52373
L62109 52418
" />
<path d="M61726 52260
L61614 52575
L61501 52260
" />
<path d="M61321 52530
L61299 52553
L61321 52575
L61344 52553
L61321 52530
L61321 52575
" />
<path d="M60849 52575
L61119 52575
" />
<path d="M60984 52575
L60984 52103
L61029 52170
L61074 52215
L61119 52238
" />
<path d="M68104 53363
L68104 52890
L67992 52890
L67924 52913
L67879 52958
L67857 53003
L67834 53093
L67834 53160
L67857 53250
L67879 53295
L67924 53340
L67992 53363
L68104 53363
" />
<path d="M67452 53340
L67497 53363
L67587 53363
L67632 53340
L67654 53295
L67654 53115
L67632 53070
L67587 53048
L67497 53048
L67452 53070
L67429 53115
L67429 53160
L67654 53205
" />
<path d="M67249 53340
L67204 53363
L67114 53363
L67069 53340
L67047 53295
L67047 53273
L67069 53228
L67114 53205
L67182 53205
L67227 53183
L67249 53138
L67249 53115
L67227 53070
L67182 53048
L67114 53048
L67069 53070
" />
<path d="M66844 53363
L66844 53048
" />
<path d="M66844 52890
L66867 52913
L66844 52935
L66822 52913
L66844 52890
L66844 52935
" />
<path d="M66417 53048
L66417 53430
L66439 53475
L66462 53498
L66507 53520
L66574 53520
L66619 53498
" />
<path d="M66417 53340
L66462 53363
L66552 53363
L66597 53340
L66619 53318
L66642 53273
L66642 53138
L66619 53093
L66597 53070
L66552 53048
L66462 53048
L66417 53070
" />
<path d="M66192 53048
L66192 53363
" />
<path d="M66192 53093
L66169 53070
L66124 53048
L66057 53048
L66012 53070
L65989 53115
L65989 53363
" />
<path d="M65584 53340
L65629 53363
L65719 53363
L65764 53340
L65787 53295
L65787 53115
L65764 53070
L65719 53048
L65629 53048
L65584 53070
L65562 53115
L65562 53160
L65787 53205
" />
<path d="M65157 53363
L65157 52890
" />
<path d="M65157 53340
L65202 53363
L65292 53363
L65337 53340
L65359 53318
L65382 53273
L65382 53138
L65359 53093
L65337 53070
L65292 53048
L65202 53048
L65157 53070
" />
<path d="M64572 53363
L64572 52890
" />
<path d="M64572 53070
L64527 53048
L64437 53048
L64392 53070
L64370 53093
L64347 53138
L64347 53273
L64370 53318
L64392 53340
L64437 53363
L64527 53363
L64572 53340
" />
<path d="M64190 53048
L64077 53363
" />
<path d="M63965 53048
L64077 53363
L64122 53475
L64145 53498
L64190 53520
" />
<path d="M63492 52890
L63222 52890
" />
<path d="M63357 53363
L63357 52890
" />
<path d="M63065 53318
L63042 53340
L63065 53363
L63087 53340
L63065 53318
L63065 53363
" />
<path d="M62840 53363
L62840 52890
L62570 53363
L62570 52890
" />
<path d="M62345 53363
L62345 53048
" />
<path d="M62345 52890
L62367 52913
L62345 52935
L62322 52913
L62345 52890
L62345 52935
" />
<path d="M62165 53048
L62075 53363
L61985 53138
L61895 53363
L61805 53048
" />
<path d="M61422 53363
L61422 53115
L61445 53070
L61490 53048
L61580 53048
L61625 53070
" />
<path d="M61422 53340
L61467 53363
L61580 53363
L61625 53340
L61647 53295
L61647 53250
L61625 53205
L61580 53183
L61467 53183
L61422 53160
" />
<path d="M65911 53723
L65888 53700
L65843 53678
L65731 53678
L65686 53700
L65663 53723
L65641 53768
L65641 53813
L65663 53880
L65933 54150
L65641 54150
" />
<path d="M65348 53678
L65303 53678
L65258 53700
L65236 53723
L65213 53768
L65191 53858
L65191 53970
L65213 54060
L65236 54105
L65258 54128
L65303 54150
L65348 54150
L65393 54128
L65416 54105
L65438 54060
L65461 53970
L65461 53858
L65438 53768
L65416 53723
L65393 53700
L65348 53678
" />
<path d="M64741 54150
L65011 54150
" />
<path d="M64876 54150
L64876 53678
L64921 53745
L64966 53790
L65011 53813
" />
<path d="M64516 54150
L64426 54150
L64381 54128
L64358 54105
L64313 54038
L64291 53948
L64291 53768
L64313 53723
L64336 53700
L64381 53678
L64471 53678
L64516 53700
L64538 53723
L64561 53768
L64561 53880
L64538 53925
L64516 53948
L64471 53970
L64381 53970
L64336 53948
L64313 53925
L64291 53880
" />
<path d="M64088 54105
L64066 54128
L64088 54150
L64111 54128
L64088 54105
L64088 54150
" />
<path d="M63841 54150
L63751 54150
L63706 54128
L63683 54105
L63638 54038
L63616 53948
L63616 53768
L63638 53723
L63661 53700
L63706 53678
L63796 53678
L63841 53700
L63863 53723
L63886 53768
L63886 53880
L63863 53925
L63841 53948
L63796 53970
L63706 53970
L63661 53948
L63638 53925
L63616 53880
" />
</g>
<g style="fill:#000000; fill-opacity:0.0; 
stroke:#000000; stroke-width:59.0551; stroke-opacity:1; 
stroke-linecap:round; stroke-linejoin:round;">
</g>
<g style="fill:#000000; fill-opacity:1.0; 
stroke:#000000; stroke-width:59.0551; stroke-opacity:1; 
stroke-linecap:round; stroke-linejoin:round;">
<polyline style="fill-rule:evenodd;"
points="55314,35826
63188,35826
63188,42125
55314,42125
55314,35826
" /> 
</g>
<g style="fill:#000000; fill-opacity:1.0; 
stroke:#000000; stroke-width:78.7402; stroke-opacity:1; 
stroke-linecap:round; stroke-linejoin:round;">
</g>
<g style="fill:#000000; fill-opacity:0.0; 
stroke:#000000; stroke-width:78.7402; stroke-opacity:1; 
stroke-linecap:round; stroke-linejoin:round;">
<path d="M63188 38976
L63188 42125
" />
<path d="M55314 42125
L55314 38976
" />
<path d="M68700 42125
L55314 42125
" />
<path d="M68700 38976
L68700 42125
" />
<path d="M66631 39977
L66631 39505
L66361 39977
L66361 39505
" />
<path d="M66068 39977
L66113 39955
L66136 39932
L66158 39887
L66158 39752
L66136 39707
L66113 39685
L66068 39662
L66001 39662
L65956 39685
L65933 39707
L65911 39752
L65911 39887
L65933 39932
L65956 39955
L66001 39977
L66068 39977
" />
<path d="M65776 39662
L65596 39662
" />
<path d="M65708 39505
L65708 39910
L65686 39955
L65641 39977
L65596 39977
" />
<path d="M65258 39955
L65303 39977
L65393 39977
L65438 39955
L65461 39910
L65461 39730
L65438 39685
L65393 39662
L65303 39662
L65258 39685
L65236 39730
L65236 39775
L65461 39820
" />
<path d="M63188 37401
L68700 37401
" />
<path d="M68700 35826
L67519 35826
" />
<path d="M68700 38976
L68700 35826
" />
<path d="M63188 38976
L68700 38976
" />
<path d="M63188 38976
L62795 38976
" />
<path d="M63188 37401
L55314 37401
" />
<path d="M55314 38976
L62795 38976
" />
<path d="M55314 35826
L55314 38976
" />
<path d="M63188 35826
L55314 35826
" />
<path d="M63188 35826
L67913 35826
" />
<path d="M63188 38976
L63188 35826
" />
<path d="M66619 38402
L66619 37930
L66507 37930
L66439 37952
L66394 37997
L66372 38042
L66349 38132
L66349 38200
L66372 38290
L66394 38335
L66439 38380
L66507 38402
L66619 38402
" />
<path d="M65944 38402
L65944 38155
L65967 38110
L66012 38087
L66102 38087
L66147 38110
" />
<path d="M65944 38380
L65989 38402
L66102 38402
L66147 38380
L66169 38335
L66169 38290
L66147 38245
L66102 38222
L65989 38222
L65944 38200
" />
<path d="M65787 38087
L65607 38087
" />
<path d="M65719 37930
L65719 38335
L65697 38380
L65652 38402
L65607 38402
" />
<path d="M65269 38380
L65314 38402
L65404 38402
L65449 38380
L65472 38335
L65472 38155
L65449 38110
L65404 38087
L65314 38087
L65269 38110
L65247 38155
L65247 38200
L65472 38245
" />
<path d="M68138 36827
L68138 36355
L67980 36692
L67823 36355
L67823 36827
" />
<path d="M67395 36827
L67395 36580
L67418 36535
L67463 36512
L67553 36512
L67598 36535
" />
<path d="M67395 36805
L67440 36827
L67553 36827
L67598 36805
L67620 36760
L67620 36715
L67598 36670
L67553 36647
L67440 36647
L67395 36625
" />
<path d="M67170 36512
L67170 36827
" />
<path d="M67170 36557
L67148 36535
L67103 36512
L67035 36512
L66991 36535
L66968 36580
L66968 36827
" />
<path d="M66541 36512
L66541 36827
" />
<path d="M66743 36512
L66743 36760
L66721 36805
L66676 36827
L66608 36827
L66563 36805
L66541 36782
" />
<path d="M66383 36512
L66203 36512
" />
<path d="M66316 36827
L66316 36422
L66293 36377
L66248 36355
L66203 36355
" />
<path d="M65843 36827
L65843 36580
L65866 36535
L65911 36512
L66001 36512
L66046 36535
" />
<path d="M65843 36805
L65888 36827
L66001 36827
L66046 36805
L66068 36760
L66068 36715
L66046 36670
L66001 36647
L65888 36647
L65843 36625
" />
<path d="M65416 36805
L65461 36827
L65551 36827
L65596 36805
L65618 36782
L65641 36737
L65641 36602
L65618 36557
L65596 36535
L65551 36512
L65461 36512
L65416 36535
" />
<path d="M65281 36512
L65101 36512
" />
<path d="M65213 36355
L65213 36760
L65191 36805
L65146 36827
L65101 36827
" />
<path d="M64741 36512
L64741 36827
" />
<path d="M64943 36512
L64943 36760
L64921 36805
L64876 36827
L64808 36827
L64763 36805
L64741 36782
" />
<path d="M64516 36827
L64516 36512
" />
<path d="M64516 36602
L64493 36557
L64471 36535
L64426 36512
L64381 36512
" />
<path d="M64043 36805
L64088 36827
L64178 36827
L64223 36805
L64246 36760
L64246 36580
L64223 36535
L64178 36512
L64088 36512
L64043 36535
L64021 36580
L64021 36625
L64246 36670
" />
<path d="M63818 36827
L63818 36512
" />
<path d="M63818 36602
L63796 36557
L63773 36535
L63728 36512
L63683 36512
" />
<path d="M56901 53437
L51901 53437
" />
<path d="M55901 51437
L55901 54437
" />
<path d="M54901 51437
L54901 54437
" />
<path d="M53901 51437
L53901 54437
" />
<path d="M52901 51437
L52901 54437
" />
<path d="M56901 54437
L51901 54437
" />
<path d="M56901 51437
L56901 54437
" />
<path d="M51901 51437
L56901 51437
" />
<path d="M51901 54437
L51901 51437
" />
<path d="M52615 51953
L52142 51953
L52142 52065
L52165 52133
L52210 52178
L52255 52200
L52345 52223
L52412 52223
L52502 52200
L52547 52178
L52592 52133
L52615 52065
L52615 51953
" />
<path d="M52615 52425
L52142 52425
" />
<path d="M52142 52740
L52142 52830
L52165 52875
L52210 52920
L52300 52943
L52457 52943
L52547 52920
L52592 52875
L52615 52830
L52615 52740
L52592 52695
L52547 52650
L52457 52628
L52300 52628
L52210 52650
L52165 52695
L52142 52740
" />
<path d="M53570 52155
L53592 52133
L53615 52065
L53615 52020
L53592 51953
L53547 51908
L53502 51885
L53412 51863
L53345 51863
L53255 51885
L53210 51908
L53165 51953
L53142 52020
L53142 52065
L53165 52133
L53187 52155
" />
<path d="M53615 52583
L53615 52358
L53142 52358
" />
<path d="M53615 52740
L53142 52740
" />
<path d="M53615 53010
L53345 52808
" />
<path d="M53142 53010
L53412 52740
" />
<path d="M54615 52144
L54390 51987
" />
<path d="M54615 51874
L54142 51874
L54142 52054
L54165 52099
L54187 52122
L54232 52144
L54300 52144
L54345 52122
L54367 52099
L54390 52054
L54390 51874
" />
<path d="M54367 52347
L54367 52504
" />
<path d="M54615 52571
L54615 52347
L54142 52347
L54142 52571
" />
<path d="M54592 52751
L54615 52819
L54615 52931
L54592 52976
L54570 52999
L54525 53021
L54480 53021
L54435 52999
L54412 52976
L54390 52931
L54367 52841
L54345 52796
L54322 52774
L54277 52751
L54232 52751
L54187 52774
L54165 52796
L54142 52841
L54142 52954
L54165 53021
" />
<path d="M56615 52065
L56142 52065
L56615 52335
L56142 52335
" />
<path d="M56570 52830
L56592 52808
L56615 52740
L56615 52695
L56592 52628
L56547 52583
L56502 52560
L56412 52538
L56345 52538
L56255 52560
L56210 52583
L56165 52628
L56142 52695
L56142 52740
L56165 52808
L56187 52830
" />
<path d="M55165 52077
L55142 52032
L55142 51964
L55165 51897
L55210 51852
L55255 51829
L55345 51807
L55412 51807
L55502 51829
L55547 51852
L55592 51897
L55615 51964
L55615 52009
L55592 52077
L55570 52099
L55412 52099
L55412 52009
" />
<path d="M55615 52302
L55142 52302
L55615 52571
L55142 52571
" />
<path d="M55615 52796
L55142 52796
L55142 52909
L55165 52976
L55210 53021
L55255 53044
L55345 53066
L55412 53066
L55502 53044
L55547 53021
L55592 52976
L55615 52909
L55615 52796
" />
<path d="M50381 47216
L50381 51216
" />
<path d="M48881 50216
L53381 50216
" />
<path d="M48881 49216
L48881 50216
" />
<path d="M53381 49216
L48881 49216
" />
<path d="M48881 48216
L53381 48216
" />
<path d="M48881 51216
L48881 47216
" />
<path d="M53381 51216
L48881 51216
" />
<path d="M53381 47216
L53381 51216
" />
<path d="M48881 47216
L53381 47216
" />
<path d="M49381 35507
L48881 35507
" />
<path d="M49381 33507
L48881 33507
" />
<path d="M48881 32507
L49381 32507
" />
<path d="M48881 31507
L48881 32507
" />
<path d="M49381 31507
L48881 31507
" />
<path d="M52669 50885
L52691 50907
L52759 50930
L52804 50930
L52871 50907
L52916 50862
L52939 50817
L52961 50727
L52961 50660
L52939 50570
L52916 50525
L52871 50480
L52804 50457
L52759 50457
L52691 50480
L52669 50502
" />
<path d="M52489 50795
L52264 50795
" />
<path d="M52534 50930
L52376 50457
L52219 50930
" />
<path d="M52061 50930
L52061 50457
L51791 50930
L51791 50457
" />
<path d="M51566 50750
L51206 50750
" />
<path d="M50757 50930
L50982 50930
L50982 50457
" />
<path d="M52725 49885
L52748 49907
L52815 49930
L52860 49930
L52928 49907
L52973 49862
L52995 49817
L53017 49727
L53017 49660
L52995 49570
L52973 49525
L52928 49480
L52860 49457
L52815 49457
L52748 49480
L52725 49502
" />
<path d="M52545 49795
L52320 49795
" />
<path d="M52590 49930
L52433 49457
L52275 49930
" />
<path d="M52118 49930
L52118 49457
L51848 49930
L51848 49457
" />
<path d="M51623 49750
L51263 49750
" />
<path d="M51038 49930
L51038 49457
" />
<path d="M51038 49682
L50768 49682
" />
<path d="M50768 49930
L50768 49457
" />
<path d="M52241 47480
L52286 47457
L52354 47457
L52421 47480
L52466 47525
L52489 47570
L52511 47660
L52511 47727
L52489 47817
L52466 47862
L52421 47907
L52354 47930
L52309 47930
L52241 47907
L52219 47885
L52219 47727
L52309 47727
" />
<path d="M52016 47930
L52016 47457
L51746 47930
L51746 47457
" />
<path d="M51521 47930
L51521 47457
L51409 47457
L51341 47480
L51296 47525
L51274 47570
L51251 47660
L51251 47727
L51274 47817
L51296 47862
L51341 47907
L51409 47930
L51521 47930
" />
<path d="M52511 48457
L52354 48930
L52196 48457
" />
<path d="M51769 48885
L51791 48907
L51859 48930
L51904 48930
L51971 48907
L52016 48862
L52039 48817
L52061 48727
L52061 48660
L52039 48570
L52016 48525
L51971 48480
L51904 48457
L51859 48457
L51791 48480
L51769 48502
" />
<path d="M51296 48885
L51319 48907
L51386 48930
L51431 48930
L51499 48907
L51544 48862
L51566 48817
L51589 48727
L51589 48660
L51566 48570
L51544 48525
L51499 48480
L51431 48457
L51386 48457
L51319 48480
L51296 48502
" />
<path d="M50381 31507
L50381 35507
" />
<path d="M53381 35507
L53381 33507
" />
<path d="M49381 35507
L53381 35507
" />
<path d="M48881 33507
L48881 35507
" />
<path d="M53381 33507
L53381 32507
" />
<path d="M49381 33507
L53381 33507
" />
<path d="M48881 32507
L48881 33507
" />
<path d="M48881 32507
L48881 31507
" />
<path d="M53381 32507
L49381 32507
" />
<path d="M53381 31507
L53381 32507
" />
<path d="M49381 31507
L53381 31507
" />
<path d="M52253 35221
L52253 34749
L51983 35221
L51983 34749
" />
<path d="M51488 35176
L51510 35199
L51578 35221
L51623 35221
L51690 35199
L51735 35154
L51758 35109
L51780 35019
L51780 34951
L51758 34861
L51735 34816
L51690 34771
L51623 34749
L51578 34749
L51510 34771
L51488 34794
" />
<path d="M52253 34221
L52253 33749
L51983 34221
L51983 33749
" />
<path d="M51488 34176
L51510 34199
L51578 34221
L51623 34221
L51690 34199
L51735 34154
L51758 34109
L51780 34019
L51780 33951
L51758 33861
L51735 33816
L51690 33771
L51623 33749
L51578 33749
L51510 33771
L51488 33794
" />
<path d="M52511 32749
L52354 33221
L52196 32749
" />
<path d="M51769 33176
L51791 33199
L51859 33221
L51904 33221
L51971 33199
L52016 33154
L52039 33109
L52061 33019
L52061 32951
L52039 32861
L52016 32816
L51971 32771
L51904 32749
L51859 32749
L51791 32771
L51769 32794
" />
<path d="M51296 33176
L51319 33199
L51386 33221
L51431 33221
L51499 33199
L51544 33154
L51566 33109
L51589 33019
L51589 32951
L51566 32861
L51544 32816
L51499 32771
L51431 32749
L51386 32749
L51319 32771
L51296 32794
" />
<path d="M52241 31771
L52286 31749
L52354 31749
L52421 31771
L52466 31816
L52489 31861
L52511 31951
L52511 32019
L52489 32109
L52466 32154
L52421 32199
L52354 32221
L52309 32221
L52241 32199
L52219 32176
L52219 32019
L52309 32019
" />
<path d="M52016 32221
L52016 31749
L51746 32221
L51746 31749
" />
<path d="M51521 32221
L51521 31749
L51409 31749
L51341 31771
L51296 31816
L51274 31861
L51251 31951
L51251 32019
L51274 32109
L51296 32154
L51341 32199
L51409 32221
L51521 32221
" />
</g>
<g style="fill:#000000; fill-opacity:1.0; 
stroke:#000000; stroke-width:3.93701; stroke-opacity:1; 
stroke-linecap:round; stroke-linejoin:round;">
<polyline style="fill-rule:evenodd;"
points="58384,33559
58474,33554
58590,33545
58671,33534
58717,33519
58734,33500
58734,33498
58740,33487
58763,33478
58807,33473
58879,33470
58984,33469
59024,33469
59150,33471
59240,33475
59294,33483
59315,33495
59306,33511
59297,33517
59273,33523
59216,33533
59131,33547
59024,33563
58902,33581
58852,33589
58725,33607
58610,33624
58514,33639
58444,33650
58404,33658
58399,33659
58386,33679
58378,33731
58374,33817
58374,33859
58374,34049
59010,34049
59166,34049
59309,34048
59434,34046
59536,34044
59611,34041
59653,34038
59660,34036
59667,34010
59672,33957
59674,33896
59674,33769
59579,33771
59467,33776
59381,33788
59325,33806
59304,33828
59304,33829
59285,33843
59235,33854
59163,33862
59077,33867
58986,33869
58898,33867
58822,33862
58767,33853
58741,33840
58741,33839
58734,33808
58736,33800
58757,33795
58812,33786
58896,33772
59002,33756
59125,33737
59204,33726
59664,33659
59664,33279
58384,33279
58384,33559
" /> 
<polyline style="fill-rule:evenodd;"
points="60474,33499
60426,33583
60384,33651
60352,33697
60334,33715
60332,33715
60319,33691
60293,33639
60259,33568
60232,33509
60195,33428
60161,33358
60137,33310
60127,33294
60102,33284
60050,33275
59984,33270
59914,33268
59851,33270
59807,33276
59793,33284
59801,33306
59823,33359
59858,33436
59901,33533
59952,33644
59966,33674
60139,34049
60321,34049
60504,34049
60611,33859
60654,33782
60691,33721
60716,33681
60724,33669
60737,33685
60765,33729
60804,33793
60843,33859
60955,34049
61316,34049
61421,33824
61464,33731
61504,33645
61535,33576
61552,33534
61573,33493
61600,33475
61649,33469
61666,33469
61754,33469
61754,33268
61540,33274
61327,33279
61226,33504
61187,33589
61152,33656
61126,33700
61112,33715
61111,33714
61096,33692
61066,33642
61025,33571
60979,33489
60863,33279
60732,33273
60602,33268
60474,33499
" /> 
<polyline style="fill-rule:evenodd;"
points="62539,33274
61884,33279
61878,33664
61873,34049
63194,34049
63194,33469
62834,33469
62834,33656
62832,33739
62829,33806
62823,33848
62820,33856
62796,33861
62739,33864
62658,33866
62560,33865
62525,33865
62244,33859
62238,33664
62232,33469
62834,33469
63194,33469
63194,33269
62539,33274
" /> 
<polyline style="fill-rule:evenodd;"
points="63374,33592
63539,33578
63628,33570
63685,33562
63716,33553
63730,33538
63734,33516
63734,33508
63737,33491
63750,33480
63781,33473
63837,33470
63924,33469
63944,33469
64154,33469
64154,34049
64324,34049
64415,34047
64472,34041
64500,34029
64505,34022
64509,33992
64511,33931
64511,33847
64510,33749
64510,33733
64504,33471
64684,33459
64684,33279
64476,33274
64381,33272
64317,33273
64275,33279
64247,33291
64222,33310
64221,33312
64174,33356
64127,33313
64109,33297
64087,33286
64055,33278
64008,33273
63939,33271
63841,33269
63727,33269
63374,33269
63374,33592
" /> 
<polyline style="fill-rule:evenodd;"
points="65739,33270
65672,33273
65630,33280
65602,33293
65584,33309
65558,33335
65536,33335
65502,33312
65498,33309
65477,33294
65451,33284
65413,33277
65358,33273
65280,33270
65171,33269
65091,33269
64734,33269
64734,33595
64857,33582
64933,33575
65002,33570
65037,33569
65078,33563
65093,33538
65094,33519
65094,33469
65514,33469
65514,34049
65874,34049
65874,33469
66054,33469
66054,33269
65837,33269
65739,33270
" /> 
<polyline style="fill-rule:evenodd;"
points="66992,33034
66491,33039
66272,33539
66215,33671
66163,33789
66119,33891
66085,33970
66062,34023
66054,34044
66054,34044
66072,34046
66122,34048
66195,34049
66245,34049
66436,34049
66495,33919
66555,33788
66866,33794
67177,33799
67230,33924
67284,34049
67479,34049
67674,34049
67646,33984
67629,33945
67599,33876
67560,33786
67514,33681
67476,33593
67469,33578
67074,33578
67055,33582
67005,33586
66931,33589
66864,33589
66777,33588
66708,33583
66665,33577
66654,33571
66661,33546
66682,33493
66712,33423
66727,33391
66762,33314
66788,33266
66811,33241
66835,33231
66864,33229
66896,33231
66919,33242
66941,33268
66966,33317
67001,33396
67001,33398
67033,33473
67058,33534
67072,33571
67074,33578
67469,33578
67430,33487
67390,33393
67359,33318
67340,33267
67334,33248
67351,33236
67396,33230
67414,33229
67494,33229
67494,33029
66992,33034
" /> 
<polyline style="fill-rule:evenodd;"
points="55565,29097
55589,29149
55628,29232
55681,29344
55747,29481
55824,29643
55912,29826
56008,30028
56113,30246
56225,30478
56342,30721
56463,30974
56588,31233
56715,31497
56843,31762
56970,32026
57096,32288
57219,32543
57339,32791
57453,33028
57561,33252
57662,33461
57755,33651
57837,33822
57909,33969
57969,34092
58015,34186
58047,34251
58063,34283
58065,34286
58074,34275
58081,34256
58087,34230
58102,34169
58123,34076
58151,33955
58184,33809
58222,33642
58263,33458
58308,33261
58341,33113
58387,32909
58430,32717
58470,32540
58506,32383
58538,32247
58563,32138
58582,32058
58593,32011
58597,32000
58617,31996
58674,31988
58763,31977
58882,31963
59026,31945
59192,31925
59377,31904
59576,31880
59742,31861
59951,31837
60147,31814
60328,31793
60490,31774
60628,31757
60741,31743
60824,31733
60873,31726
60886,31724
60869,31715
60818,31688
60735,31646
60623,31589
60482,31519
60315,31435
60125,31340
59912,31233
59679,31117
59428,30992
59160,30858
58879,30718
58585,30572
58281,30421
58228,30395
57922,30243
57626,30096
57342,29955
57071,29821
56817,29695
56580,29578
56362,29471
56167,29374
55994,29290
55848,29218
55729,29160
55640,29117
55582,29090
55558,29079
55557,29079
55565,29097
" /> 
<polyline style="fill-rule:evenodd;"
points="66937,34245
66934,34259
66950,34286
66964,34289
66990,34273
66994,34259
66978,34233
66964,34229
66937,34245
" /> 
<polyline style="fill-rule:evenodd;"
points="62592,34356
62574,34377
62574,34379
62589,34401
62637,34409
62644,34409
62695,34403
62714,34382
62714,34379
62698,34357
62650,34349
62644,34349
62592,34356
" /> 
<polyline style="fill-rule:evenodd;"
points="55876,34565
55874,34579
55886,34607
55914,34602
55920,34596
55924,34572
55904,34551
55892,34549
55876,34565
" /> 
<polyline style="fill-rule:evenodd;"
points="60406,34355
60360,34376
60338,34419
60334,34479
60339,34537
60353,34579
60358,34585
60394,34600
60453,34608
60519,34608
60578,34600
60610,34585
60626,34547
60629,34524
60572,34524
60561,34543
60527,34549
60485,34549
60429,34548
60403,34538
60394,34511
60394,34478
60394,34407
60479,34413
60532,34419
60558,34434
60568,34467
60570,34484
60572,34524
60629,34524
60633,34488
60629,34427
60616,34381
60610,34373
60577,34359
60520,34351
60484,34349
60406,34355
" /> 
<polyline style="fill-rule:evenodd;"
points="63722,34355
63678,34379
63657,34425
63654,34479
63659,34537
63673,34579
63678,34585
63714,34600
63773,34608
63839,34608
63898,34600
63930,34585
63952,34541
63941,34496
63904,34457
63847,34433
63809,34429
63765,34438
63753,34459
63772,34481
63817,34493
63872,34505
63891,34523
63873,34540
63822,34549
63805,34549
63749,34548
63723,34538
63714,34512
63714,34479
63716,34436
63729,34416
63764,34410
63804,34409
63863,34405
63890,34392
63894,34379
63883,34360
63844,34351
63798,34349
63722,34355
" /> 
<polyline style="fill-rule:evenodd;"
points="65826,34355
65780,34376
65758,34419
65754,34479
65759,34537
65773,34579
65778,34585
65814,34600
65873,34608
65939,34608
65998,34600
66030,34585
66046,34547
66049,34524
65992,34524
65981,34543
65947,34549
65905,34549
65849,34548
65823,34538
65814,34511
65814,34478
65814,34407
65899,34413
65952,34419
65978,34434
65988,34467
65990,34484
65992,34524
66049,34524
66053,34488
66049,34427
66036,34381
66030,34373
65997,34359
65940,34351
65904,34349
65826,34355
" /> 
<polyline style="fill-rule:evenodd;"
points="56024,34356
55974,34379
55954,34420
55954,34432
55972,34482
56019,34517
56085,34529
56137,34520
56155,34500
56139,34479
56090,34466
56035,34453
56017,34436
56034,34419
56085,34410
56102,34409
56158,34411
56185,34420
56193,34447
56194,34479
56191,34526
56173,34545
56129,34549
56124,34549
56075,34554
56056,34571
56054,34589
56056,34620
56059,34626
56080,34622
56125,34615
56134,34614
56203,34598
56240,34567
56253,34512
56254,34496
56247,34419
56221,34374
56170,34353
56107,34349
56024,34356
" /> 
<polyline style="fill-rule:evenodd;"
points="56768,34356
56712,34380
56683,34426
56676,34499
56677,34522
56686,34586
56700,34611
56716,34598
56729,34548
56734,34515
56744,34419
56914,34407
56914,34518
56917,34590
56929,34625
56950,34625
56960,34616
56967,34590
56972,34537
56974,34476
56974,34349
56857,34349
56768,34356
" /> 
<polyline style="fill-rule:evenodd;"
points="57113,34354
57071,34365
57058,34373
57040,34413
57034,34472
57039,34533
57055,34579
57063,34589
57110,34609
57176,34616
57244,34611
57281,34599
57321,34564
57328,34522
57308,34479
57264,34446
57202,34430
57189,34429
57145,34438
57133,34459
57152,34481
57197,34493
57252,34505
57271,34523
57253,34540
57202,34549
57185,34549
57129,34548
57103,34538
57094,34512
57094,34480
57096,34437
57112,34416
57151,34408
57177,34405
57231,34396
57264,34380
57269,34374
57257,34359
57219,34351
57166,34349
57113,34354
" /> 
<polyline style="fill-rule:evenodd;"
points="57439,34356
57399,34382
57379,34433
57374,34516
57374,34517
57379,34574
57391,34613
57407,34627
57422,34608
57423,34606
57430,34570
57437,34513
57438,34499
57444,34448
57461,34424
57500,34415
57519,34413
57574,34401
57594,34378
57594,34378
57580,34359
57536,34350
57504,34349
57439,34356
" /> 
<polyline style="fill-rule:evenodd;"
points="57629,34236
57620,34261
57615,34311
57614,34392
57614,34418
57616,34523
57624,34590
57637,34621
57657,34619
57661,34615
57666,34591
57671,34536
57673,34461
57674,34416
57673,34326
57669,34270
57660,34240
57647,34230
57644,34229
57629,34236
" /> 
<polyline style="fill-rule:evenodd;"
points="57783,34352
57745,34360
57734,34377
57734,34378
57747,34397
57792,34409
57839,34413
57900,34418
57931,34428
57942,34448
57944,34479
57941,34514
57928,34533
57894,34541
57837,34545
57774,34551
57743,34562
57737,34581
57737,34583
57757,34606
57807,34616
57829,34617
57888,34617
57931,34614
57939,34612
57982,34581
58008,34525
58013,34457
57994,34391
57993,34388
57973,34365
57938,34354
57877,34349
57853,34349
57783,34352
" /> 
<polyline style="fill-rule:evenodd;"
points="58270,34357
58238,34373
58223,34406
58216,34461
58215,34521
58221,34572
58234,34599
58272,34610
58332,34615
58395,34615
58445,34608
58451,34606
58494,34576
58507,34536
58493,34494
58459,34457
58408,34434
58346,34432
58342,34432
58304,34448
58301,34469
58331,34486
58367,34493
58423,34503
58441,34519
58422,34534
58367,34545
58359,34545
58274,34552
58274,34480
58276,34435
58291,34415
58329,34409
58354,34409
58409,34404
58432,34388
58434,34379
58416,34361
58374,34350
58321,34349
58270,34357
" /> 
<polyline style="fill-rule:evenodd;"
points="58754,34352
58716,34364
58694,34388
58693,34391
58683,34444
58706,34490
58756,34520
58814,34529
58872,34521
58896,34503
58886,34483
58840,34467
58823,34465
58768,34455
58751,34439
58771,34423
58828,34413
58829,34413
58914,34407
58914,34478
58911,34525
58894,34545
58851,34549
58842,34549
58794,34553
58777,34569
58777,34583
58800,34608
58848,34619
58908,34613
58933,34606
58959,34588
58971,34554
58974,34494
58969,34432
58957,34385
58950,34373
58917,34360
58860,34351
58820,34349
58754,34352
" /> 
<polyline style="fill-rule:evenodd;"
points="59045,34352
59041,34361
59063,34384
59093,34410
59162,34469
59098,34535
59054,34583
59037,34610
59045,34621
59063,34623
59093,34609
59137,34575
59163,34550
59203,34506
59229,34473
59234,34462
59217,34433
59178,34399
59129,34368
59084,34352
59074,34351
59045,34352
" /> 
<polyline style="fill-rule:evenodd;"
points="59275,34232
59263,34244
59258,34274
59256,34329
59258,34415
59258,34423
59264,34527
59274,34594
59290,34625
59312,34623
59320,34616
59326,34592
59331,34536
59333,34460
59334,34416
59333,34329
59330,34274
59323,34244
59311,34232
59293,34229
59275,34232
" /> 
<polyline style="fill-rule:evenodd;"
points="59450,34357
59418,34373
59402,34409
59395,34467
59396,34529
59407,34577
59411,34585
59441,34602
59495,34614
59558,34617
59615,34611
59631,34606
59674,34576
59687,34536
59673,34494
59639,34457
59588,34434
59526,34432
59522,34432
59484,34448
59482,34469
59511,34487
59546,34493
59607,34505
59630,34522
59616,34539
59566,34549
59545,34549
59489,34548
59463,34538
59454,34512
59454,34479
59456,34434
59471,34415
59510,34409
59534,34409
59589,34404
59612,34388
59614,34379
59596,34361
59554,34350
59501,34349
59450,34357
" /> 
<polyline style="fill-rule:evenodd;"
points="59794,34359
59756,34380
59739,34417
59737,34476
59738,34503
59746,34574
59759,34608
59773,34605
59785,34565
59790,34514
59796,34452
59807,34420
59827,34410
59834,34409
59857,34416
59870,34441
59876,34496
59878,34514
59885,34582
59900,34615
59912,34619
59930,34606
59940,34562
59942,34519
59945,34460
59954,34429
59976,34416
59998,34413
60029,34412
60046,34424
60054,34460
60058,34511
60067,34576
60083,34617
60103,34630
60122,34609
60125,34604
60130,34568
60131,34509
60130,34467
60124,34359
59957,34353
59859,34352
59794,34359
" /> 
<polyline style="fill-rule:evenodd;"
points="60800,34267
60794,34299
60787,34335
60760,34348
60734,34349
60686,34358
60674,34379
60692,34403
60734,34409
60769,34411
60787,34425
60793,34460
60794,34508
60799,34579
60813,34618
60834,34621
60841,34615
60848,34589
60853,34538
60854,34506
60856,34447
60865,34418
60886,34410
60894,34409
60926,34397
60934,34379
60917,34355
60894,34349
60862,34338
60854,34299
60843,34259
60824,34249
60800,34267
" /> 
<polyline style="fill-rule:evenodd;"
points="61190,34353
61160,34364
61154,34379
61166,34399
61207,34409
61249,34412
61344,34415
61247,34428
61187,34442
61143,34461
61133,34470
61115,34526
61131,34576
61142,34588
61176,34601
61231,34611
61293,34616
61348,34615
61383,34608
61387,34604
61388,34576
61353,34557
61283,34549
61271,34549
61206,34543
61178,34528
61188,34511
61236,34497
61269,34493
61342,34479
61380,34449
61381,34406
61374,34391
61352,34365
61313,34352
61253,34349
61190,34353
" /> 
<polyline style="fill-rule:evenodd;"
points="61451,34354
61439,34373
61434,34417
61434,34468
61437,34536
61447,34584
61456,34601
61496,34612
61557,34617
61622,34615
61673,34606
61675,34605
61716,34570
61744,34504
61754,34418
61754,34418
61749,34370
61731,34351
61714,34349
61690,34355
61678,34377
61674,34426
61674,34449
61674,34549
61514,34549
61514,34449
61512,34389
61503,34359
61483,34350
61474,34349
61451,34354
" /> 
<polyline style="fill-rule:evenodd;"
points="62007,34350
61959,34358
61935,34374
61934,34379
61945,34399
61986,34408
62024,34409
62114,34409
62114,34508
62119,34579
62133,34618
62154,34621
62161,34615
62171,34585
62174,34531
62171,34467
62164,34410
62151,34375
62150,34373
62115,34357
62063,34349
62007,34350
" /> 
<polyline style="fill-rule:evenodd;"
points="62320,34354
62272,34365
62258,34373
62241,34410
62235,34467
62237,34527
62250,34573
62259,34585
62304,34603
62370,34612
62438,34611
62489,34598
62495,34594
62520,34556
62533,34497
62533,34479
62474,34479
62472,34522
62459,34543
62424,34549
62384,34549
62328,34548
62302,34538
62294,34510
62294,34479
62296,34436
62309,34416
62344,34410
62384,34409
62439,34411
62465,34421
62473,34448
62474,34479
62533,34479
62533,34433
62517,34383
62510,34373
62477,34359
62420,34351
62384,34349
62320,34354
" /> 
<polyline style="fill-rule:evenodd;"
points="62647,34230
62599,34238
62575,34254
62574,34259
62585,34279
62626,34288
62664,34289
62754,34289
62754,34448
62757,34545
62767,34604
62783,34624
62801,34615
62809,34587
62814,34530
62814,34458
62811,34382
62805,34315
62796,34267
62790,34253
62755,34237
62703,34229
62647,34230
" /> 
<polyline style="fill-rule:evenodd;"
points="63103,34354
63053,34365
63038,34373
63016,34418
63020,34469
63049,34507
63052,34509
63103,34526
63156,34529
63197,34520
63214,34499
63198,34477
63150,34469
63144,34469
63093,34463
63074,34443
63074,34438
63083,34418
63116,34412
63159,34413
63212,34420
63238,34435
63248,34467
63250,34483
63251,34525
63236,34544
63194,34552
63180,34553
63124,34565
63104,34587
63104,34588
63121,34608
63163,34619
63216,34617
63237,34613
63281,34581
63308,34524
63313,34456
63294,34389
63293,34388
63271,34364
63232,34352
63167,34349
63103,34354
" /> 
<polyline style="fill-rule:evenodd;"
points="63474,34278
63470,34293
63452,34331
63409,34346
63364,34361
63354,34384
63376,34404
63414,34409
63449,34411
63467,34425
63473,34460
63474,34508
63479,34579
63493,34618
63514,34621
63521,34615
63528,34589
63533,34538
63534,34506
63536,34447
63545,34418
63566,34410
63574,34409
63606,34397
63614,34379
63597,34355
63575,34349
63540,34332
63530,34306
63515,34266
63492,34256
63474,34278
" /> 
<polyline style="fill-rule:evenodd;"
points="64048,34237
64039,34265
64034,34321
64034,34382
64032,34465
64025,34518
64011,34549
63999,34561
63977,34589
63988,34610
64022,34615
64049,34608
64070,34597
64083,34578
64090,34544
64093,34484
64094,34410
64093,34322
64088,34267
64080,34238
64066,34229
64064,34229
64048,34237
" /> 
<polyline style="fill-rule:evenodd;"
points="64352,34361
64334,34369
64315,34400
64305,34455
64304,34516
64314,34568
64326,34589
64359,34604
64415,34614
64477,34618
64529,34614
64537,34612
64580,34581
64607,34527
64614,34463
64612,34455
64550,34455
64550,34509
64522,34539
64461,34549
64454,34549
64403,34547
64380,34534
64374,34500
64374,34478
64374,34407
64459,34413
64517,34423
64545,34442
64550,34455
64612,34455
64599,34404
64582,34381
64542,34361
64479,34351
64410,34350
64352,34361
" /> 
<polyline style="fill-rule:evenodd;"
points="64735,34351
64700,34361
64681,34383
64673,34401
64655,34486
64668,34557
64679,34576
64716,34600
64777,34614
64845,34618
64906,34608
64911,34606
64945,34575
64964,34520
64966,34479
64894,34479
64891,34524
64876,34544
64837,34549
64814,34549
64762,34547
64740,34534
64734,34500
64734,34479
64736,34434
64751,34415
64790,34409
64814,34409
64865,34411
64888,34424
64893,34459
64894,34479
64966,34479
64967,34457
64954,34400
64926,34365
64894,34356
64838,34351
64798,34350
64735,34351
" /> 
<polyline style="fill-rule:evenodd;"
points="65121,34289
65117,34306
65099,34341
65062,34349
65023,34360
65014,34379
65031,34403
65063,34409
65092,34413
65107,34431
65115,34472
65118,34513
65127,34585
65142,34623
65157,34623
65169,34587
65174,34521
65175,34457
65182,34424
65198,34411
65224,34409
65263,34398
65273,34374
65251,34352
65229,34346
65188,34323
65177,34293
65162,34260
65140,34259
65121,34289
" /> 
<polyline style="fill-rule:evenodd;"
points="65564,34282
65557,34304
65539,34340
65502,34349
65463,34360
65454,34379
65471,34403
65503,34409
65532,34413
65547,34431
65555,34472
65558,34513
65566,34577
65580,34617
65589,34624
65613,34622
65615,34616
65616,34587
65615,34534
65614,34504
65614,34447
65621,34419
65643,34410
65662,34409
65703,34398
65713,34375
65692,34352
65669,34346
65631,34326
65624,34299
65612,34267
65587,34261
65564,34282
" /> 
<polyline style="fill-rule:evenodd;"
points="66206,34355
66153,34374
66124,34418
66114,34493
66114,34522
66119,34592
66132,34624
66149,34618
66165,34576
66174,34518
66184,34419
66354,34407
66354,34507
66358,34570
66370,34612
66386,34626
66403,34607
66405,34603
66410,34568
66411,34509
66410,34467
66404,34359
66291,34353
66206,34355
" /> 
<polyline style="fill-rule:evenodd;"
points="66647,34358
66634,34372
66634,34378
66645,34398
66683,34409
66729,34412
66824,34414
66744,34427
66686,34440
66644,34453
66639,34456
66619,34487
66614,34534
66623,34579
66643,34602
66679,34609
66734,34614
66794,34617
66842,34616
66865,34611
66873,34586
66874,34576
66859,34558
66810,34550
66772,34549
66706,34544
66678,34529
66687,34512
66733,34496
66775,34489
66830,34481
66856,34466
66863,34437
66864,34419
66862,34385
66849,34367
66817,34358
66756,34354
66749,34353
66682,34352
66647,34358
" /> 
<polyline style="fill-rule:evenodd;"
points="66947,34358
66937,34389
66934,34450
66934,34478
66938,34564
66950,34613
66969,34623
66981,34615
66988,34590
66992,34537
66994,34476
66992,34404
66984,34365
66969,34350
66964,34349
66947,34358
" /> 
<polyline style="fill-rule:evenodd;"
points="67320,34267
67314,34299
67307,34335
67280,34348
67254,34349
67206,34358
67194,34379
67212,34403
67254,34409
67289,34411
67307,34425
67313,34460
67314,34508
67319,34579
67333,34618
67354,34621
67361,34615
67368,34589
67373,34538
67374,34506
67376,34447
67385,34418
67406,34410
67414,34409
67446,34397
67454,34379
67437,34355
67414,34349
67382,34338
67374,34299
67363,34259
67344,34249
67320,34267
" /> 
<polyline style="fill-rule:evenodd;"
points="67529,34256
67520,34282
67515,34333
67514,34417
67514,34428
67516,34530
67525,34595
67539,34623
67560,34616
67561,34615
67567,34591
67571,34536
67573,34461
67574,34426
67572,34339
67568,34285
67559,34258
67545,34249
67544,34249
67529,34256
" /> 
<polyline style="fill-rule:evenodd;"
points="56400,34354
56352,34365
56338,34373
56325,34406
56316,34470
56314,34539
56317,34620
56326,34679
56338,34705
56373,34723
56423,34730
56472,34726
56506,34713
56514,34699
56498,34677
56450,34669
56444,34669
56374,34669
56374,34407
56459,34413
56512,34420
56538,34435
56548,34467
56550,34483
56551,34525
56536,34544
56494,34552
56480,34553
56423,34565
56404,34588
56404,34589
56421,34608
56462,34616
56514,34614
56563,34601
56585,34588
56604,34552
56613,34494
56611,34432
56597,34384
56590,34373
56557,34359
56500,34351
56464,34349
56400,34354
" /> 
</g> 
</svg>
